<?xml version="1.0" encoding="UTF-8" standalone="no"?>
<svg
   xmlns:dc="http://purl.org/dc/elements/1.1/"
   xmlns:cc="http://creativecommons.org/ns#"
   xmlns:rdf="http://www.w3.org/1999/02/22-rdf-syntax-ns#"
   xmlns:svg="http://www.w3.org/2000/svg"
   xmlns="http://www.w3.org/2000/svg"
   xmlns:sodipodi="http://sodipodi.sourceforge.net/DTD/sodipodi-0.dtd"
   xmlns:inkscape="http://www.inkscape.org/namespaces/inkscape"
   version="1.1"
   viewBox="0.0 0.0 521.0 276.0"
   fill="none"
   stroke="none"
   stroke-linecap="square"
   stroke-miterlimit="10"
   id="svg2"
   inkscape:version="0.48.4 r9939"
   width="100%"
   height="100%"
   sodipodi:docname="060-single-node.svg">
  <metadata
     id="metadata51">
    <rdf:RDF>
      <cc:Work
         rdf:about="">
        <dc:format>image/svg+xml</dc:format>
        <dc:type
           rdf:resource="http://purl.org/dc/dcmitype/StillImage" />
      </cc:Work>
    </rdf:RDF>
  </metadata>
  <defs
     id="defs49" />
  <sodipodi:namedview
     pagecolor="#ffffff"
     bordercolor="#666666"
     borderopacity="1"
     objecttolerance="10"
     gridtolerance="10"
     guidetolerance="10"
     inkscape:pageopacity="0"
     inkscape:pageshadow="2"
     inkscape:window-width="1920"
     inkscape:window-height="1061"
     id="namedview47"
     showgrid="true"
     showguides="false"
     inkscape:zoom="2.1957773"
     inkscape:cx="352.04791"
     inkscape:cy="137.87906"
     inkscape:window-x="1362"
     inkscape:window-y="-4"
     inkscape:window-maximized="1"
     inkscape:current-layer="g7">
    <inkscape:grid
       type="xygrid"
       id="grid3032" />
  </sodipodi:namedview>
  <clipPath
     id="p.0">
    <path
       d="m0 0l521.0 0l0 276.0l-521.0 0l0 -276.0z"
       clip-rule="nonzero"
       id="path5" />
  </clipPath>
  <g
     clip-path="url(#p.0)"
     id="g7">
    <path
       fill="#000000"
       fill-opacity="0.0"
       d="m0 0l521.32544 0l0 276.02887l-521.32544 0z"
       fill-rule="nonzero"
       id="path9" />
    <path
       fill="#f3f3f3"
       d="m5.32021 51.473316l0 0c0 -24.138662 19.56825 -43.706913 43.706913 -43.706913l421.78305 0c11.591766 0 22.708801 4.604822 30.905426 12.801457c8.196655 8.196636 12.801483 19.313662 12.801483 30.905455l0 174.8224c0 24.138657 -19.568268 43.70691 -43.70691 43.70691l-421.78305 0c-24.138662 0 -43.706913 -19.568253 -43.706913 -43.70691z"
       fill-rule="nonzero"
       id="path11" />
    <path
       stroke="#000000"
       stroke-width="2.0"
       stroke-linejoin="round"
       stroke-linecap="butt"
       d="m5.32021 51.473316l0 0c0 -24.138662 19.56825 -43.706913 43.706913 -43.706913l421.78305 0c11.591766 0 22.708801 4.604822 30.905426 12.801457c8.196655 8.196636 12.801483 19.313662 12.801483 30.905455l0 174.8224c0 24.138657 -19.568268 43.70691 -43.70691 43.70691l-421.78305 0c-24.138662 0 -43.706913 -19.568253 -43.706913 -43.70691z"
       fill-rule="nonzero"
       id="path13" />
    <path
       fill="#fce5cd"
       d="m177.58792 81.133965l0 0c0 -2.8904953 2.343216 -5.2337036 5.2337036 -5.2337036l154.19403 0c1.3880615 0 2.7192688 0.55140686 3.7007751 1.5329132c0.98150635 0.981514 1.5329285 2.3127213 1.5329285 3.7007904l0 20.934174c0 2.8904877 -2.3432007 5.233696 -5.2337036 5.233696l-154.19403 0l0 0c-2.8904877 0 -5.2337036 -2.3432083 -5.2337036 -5.233696z"
       fill-rule="nonzero"
       id="path17" />
    <path
       stroke="#000000"
       stroke-width="2.0"
       stroke-linejoin="round"
       stroke-linecap="butt"
       d="m177.58792 81.133965l0 0c0 -2.8904953 2.343216 -5.2337036 5.2337036 -5.2337036l154.19403 0c1.3880615 0 2.7192688 0.55140686 3.7007751 1.5329132c0.98150635 0.981514 1.5329285 2.3127213 1.5329285 3.7007904l0 20.934174c0 2.8904877 -2.3432007 5.233696 -5.2337036 5.233696l-154.19403 0l0 0c-2.8904877 0 -5.2337036 -2.3432083 -5.2337036 -5.233696z"
       fill-rule="nonzero"
       id="path19" />
    <path
       fill="#fce5cd"
       d="m177.58792 117.87412l0 0c0 -2.8904953 2.343216 -5.2337036 5.2337036 -5.2337036l154.19403 0c1.3880615 0 2.7192688 0.55140686 3.7007751 1.5329132c0.98150635 0.981514 1.5329285 2.3127213 1.5329285 3.7007904l0 20.934166c0 2.890503 -2.3432007 5.2337036 -5.2337036 5.2337036l-154.19403 0l0 0c-2.8904877 0 -5.2337036 -2.3432007 -5.2337036 -5.2337036z"
       fill-rule="nonzero"
       id="path23" />
    <path
       stroke="#000000"
       stroke-width="2.0"
       stroke-linejoin="round"
       stroke-linecap="butt"
       d="m177.58792 117.87412l0 0c0 -2.8904953 2.343216 -5.2337036 5.2337036 -5.2337036l154.19403 0c1.3880615 0 2.7192688 0.55140686 3.7007751 1.5329132c0.98150635 0.981514 1.5329285 2.3127213 1.5329285 3.7007904l0 20.934166c0 2.890503 -2.3432007 5.2337036 -5.2337036 5.2337036l-154.19403 0l0 0c-2.8904877 0 -5.2337036 -2.3432007 -5.2337036 -5.2337036z"
       fill-rule="nonzero"
       id="path25" />
    <path
       fill="#fce5cd"
       d="m177.58792 155.06572l0 0c0 -2.8904877 2.343216 -5.2337036 5.2337036 -5.2337036l154.19403 0c1.3880615 0 2.7192688 0.55140686 3.7007751 1.5329132c0.98150635 0.9815216 1.5329285 2.312729 1.5329285 3.7007904l0 20.934174c0 2.8904877 -2.3432007 5.2337036 -5.2337036 5.2337036l-154.19403 0l0 0c-2.8904877 0 -5.2337036 -2.343216 -5.2337036 -5.2337036z"
       fill-rule="nonzero"
       id="path29" />
    <path
       stroke="#000000"
       stroke-width="2.0"
       stroke-linejoin="round"
       stroke-linecap="butt"
       d="m177.58792 155.06572l0 0c0 -2.8904877 2.343216 -5.2337036 5.2337036 -5.2337036l154.19403 0c1.3880615 0 2.7192688 0.55140686 3.7007751 1.5329132c0.98150635 0.9815216 1.5329285 2.312729 1.5329285 3.7007904l0 20.934174c0 2.8904877 -2.3432007 5.2337036 -5.2337036 5.2337036l-154.19403 0l0 0c-2.8904877 0 -5.2337036 -2.343216 -5.2337036 -5.2337036z"
       fill-rule="nonzero"
       id="path31" />
    <path
       fill="#fce5cd"
       d="m177.58792 190.95811l0 0c0 -2.890503 2.343216 -5.2337036 5.2337036 -5.2337036l154.19403 0c1.3880615 0 2.7192688 0.55140686 3.7007751 1.5329132c0.98150635 0.98150635 1.5329285 2.312729 1.5329285 3.7007904l0 20.934174c0 2.8904877 -2.3432007 5.2336884 -5.2337036 5.2336884l-154.19403 0l0 0c-2.8904877 0 -5.2337036 -2.3432007 -5.2337036 -5.2336884z"
       fill-rule="nonzero"
       id="path35" />
    <path
       stroke="#000000"
       stroke-width="2.0"
       stroke-linejoin="round"
       stroke-linecap="butt"
       d="m177.58792 190.95811l0 0c0 -2.890503 2.343216 -5.2337036 5.2337036 -5.2337036l154.19403 0c1.3880615 0 2.7192688 0.55140686 3.7007751 1.5329132c0.98150635 0.98150635 1.5329285 2.312729 1.5329285 3.7007904l0 20.934174c0 2.8904877 -2.3432007 5.2336884 -5.2337036 5.2336884l-154.19403 0l0 0c-2.8904877 0 -5.2337036 -2.3432007 -5.2337036 -5.2336884z"
       fill-rule="nonzero"
       id="path37" />
    <path
       fill="#fce5cd"
       d="m177.58792 230.95811l0 0c0 -2.890503 2.343216 -5.2337036 5.2337036 -5.2337036l154.19403 0c1.3880615 0 2.7192688 0.55140686 3.7007751 1.5329132c0.98150635 0.98150635 1.5329285 2.312729 1.5329285 3.7007904l0 20.934174c0 2.8904877 -2.3432007 5.2336884 -5.2337036 5.2336884l-154.19403 0l0 0c-2.8904877 0 -5.2337036 -2.3432007 -5.2337036 -5.2336884z"
       fill-rule="nonzero"
       id="path41" />
    <path
       stroke="#000000"
       stroke-width="2.0"
       stroke-linejoin="round"
       stroke-linecap="butt"
       d="m177.58792 230.95811l0 0c0 -2.890503 2.343216 -5.2337036 5.2337036 -5.2337036l154.19403 0c1.3880615 0 2.7192688 0.55140686 3.7007751 1.5329132c0.98150635 0.98150635 1.5329285 2.312729 1.5329285 3.7007904l0 20.934174c0 2.8904877 -2.3432007 5.2336884 -5.2337036 5.2336884l-154.19403 0l0 0c-2.8904877 0 -5.2337036 -2.3432007 -5.2337036 -5.2336884z"
       fill-rule="nonzero"
       id="path43" />
    <text
       xml:space="preserve"
       style="font-size:16px;font-style:normal;font-weight:normal;text-align:center;line-height:125%;letter-spacing:0px;word-spacing:0px;text-anchor:middle;fill:#000000;fill-opacity:1;stroke:none;font-family:Sans"
       x="260"
       y="36"
       id="text3028"
       sodipodi:linespacing="125%"><tspan
         sodipodi:role="line"
         id="tspan3030"
         x="260"
         y="36"
         style="font-size:20px">Node</tspan></text>
    <text
       xml:space="preserve"
       style="font-size:16px;font-style:normal;font-weight:normal;text-align:center;line-height:125%;letter-spacing:0px;word-spacing:0px;text-anchor:middle;fill:#000000;fill-opacity:1;stroke:none;font-family:Sans"
       x="260"
       y="96"
       id="text3034"
       sodipodi:linespacing="125%"><tspan
         sodipodi:role="line"
         id="tspan3036"
         x="260"
         y="96">Controller</tspan></text>
    <text
       xml:space="preserve"
       style="font-size:16px;font-style:normal;font-weight:normal;text-align:center;line-height:125%;letter-spacing:0px;word-spacing:0px;text-anchor:middle;fill:#000000;fill-opacity:1;stroke:none;font-family:Sans"
       x="260"
       y="131"
       id="text3038"
       sodipodi:linespacing="125%"><tspan
         sodipodi:role="line"
         id="tspan3040"
         x="260"
         y="131">Storage</tspan></text>
    <text
       xml:space="preserve"
       style="font-size:16px;font-style:normal;font-weight:normal;text-align:center;line-height:125%;letter-spacing:0px;word-spacing:0px;text-anchor:middle;fill:#000000;fill-opacity:1;stroke:none;font-family:Sans"
       x="260.04459"
       y="169.88724"
       id="text3042"
       sodipodi:linespacing="125%"><tspan
         sodipodi:role="line"
         id="tspan3044"
         x="260.04459"
         y="169.88724">Compute</tspan></text>
    <text
       xml:space="preserve"
       style="font-size:16px;font-style:normal;font-weight:normal;text-align:center;line-height:125%;letter-spacing:0px;word-spacing:0px;text-anchor:middle;fill:#000000;fill-opacity:1;stroke:none;font-family:Sans"
       x="260"
       y="206"
       id="text3046"
       sodipodi:linespacing="125%"><tspan
         sodipodi:role="line"
         id="tspan3048"
         x="260"
         y="206">Neutrino</tspan></text>
    <text
       xml:space="preserve"
       style="font-size:16px;font-style:normal;font-weight:normal;text-align:center;line-height:125%;letter-spacing:0px;word-spacing:0px;text-anchor:middle;fill:#000000;fill-opacity:1;stroke:none;font-family:Sans"
       x="260"
       y="246"
       id="text3050"
       sodipodi:linespacing="125%"><tspan
         sodipodi:role="line"
         id="tspan3052"
         x="260"
         y="246">Cinder</tspan></text>
  </g>
</svg>
