<?xml version="1.0" encoding="UTF-8" standalone="no"?>
<svg
   xmlns:dc="http://purl.org/dc/elements/1.1/"
   xmlns:cc="http://creativecommons.org/ns#"
   xmlns:rdf="http://www.w3.org/1999/02/22-rdf-syntax-ns#"
   xmlns:svg="http://www.w3.org/2000/svg"
   xmlns="http://www.w3.org/2000/svg"
   xmlns:sodipodi="http://sodipodi.sourceforge.net/DTD/sodipodi-0.dtd"
   xmlns:inkscape="http://www.inkscape.org/namespaces/inkscape"
   version="1.1"
   viewBox="0.0 0.0 766.0 412.0"
   fill="none"
   stroke="none"
   stroke-linecap="square"
   stroke-miterlimit="10"
   id="svg2"
   inkscape:version="0.48.4 r9939"
   width="100%"
   height="100%"
   sodipodi:docname="060-deployment-compact-w_quantum.svg">
  <metadata
     id="metadata103">
    <rdf:RDF>
      <cc:Work
         rdf:about="">
        <dc:format>image/svg+xml</dc:format>
        <dc:type
           rdf:resource="http://purl.org/dc/dcmitype/StillImage" />
      </cc:Work>
    </rdf:RDF>
  </metadata>
  <defs
     id="defs101" />
  <sodipodi:namedview
     pagecolor="#ffffff"
     bordercolor="#666666"
     borderopacity="1"
     objecttolerance="10"
     gridtolerance="10"
     guidetolerance="10"
     inkscape:pageopacity="0"
     inkscape:pageshadow="2"
     inkscape:window-width="1920"
     inkscape:window-height="1061"
     id="namedview99"
     showgrid="true"
     showguides="false"
     inkscape:snap-global="false"
     inkscape:zoom="2.1120892"
     inkscape:cx="402.59669"
     inkscape:cy="204.48824"
     inkscape:window-x="1362"
     inkscape:window-y="-4"
     inkscape:window-maximized="1"
     inkscape:current-layer="g7">
    <inkscape:grid
       type="xygrid"
       id="grid3118" />
  </sodipodi:namedview>
  <clipPath
     id="p.0">
    <path
       d="m0 0l766.0 0l0 412.0l-766.0 0l0 -412.0z"
       clip-rule="nonzero"
       id="path5" />
  </clipPath>
  <g
     clip-path="url(#p.0)"
     id="g7">
    <path
       fill="#000000"
       fill-opacity="0.0"
       d="m0 0l766.8714 0l0 412.93176l-766.8714 0z"
       fill-rule="nonzero"
       id="path9" />
    <path
       fill="#f3f3f3"
       d="m24.945854 253.45992l0 0c0 -16.270264 13.189648 -29.459915 29.459908 -29.459915l175.09592 0c7.813263 0 15.306503 3.1038055 20.831314 8.628601c5.5247955 5.524811 8.628586 13.018051 8.628586 20.831314l0 117.836075c0 16.270264 -13.189636 29.45993 -29.4599 29.45993l-175.09592 0l0 0c-16.27026 0 -29.459908 -13.189667 -29.459908 -29.45993z"
       fill-rule="nonzero"
       id="path11" />
    <path
       stroke="#000000"
       stroke-width="2.0"
       stroke-linejoin="round"
       stroke-linecap="butt"
       d="m24.945854 253.45992l0 0c0 -16.270264 13.189648 -29.459915 29.459908 -29.459915l175.09592 0c7.813263 0 15.306503 3.1038055 20.831314 8.628601c5.5247955 5.524811 8.628586 13.018051 8.628586 20.831314l0 117.836075c0 16.270264 -13.189636 29.45993 -29.4599 29.45993l-175.09592 0l0 0c-16.27026 0 -29.459908 -13.189667 -29.459908 -29.45993z"
       fill-rule="nonzero"
       id="path13" />
    <path
       fill="#f3f3f3"
       d="m10.961601 37.192184l0 0c0 -16.122398 13.069786 -29.192184 29.192184 -29.192184l175.63138 0c7.7422485 0 15.167389 3.0755968 20.641998 8.550194c5.474594 5.474596 8.550186 12.899742 8.550186 20.64199l0 116.76524c0 16.12239 -13.069794 29.192184 -29.192184 29.192184l-175.63138 0l0 0c-16.122398 0 -29.192184 -13.069794 -29.192184 -29.192184z"
       fill-rule="nonzero"
       id="path15" />
    <path
       stroke="#000000"
       stroke-width="2.0"
       stroke-linejoin="round"
       stroke-linecap="butt"
       d="m10.961601 37.192184l0 0c0 -16.122398 13.069786 -29.192184 29.192184 -29.192184l175.63138 0c7.7422485 0 15.167389 3.0755968 20.641998 8.550194c5.474594 5.474596 8.550186 12.899742 8.550186 20.64199l0 116.76524c0 16.12239 -13.069794 29.192184 -29.192184 29.192184l-175.63138 0l0 0c-16.122398 0 -29.192184 -13.069794 -29.192184 -29.192184z"
       fill-rule="nonzero"
       id="path17" />
    <path
       fill="#fce5cd"
       d="m43.623013 58.72714l0 0c0 -2.8904915 2.3432045 -5.2337 5.2337 -5.2337l154.19403 0c1.3880615 0 2.719284 0.55140686 3.7007904 1.5329132c0.98150635 0.98151016 1.5329132 2.3127213 1.5329132 3.7007866l0 20.93417c0 2.8904953 -2.343216 5.2337036 -5.2337036 5.2337036l-154.19403 0l0 0c-2.8904953 0 -5.2337 -2.3432083 -5.2337 -5.2337036z"
       fill-rule="nonzero"
       id="path21" />
    <path
       stroke="#000000"
       stroke-width="2.0"
       stroke-linejoin="round"
       stroke-linecap="butt"
       d="m43.623013 58.72714l0 0c0 -2.8904915 2.3432045 -5.2337 5.2337 -5.2337l154.19403 0c1.3880615 0 2.719284 0.55140686 3.7007904 1.5329132c0.98150635 0.98151016 1.5329132 2.3127213 1.5329132 3.7007866l0 20.93417c0 2.8904953 -2.343216 5.2337036 -5.2337036 5.2337036l-154.19403 0l0 0c-2.8904953 0 -5.2337 -2.3432083 -5.2337 -5.2337036z"
       fill-rule="nonzero"
       id="path23" />
    <path
       fill="#fce5cd"
       d="m43.623013 100.887245l0 0c0 -2.8904953 2.3432045 -5.2337036 5.2337 -5.2337036l154.19403 0c1.3880615 0 2.719284 0.55140686 3.7007904 1.5329208c0.98150635 0.98150635 1.5329132 2.3127213 1.5329132 3.7007828l0 20.934174c0 2.8904877 -2.343216 5.233696 -5.2337036 5.233696l-154.19403 0l0 0c-2.8904953 0 -5.2337 -2.3432083 -5.2337 -5.233696z"
       fill-rule="nonzero"
       id="path27" />
    <path
       stroke="#000000"
       stroke-width="2.0"
       stroke-linejoin="round"
       stroke-linecap="butt"
       d="m43.623013 100.887245l0 0c0 -2.8904953 2.3432045 -5.2337036 5.2337 -5.2337036l154.19403 0c1.3880615 0 2.719284 0.55140686 3.7007904 1.5329208c0.98150635 0.98150635 1.5329132 2.3127213 1.5329132 3.7007828l0 20.934174c0 2.8904877 -2.343216 5.233696 -5.2337036 5.233696l-154.19403 0l0 0c-2.8904953 0 -5.2337 -2.3432083 -5.2337 -5.233696z"
       fill-rule="nonzero"
       id="path29" />
    <path
       fill="#f3f3f3"
       d="m8.945853 237.45992l0 0c0 -16.270264 13.189651 -29.459915 29.459908 -29.459915l175.09592 0c7.813263 0 15.306503 3.1038055 20.831314 8.628601c5.5247955 5.524811 8.628601 13.018051 8.628601 20.831314l0 117.836075c0 16.270264 -13.1896515 29.45993 -29.459915 29.45993l-175.09592 0l0 0c-16.270258 0 -29.459908 -13.189667 -29.459908 -29.45993z"
       fill-rule="nonzero"
       id="path33" />
    <path
       stroke="#000000"
       stroke-width="2.0"
       stroke-linejoin="round"
       stroke-linecap="butt"
       d="m8.945853 237.45992l0 0c0 -16.270264 13.189651 -29.459915 29.459908 -29.459915l175.09592 0c7.813263 0 15.306503 3.1038055 20.831314 8.628601c5.5247955 5.524811 8.628601 13.018051 8.628601 20.831314l0 117.836075c0 16.270264 -13.1896515 29.45993 -29.459915 29.45993l-175.09592 0l0 0c-16.270258 0 -29.459908 -13.189667 -29.459908 -29.45993z"
       fill-rule="nonzero"
       id="path35" />
    <path
       fill="#fce5cd"
       d="m42.82309 268.63528l0 0c0 -2.890503 2.3432045 -5.2337036 5.2337 -5.2337036l154.19402 0c1.3880768 0 2.719284 0.5513916 3.7007904 1.532898c0.98150635 0.98150635 1.5329132 2.3127441 1.5329132 3.7008057l0 20.934174c0 2.8904724 -2.3432007 5.2337036 -5.2337036 5.2337036l-154.19402 0l0 0c-2.8904953 0 -5.2337 -2.3432312 -5.2337 -5.2337036z"
       fill-rule="nonzero"
       id="path39" />
    <path
       stroke="#000000"
       stroke-width="2.0"
       stroke-linejoin="round"
       stroke-linecap="butt"
       d="m42.82309 268.63528l0 0c0 -2.890503 2.3432045 -5.2337036 5.2337 -5.2337036l154.19402 0c1.3880768 0 2.719284 0.5513916 3.7007904 1.532898c0.98150635 0.98150635 1.5329132 2.3127441 1.5329132 3.7008057l0 20.934174c0 2.8904724 -2.3432007 5.2337036 -5.2337036 5.2337036l-154.19402 0l0 0c-2.8904953 0 -5.2337 -2.3432312 -5.2337 -5.2337036z"
       fill-rule="nonzero"
       id="path41" />
    <path
       fill="#f3f3f3"
       d="m266.9616 38.04258l0 0c0 -16.1224 13.069763 -29.192186 29.19217 -29.192186l175.63138 0c7.7422485 0 15.167389 3.0755968 20.641998 8.550194c5.474579 5.474596 8.550171 12.899744 8.550171 20.641993l0 116.765236c0 16.122406 -13.069794 29.192184 -29.19217 29.192184l-175.63138 0l0 0c-16.122406 0 -29.19217 -13.069778 -29.19217 -29.192184z"
       fill-rule="nonzero"
       id="path45" />
    <path
       stroke="#000000"
       stroke-width="2.0"
       stroke-linejoin="round"
       stroke-linecap="butt"
       d="m266.9616 38.04258l0 0c0 -16.1224 13.069763 -29.192186 29.19217 -29.192186l175.63138 0c7.7422485 0 15.167389 3.0755968 20.641998 8.550194c5.474579 5.474596 8.550171 12.899744 8.550171 20.641993l0 116.765236c0 16.122406 -13.069794 29.192184 -29.19217 29.192184l-175.63138 0l0 0c-16.122406 0 -29.19217 -13.069778 -29.19217 -29.192184z"
       fill-rule="nonzero"
       id="path47" />
    <path
       fill="#fce5cd"
       d="m299.3774 58.72714l0 0c0 -2.8904915 2.3432007 -5.2337 5.2337036 -5.2337l154.194 0c1.3880615 0 2.7192993 0.55140686 3.7008057 1.5329132c0.98150635 0.98151016 1.532898 2.3127213 1.532898 3.7007866l0 20.93417c0 2.8904953 -2.3432007 5.2337036 -5.2337036 5.2337036l-154.194 0l0 0c-2.890503 0 -5.2337036 -2.3432083 -5.2337036 -5.2337036z"
       fill-rule="nonzero"
       id="path51" />
    <path
       stroke="#000000"
       stroke-width="2.0"
       stroke-linejoin="round"
       stroke-linecap="butt"
       d="m299.3774 58.72714l0 0c0 -2.8904915 2.3432007 -5.2337 5.2337036 -5.2337l154.194 0c1.3880615 0 2.7192993 0.55140686 3.7008057 1.5329132c0.98150635 0.98151016 1.532898 2.3127213 1.532898 3.7007866l0 20.93417c0 2.8904953 -2.3432007 5.2337036 -5.2337036 5.2337036l-154.194 0l0 0c-2.890503 0 -5.2337036 -2.3432083 -5.2337036 -5.2337036z"
       fill-rule="nonzero"
       id="path53" />
    <path
       fill="#fce5cd"
       d="m299.3774 100.887245l0 0c0 -2.8904953 2.3432007 -5.2337036 5.2337036 -5.2337036l154.194 0c1.3880615 0 2.7192993 0.55140686 3.7008057 1.5329208c0.98150635 0.98150635 1.532898 2.3127213 1.532898 3.7007828l0 20.934174c0 2.8904877 -2.3432007 5.233696 -5.2337036 5.233696l-154.194 0l0 0c-2.890503 0 -5.2337036 -2.3432083 -5.2337036 -5.233696z"
       fill-rule="nonzero"
       id="path57" />
    <path
       stroke="#000000"
       stroke-width="2.0"
       stroke-linejoin="round"
       stroke-linecap="butt"
       d="m299.3774 100.887245l0 0c0 -2.8904953 2.3432007 -5.2337036 5.2337036 -5.2337036l154.194 0c1.3880615 0 2.7192993 0.55140686 3.7008057 1.5329208c0.98150635 0.98150635 1.532898 2.3127213 1.532898 3.7007828l0 20.934174c0 2.8904877 -2.3432007 5.233696 -5.2337036 5.233696l-154.194 0l0 0c-2.890503 0 -5.2337036 -2.3432083 -5.2337036 -5.233696z"
       fill-rule="nonzero"
       id="path59" />
    <path
       fill="#f3f3f3"
       d="m522.5189 38.04258l0 0c0 -16.1224 13.069763 -29.192186 29.1922 -29.192186l175.63135 0c7.7422485 0 15.167358 3.0755968 20.641968 8.550194c5.4746094 5.474596 8.550232 12.899744 8.550232 20.641993l0 116.765236c0 16.122406 -13.069824 29.192184 -29.1922 29.192184l-175.63135 0l0 0c-16.122437 0 -29.1922 -13.069778 -29.1922 -29.192184z"
       fill-rule="nonzero"
       id="path63" />
    <path
       stroke="#000000"
       stroke-width="2.0"
       stroke-linejoin="round"
       stroke-linecap="butt"
       d="m522.5189 38.04258l0 0c0 -16.1224 13.069763 -29.192186 29.1922 -29.192186l175.63135 0c7.7422485 0 15.167358 3.0755968 20.641968 8.550194c5.4746094 5.474596 8.550232 12.899744 8.550232 20.641993l0 116.765236c0 16.122406 -13.069824 29.192184 -29.1922 29.192184l-175.63135 0l0 0c-16.122437 0 -29.1922 -13.069778 -29.1922 -29.192184z"
       fill-rule="nonzero"
       id="path65" />
    <path
       fill="#fce5cd"
       d="m554.9347 58.72714l0 0c0 -2.8904915 2.3432007 -5.2337 5.2337036 -5.2337l154.19403 0c1.3880615 0 2.7192993 0.55140686 3.7008057 1.5329132c0.98150635 0.98151016 1.532898 2.3127213 1.532898 3.7007866l0 20.93417c0 2.8904953 -2.3432007 5.2337036 -5.2337036 5.2337036l-154.19403 0l0 0c-2.890503 0 -5.2337036 -2.3432083 -5.2337036 -5.2337036z"
       fill-rule="nonzero"
       id="path69" />
    <path
       stroke="#000000"
       stroke-width="2.0"
       stroke-linejoin="round"
       stroke-linecap="butt"
       d="m554.9347 58.72714l0 0c0 -2.8904915 2.3432007 -5.2337 5.2337036 -5.2337l154.19403 0c1.3880615 0 2.7192993 0.55140686 3.7008057 1.5329132c0.98150635 0.98151016 1.532898 2.3127213 1.532898 3.7007866l0 20.93417c0 2.8904953 -2.3432007 5.2337036 -5.2337036 5.2337036l-154.19403 0l0 0c-2.890503 0 -5.2337036 -2.3432083 -5.2337036 -5.2337036z"
       fill-rule="nonzero"
       id="path71" />
    <path
       fill="#fce5cd"
       d="m554.9347 100.887245l0 0c0 -2.8904953 2.3432007 -5.2337036 5.2337036 -5.2337036l154.19403 0c1.3880615 0 2.7192993 0.55140686 3.7008057 1.5329208c0.98150635 0.98150635 1.532898 2.3127213 1.532898 3.7007828l0 20.934174c0 2.8904877 -2.3432007 5.233696 -5.2337036 5.233696l-154.19403 0l0 0c-2.890503 0 -5.2337036 -2.3432083 -5.2337036 -5.233696z"
       fill-rule="nonzero"
       id="path75" />
    <path
       stroke="#000000"
       stroke-width="2.0"
       stroke-linejoin="round"
       stroke-linecap="butt"
       d="m554.9347 100.887245l0 0c0 -2.8904953 2.3432007 -5.2337036 5.2337036 -5.2337036l154.19403 0c1.3880615 0 2.7192993 0.55140686 3.7008057 1.5329208c0.98150635 0.98150635 1.532898 2.3127213 1.532898 3.7007828l0 20.934174c0 2.8904877 -2.3432007 5.233696 -5.2337036 5.233696l-154.19403 0l0 0c-2.890503 0 -5.2337036 -2.3432083 -5.2337036 -5.233696z"
       fill-rule="nonzero"
       id="path77" />
    <path
       fill="#fce5cd"
       d="m43.623016 145.38068l0 0c0 -2.8904877 2.3432083 -5.2336884 5.2337 -5.2336884l154.19402 0c1.3880768 0 2.719284 0.55140686 3.7007904 1.5329132c0.98150635 0.98150635 1.5329132 2.3127136 1.5329132 3.7007751l0 20.934174c0 2.890503 -2.3432007 5.2337036 -5.2337036 5.2337036l-154.19402 0l0 0c-2.8904915 0 -5.2337 -2.3432007 -5.2337 -5.2337036z"
       fill-rule="nonzero"
       id="path81" />
    <path
       stroke="#000000"
       stroke-width="2.0"
       stroke-linejoin="round"
       stroke-linecap="butt"
       d="m43.623016 145.38068l0 0c0 -2.8904877 2.3432083 -5.2336884 5.2337 -5.2336884l154.19402 0c1.3880768 0 2.719284 0.55140686 3.7007904 1.5329132c0.98150635 0.98150635 1.5329132 2.3127136 1.5329132 3.7007751l0 20.934174c0 2.890503 -2.3432007 5.2337036 -5.2337036 5.2337036l-154.19402 0l0 0c-2.8904915 0 -5.2337 -2.3432007 -5.2337 -5.2337036z"
       fill-rule="nonzero"
       id="path83" />
    <path
       fill="#fce5cd"
       d="m299.3774 145.38068l0 0c0 -2.8904877 2.3432007 -5.2336884 5.2337036 -5.2336884l154.194 0c1.3880615 0 2.7192993 0.55140686 3.7008057 1.5329132c0.98150635 0.98150635 1.532898 2.3127136 1.532898 3.7007751l0 20.934174c0 2.890503 -2.3432007 5.2337036 -5.2337036 5.2337036l-154.194 0l0 0c-2.890503 0 -5.2337036 -2.3432007 -5.2337036 -5.2337036z"
       fill-rule="nonzero"
       id="path87" />
    <path
       stroke="#000000"
       stroke-width="2.0"
       stroke-linejoin="round"
       stroke-linecap="butt"
       d="m299.3774 145.38068l0 0c0 -2.8904877 2.3432007 -5.2336884 5.2337036 -5.2336884l154.194 0c1.3880615 0 2.7192993 0.55140686 3.7008057 1.5329132c0.98150635 0.98150635 1.532898 2.3127136 1.532898 3.7007751l0 20.934174c0 2.890503 -2.3432007 5.2337036 -5.2337036 5.2337036l-154.194 0l0 0c-2.890503 0 -5.2337036 -2.3432007 -5.2337036 -5.2337036z"
       fill-rule="nonzero"
       id="path89" />
    <path
       fill="#fce5cd"
       d="m554.9347 145.38068l0 0c0 -2.8904877 2.3432007 -5.2336884 5.2337036 -5.2336884l154.19403 0c1.3880615 0 2.7192993 0.55140686 3.7008057 1.5329132c0.98150635 0.98150635 1.532898 2.3127136 1.532898 3.7007751l0 20.934174c0 2.890503 -2.3432007 5.2337036 -5.2337036 5.2337036l-154.19403 0l0 0c-2.890503 0 -5.2337036 -2.3432007 -5.2337036 -5.2337036z"
       fill-rule="nonzero"
       id="path93" />
    <path
       stroke="#000000"
       stroke-width="2.0"
       stroke-linejoin="round"
       stroke-linecap="butt"
       d="m554.9347 145.38068l0 0c0 -2.8904877 2.3432007 -5.2336884 5.2337036 -5.2336884l154.19403 0c1.3880615 0 2.7192993 0.55140686 3.7008057 1.5329132c0.98150635 0.98150635 1.532898 2.3127136 1.532898 3.7007751l0 20.934174c0 2.890503 -2.3432007 5.2337036 -5.2337036 5.2337036l-154.19403 0l0 0c-2.890503 0 -5.2337036 -2.3432007 -5.2337036 -5.2337036z"
       fill-rule="nonzero"
       id="path95" />
    <text
       xml:space="preserve"
       style="font-size:16px;font-style:normal;font-weight:normal;text-align:center;line-height:125%;letter-spacing:0px;word-spacing:0px;text-anchor:middle;fill:#000000;fill-opacity:1;stroke:none;font-family:Sans"
       x="130.20284"
       y="31.80772"
       id="text3080"
       sodipodi:linespacing="125%"><tspan
         sodipodi:role="line"
         id="tspan3082"
         x="130.20284"
         y="31.80772">Controller Node #1</tspan></text>
    <text
       xml:space="preserve"
       style="font-size:16px;font-style:normal;font-weight:normal;text-align:center;line-height:125%;letter-spacing:0px;word-spacing:0px;text-anchor:middle;fill:#000000;fill-opacity:1;stroke:none;font-family:Sans"
       x="384.84326"
       y="31.852705"
       id="text3080-1"
       sodipodi:linespacing="125%"><tspan
         sodipodi:role="line"
         id="tspan3082-7"
         x="384.84326"
         y="31.852705">Controller Node #2</tspan></text>
    <text
       xml:space="preserve"
       style="font-size:16px;font-style:normal;font-weight:normal;text-align:center;line-height:125%;letter-spacing:0px;word-spacing:0px;text-anchor:middle;fill:#000000;fill-opacity:1;stroke:none;font-family:Sans"
       x="640.04083"
       y="31.37924"
       id="text3080-4"
       sodipodi:linespacing="125%"><tspan
         sodipodi:role="line"
         id="tspan3082-0"
         x="640.04083"
         y="31.37924">Controller Node #3</tspan></text>
    <text
       xml:space="preserve"
       style="font-size:16px;font-style:normal;font-weight:normal;text-align:center;line-height:125%;letter-spacing:0px;word-spacing:0px;text-anchor:middle;fill:#000000;fill-opacity:1;stroke:none;font-family:Sans"
       x="635.66956"
       y="73.339157"
       id="text3114"
       sodipodi:linespacing="125%"><tspan
         sodipodi:role="line"
         id="tspan3116"
         x="635.66956"
         y="73.339157">Controller</tspan></text>
    <text
       xml:space="preserve"
       style="font-size:16px;font-style:normal;font-weight:normal;text-align:center;line-height:125%;letter-spacing:0px;word-spacing:0px;text-anchor:middle;fill:#000000;fill-opacity:1;stroke:none;font-family:Sans"
       x="635.7666"
       y="114.70629"
       id="text3120"
       sodipodi:linespacing="125%"><tspan
         sodipodi:role="line"
         id="tspan3122"
         x="635.7666"
         y="114.70629">Storage</tspan></text>
    <text
       xml:space="preserve"
       style="font-size:16px;font-style:normal;font-weight:normal;text-align:center;line-height:125%;letter-spacing:0px;word-spacing:0px;text-anchor:middle;fill:#000000;fill-opacity:1;stroke:none;font-family:Sans"
       x="636.98688"
       y="158.98689"
       id="text3124"
       sodipodi:linespacing="125%"><tspan
         sodipodi:role="line"
         id="tspan3126"
         x="636.98688"
         y="158.98689"
         style="font-size:14px">Neutron (Hot Standby)</tspan></text>
    <text
       xml:space="preserve"
       style="font-size:16px;font-style:normal;font-weight:normal;text-align:center;line-height:125%;letter-spacing:0px;word-spacing:0px;text-anchor:middle;fill:#000000;fill-opacity:1;stroke:none;font-family:Sans"
       x="380.70059"
       y="72.675148"
       id="text3114-5"
       sodipodi:linespacing="125%"><tspan
         sodipodi:role="line"
         id="tspan3116-5"
         x="380.70059"
         y="72.675148">Controller</tspan></text>
    <text
       xml:space="preserve"
       style="font-size:16px;font-style:normal;font-weight:normal;text-align:center;line-height:125%;letter-spacing:0px;word-spacing:0px;text-anchor:middle;fill:#000000;fill-opacity:1;stroke:none;font-family:Sans"
       x="380.79764"
       y="114.04228"
       id="text3120-1"
       sodipodi:linespacing="125%"><tspan
         sodipodi:role="line"
         id="tspan3122-7"
         x="380.79764"
         y="114.04228">Storage</tspan></text>
    <text
       xml:space="preserve"
       style="font-size:16px;font-style:normal;font-weight:normal;text-align:center;line-height:125%;letter-spacing:0px;word-spacing:0px;text-anchor:middle;fill:#000000;fill-opacity:1;stroke:none;font-family:Sans"
       x="382.01791"
       y="158.32288"
       id="text3124-1"
       sodipodi:linespacing="125%"><tspan
         sodipodi:role="line"
         id="tspan3126-1"
         x="382.01791"
         y="158.32288"
         style="font-size:14px">Neutron (Hot Standby)</tspan></text>
    <text
       xml:space="preserve"
       style="font-size:16px;font-style:normal;font-weight:normal;text-align:center;line-height:125%;letter-spacing:0px;word-spacing:0px;text-anchor:middle;fill:#000000;fill-opacity:1;stroke:none;font-family:Sans"
       x="124.68528"
       y="72.427612"
       id="text3114-52"
       sodipodi:linespacing="125%"><tspan
         sodipodi:role="line"
         id="tspan3116-7"
         x="124.68528"
         y="72.427612">Controller</tspan></text>
    <text
       xml:space="preserve"
       style="font-size:16px;font-style:normal;font-weight:normal;text-align:center;line-height:125%;letter-spacing:0px;word-spacing:0px;text-anchor:middle;fill:#000000;fill-opacity:1;stroke:none;font-family:Sans"
       x="124.78233"
       y="113.79475"
       id="text3120-6"
       sodipodi:linespacing="125%"><tspan
         sodipodi:role="line"
         id="tspan3122-1"
         x="124.78233"
         y="113.79475">Storage</tspan></text>
    <text
       xml:space="preserve"
       style="font-size:16px;font-style:normal;font-weight:normal;text-align:center;line-height:125%;letter-spacing:0px;word-spacing:0px;text-anchor:middle;fill:#000000;fill-opacity:1;stroke:none;font-family:Sans"
       x="126.0026"
       y="158.07535"
       id="text3124-4"
       sodipodi:linespacing="125%"><tspan
         sodipodi:role="line"
         id="tspan3126-2"
         x="126.0026"
         y="158.07535">Neutron (Active)</tspan></text>
    <text
       xml:space="preserve"
       style="font-size:16px;font-style:normal;font-weight:normal;text-align:center;line-height:125%;letter-spacing:0px;word-spacing:0px;text-anchor:middle;fill:#000000;fill-opacity:1;stroke:none;font-family:Sans"
       x="129.94377"
       y="231.97543"
       id="text3080-3"
       sodipodi:linespacing="125%"><tspan
         sodipodi:role="line"
         id="tspan3082-2"
         x="129.94377"
         y="231.97543">Compute Nodes</tspan></text>
    <text
       xml:space="preserve"
       style="font-size:16px;font-style:normal;font-weight:normal;text-align:center;line-height:125%;letter-spacing:0px;word-spacing:0px;text-anchor:middle;fill:#000000;fill-opacity:1;stroke:none;font-family:Sans"
       x="124.87675"
       y="281.43182"
       id="text3232"
       sodipodi:linespacing="125%"><tspan
         sodipodi:role="line"
         id="tspan3234"
         x="124.87675"
         y="281.43182">Compute</tspan></text>
  </g>
</svg>
