<?xml version="1.0" encoding="UTF-8" standalone="no"?>
<svg
   xmlns:dc="http://purl.org/dc/elements/1.1/"
   xmlns:cc="http://creativecommons.org/ns#"
   xmlns:rdf="http://www.w3.org/1999/02/22-rdf-syntax-ns#"
   xmlns:svg="http://www.w3.org/2000/svg"
   xmlns="http://www.w3.org/2000/svg"
   xmlns:sodipodi="http://sodipodi.sourceforge.net/DTD/sodipodi-0.dtd"
   xmlns:inkscape="http://www.inkscape.org/namespaces/inkscape"
   version="1.1"
   viewBox="0.0 0.0 766.0 412.0"
   fill="none"
   stroke="none"
   stroke-linecap="square"
   stroke-miterlimit="10"
   id="svg2"
   inkscape:version="0.48.4 r9939"
   width="100%"
   height="100%"
   sodipodi:docname="060-deployment-controllers-and-storage-combined.svg">
  <metadata
     id="metadata85">
    <rdf:RDF>
      <cc:Work
         rdf:about="">
        <dc:format>image/svg+xml</dc:format>
        <dc:type
           rdf:resource="http://purl.org/dc/dcmitype/StillImage" />
      </cc:Work>
    </rdf:RDF>
  </metadata>
  <defs
     id="defs83" />
  <sodipodi:namedview
     pagecolor="#ffffff"
     bordercolor="#666666"
     borderopacity="1"
     objecttolerance="10"
     gridtolerance="10"
     guidetolerance="10"
     inkscape:pageopacity="0"
     inkscape:pageshadow="2"
     inkscape:window-width="1920"
     inkscape:window-height="1061"
     id="namedview81"
     showgrid="true"
     inkscape:zoom="2.1120892"
     inkscape:cx="377.3222"
     inkscape:cy="207.51176"
     inkscape:window-x="1362"
     inkscape:window-y="-4"
     inkscape:window-maximized="1"
     inkscape:current-layer="svg2">
    <inkscape:grid
       type="xygrid"
       id="grid3062" />
  </sodipodi:namedview>
  <clipPath
     id="p.0">
    <path
       d="m0 0l766.0 0l0 412.0l-766.0 0l0 -412.0z"
       clip-rule="nonzero"
       id="path5" />
  </clipPath>
  <path
     style="fill:#000000;fill-opacity:0;fill-rule:nonzero"
     inkscape:connector-curvature="0"
     d="m -0.0179138,0.677124 766.8714038,0 0,412.931756 -766.8714038,0 z"
     id="path9" />
  <path
     style="fill:#f3f3f3;fill-rule:nonzero"
     inkscape:connector-curvature="0"
     d="m 24.927936,254.13704 0,0 c 0,-16.27026 13.18965,-29.45991 29.45991,-29.45991 l 175.095924,0 c 7.81327,0 15.3065,3.1038 20.83132,8.6286 5.52479,5.52481 8.62858,13.01805 8.62858,20.83131 l 0,117.83607 c 0,16.27027 -13.18963,29.45993 -29.4599,29.45993 l -175.095924,0 0,0 c -16.27026,0 -29.45991,-13.18966 -29.45991,-29.45993 z"
     id="path11" />
  <path
     style="stroke:#000000;stroke-width:2;stroke-linecap:butt;stroke-linejoin:round"
     inkscape:connector-curvature="0"
     d="m 24.927936,254.13704 0,0 c 0,-16.27026 13.18965,-29.45991 29.45991,-29.45991 l 175.095924,0 c 7.81327,0 15.3065,3.1038 20.83132,8.6286 5.52479,5.52481 8.62858,13.01805 8.62858,20.83131 l 0,117.83607 c 0,16.27027 -13.18963,29.45993 -29.4599,29.45993 l -175.095924,0 0,0 c -16.27026,0 -29.45991,-13.18966 -29.45991,-29.45993 z"
     id="path13" />
  <path
     style="fill:#f3f3f3;fill-rule:nonzero"
     inkscape:connector-curvature="0"
     d="m 10.943686,37.869308 0,0 c 0,-16.122398 13.06979,-29.192184 29.19219,-29.192184 l 175.631374,0 c 7.74225,0 15.16739,3.075597 20.642,8.550194 5.4746,5.474596 8.55019,12.899742 8.55019,20.64199 l 0,116.765232 c 0,16.12239 -13.0698,29.19219 -29.19219,29.19219 l -175.631374,0 0,0 c -16.1224,0 -29.19219,-13.0698 -29.19219,-29.19219 z"
     id="path15" />
  <path
     style="stroke:#000000;stroke-width:2;stroke-linecap:butt;stroke-linejoin:round"
     inkscape:connector-curvature="0"
     d="m 10.943686,37.869308 0,0 c 0,-16.122398 13.06979,-29.192184 29.19219,-29.192184 l 175.631374,0 c 7.74225,0 15.16739,3.075597 20.642,8.550194 5.4746,5.474596 8.55019,12.899742 8.55019,20.64199 l 0,116.765232 c 0,16.12239 -13.0698,29.19219 -29.19219,29.19219 l -175.631374,0 0,0 c -16.1224,0 -29.19219,-13.0698 -29.19219,-29.19219 z"
     id="path17" />
  <path
     style="fill:#fce5cd;fill-rule:nonzero"
     inkscape:connector-curvature="0"
     d="m 43.605096,73.404264 0,0 c 0,-2.890492 2.34321,-5.2337 5.2337,-5.2337 l 154.194034,0 c 1.38806,0 2.71929,0.551407 3.70079,1.532913 0.98151,0.98151 1.53292,2.312722 1.53292,3.700787 l 0,20.934166 c 0,2.8905 -2.34322,5.23371 -5.23371,5.23371 l -154.194034,0 0,0 c -2.89049,0 -5.2337,-2.34321 -5.2337,-5.23371 z"
     id="path21" />
  <path
     style="stroke:#000000;stroke-width:2;stroke-linecap:butt;stroke-linejoin:round"
     inkscape:connector-curvature="0"
     d="m 43.605096,73.404264 0,0 c 0,-2.890492 2.34321,-5.2337 5.2337,-5.2337 l 154.194034,0 c 1.38806,0 2.71929,0.551407 3.70079,1.532913 0.98151,0.98151 1.53292,2.312722 1.53292,3.700787 l 0,20.934166 c 0,2.8905 -2.34322,5.23371 -5.23371,5.23371 l -154.194034,0 0,0 c -2.89049,0 -5.2337,-2.34321 -5.2337,-5.23371 z"
     id="path23" />
  <path
     style="fill:#fce5cd;fill-rule:nonzero"
     inkscape:connector-curvature="0"
     d="m 43.605096,115.56436 0,0 c 0,-2.89049 2.34321,-5.2337 5.2337,-5.2337 l 154.194034,0 c 1.38806,0 2.71929,0.55141 3.70079,1.53293 0.98151,0.9815 1.53292,2.31272 1.53292,3.70077 l 0,20.93418 c 0,2.89049 -2.34322,5.23369 -5.23371,5.23369 l -154.194034,0 0,0 c -2.89049,0 -5.2337,-2.3432 -5.2337,-5.23369 z"
     id="path27" />
  <path
     style="stroke:#000000;stroke-width:2;stroke-linecap:butt;stroke-linejoin:round"
     inkscape:connector-curvature="0"
     d="m 43.605096,115.56436 0,0 c 0,-2.89049 2.34321,-5.2337 5.2337,-5.2337 l 154.194034,0 c 1.38806,0 2.71929,0.55141 3.70079,1.53293 0.98151,0.9815 1.53292,2.31272 1.53292,3.70077 l 0,20.93418 c 0,2.89049 -2.34322,5.23369 -5.23371,5.23369 l -154.194034,0 0,0 c -2.89049,0 -5.2337,-2.3432 -5.2337,-5.23369 z"
     id="path29" />
  <path
     style="fill:#f3f3f3;fill-rule:nonzero"
     inkscape:connector-curvature="0"
     d="m 8.9279362,238.13704 0,0 c 0,-16.27026 13.1896498,-29.45991 29.4599098,-29.45991 l 175.095924,0 c 7.81326,0 15.3065,3.1038 20.83131,8.6286 5.5248,5.52481 8.62861,13.01805 8.62861,20.83131 l 0,117.83607 c 0,16.27027 -13.18966,29.45993 -29.45992,29.45993 l -175.095924,0 0,0 c -16.27026,0 -29.4599098,-13.18966 -29.4599098,-29.45993 z"
     id="path33" />
  <path
     style="stroke:#000000;stroke-width:2;stroke-linecap:butt;stroke-linejoin:round"
     inkscape:connector-curvature="0"
     d="m 8.9279362,238.13704 0,0 c 0,-16.27026 13.1896498,-29.45991 29.4599098,-29.45991 l 175.095924,0 c 7.81326,0 15.3065,3.1038 20.83131,8.6286 5.5248,5.52481 8.62861,13.01805 8.62861,20.83131 l 0,117.83607 c 0,16.27027 -13.18966,29.45993 -29.45992,29.45993 l -175.095924,0 0,0 c -16.27026,0 -29.4599098,-13.18966 -29.4599098,-29.45993 z"
     id="path35" />
  <path
     style="fill:#fce5cd;fill-rule:nonzero"
     inkscape:connector-curvature="0"
     d="m 42.805176,269.3124 0,0 c 0,-2.8905 2.3432,-5.2337 5.2337,-5.2337 l 154.194024,0 c 1.38808,0 2.71928,0.55139 3.70079,1.53289 0.98151,0.98151 1.53291,2.31275 1.53291,3.70081 l 0,20.93417 c 0,2.89048 -2.3432,5.23371 -5.2337,5.23371 l -154.194024,0 0,0 c -2.89049,0 -5.2337,-2.34323 -5.2337,-5.23371 z"
     id="path39" />
  <path
     style="stroke:#000000;stroke-width:2;stroke-linecap:butt;stroke-linejoin:round"
     inkscape:connector-curvature="0"
     d="m 42.805176,269.3124 0,0 c 0,-2.8905 2.3432,-5.2337 5.2337,-5.2337 l 154.194024,0 c 1.38808,0 2.71928,0.55139 3.70079,1.53289 0.98151,0.98151 1.53291,2.31275 1.53291,3.70081 l 0,20.93417 c 0,2.89048 -2.3432,5.23371 -5.2337,5.23371 l -154.194024,0 0,0 c -2.89049,0 -5.2337,-2.34323 -5.2337,-5.23371 z"
     id="path41" />
  <path
     style="fill:#f3f3f3;fill-rule:nonzero"
     inkscape:connector-curvature="0"
     d="m 266.94369,38.719704 0,0 c 0,-16.1224 13.06976,-29.192186 29.19217,-29.192186 l 175.63138,0 c 7.74225,0 15.16739,3.075597 20.642,8.550194 5.47458,5.474596 8.55017,12.899744 8.55017,20.641993 l 0,116.765235 c 0,16.1224 -13.0698,29.19218 -29.19217,29.19218 l -175.63138,0 0,0 c -16.12241,0 -29.19217,-13.06978 -29.19217,-29.19218 z"
     id="path45" />
  <path
     style="stroke:#000000;stroke-width:2;stroke-linecap:butt;stroke-linejoin:round"
     inkscape:connector-curvature="0"
     d="m 266.94369,38.719704 0,0 c 0,-16.1224 13.06976,-29.192186 29.19217,-29.192186 l 175.63138,0 c 7.74225,0 15.16739,3.075597 20.642,8.550194 5.47458,5.474596 8.55017,12.899744 8.55017,20.641993 l 0,116.765235 c 0,16.1224 -13.0698,29.19218 -29.19217,29.19218 l -175.63138,0 0,0 c -16.12241,0 -29.19217,-13.06978 -29.19217,-29.19218 z"
     id="path47" />
  <path
     style="fill:#fce5cd;fill-rule:nonzero"
     inkscape:connector-curvature="0"
     d="m 299.35949,73.404264 0,0 c 0,-2.890492 2.3432,-5.2337 5.2337,-5.2337 l 154.194,0 c 1.38807,0 2.7193,0.551407 3.70081,1.532913 0.98151,0.98151 1.5329,2.312722 1.5329,3.700787 l 0,20.934166 c 0,2.8905 -2.3432,5.23371 -5.23371,5.23371 l -154.194,0 0,0 c -2.8905,0 -5.2337,-2.34321 -5.2337,-5.23371 z"
     id="path51" />
  <path
     style="stroke:#000000;stroke-width:2;stroke-linecap:butt;stroke-linejoin:round"
     inkscape:connector-curvature="0"
     d="m 299.35949,73.404264 0,0 c 0,-2.890492 2.3432,-5.2337 5.2337,-5.2337 l 154.194,0 c 1.38807,0 2.7193,0.551407 3.70081,1.532913 0.98151,0.98151 1.5329,2.312722 1.5329,3.700787 l 0,20.934166 c 0,2.8905 -2.3432,5.23371 -5.23371,5.23371 l -154.194,0 0,0 c -2.8905,0 -5.2337,-2.34321 -5.2337,-5.23371 z"
     id="path53" />
  <path
     style="fill:#fce5cd;fill-rule:nonzero"
     inkscape:connector-curvature="0"
     d="m 299.35949,115.56436 0,0 c 0,-2.89049 2.3432,-5.2337 5.2337,-5.2337 l 154.194,0 c 1.38807,0 2.7193,0.55141 3.70081,1.53293 0.98151,0.9815 1.5329,2.31272 1.5329,3.70077 l 0,20.93418 c 0,2.89049 -2.3432,5.23369 -5.23371,5.23369 l -154.194,0 0,0 c -2.8905,0 -5.2337,-2.3432 -5.2337,-5.23369 z"
     id="path57" />
  <path
     style="stroke:#000000;stroke-width:2;stroke-linecap:butt;stroke-linejoin:round"
     inkscape:connector-curvature="0"
     d="m 299.35949,115.56436 0,0 c 0,-2.89049 2.3432,-5.2337 5.2337,-5.2337 l 154.194,0 c 1.38807,0 2.7193,0.55141 3.70081,1.53293 0.98151,0.9815 1.5329,2.31272 1.5329,3.70077 l 0,20.93418 c 0,2.89049 -2.3432,5.23369 -5.23371,5.23369 l -154.194,0 0,0 c -2.8905,0 -5.2337,-2.3432 -5.2337,-5.23369 z"
     id="path59" />
  <path
     style="fill:#f3f3f3;fill-rule:nonzero"
     inkscape:connector-curvature="0"
     d="m 522.50099,38.719704 0,0 c 0,-16.1224 13.06976,-29.192186 29.1922,-29.192186 l 175.63135,0 c 7.74225,0 15.16736,3.075597 20.64197,8.550194 5.47461,5.474596 8.55023,12.899744 8.55023,20.641993 l 0,116.765235 c 0,16.1224 -13.06982,29.19218 -29.1922,29.19218 l -175.63135,0 0,0 c -16.12244,0 -29.1922,-13.06978 -29.1922,-29.19218 z"
     id="path63" />
  <path
     style="stroke:#000000;stroke-width:2;stroke-linecap:butt;stroke-linejoin:round"
     inkscape:connector-curvature="0"
     d="m 522.50099,38.719704 0,0 c 0,-16.1224 13.06976,-29.192186 29.1922,-29.192186 l 175.63135,0 c 7.74225,0 15.16736,3.075597 20.64197,8.550194 5.47461,5.474596 8.55023,12.899744 8.55023,20.641993 l 0,116.765235 c 0,16.1224 -13.06982,29.19218 -29.1922,29.19218 l -175.63135,0 0,0 c -16.12244,0 -29.1922,-13.06978 -29.1922,-29.19218 z"
     id="path65" />
  <path
     style="fill:#fce5cd;fill-rule:nonzero"
     inkscape:connector-curvature="0"
     d="m 554.91679,73.404264 0,0 c 0,-2.890492 2.3432,-5.2337 5.2337,-5.2337 l 154.19403,0 c 1.38807,0 2.7193,0.551407 3.70081,1.532913 0.98151,0.98151 1.5329,2.312722 1.5329,3.700787 l 0,20.934166 c 0,2.8905 -2.3432,5.23371 -5.23371,5.23371 l -154.19403,0 0,0 c -2.8905,0 -5.2337,-2.34321 -5.2337,-5.23371 z"
     id="path69" />
  <path
     style="stroke:#000000;stroke-width:2;stroke-linecap:butt;stroke-linejoin:round"
     inkscape:connector-curvature="0"
     d="m 554.91679,73.404264 0,0 c 0,-2.890492 2.3432,-5.2337 5.2337,-5.2337 l 154.19403,0 c 1.38807,0 2.7193,0.551407 3.70081,1.532913 0.98151,0.98151 1.5329,2.312722 1.5329,3.700787 l 0,20.934166 c 0,2.8905 -2.3432,5.23371 -5.23371,5.23371 l -154.19403,0 0,0 c -2.8905,0 -5.2337,-2.34321 -5.2337,-5.23371 z"
     id="path71" />
  <path
     style="fill:#fce5cd;fill-rule:nonzero"
     inkscape:connector-curvature="0"
     d="m 554.91679,115.56436 0,0 c 0,-2.89049 2.3432,-5.2337 5.2337,-5.2337 l 154.19403,0 c 1.38807,0 2.7193,0.55141 3.70081,1.53293 0.98151,0.9815 1.5329,2.31272 1.5329,3.70077 l 0,20.93418 c 0,2.89049 -2.3432,5.23369 -5.23371,5.23369 l -154.19403,0 0,0 c -2.8905,0 -5.2337,-2.3432 -5.2337,-5.23369 z"
     id="path75" />
  <path
     style="stroke:#000000;stroke-width:2;stroke-linecap:butt;stroke-linejoin:round"
     inkscape:connector-curvature="0"
     d="m 554.91679,115.56436 0,0 c 0,-2.89049 2.3432,-5.2337 5.2337,-5.2337 l 154.19403,0 c 1.38807,0 2.7193,0.55141 3.70081,1.53293 0.98151,0.9815 1.5329,2.31272 1.5329,3.70077 l 0,20.93418 c 0,2.89049 -2.3432,5.23369 -5.23371,5.23369 l -154.19403,0 0,0 c -2.8905,0 -5.2337,-2.3432 -5.2337,-5.23369 z"
     id="path77" />
  <text
     xml:space="preserve"
     style="font-size:16px;font-style:normal;font-weight:normal;text-align:center;line-height:125%;letter-spacing:0px;word-spacing:0px;text-anchor:middle;fill:#000000;fill-opacity:1;stroke:none;font-family:Sans"
     x="130"
     y="32"
     id="text3080"
     sodipodi:linespacing="125%"><tspan
       sodipodi:role="line"
       id="tspan3082"
       x="130"
       y="32">Controller Node #1</tspan></text>
  <text
     xml:space="preserve"
     style="font-size:16px;font-style:normal;font-weight:normal;text-align:center;line-height:125%;letter-spacing:0px;word-spacing:0px;text-anchor:middle;fill:#000000;fill-opacity:1;stroke:none;font-family:Sans"
     x="385"
     y="32"
     id="text3080-1"
     sodipodi:linespacing="125%"><tspan
       sodipodi:role="line"
       id="tspan3082-7"
       x="385"
       y="32">Controller Node #2</tspan></text>
  <text
     xml:space="preserve"
     style="font-size:16px;font-style:normal;font-weight:normal;text-align:center;line-height:125%;letter-spacing:0px;word-spacing:0px;text-anchor:middle;fill:#000000;fill-opacity:1;stroke:none;font-family:Sans"
     x="640"
     y="32"
     id="text3080-4"
     sodipodi:linespacing="125%"><tspan
       sodipodi:role="line"
       id="tspan3082-0"
       x="640"
       y="32">Controller Node #3</tspan></text>
  <text
     xml:space="preserve"
     style="font-size:16px;font-style:normal;font-weight:normal;text-align:center;line-height:125%;letter-spacing:0px;word-spacing:0px;text-anchor:middle;fill:#000000;fill-opacity:1;stroke:none;font-family:Sans"
     x="635.65161"
     y="88.016281"
     id="text3114"
     sodipodi:linespacing="125%"><tspan
       sodipodi:role="line"
       id="tspan3116"
       x="635.65161"
       y="88.016281">Controller</tspan></text>
  <text
     xml:space="preserve"
     style="font-size:16px;font-style:normal;font-weight:normal;text-align:center;line-height:125%;letter-spacing:0px;word-spacing:0px;text-anchor:middle;fill:#000000;fill-opacity:1;stroke:none;font-family:Sans"
     x="635.74866"
     y="129.38342"
     id="text3120"
     sodipodi:linespacing="125%"><tspan
       sodipodi:role="line"
       id="tspan3122"
       x="635.74866"
       y="129.38342">Storage</tspan></text>
  <text
     xml:space="preserve"
     style="font-size:16px;font-style:normal;font-weight:normal;text-align:center;line-height:125%;letter-spacing:0px;word-spacing:0px;text-anchor:middle;fill:#000000;fill-opacity:1;stroke:none;font-family:Sans"
     x="380.68268"
     y="87.352272"
     id="text3114-5"
     sodipodi:linespacing="125%"><tspan
       sodipodi:role="line"
       id="tspan3116-5"
       x="380.68268"
       y="87.352272">Controller</tspan></text>
  <text
     xml:space="preserve"
     style="font-size:16px;font-style:normal;font-weight:normal;text-align:center;line-height:125%;letter-spacing:0px;word-spacing:0px;text-anchor:middle;fill:#000000;fill-opacity:1;stroke:none;font-family:Sans"
     x="380.77972"
     y="128.71942"
     id="text3120-1"
     sodipodi:linespacing="125%"><tspan
       sodipodi:role="line"
       id="tspan3122-7"
       x="380.77972"
       y="128.71942">Storage</tspan></text>
  <text
     xml:space="preserve"
     style="font-size:16px;font-style:normal;font-weight:normal;text-align:center;line-height:125%;letter-spacing:0px;word-spacing:0px;text-anchor:middle;fill:#000000;fill-opacity:1;stroke:none;font-family:Sans"
     x="124.66737"
     y="87.104736"
     id="text3114-52"
     sodipodi:linespacing="125%"><tspan
       sodipodi:role="line"
       id="tspan3116-7"
       x="124.66737"
       y="87.104736">Controller</tspan></text>
  <text
     xml:space="preserve"
     style="font-size:16px;font-style:normal;font-weight:normal;text-align:center;line-height:125%;letter-spacing:0px;word-spacing:0px;text-anchor:middle;fill:#000000;fill-opacity:1;stroke:none;font-family:Sans"
     x="124.76442"
     y="128.47186"
     id="text3120-6"
     sodipodi:linespacing="125%"><tspan
       sodipodi:role="line"
       id="tspan3122-1"
       x="124.76442"
       y="128.47186">Storage</tspan></text>
  <text
     xml:space="preserve"
     style="font-size:16px;font-style:normal;font-weight:normal;text-align:center;line-height:125%;letter-spacing:0px;word-spacing:0px;text-anchor:middle;fill:#000000;fill-opacity:1;stroke:none;font-family:Sans"
     x="124.71774"
     y="233.59949"
     id="text3080-3"
     sodipodi:linespacing="125%"><tspan
       sodipodi:role="line"
       id="tspan3082-2"
       x="124.71774"
       y="233.59949">Compute Nodes</tspan></text>
  <text
     xml:space="preserve"
     style="font-size:16px;font-style:normal;font-weight:normal;text-align:center;line-height:125%;letter-spacing:0px;word-spacing:0px;text-anchor:middle;fill:#000000;fill-opacity:1;stroke:none;font-family:Sans"
     x="124.85883"
     y="282.10895"
     id="text3232"
     sodipodi:linespacing="125%"><tspan
       sodipodi:role="line"
       id="tspan3234"
       x="124.85883"
       y="282.10895">Compute</tspan></text>
</svg>
