<?xml version="1.0" encoding="UTF-8" standalone="no"?>
<svg
   xmlns:dc="http://purl.org/dc/elements/1.1/"
   xmlns:cc="http://creativecommons.org/ns#"
   xmlns:rdf="http://www.w3.org/1999/02/22-rdf-syntax-ns#"
   xmlns:svg="http://www.w3.org/2000/svg"
   xmlns="http://www.w3.org/2000/svg"
   xmlns:sodipodi="http://sodipodi.sourceforge.net/DTD/sodipodi-0.dtd"
   xmlns:inkscape="http://www.inkscape.org/namespaces/inkscape"
   version="1.1"
   viewBox="0 0 500 500"
   stroke-miterlimit="10"
   id="svg2"
   inkscape:version="0.48.4 r9939"
   width="100%"
   height="100%"
   sodipodi:docname="deployment-simple.svg"
   style="fill:none;stroke:none">
  <metadata
     id="metadata85">
    <rdf:RDF>
      <cc:Work
         rdf:about="">
        <dc:format>image/svg+xml</dc:format>
        <dc:type
           rdf:resource="http://purl.org/dc/dcmitype/StillImage" />
        <dc:title />
      </cc:Work>
    </rdf:RDF>
  </metadata>
  <defs
     id="defs83" />
  <sodipodi:namedview
     pagecolor="#ffffff"
     bordercolor="#666666"
     borderopacity="1"
     objecttolerance="10"
     gridtolerance="10"
     guidetolerance="10"
     inkscape:pageopacity="0"
     inkscape:pageshadow="2"
     inkscape:window-width="1855"
     inkscape:window-height="1056"
     id="namedview81"
     showgrid="true"
     inkscape:zoom="3.2328426"
     inkscape:cx="407.37595"
     inkscape:cy="183.63645"
     inkscape:window-x="65"
     inkscape:window-y="24"
     inkscape:window-maximized="1"
     inkscape:current-layer="svg2"
     inkscape:snap-global="false">
    <inkscape:grid
       type="xygrid"
       id="grid3062"
       empspacing="5"
       visible="true"
       enabled="true"
       snapvisiblegridlinesonly="true" />
  </sodipodi:namedview>
  <clipPath
     id="p.0">
    <path
       d="M 0,0 766,0 766,412 0,412 0,0 z"
       clip-rule="nonzero"
       id="path5"
       inkscape:connector-curvature="0" />
  </clipPath>
  <path
     style="fill:#f3f3f3;fill-rule:nonzero;stroke:#000000;stroke-width:3.08378124;stroke-miterlimit:10;stroke-opacity:1;stroke-dasharray:18.50268745, 3.08378124;stroke-dashoffset:0"
     inkscape:connector-curvature="0"
     d="m 265.91182,353.95477 0,0 c 0,-6.91654 11.58875,-12.5235 25.88419,-12.5235 l 155.72922,0 c 6.86491,0 13.44865,1.31943 18.30289,3.66805 4.85423,2.34861 7.5813,5.53401 7.5813,8.85545 l 0,50.09249 c 0,6.91653 -11.58876,12.5235 -25.88419,12.5235 l -155.72922,0 0,0 c -14.29544,0 -25.88419,-5.60697 -25.88419,-12.5235 z"
     id="path15-0-8-1-8" />
  <path
     style="fill:#f3f3f3;fill-rule:nonzero;stroke:#000000;stroke-width:3.10986853;stroke-miterlimit:10;stroke-opacity:1;stroke-dasharray:18.65921116, 3.10986853;stroke-dashoffset:0"
     inkscape:connector-curvature="0"
     d="m 265.97795,249.28887 0,0 c 0,-7.03494 11.5873,-12.73789 25.88094,-12.73789 l 155.70964,0 c 6.86405,0 13.44696,1.34202 18.30059,3.73084 4.85362,2.38882 7.58035,5.62875 7.58035,9.00705 l 0,50.94999 c 0,7.03493 -11.58731,12.73788 -25.88094,12.73788 l -155.70964,0 0,0 c -14.29364,0 -25.88094,-5.70295 -25.88094,-12.73788 z"
     id="path15-0-8-13" />
  <path
     style="fill:#f3f3f3;fill-rule:nonzero;stroke:#000000;stroke-width:4.25101042;stroke-miterlimit:10;stroke-opacity:1;stroke-dasharray:none"
     inkscape:connector-curvature="0"
     d="m 271.36137,61.096465 0,0 c 0,-13.216051 11.52499,-23.929787 25.74179,-23.929787 l 154.87245,0 c 6.82715,0 13.37467,2.521176 18.20219,7.008876 4.82752,4.487699 7.53959,10.574346 7.53959,16.920911 l 0,95.716285 c 0,13.21602 -11.525,23.92978 -25.74178,23.92978 l -154.87245,0 0,0 c -14.2168,0 -25.74179,-10.71376 -25.74179,-23.92978 z"
     id="path15-0-1" />
  <path
     style="fill:#000000;fill-opacity:0;fill-rule:nonzero"
     inkscape:connector-curvature="0"
     d="m 9.9820862,278.67712 766.8714038,0 0,412.93176 -766.8714038,0 z"
     id="path9" />
  <path
     style="fill:#f3f3f3;fill-rule:nonzero;stroke:#000000;stroke-width:7.26677275;stroke-miterlimit:10;stroke-opacity:1;stroke-dasharray:none"
     inkscape:connector-curvature="0"
     d="m 23.508207,93.915366 0,0 c 0,-39.196689 11.35513,-70.97188 25.362388,-70.97188 l 152.589815,0 c 6.72654,0 13.17755,7.477381 17.93392,20.78719 4.75636,13.309796 7.42848,31.361777 7.42848,50.18469 l 0,283.878964 c 0,39.19664 -11.35515,70.97189 -25.3624,70.97189 l -152.589815,0 0,0 c -14.007258,0 -25.362388,-31.77525 -25.362388,-70.97189 z"
     id="path15" />
  <path
     style="fill:#fce5cd;fill-rule:nonzero;stroke:#000000;stroke-width:2.56397367;stroke-miterlimit:10;stroke-opacity:1;stroke-dasharray:none"
     inkscape:connector-curvature="0"
     d="m 54.818218,60.466687 0,0 c 0,-2.47038 2.002643,-4.47302 4.473023,-4.47302 l 131.783139,0 c 1.18631,0 2.32406,0.47127 3.16291,1.31012 0.83885,0.83886 1.31012,1.97658 1.31012,3.1629 l 0,17.89156 c 0,2.47038 -2.00265,4.47303 -4.47303,4.47303 l -131.783139,0 0,0 c -2.47038,0 -4.473023,-2.00265 -4.473023,-4.47303 z"
     id="path21" />
  <text
     xml:space="preserve"
     style="font-size:16px;font-style:normal;font-variant:normal;font-weight:bold;font-stretch:normal;text-align:center;line-height:125%;letter-spacing:0px;word-spacing:0px;text-anchor:middle;fill:#000000;fill-opacity:1;stroke:none;font-family:PT Sans;-inkscape-font-specification:PT Sans Bold"
     x="126.02146"
     y="45.382198"
     id="text3080"
     sodipodi:linespacing="125%"><tspan
       sodipodi:role="line"
       id="tspan3082"
       x="126.02146"
       y="45.382198">Controller Node</tspan></text>
  <text
     xml:space="preserve"
     style="font-size:13.67452526px;font-style:normal;font-variant:normal;font-weight:normal;font-stretch:normal;text-align:center;line-height:125%;letter-spacing:0px;word-spacing:0px;text-anchor:middle;fill:#000000;fill-opacity:1;stroke:none;font-family:PT Sans;-inkscape-font-specification:PT Sans"
     x="124.86733"
     y="74.198631"
     id="text3114-52"
     sodipodi:linespacing="125%"><tspan
       sodipodi:role="line"
       id="tspan3116-7"
       x="124.86733"
       y="74.198631">Nova (Controller)</tspan></text>
  <path
     style="fill:#fce5cd;fill-rule:nonzero;stroke:#000000;stroke-width:2.56397367;stroke-miterlimit:10;stroke-opacity:1;stroke-dasharray:none"
     inkscape:connector-curvature="0"
     d="m 53.252929,95.222697 0,0 c 0,-2.47038 2.002643,-4.47302 4.473023,-4.47302 l 131.783138,0 c 1.18631,0 2.32406,0.47126 3.16291,1.31012 0.83885,0.83885 1.31012,1.97658 1.31012,3.1629 l 0,17.891553 c 0,2.47039 -2.00265,4.47303 -4.47303,4.47303 l -131.783138,0 0,0 c -2.47038,0 -4.473023,-2.00264 -4.473023,-4.47303 z"
     id="path21-8" />
  <text
     xml:space="preserve"
     style="font-size:13.67452526px;font-style:normal;font-variant:normal;font-weight:normal;font-stretch:normal;text-align:center;line-height:125%;letter-spacing:0px;word-spacing:0px;text-anchor:middle;fill:#000000;fill-opacity:1;stroke:none;font-family:PT Sans;-inkscape-font-specification:PT Sans"
     x="123.30204"
     y="108.95464"
     id="text3114-52-6"
     sodipodi:linespacing="125%"><tspan
       sodipodi:role="line"
       id="tspan3116-7-3"
       x="123.30204"
       y="108.95464">Keystone</tspan></text>
  <path
     style="fill:#fce5cd;fill-rule:nonzero;stroke:#000000;stroke-width:2.56397367;stroke-miterlimit:10;stroke-opacity:1;stroke-dasharray:none"
     inkscape:connector-curvature="0"
     d="m 53.252929,129.7227 0,0 c 0,-2.47038 2.002643,-4.47302 4.473023,-4.47302 l 131.783138,0 c 1.18631,0 2.32406,0.47126 3.16291,1.31012 0.83885,0.83885 1.31012,1.97658 1.31012,3.1629 l 0,17.89155 c 0,2.47039 -2.00265,4.47303 -4.47303,4.47303 l -131.783138,0 0,0 c -2.47038,0 -4.473023,-2.00264 -4.473023,-4.47303 z"
     id="path21-8-8" />
  <text
     xml:space="preserve"
     style="font-size:13.67452526px;font-style:normal;font-variant:normal;font-weight:normal;font-stretch:normal;text-align:center;line-height:125%;letter-spacing:0px;word-spacing:0px;text-anchor:middle;fill:#000000;fill-opacity:1;stroke:none;font-family:PT Sans;-inkscape-font-specification:PT Sans"
     x="123.30204"
     y="143.45465"
     id="text3114-52-6-2"
     sodipodi:linespacing="125%"><tspan
       sodipodi:role="line"
       id="tspan3116-7-3-4"
       x="123.30204"
       y="143.45465">Glance</tspan></text>
  <path
     style="fill:#fce5cd;fill-rule:nonzero;stroke:#000000;stroke-width:2.56397367;stroke-miterlimit:10;stroke-opacity:1;stroke-dasharray:none"
     inkscape:connector-curvature="0"
     d="m 52.864978,164.94642 0,0 c 0,-2.47038 2.002643,-4.47302 4.473023,-4.47302 l 131.783139,0 c 1.18631,0 2.32406,0.47126 3.16291,1.31012 0.83885,0.83885 1.31012,1.97658 1.31012,3.1629 l 0,17.89155 c 0,2.47039 -2.00265,4.47303 -4.47303,4.47303 l -131.783139,0 0,0 c -2.47038,0 -4.473023,-2.00264 -4.473023,-4.47303 z"
     id="path21-8-8-4" />
  <text
     xml:space="preserve"
     style="font-size:13.67452526px;font-style:normal;font-variant:normal;font-weight:normal;font-stretch:normal;text-align:center;line-height:125%;letter-spacing:0px;word-spacing:0px;text-anchor:middle;fill:#000000;fill-opacity:1;stroke:none;font-family:PT Sans;-inkscape-font-specification:PT Sans"
     x="122.9141"
     y="178.67834"
     id="text3114-52-6-2-1"
     sodipodi:linespacing="125%"><tspan
       sodipodi:role="line"
       id="tspan3116-7-3-4-6"
       x="122.9141"
       y="178.67834">Cinder</tspan></text>
  <path
     style="fill:#fce5cd;fill-rule:nonzero;stroke:#000000;stroke-width:2.56397367;stroke-miterlimit:10;stroke-opacity:1;stroke-dasharray:7.691921, 2.56397367;stroke-dashoffset:0"
     inkscape:connector-curvature="0"
     d="m 52.621503,234.63559 0,0 c 0,-2.47038 2.002643,-4.47302 4.473023,-4.47302 l 131.783134,0 c 1.18631,0 2.32406,0.47126 3.16291,1.31012 0.83885,0.83885 1.31012,1.97658 1.31012,3.1629 l 0,17.89155 c 0,2.47039 -2.00265,4.47303 -4.47303,4.47303 l -131.783134,0 0,0 c -2.47038,0 -4.473023,-2.00264 -4.473023,-4.47303 z"
     id="path21-8-7" />
  <text
     xml:space="preserve"
     style="font-size:13.67452526px;font-style:normal;font-variant:normal;font-weight:normal;font-stretch:normal;text-align:center;line-height:125%;letter-spacing:0px;word-spacing:0px;text-anchor:middle;fill:#000000;fill-opacity:1;stroke:none;font-family:PT Sans;-inkscape-font-specification:PT Sans"
     x="122.67062"
     y="248.36755"
     id="text3114-52-6-0"
     sodipodi:linespacing="125%"><tspan
       sodipodi:role="line"
       id="tspan3116-7-3-1"
       x="122.67062"
       y="248.36755">Neutron</tspan></text>
  <path
     style="fill:#fce5cd;fill-rule:nonzero;stroke:#000000;stroke-width:2.56397367;stroke-miterlimit:10;stroke-opacity:1;stroke-dasharray:7.691921, 2.56397367;stroke-dashoffset:0"
     inkscape:connector-curvature="0"
     d="m 52.621503,269.13559 0,0 c 0,-2.47038 2.002643,-4.47302 4.473023,-4.47302 l 131.783134,0 c 1.18631,0 2.32406,0.47126 3.16291,1.31012 0.83885,0.83885 1.31012,1.97658 1.31012,3.1629 l 0,17.89155 c 0,2.47039 -2.00265,4.47303 -4.47303,4.47303 l -131.783134,0 0,0 c -2.47038,0 -4.473023,-2.00264 -4.473023,-4.47303 z"
     id="path21-8-8-6" />
  <text
     xml:space="preserve"
     style="font-size:13.67452526px;font-style:normal;font-variant:normal;font-weight:normal;font-stretch:normal;text-align:center;line-height:125%;letter-spacing:0px;word-spacing:0px;text-anchor:middle;fill:#000000;fill-opacity:1;stroke:none;font-family:PT Sans;-inkscape-font-specification:PT Sans"
     x="122.67062"
     y="282.86752"
     id="text3114-52-6-2-4"
     sodipodi:linespacing="125%"><tspan
       sodipodi:role="line"
       id="tspan3116-7-3-4-0"
       x="122.67062"
       y="282.86752">Swift</tspan></text>
  <path
     style="fill:#fce5cd;fill-rule:nonzero;stroke:#000000;stroke-width:2.56397367;stroke-miterlimit:10;stroke-opacity:1;stroke-dasharray:7.691921, 2.56397367;stroke-dashoffset:0"
     inkscape:connector-curvature="0"
     d="m 52.233552,304.35931 0,0 c 0,-2.47038 2.002643,-4.47302 4.473023,-4.47302 l 131.783135,0 c 1.18631,0 2.32406,0.47126 3.16291,1.31012 0.83885,0.83885 1.31012,1.97658 1.31012,3.1629 l 0,17.89155 c 0,2.47039 -2.00265,4.47303 -4.47303,4.47303 l -131.783135,0 0,0 c -2.47038,0 -4.473023,-2.00264 -4.473023,-4.47303 z"
     id="path21-8-8-4-1" />
  <text
     xml:space="preserve"
     style="font-size:13.67452526px;font-style:normal;font-variant:normal;font-weight:normal;font-stretch:normal;text-align:center;line-height:125%;letter-spacing:0px;word-spacing:0px;text-anchor:middle;fill:#000000;fill-opacity:1;stroke:none;font-family:PT Sans;-inkscape-font-specification:PT Sans"
     x="122.28266"
     y="318.09125"
     id="text3114-52-6-2-1-1"
     sodipodi:linespacing="125%"><tspan
       sodipodi:role="line"
       id="tspan3116-7-3-4-6-6"
       x="122.28266"
       y="318.09125">Ceph Monitor</tspan></text>
  <path
     style="fill:#f3f3f3;fill-rule:nonzero;stroke:#000000;stroke-width:4.25101042;stroke-miterlimit:10;stroke-opacity:1;stroke-dasharray:none"
     inkscape:connector-curvature="0"
     d="m 256.81921,46.148365 0,0 c 0,-13.216065 11.52499,-23.9298 25.74178,-23.9298 l 154.87245,0 c 6.82715,0 13.37467,2.521176 18.2022,7.008889 4.82753,4.487699 7.53959,10.574333 7.53959,16.920911 l 0,95.716265 c 0,13.21605 -11.525,23.92979 -25.74179,23.92979 l -154.87245,0 0,0 c -14.21679,0 -25.74178,-10.71374 -25.74178,-23.92979 z"
     id="path15-0" />
  <path
     style="fill:#fce5cd;fill-rule:nonzero;stroke:#000000;stroke-width:2.56397367;stroke-miterlimit:10;stroke-opacity:1;stroke-dasharray:none"
     inkscape:connector-curvature="0"
     d="m 289.6371,61.249658 0,0 c 0,-2.47038 2.00264,-4.47303 4.47302,-4.47303 l 131.78315,0 c 1.18631,0 2.32406,0.47127 3.16291,1.31012 0.83885,0.83886 1.31012,1.97659 1.31012,3.16291 l 0,17.89155 c 0,2.47039 -2.00265,4.47303 -4.47303,4.47303 l -131.78315,0 0,0 c -2.47038,0 -4.47302,-2.00264 -4.47302,-4.47303 z"
     id="path21-1" />
  <text
     xml:space="preserve"
     style="font-size:16px;font-style:normal;font-variant:normal;font-weight:bold;font-stretch:normal;text-align:center;line-height:125%;letter-spacing:0px;word-spacing:0px;text-anchor:middle;fill:#000000;fill-opacity:1;stroke:none;font-family:PT Sans;-inkscape-font-specification:PT Sans Bold"
     x="364.55222"
     y="42.453266"
     id="text3080-9"
     sodipodi:linespacing="125%"><tspan
       sodipodi:role="line"
       id="tspan3082-0"
       x="364.55222"
       y="42.453266">Compute Node</tspan></text>
  <text
     xml:space="preserve"
     style="font-size:13.67452526px;font-style:normal;font-variant:normal;font-weight:normal;font-stretch:normal;text-align:center;line-height:125%;letter-spacing:0px;word-spacing:0px;text-anchor:middle;fill:#000000;fill-opacity:1;stroke:none;font-family:PT Sans;-inkscape-font-specification:PT Sans"
     x="359.68622"
     y="74.98159"
     id="text3114-52-8"
     sodipodi:linespacing="125%"><tspan
       sodipodi:role="line"
       id="tspan3116-7-7"
       x="359.68622"
       y="74.98159">Nova (Compute)</tspan></text>
  <path
     style="fill:#fce5cd;fill-rule:nonzero;stroke:#000000;stroke-width:2.56397367;stroke-miterlimit:10;stroke-opacity:1;stroke-dasharray:7.691921, 2.56397367;stroke-dashoffset:0"
     inkscape:connector-curvature="0"
     d="m 288.07181,96.005668 0,0 c 0,-2.47038 2.00264,-4.47302 4.47302,-4.47302 l 131.78315,0 c 1.18631,0 2.32406,0.47126 3.16291,1.31012 0.83885,0.83885 1.31012,1.97658 1.31012,3.1629 l 0,17.891552 c 0,2.47039 -2.00265,4.47303 -4.47303,4.47303 l -131.78315,0 0,0 c -2.47038,0 -4.47302,-2.00264 -4.47302,-4.47303 z"
     id="path21-8-0" />
  <text
     xml:space="preserve"
     style="font-size:13.67452526px;font-style:normal;font-variant:normal;font-weight:normal;font-stretch:normal;text-align:center;line-height:125%;letter-spacing:0px;word-spacing:0px;text-anchor:middle;fill:#000000;fill-opacity:1;stroke:none;font-family:PT Sans;-inkscape-font-specification:PT Sans"
     x="358.12091"
     y="109.73762"
     id="text3114-52-6-6"
     sodipodi:linespacing="125%"><tspan
       sodipodi:role="line"
       id="tspan3116-7-3-6"
       x="358.12091"
       y="109.73762">Neutron Agent</tspan></text>
  <path
     style="fill:#f3f3f3;fill-rule:nonzero;stroke:#000000;stroke-width:3.10986853;stroke-miterlimit:10;stroke-opacity:1;stroke-dasharray:18.65921116, 3.10986853;stroke-dashoffset:0"
     inkscape:connector-curvature="0"
     d="m 255.88623,239.44866 0,0 c 0,-7.03494 11.5873,-12.73789 25.88094,-12.73789 l 155.70964,0 c 6.86405,0 13.44696,1.34202 18.30059,3.73084 4.85362,2.38882 7.58035,5.62875 7.58035,9.00705 l 0,50.94999 c 0,7.03493 -11.58731,12.73788 -25.88094,12.73788 l -155.70964,0 0,0 c -14.29364,0 -25.88094,-5.70295 -25.88094,-12.73788 z"
     id="path15-0-8" />
  <path
     style="fill:#fce5cd;fill-rule:nonzero;stroke:#000000;stroke-width:2.56397367;stroke-miterlimit:10;stroke-opacity:1;stroke-dasharray:none"
     inkscape:connector-curvature="0"
     d="m 289.2747,266.31242 0,0 c 0,-2.47038 2.00264,-4.47302 4.47302,-4.47302 l 131.78315,0 c 1.18631,0 2.32406,0.47127 3.16291,1.31012 0.83885,0.83886 1.31012,1.97659 1.31012,3.1629 l 0,17.89156 c 0,2.47039 -2.00265,4.47303 -4.47303,4.47303 l -131.78315,0 0,0 c -2.47038,0 -4.47302,-2.00264 -4.47302,-4.47303 z"
     id="path21-1-9" />
  <text
     xml:space="preserve"
     style="font-size:16px;font-style:normal;font-variant:normal;font-weight:bold;font-stretch:normal;text-align:center;line-height:125%;letter-spacing:0px;word-spacing:0px;text-anchor:middle;fill:#000000;fill-opacity:1;stroke:none;font-family:PT Sans;-inkscape-font-specification:PT Sans Bold"
     x="364.18982"
     y="247.51604"
     id="text3080-9-8"
     sodipodi:linespacing="125%"><tspan
       sodipodi:role="line"
       id="tspan3082-0-1"
       x="364.18982"
       y="247.51604">Cinder Node</tspan></text>
  <text
     xml:space="preserve"
     style="font-size:13.67452526px;font-style:normal;font-variant:normal;font-weight:normal;font-stretch:normal;text-align:center;line-height:125%;letter-spacing:0px;word-spacing:0px;text-anchor:middle;fill:#000000;fill-opacity:1;stroke:none;font-family:PT Sans;-inkscape-font-specification:PT Sans"
     x="359.32382"
     y="280.04434"
     id="text3114-52-8-2"
     sodipodi:linespacing="125%"><tspan
       sodipodi:role="line"
       id="tspan3116-7-7-4"
       x="359.32382"
       y="280.04434">Cinder Volume</tspan></text>
  <path
     style="fill:#fce5cd;fill-rule:nonzero;stroke:#000000;stroke-width:2.56397367;stroke-miterlimit:10;stroke-opacity:1;stroke-dasharray:7.691921, 2.56397367;stroke-dashoffset:0"
     inkscape:connector-curvature="0"
     d="m 52.864977,199.50513 0,0 c 0,-2.47038 2.00264,-4.47302 4.47302,-4.47302 l 131.783133,0 c 1.18631,0 2.32406,0.47126 3.16291,1.31012 0.83885,0.83885 1.31012,1.97658 1.31012,3.1629 l 0,17.89155 c 0,2.47039 -2.00265,4.47303 -4.47303,4.47303 l -131.783133,0 0,0 c -2.47038,0 -4.47302,-2.00264 -4.47302,-4.47303 z"
     id="path21-8-7-3" />
  <text
     xml:space="preserve"
     style="font-size:13.67452526px;font-style:normal;font-variant:normal;font-weight:normal;font-stretch:normal;text-align:center;line-height:125%;letter-spacing:0px;word-spacing:0px;text-anchor:middle;fill:#000000;fill-opacity:1;stroke:none;font-family:PT Sans;-inkscape-font-specification:PT Sans"
     x="122.9141"
     y="213.23706"
     id="text3114-52-6-0-4"
     sodipodi:linespacing="125%"><tspan
       sodipodi:role="line"
       id="tspan3116-7-3-1-2"
       x="122.9141"
       y="213.23706">Heat</tspan></text>
  <path
     style="fill:#f3f3f3;fill-rule:nonzero;stroke:#000000;stroke-width:3.08378124;stroke-miterlimit:10;stroke-opacity:1;stroke-dasharray:18.50268745, 3.08378124;stroke-dashoffset:0"
     inkscape:connector-curvature="0"
     d="m 255.97479,344.13544 0,0 c 0,-6.91654 11.58875,-12.5235 25.88419,-12.5235 l 155.72922,0 c 6.86491,0 13.44865,1.31943 18.30289,3.66805 4.85423,2.34861 7.5813,5.53401 7.5813,8.85545 l 0,50.09249 c 0,6.91653 -11.58876,12.5235 -25.88419,12.5235 l -155.72922,0 0,0 c -14.29544,0 -25.88419,-5.60697 -25.88419,-12.5235 z"
     id="path15-0-8-1" />
  <path
     style="fill:#fce5cd;fill-rule:nonzero;stroke:#000000;stroke-width:2.56397367;stroke-miterlimit:10;stroke-opacity:1;stroke-dasharray:none"
     inkscape:connector-curvature="0"
     d="m 289.3763,371.22663 0,0 c 0,-2.47038 2.00264,-4.47302 4.47302,-4.47302 l 131.78315,0 c 1.18631,0 2.32406,0.47127 3.16291,1.31012 0.83885,0.83886 1.31012,1.97659 1.31012,3.1629 l 0,17.89156 c 0,2.47039 -2.00265,4.47303 -4.47303,4.47303 l -131.78315,0 0,0 c -2.47038,0 -4.47302,-2.00264 -4.47302,-4.47303 z"
     id="path21-1-9-2" />
  <text
     xml:space="preserve"
     style="font-size:16px;font-style:normal;font-variant:normal;font-weight:bold;font-stretch:normal;text-align:center;line-height:125%;letter-spacing:0px;word-spacing:0px;text-anchor:middle;fill:#000000;fill-opacity:1;stroke:none;font-family:PT Sans;-inkscape-font-specification:PT Sans Bold"
     x="364.29144"
     y="352.43024"
     id="text3080-9-8-8"
     sodipodi:linespacing="125%"><tspan
       sodipodi:role="line"
       id="tspan3082-0-1-7"
       x="364.29144"
       y="352.43024">Ceph Node</tspan></text>
  <text
     xml:space="preserve"
     style="font-size:13.67452526px;font-style:normal;font-variant:normal;font-weight:normal;font-stretch:normal;text-align:center;line-height:125%;letter-spacing:0px;word-spacing:0px;text-anchor:middle;fill:#000000;fill-opacity:1;stroke:none;font-family:PT Sans;-inkscape-font-specification:PT Sans"
     x="359.42545"
     y="384.95856"
     id="text3114-52-8-2-7"
     sodipodi:linespacing="125%"><tspan
       sodipodi:role="line"
       id="tspan3116-7-7-4-0"
       x="359.42545"
       y="384.95856">Ceph OSD</tspan></text>
  <path
     style="fill:#fce5cd;fill-rule:nonzero;stroke:#000000;stroke-width:2.56397367;stroke-miterlimit:10;stroke-opacity:1;stroke-dasharray:7.691921, 2.56397367;stroke-dashoffset:0"
     inkscape:connector-curvature="0"
     d="m 52.746877,341.03145 0,0 c 0,-2.47038 2.002643,-4.47302 4.473023,-4.47302 l 131.78313,0 c 1.18631,0 2.32406,0.47126 3.16291,1.31012 0.83885,0.83885 1.31012,1.97658 1.31012,3.1629 l 0,17.89155 c 0,2.47039 -2.00265,4.47303 -4.47303,4.47303 l -131.78313,0 0,0 c -2.47038,0 -4.473023,-2.00264 -4.473023,-4.47303 z"
     id="path21-8-8-4-1-0" />
  <text
     xml:space="preserve"
     style="font-size:13.67452526px;font-style:normal;font-variant:normal;font-weight:normal;font-stretch:normal;text-align:center;line-height:125%;letter-spacing:0px;word-spacing:0px;text-anchor:middle;fill:#000000;fill-opacity:1;stroke:none;font-family:PT Sans;-inkscape-font-specification:PT Sans"
     x="122.79598"
     y="354.7634"
     id="text3114-52-6-2-1-1-0"
     sodipodi:linespacing="125%"><tspan
       sodipodi:role="line"
       id="tspan3116-7-3-4-6-6-2"
       x="122.79598"
       y="354.7634">Ceilometer</tspan></text>
  <path
     style="fill:#fce5cd;fill-rule:nonzero;stroke:#000000;stroke-width:2.56397367;stroke-miterlimit:10;stroke-opacity:1;stroke-dasharray:7.691921, 2.56397367;stroke-dashoffset:0"
     inkscape:connector-curvature="0"
     d="m 52.799543,376.82731 0,0 c 0,-2.47038 2.002643,-4.47302 4.473023,-4.47302 l 131.783124,0 c 1.18631,0 2.32406,0.47126 3.16291,1.31012 0.83885,0.83885 1.31012,1.97658 1.31012,3.1629 l 0,17.89155 c 0,2.47039 -2.00265,4.47303 -4.47303,4.47303 l -131.783124,0 0,0 c -2.47038,0 -4.473023,-2.00264 -4.473023,-4.47303 z"
     id="path21-8-8-4-1-9" />
  <text
     xml:space="preserve"
     style="font-size:13.67452526px;font-style:normal;font-variant:normal;font-weight:normal;font-stretch:normal;text-align:center;line-height:125%;letter-spacing:0px;word-spacing:0px;text-anchor:middle;fill:#000000;fill-opacity:1;stroke:none;font-family:PT Sans;-inkscape-font-specification:PT Sans"
     x="122.84864"
     y="390.55923"
     id="text3114-52-6-2-1-1-7"
     sodipodi:linespacing="125%"><tspan
       sodipodi:role="line"
       id="tspan3116-7-3-4-6-6-6"
       x="122.84864"
       y="390.55923">Sahara</tspan></text>
  <path
     style="fill:#fce5cd;fill-rule:nonzero;stroke:#000000;stroke-width:2.56397367;stroke-miterlimit:10;stroke-opacity:1;stroke-dasharray:7.691921, 2.56397367;stroke-dashoffset:0"
     inkscape:connector-curvature="0"
     d="m 53.312868,413.49945 0,0 c 0,-2.47038 2.002643,-4.47302 4.473023,-4.47302 l 131.783119,0 c 1.18631,0 2.32406,0.47126 3.16291,1.31012 0.83885,0.83885 1.31012,1.97658 1.31012,3.1629 l 0,17.89155 c 0,2.47039 -2.00265,4.47303 -4.47303,4.47303 l -131.783119,0 0,0 c -2.47038,0 -4.473023,-2.00264 -4.473023,-4.47303 z"
     id="path21-8-8-4-1-0-9" />
  <text
     xml:space="preserve"
     style="font-size:13.67452526px;font-style:normal;font-variant:normal;font-weight:normal;font-stretch:normal;text-align:center;line-height:125%;letter-spacing:0px;word-spacing:0px;text-anchor:middle;fill:#000000;fill-opacity:1;stroke:none;font-family:PT Sans;-inkscape-font-specification:PT Sans"
     x="123.36198"
     y="427.23138"
     id="text3114-52-6-2-1-1-0-4"
     sodipodi:linespacing="125%"><tspan
       sodipodi:role="line"
       id="tspan3116-7-3-4-6-6-2-5"
       x="123.36198"
       y="427.23138">Murano</tspan></text>
  <path
     style="fill:#fce5cd;fill-rule:nonzero;stroke:#000000;stroke-width:2.56397367;stroke-miterlimit:10;stroke-opacity:1;stroke-dasharray:7.691921, 2.56397367;stroke-dashoffset:0"
     inkscape:connector-curvature="0"
     d="m 287.21545,132.23687 0,0 c 0,-2.47038 2.00264,-4.47302 4.47302,-4.47302 l 131.78315,0 c 1.18631,0 2.32406,0.47126 3.16291,1.31012 0.83885,0.83885 1.31012,1.97658 1.31012,3.1629 l 0,17.89156 c 0,2.47039 -2.00265,4.47303 -4.47303,4.47303 l -131.78315,0 0,0 c -2.47038,0 -4.47302,-2.00264 -4.47302,-4.47303 z"
     id="path21-8-0-0" />
  <text
     xml:space="preserve"
     style="font-size:13.67452526px;font-style:normal;font-variant:normal;font-weight:normal;font-stretch:normal;text-align:center;line-height:125%;letter-spacing:0px;word-spacing:0px;text-anchor:middle;fill:#000000;fill-opacity:1;stroke:none;font-family:PT Sans;-inkscape-font-specification:PT Sans"
     x="357.26456"
     y="145.96883"
     id="text3114-52-6-6-7"
     sodipodi:linespacing="125%"><tspan
       sodipodi:role="line"
       id="tspan3116-7-3-6-9"
       x="357.26456"
       y="145.96883"
       style="font-size:12px">Ceilometer Compute</tspan></text>
  <text
     xml:space="preserve"
     style="font-size:40px;font-style:normal;font-weight:normal;line-height:125%;letter-spacing:0px;word-spacing:0px;fill:#000000;fill-opacity:1;stroke:none;font-family:Sans"
     x="463.36929"
     y="190.6747"
     id="text4477"
     sodipodi:linespacing="125%"><tspan
       sodipodi:role="line"
       id="tspan4479"></tspan></text>
</svg>
