<?xml version="1.0" encoding="UTF-8" standalone="no"?>
<!-- Created with Inkscape (http://www.inkscape.org/) -->

<svg
   xmlns:dc="http://purl.org/dc/elements/1.1/"
   xmlns:cc="http://creativecommons.org/ns#"
   xmlns:rdf="http://www.w3.org/1999/02/22-rdf-syntax-ns#"
   xmlns:svg="http://www.w3.org/2000/svg"
   xmlns="http://www.w3.org/2000/svg"
   xmlns:sodipodi="http://sodipodi.sourceforge.net/DTD/sodipodi-0.dtd"
   xmlns:inkscape="http://www.inkscape.org/namespaces/inkscape"
   width="770"
   height="320"
   id="svg3863"
   version="1.1"
   inkscape:version="0.48.4 r9939"
   sodipodi:docname="New document 3">
  <defs
     id="defs3865" />
  <sodipodi:namedview
     id="base"
     pagecolor="#ffffff"
     bordercolor="#666666"
     borderopacity="1.0"
     inkscape:pageopacity="0.0"
     inkscape:pageshadow="2"
     inkscape:zoom="0.7"
     inkscape:cx="250.22377"
     inkscape:cy="8.8860267"
     inkscape:document-units="px"
     inkscape:current-layer="layer1"
     showgrid="false"
     inkscape:window-width="1366"
     inkscape:window-height="749"
     inkscape:window-x="-4"
     inkscape:window-y="-4"
     inkscape:window-maximized="1" />
  <metadata
     id="metadata3868">
    <rdf:RDF>
      <cc:Work
         rdf:about="">
        <dc:format>image/svg+xml</dc:format>
        <dc:type
           rdf:resource="http://purl.org/dc/dcmitype/StillImage" />
        <dc:title></dc:title>
      </cc:Work>
    </rdf:RDF>
  </metadata>
  <g
     inkscape:label="Layer 1"
     inkscape:groupmode="layer"
     id="layer1"
     transform="translate(0,-732.36218)">
    <path
       style="fill:#f3f3f3;fill-rule:nonzero;stroke:#000000;stroke-width:3;stroke-miterlimit:10;stroke-opacity:1;stroke-dasharray:none"
       inkscape:connector-curvature="0"
       d="m 270.98377,950.10033 0,0 c 0,-9.47938 13.18965,-17.16394 29.4599,-17.16394 l 175.09592,0 c 7.81326,0 15.3065,1.80833 20.83131,5.02719 5.5248,3.21887 8.62861,7.58458 8.62861,12.13675 l 0,68.65367 c 0,9.4794 -13.18966,17.164 -29.45992,17.164 l -175.09592,0 0,0 c -16.27025,0 -29.4599,-7.6846 -29.4599,-17.164 z"
       id="path33-1-0-6" />
    <path
       style="fill:#f3f3f3;fill-rule:nonzero;stroke:#000000;stroke-width:3;stroke-miterlimit:10;stroke-opacity:1;stroke-dasharray:none"
       inkscape:connector-curvature="0"
       d="m 16.360543,951.10177 0,0 c 0,-9.44856 13.18965,-17.10814 29.4599,-17.10814 l 175.095917,0 c 7.81326,0 15.3065,1.80246 20.83131,5.01085 5.5248,3.20841 8.62861,7.55992 8.62861,12.09729 l 0,68.43053 c 0,9.4486 -13.18966,17.1081 -29.45992,17.1081 l -175.095917,0 0,0 c -16.27025,0 -29.4599,-7.6595 -29.4599,-17.1081 z"
       id="path33-1-0" />
    <path
       style="fill:#f3f3f3;fill-rule:nonzero;stroke:#000000;stroke-width:3;stroke-miterlimit:10;stroke-opacity:1;stroke-dasharray:none"
       inkscape:connector-curvature="0"
       d="m 526.66136,951.06898 0,0 c 0,-9.3407 13.18965,-16.91284 29.4599,-16.91284 l 175.09592,0 c 7.81326,0 15.3065,1.78188 20.83131,4.95365 5.5248,3.17178 8.62861,7.47362 8.62861,11.95919 l 0,67.64932 c 0,9.3407 -13.18966,16.9129 -29.45992,16.9129 l -175.09592,0 0,0 c -16.27025,0 -29.4599,-7.5722 -29.4599,-16.9129 z"
       id="path33-1-0-5" />
    <path
       style="fill:#f3f3f3;fill-rule:nonzero;stroke:#000000;stroke-width:3;stroke-miterlimit:10;stroke-opacity:1;stroke-dasharray:none"
       inkscape:connector-curvature="0"
       d="m 10.751473,771.56186 0,0 c 0,-16.1224 13.06978,-29.19219 29.19218,-29.19219 l 175.631377,0 c 7.74225,0 15.16739,3.0756 20.642,8.5502 5.4746,5.47459 8.55019,12.89974 8.55019,20.64199 l 0,116.76523 c 0,16.12239 -13.0698,29.19219 -29.19219,29.19219 l -175.631377,0 0,0 c -16.1224,0 -29.19218,-13.0698 -29.19218,-29.19219 z"
       id="path15" />
    <path
       style="fill:#fce5cd;fill-rule:nonzero;stroke:#000000;stroke-width:3;stroke-miterlimit:10;stroke-opacity:1;stroke-dasharray:none"
       inkscape:connector-curvature="0"
       d="m 43.412883,805.09681 0,0 c 0,-2.89049 2.3432,-5.2337 5.2337,-5.2337 l 154.194027,0 c 1.38806,0 2.71929,0.55141 3.70079,1.53292 0.98151,0.98151 1.53292,2.31272 1.53292,3.70078 l 0,20.93417 c 0,2.8905 -2.34322,5.23371 -5.23371,5.23371 l -154.194027,0 0,0 c -2.8905,0 -5.2337,-2.34321 -5.2337,-5.23371 z"
       id="path21" />
    <path
       style="fill:#f3f3f3;fill-rule:nonzero;stroke:#000000;stroke-width:3;stroke-miterlimit:10;stroke-opacity:1;stroke-dasharray:none"
       inkscape:connector-curvature="0"
       d="m 264.75147,772.41225 0,0 c 0,-16.1224 13.06976,-29.19218 29.19217,-29.19218 l 175.63138,0 c 7.74225,0 15.16739,3.07559 20.642,8.55019 5.47458,5.4746 8.55017,12.89974 8.55017,20.64199 l 0,116.76524 c 0,16.1224 -13.0698,29.19218 -29.19217,29.19218 l -175.63138,0 0,0 c -16.12241,0 -29.19217,-13.06978 -29.19217,-29.19218 z"
       id="path45" />
    <path
       style="fill:#fce5cd;fill-rule:nonzero;stroke:#000000;stroke-width:3;stroke-miterlimit:10;stroke-opacity:1;stroke-dasharray:none"
       inkscape:connector-curvature="0"
       d="m 297.16727,805.09681 0,0 c 0,-2.89049 2.3432,-5.2337 5.2337,-5.2337 l 154.194,0 c 1.38807,0 2.7193,0.55141 3.70081,1.53292 0.98151,0.98151 1.5329,2.31272 1.5329,3.70078 l 0,20.93417 c 0,2.8905 -2.3432,5.23371 -5.23371,5.23371 l -154.194,0 0,0 c -2.8905,0 -5.2337,-2.34321 -5.2337,-5.23371 z"
       id="path51" />
    <path
       style="fill:#f3f3f3;fill-rule:nonzero;stroke:#000000;stroke-width:3;stroke-miterlimit:10;stroke-opacity:1;stroke-dasharray:none"
       inkscape:connector-curvature="0"
       d="m 520.30877,772.41225 0,0 c 0,-16.1224 13.06976,-29.19218 29.1922,-29.19218 l 175.63135,0 c 7.74225,0 15.16736,3.07559 20.64197,8.55019 5.47461,5.4746 8.55023,12.89974 8.55023,20.64199 l 0,116.76524 c 0,16.1224 -13.06982,29.19218 -29.1922,29.19218 l -175.63135,0 0,0 c -16.12244,0 -29.1922,-13.06978 -29.1922,-29.19218 z"
       id="path63" />
    <path
       style="fill:#fce5cd;fill-rule:nonzero;stroke:#000000;stroke-width:3;stroke-miterlimit:10;stroke-opacity:1;stroke-dasharray:none"
       inkscape:connector-curvature="0"
       d="m 552.72457,805.09681 0,0 c 0,-2.89049 2.3432,-5.2337 5.2337,-5.2337 l 154.19403,0 c 1.38807,0 2.7193,0.55141 3.70081,1.53292 0.98151,0.98151 1.5329,2.31272 1.5329,3.70078 l 0,20.93417 c 0,2.8905 -2.3432,5.23371 -5.23371,5.23371 l -154.19403,0 0,0 c -2.8905,0 -5.2337,-2.34321 -5.2337,-5.23371 z"
       id="path69" />
    <path
       style="fill:#fce5cd;fill-rule:nonzero;stroke:#000000;stroke-width:3;stroke-miterlimit:10;stroke-opacity:1;stroke-dasharray:none"
       inkscape:connector-curvature="0"
       d="m 43.412883,857.75035 0,0 c 0,-2.89049 2.34321,-5.23369 5.2337,-5.23369 l 154.194037,0 c 1.38807,0 2.71928,0.55141 3.70079,1.53291 0.9815,0.98151 1.53291,2.31272 1.53291,3.70078 l 0,20.93417 c 0,2.89051 -2.3432,5.23371 -5.2337,5.23371 l -154.194037,0 0,0 c -2.89049,0 -5.2337,-2.3432 -5.2337,-5.23371 z"
       id="path81" />
    <path
       style="fill:#fce5cd;fill-rule:nonzero;stroke:#000000;stroke-width:3;stroke-miterlimit:10;stroke-opacity:1;stroke-dasharray:none"
       inkscape:connector-curvature="0"
       d="m 297.16727,857.75035 0,0 c 0,-2.89049 2.3432,-5.23369 5.2337,-5.23369 l 154.194,0 c 1.38807,0 2.7193,0.55141 3.70081,1.53291 0.98151,0.98151 1.5329,2.31272 1.5329,3.70078 l 0,20.93417 c 0,2.89051 -2.3432,5.23371 -5.23371,5.23371 l -154.194,0 0,0 c -2.8905,0 -5.2337,-2.3432 -5.2337,-5.23371 z"
       id="path87" />
    <path
       style="fill:#fce5cd;fill-rule:nonzero;stroke:#000000;stroke-width:3;stroke-miterlimit:10;stroke-opacity:1;stroke-dasharray:none"
       inkscape:connector-curvature="0"
       d="m 552.72457,857.75035 0,0 c 0,-2.89049 2.3432,-5.23369 5.2337,-5.23369 l 154.19403,0 c 1.38807,0 2.7193,0.55141 3.70081,1.53291 0.98151,0.98151 1.5329,2.31272 1.5329,3.70078 l 0,20.93417 c 0,2.89051 -2.3432,5.23371 -5.23371,5.23371 l -154.19403,0 0,0 c -2.8905,0 -5.2337,-2.3432 -5.2337,-5.23371 z"
       id="path93" />
    <text
       xml:space="preserve"
       style="font-size:16px;font-style:normal;font-variant:normal;font-weight:bold;font-stretch:normal;text-align:center;line-height:125%;letter-spacing:0px;word-spacing:0px;text-anchor:middle;fill:#000000;fill-opacity:1;stroke:none;font-family:Sans;-inkscape-font-specification:Sans Bold"
       x="127.98664"
       y="766.79279"
       id="text3080"
       sodipodi:linespacing="125%"><tspan
         sodipodi:role="line"
         id="tspan3082"
         x="127.98664"
         y="766.79279">Controller Node #1</tspan></text>
    <text
       xml:space="preserve"
       style="font-size:16px;font-style:normal;font-variant:normal;font-weight:bold;font-stretch:normal;text-align:center;line-height:125%;letter-spacing:0px;word-spacing:0px;text-anchor:middle;fill:#000000;fill-opacity:1;stroke:none;font-family:Sans;-inkscape-font-specification:Sans Bold"
       x="382.06668"
       y="766.79279"
       id="text3080-1"
       sodipodi:linespacing="125%"><tspan
         sodipodi:role="line"
         id="tspan3082-7"
         x="382.06668"
         y="766.79279">Controller Node #2</tspan></text>
    <text
       xml:space="preserve"
       style="font-size:16px;font-style:normal;font-variant:normal;font-weight:bold;font-stretch:normal;text-align:center;line-height:125%;letter-spacing:0px;word-spacing:0px;text-anchor:middle;fill:#000000;fill-opacity:1;stroke:none;font-family:Sans;-inkscape-font-specification:Sans Bold"
       x="637.56006"
       y="766.79279"
       id="text3080-4"
       sodipodi:linespacing="125%"><tspan
         sodipodi:role="line"
         id="tspan3082-0"
         x="637.56006"
         y="766.79279">Controller Node #3</tspan></text>
    <text
       xml:space="preserve"
       style="font-size:16px;font-style:normal;font-variant:normal;font-weight:normal;font-stretch:normal;text-align:center;line-height:125%;letter-spacing:0px;word-spacing:0px;text-anchor:middle;fill:#000000;fill-opacity:1;stroke:none;font-family:PT Sans;-inkscape-font-specification:PT Sans"
       x="634.68616"
       y="821.164"
       id="text3114"
       sodipodi:linespacing="125%"><tspan
         sodipodi:role="line"
         id="tspan3116"
         x="634.68616"
         y="821.164">Controller</tspan></text>
    <text
       xml:space="preserve"
       style="font-size:16px;font-style:normal;font-variant:normal;font-weight:normal;font-stretch:normal;text-align:center;line-height:125%;letter-spacing:0px;word-spacing:0px;text-anchor:middle;fill:#000000;fill-opacity:1;stroke:none;font-family:PT Sans;-inkscape-font-specification:PT Sans"
       x="635.07672"
       y="871.41547"
       id="text3124"
       sodipodi:linespacing="125%"><tspan
         sodipodi:role="line"
         id="tspan3126"
         x="635.07672"
         y="871.41547"
         style="font-size:13px;font-style:normal;font-variant:normal;font-weight:normal;font-stretch:normal;font-family:PT Sans;-inkscape-font-specification:PT Sans">Quantum (Hot Standby)</tspan></text>
    <text
       xml:space="preserve"
       style="font-size:16px;font-style:normal;font-variant:normal;font-weight:normal;font-stretch:normal;text-align:center;line-height:125%;letter-spacing:0px;word-spacing:0px;text-anchor:middle;fill:#000000;fill-opacity:1;stroke:none;font-family:PT Sans;-inkscape-font-specification:PT Sans"
       x="379.12885"
       y="821.164"
       id="text3114-5"
       sodipodi:linespacing="125%"><tspan
         sodipodi:role="line"
         id="tspan3116-5"
         x="379.12885"
         y="821.164">Controller</tspan></text>
    <text
       xml:space="preserve"
       style="font-size:16px;font-style:normal;font-variant:normal;font-weight:normal;font-stretch:normal;text-align:center;line-height:125%;letter-spacing:0px;word-spacing:0px;text-anchor:middle;fill:#000000;fill-opacity:1;stroke:none;font-family:PT Sans;-inkscape-font-specification:PT Sans"
       x="379.51938"
       y="871.41547"
       id="text3124-1"
       sodipodi:linespacing="125%"><tspan
         sodipodi:role="line"
         id="tspan3126-1"
         x="379.51938"
         y="871.41547"
         style="font-size:13px;font-style:normal;font-variant:normal;font-weight:normal;font-stretch:normal;font-family:PT Sans;-inkscape-font-specification:PT Sans">Quantum (Hot Standby)</tspan></text>
    <text
       xml:space="preserve"
       style="font-size:16px;font-style:normal;font-variant:normal;font-weight:normal;font-stretch:normal;text-align:center;line-height:125%;letter-spacing:0px;word-spacing:0px;text-anchor:middle;fill:#000000;fill-opacity:1;stroke:none;font-family:PT Sans;-inkscape-font-specification:PT Sans"
       x="125.37447"
       y="821.164"
       id="text3114-52"
       sodipodi:linespacing="125%"><tspan
         sodipodi:role="line"
         id="tspan3116-7"
         x="125.37447"
         y="821.164">Controller</tspan></text>
    <text
       xml:space="preserve"
       style="font-size:16px;font-style:normal;font-variant:normal;font-weight:normal;font-stretch:normal;text-align:center;line-height:125%;letter-spacing:0px;word-spacing:0px;text-anchor:middle;fill:#000000;fill-opacity:1;stroke:none;font-family:PT Sans;-inkscape-font-specification:PT Sans"
       x="125.76997"
       y="872.1535"
       id="text3124-4"
       sodipodi:linespacing="125%"><tspan
         sodipodi:role="line"
         id="tspan3126-2"
         x="125.76997"
         y="872.1535">Quantum (Active)</tspan></text>
    <path
       style="fill:#f3f3f3;fill-rule:nonzero;stroke:#000000;stroke-width:3;stroke-miterlimit:10;stroke-opacity:1;stroke-dasharray:none"
       inkscape:connector-curvature="0"
       d="m 10.788163,945.32085 0,0 c 0,-9.55642 13.18965,-17.30343 29.4599,-17.30343 l 175.095917,0 c 7.81326,0 15.3065,1.82303 20.83131,5.06805 5.5248,3.24503 8.62861,7.64622 8.62861,12.23538 l 0,69.21165 c 0,9.5565 -13.18966,17.3035 -29.45992,17.3035 l -175.095917,0 0,0 c -16.27025,0 -29.4599,-7.747 -29.4599,-17.3035 z"
       id="path33-1" />
    <path
       style="fill:#fce5cd;fill-rule:nonzero;stroke:#000000;stroke-width:3;stroke-miterlimit:10;stroke-opacity:1;stroke-dasharray:none"
       inkscape:connector-curvature="0"
       d="m 45.465323,989.50131 0,0 c 0,-2.8905 2.34321,-5.2337 5.2337,-5.2337 l 154.194017,0 c 1.38808,0 2.71928,0.55139 3.70079,1.53289 0.98151,0.98151 1.53291,2.31275 1.53291,3.70081 l 0,20.93419 c 0,2.8905 -2.3432,5.2337 -5.2337,5.2337 l -154.194017,0 0,0 c -2.89049,0 -5.2337,-2.3432 -5.2337,-5.2337 z"
       id="path39-4" />
    <text
       xml:space="preserve"
       style="font-size:16px;font-style:normal;font-variant:normal;font-weight:bold;font-stretch:normal;text-align:center;line-height:125%;letter-spacing:0px;word-spacing:0px;text-anchor:middle;fill:#000000;fill-opacity:1;stroke:none;font-family:PT Sans;-inkscape-font-specification:PT Sans Bold"
       x="127.96546"
       y="951.79279"
       id="text3080-3-9"
       sodipodi:linespacing="125%"><tspan
         sodipodi:role="line"
         id="tspan3082-2-4"
         x="127.96546"
         y="951.79279">Compute Nodes (1+)</tspan></text>
    <text
       xml:space="preserve"
       style="font-size:16px;font-style:normal;font-variant:normal;font-weight:normal;font-stretch:normal;text-align:center;line-height:125%;letter-spacing:0px;word-spacing:0px;text-anchor:middle;fill:#000000;fill-opacity:1;stroke:none;font-family:PT Sans;-inkscape-font-specification:PT Sans"
       x="127.73843"
       y="1004.0644"
       id="text3232-8"
       sodipodi:linespacing="125%"><tspan
         sodipodi:role="line"
         id="tspan3234-8"
         x="127.73843"
         y="1004.0644">Compute</tspan></text>
    <path
       style="fill:#f3f3f3;fill-rule:nonzero;stroke:#000000;stroke-width:3;stroke-miterlimit:10;stroke-opacity:1;stroke-dasharray:none"
       inkscape:connector-curvature="0"
       d="m 265.92926,943.95065 0,0 c 0,-9.43315 13.18965,-17.08024 29.4599,-17.08024 l 175.09592,0 c 7.81326,0 15.3065,1.79952 20.83131,5.00268 5.5248,3.20317 8.62861,7.54759 8.62861,12.07756 l 0,68.31895 c 0,9.4331 -13.18966,17.0802 -29.45992,17.0802 l -175.09592,0 0,0 c -16.27025,0 -29.4599,-7.6471 -29.4599,-17.0802 z"
       id="path33-1-2" />
    <path
       style="fill:#fce5cd;fill-rule:nonzero;stroke:#000000;stroke-width:3;stroke-miterlimit:10;stroke-opacity:1;stroke-dasharray:none"
       inkscape:connector-curvature="0"
       d="m 300.60642,989.50131 0,0 c 0,-2.8905 2.34321,-5.2337 5.2337,-5.2337 l 154.19402,0 c 1.38808,0 2.71928,0.55139 3.70079,1.53289 0.98151,0.98151 1.53291,2.31275 1.53291,3.70081 l 0,20.93419 c 0,2.8905 -2.3432,5.2337 -5.2337,5.2337 l -154.19402,0 0,0 c -2.89049,0 -5.2337,-2.3432 -5.2337,-5.2337 z"
       id="path39-4-5" />
    <text
       xml:space="preserve"
       style="font-size:16px;font-style:normal;font-variant:normal;font-weight:bold;font-stretch:normal;text-align:center;line-height:125%;letter-spacing:0px;word-spacing:0px;text-anchor:middle;fill:#000000;fill-opacity:1;stroke:none;font-family:PT Sans;-inkscape-font-specification:PT Sans Bold"
       x="383.19443"
       y="951.79279"
       id="text3080-3-9-1"
       sodipodi:linespacing="125%"><tspan
         sodipodi:role="line"
         id="tspan3082-2-4-7"
         x="383.19443"
         y="951.79279">Swift-Proxy Nodes (2+)</tspan></text>
    <text
       xml:space="preserve"
       style="font-size:16px;font-style:normal;font-variant:normal;font-weight:normal;font-stretch:normal;text-align:center;line-height:125%;letter-spacing:0px;word-spacing:0px;text-anchor:middle;fill:#000000;fill-opacity:1;stroke:none;font-family:PT Sans;-inkscape-font-specification:PT Sans"
       x="382.64755"
       y="1004.0246"
       id="text3232-8-1"
       sodipodi:linespacing="125%"><tspan
         sodipodi:role="line"
         id="tspan3234-8-1"
         x="382.64755"
         y="1004.0246">swift-proxy</tspan></text>
    <path
       style="fill:#f3f3f3;fill-rule:nonzero;stroke:#000000;stroke-width:3;stroke-miterlimit:10;stroke-opacity:1;stroke-dasharray:none"
       inkscape:connector-curvature="0"
       d="m 520.92924,945.00645 0,0 c 0,-9.46397 13.18965,-17.13604 29.4599,-17.13604 l 175.09592,0 c 7.81326,0 15.3065,1.8054 20.83131,5.01902 5.5248,3.21364 8.62861,7.57225 8.62861,12.11702 l 0,68.54215 c 0,9.4639 -13.18966,17.136 -29.45992,17.136 l -175.09592,0 0,0 c -16.27025,0 -29.4599,-7.6721 -29.4599,-17.136 z"
       id="path33-1-7" />
    <path
       style="fill:#fce5cd;fill-rule:nonzero;stroke:#000000;stroke-width:3;stroke-miterlimit:10;stroke-opacity:1;stroke-dasharray:none"
       inkscape:connector-curvature="0"
       d="m 555.6064,989.50131 0,0 c 0,-2.8905 2.34321,-5.2337 5.2337,-5.2337 l 154.19402,0 c 1.38808,0 2.71928,0.55139 3.70079,1.53289 0.98151,0.98151 1.53291,2.31275 1.53291,3.70081 l 0,20.93419 c 0,2.8905 -2.3432,5.2337 -5.2337,5.2337 l -154.19402,0 0,0 c -2.89049,0 -5.2337,-2.3432 -5.2337,-5.2337 z"
       id="path39-4-0" />
    <text
       xml:space="preserve"
       style="font-size:16px;font-style:normal;font-variant:normal;font-weight:bold;font-stretch:normal;text-align:center;line-height:125%;letter-spacing:0px;word-spacing:0px;text-anchor:middle;fill:#000000;fill-opacity:1;stroke:none;font-family:PT Sans;-inkscape-font-specification:PT Sans Bold"
       x="638.19446"
       y="951.79279"
       id="text3080-3-9-8"
       sodipodi:linespacing="125%"><tspan
         sodipodi:role="line"
         id="tspan3082-2-4-3"
         x="638.19446"
         y="951.79279">Storage Nodes (3+)</tspan></text>
    <text
       xml:space="preserve"
       style="font-size:16px;font-style:normal;font-variant:normal;font-weight:normal;font-stretch:normal;text-align:center;line-height:125%;letter-spacing:0px;word-spacing:0px;text-anchor:middle;fill:#000000;fill-opacity:1;stroke:none;font-family:PT Sans;-inkscape-font-specification:PT Sans"
       x="637.95959"
       y="1003.9685"
       id="text3232-8-4"
       sodipodi:linespacing="125%"><tspan
         sodipodi:role="line"
         id="tspan3234-8-5"
         x="637.95959"
         y="1003.9685">Storage</tspan></text>
  </g>
</svg>
