<?xml version="1.0" encoding="UTF-8" standalone="no"?>
<svg
   xmlns:dc="http://purl.org/dc/elements/1.1/"
   xmlns:cc="http://creativecommons.org/ns#"
   xmlns:rdf="http://www.w3.org/1999/02/22-rdf-syntax-ns#"
   xmlns:svg="http://www.w3.org/2000/svg"
   xmlns="http://www.w3.org/2000/svg"
   xmlns:sodipodi="http://sodipodi.sourceforge.net/DTD/sodipodi-0.dtd"
   xmlns:inkscape="http://www.inkscape.org/namespaces/inkscape"
   version="1.1"
   viewBox="0 0 570 230"
   stroke-miterlimit="10"
   id="svg2"
   inkscape:version="0.48.4 r9939"
   width="100%"
   height="100%"
   sodipodi:docname="deployment-simple.svg"
   style="fill:none;stroke:none">
  <metadata
     id="metadata85">
    <rdf:RDF>
      <cc:Work
         rdf:about="">
        <dc:format>image/svg+xml</dc:format>
        <dc:type
           rdf:resource="http://purl.org/dc/dcmitype/StillImage" />
        <dc:title />
      </cc:Work>
    </rdf:RDF>
  </metadata>
  <defs
     id="defs83" />
  <sodipodi:namedview
     pagecolor="#ffffff"
     bordercolor="#666666"
     borderopacity="1"
     objecttolerance="10"
     gridtolerance="10"
     guidetolerance="10"
     inkscape:pageopacity="0"
     inkscape:pageshadow="2"
     inkscape:window-width="1920"
     inkscape:window-height="1061"
     id="namedview81"
     showgrid="true"
     inkscape:zoom="2.717156"
     inkscape:cx="278.80839"
     inkscape:cy="109.48349"
     inkscape:window-x="1362"
     inkscape:window-y="-4"
     inkscape:window-maximized="1"
     inkscape:current-layer="svg2"
     inkscape:snap-global="false">
    <inkscape:grid
       type="xygrid"
       id="grid3062"
       empspacing="5"
       visible="true"
       enabled="true"
       snapvisiblegridlinesonly="true" />
  </sodipodi:namedview>
  <clipPath
     id="p.0">
    <path
       d="M 0,0 766,0 766,412 0,412 0,0 z"
       clip-rule="nonzero"
       id="path5"
       inkscape:connector-curvature="0" />
  </clipPath>
  <path
     style="fill:#000000;fill-opacity:0;fill-rule:nonzero"
     inkscape:connector-curvature="0"
     d="m 9.9820862,8.67712 766.8714038,0 0,412.93176 -766.8714038,0 z"
     id="path9" />
  <path
     style="fill:#f3f3f3;fill-rule:nonzero;stroke:#000000;stroke-opacity:1;stroke-width:5;stroke-miterlimit:10;stroke-dasharray:none"
     inkscape:connector-curvature="0"
     d="m 316.92794,62.13704 0,0 c 0,-16.27026 13.18965,-29.45991 29.45991,-29.45991 l 175.09592,0 c 7.81327,0 15.3065,3.1038 20.83132,8.6286 5.52479,5.52481 8.62858,13.01805 8.62858,20.83131 l 0,117.83607 c 0,16.27027 -13.18963,29.45993 -29.4599,29.45993 l -175.09592,0 0,0 c -16.27026,0 -29.45991,-13.18966 -29.45991,-29.45993 z"
     id="path11" />
  <path
     style="fill:#f3f3f3;fill-rule:nonzero;stroke:#000000;stroke-opacity:1;stroke-width:5;stroke-miterlimit:10;stroke-dasharray:none"
     inkscape:connector-curvature="0"
     d="m 20.943686,45.86931 0,0 c 0,-16.1224 13.06979,-29.19219 29.19219,-29.19219 l 175.631374,0 c 7.74225,0 15.16739,3.0756 20.642,8.5502 5.4746,5.47459 8.55019,12.89974 8.55019,20.64199 l 0,116.76523 c 0,16.12239 -13.0698,29.19219 -29.19219,29.19219 l -175.631374,0 0,0 c -16.1224,0 -29.19219,-13.0698 -29.19219,-29.19219 z"
     id="path15" />
  <path
     style="fill:#fce5cd;fill-rule:nonzero;stroke:#000000;stroke-width:3;stroke-miterlimit:10;stroke-opacity:1;stroke-dasharray:none"
     inkscape:connector-curvature="0"
     d="m 53.605096,81.3124 0,0 c 0,-2.89049 2.34321,-5.2337 5.2337,-5.2337 l 154.194034,0 c 1.38806,0 2.71929,0.55141 3.70079,1.53292 0.98151,0.98151 1.53292,2.31272 1.53292,3.70078 l 0,20.93417 c 0,2.8905 -2.34322,5.23371 -5.23371,5.23371 l -154.194034,0 0,0 c -2.89049,0 -5.2337,-2.34321 -5.2337,-5.23371 z"
     id="path21" />
  <path
     style="fill:#fce5cd;fill-rule:nonzero;stroke:#000000;stroke-opacity:1;stroke-width:3;stroke-miterlimit:10;stroke-dasharray:none"
     inkscape:connector-curvature="0"
     d="m 53.605096,123.56436 0,0 c 0,-2.89049 2.34321,-5.2337 5.2337,-5.2337 l 154.194034,0 c 1.38806,0 2.71929,0.55141 3.70079,1.53293 0.98151,0.9815 1.53292,2.31272 1.53292,3.70077 l 0,20.93418 c 0,2.89049 -2.34322,5.23369 -5.23371,5.23369 l -154.194034,0 0,0 c -2.89049,0 -5.2337,-2.3432 -5.2337,-5.23369 z"
     id="path27" />
  <path
     style="fill:#f3f3f3;fill-rule:nonzero;stroke:#000000;stroke-opacity:1;stroke-width:5;stroke-miterlimit:10;stroke-dasharray:none"
     inkscape:connector-curvature="0"
     d="m 300.92794,46.13704 0,0 c 0,-16.27026 13.18965,-29.45991 29.45991,-29.45991 l 175.09592,0 c 7.81326,0 15.3065,3.1038 20.83131,8.6286 5.5248,5.52481 8.62861,13.01805 8.62861,20.83131 l 0,117.83607 c 0,16.27027 -13.18966,29.45993 -29.45992,29.45993 l -175.09592,0 0,0 c -16.27026,0 -29.45991,-13.18966 -29.45991,-29.45993 z"
     id="path33" />
  <path
     style="fill:#fce5cd;fill-rule:nonzero;stroke:#000000;stroke-opacity:1;stroke-width:3;stroke-miterlimit:10;stroke-dasharray:none"
     inkscape:connector-curvature="0"
     d="m 334.80518,81.3124 0,0 c 0,-2.8905 2.3432,-5.2337 5.2337,-5.2337 l 154.19402,0 c 1.38808,0 2.71928,0.55139 3.70079,1.53289 0.98151,0.98151 1.53291,2.31275 1.53291,3.70081 l 0,20.93417 c 0,2.89048 -2.3432,5.23371 -5.2337,5.23371 l -154.19402,0 0,0 c -2.89049,0 -5.2337,-2.34323 -5.2337,-5.23371 z"
     id="path39" />
  <text
     xml:space="preserve"
     style="font-size:16px;font-style:normal;font-variant:normal;font-weight:bold;font-stretch:normal;text-align:center;line-height:125%;letter-spacing:0px;word-spacing:0px;text-anchor:middle;fill:#000000;fill-opacity:1;stroke:none;font-family:PT Sans;-inkscape-font-specification:PT Sans Bold"
     x="137.92618"
     y="39.599487"
     id="text3080"
     sodipodi:linespacing="125%"><tspan
       sodipodi:role="line"
       id="tspan3082"
       x="137.92618"
       y="39.599487">Controller Node</tspan></text>
  <text
     xml:space="preserve"
     style="font-size:16px;font-style:normal;font-variant:normal;font-weight:normal;font-stretch:normal;text-align:center;line-height:125%;letter-spacing:0px;word-spacing:0px;text-anchor:middle;fill:#000000;fill-opacity:1;stroke:none;font-family:PT Sans;-inkscape-font-specification:PT Sans"
     x="135.56668"
     y="97.379585"
     id="text3114-52"
     sodipodi:linespacing="125%"><tspan
       sodipodi:role="line"
       id="tspan3116-7"
       x="135.56668"
       y="97.379585">Controller</tspan></text>
  <text
     xml:space="preserve"
     style="font-size:16px;font-style:normal;font-variant:normal;font-weight:normal;font-stretch:normal;text-align:center;line-height:125%;letter-spacing:0px;word-spacing:0px;text-anchor:middle;fill:#000000;fill-opacity:1;stroke:none;font-family:PT Sans;-inkscape-font-specification:PT Sans"
     x="135.95828"
     y="138.03145"
     id="text3120-6"
     sodipodi:linespacing="125%"><tspan
       sodipodi:role="line"
       id="tspan3122-1"
       x="135.95828"
       y="138.03145">Storage</tspan></text>
  <text
     xml:space="preserve"
     style="font-size:16px;font-style:normal;font-variant:normal;font-weight:bold;font-stretch:normal;text-align:center;line-height:125%;letter-spacing:0px;word-spacing:0px;text-anchor:middle;fill:#000000;fill-opacity:1;stroke:none;font-family:PT Sans;-inkscape-font-specification:PT Sans Bold"
     x="417.85477"
     y="39.599487"
     id="text3080-3"
     sodipodi:linespacing="125%"><tspan
       sodipodi:role="line"
       id="tspan3082-2"
       x="417.85477"
       y="39.599487">Compute Nodes</tspan></text>
  <text
     xml:space="preserve"
     style="font-size:16px;font-style:normal;font-variant:normal;font-weight:normal;font-stretch:normal;text-align:center;line-height:125%;letter-spacing:0px;word-spacing:0px;text-anchor:middle;fill:#000000;fill-opacity:1;stroke:none;font-family:PT Sans;-inkscape-font-specification:PT Sans"
     x="417.07828"
     y="95.875435"
     id="text3232"
     sodipodi:linespacing="125%"><tspan
       sodipodi:role="line"
       id="tspan3234"
       x="417.07828"
       y="95.875435">Compute</tspan></text>
</svg>
