<?xml version="1.0" encoding="UTF-8" standalone="no"?>
<svg
   xmlns:dc="http://purl.org/dc/elements/1.1/"
   xmlns:cc="http://creativecommons.org/ns#"
   xmlns:rdf="http://www.w3.org/1999/02/22-rdf-syntax-ns#"
   xmlns:svg="http://www.w3.org/2000/svg"
   xmlns="http://www.w3.org/2000/svg"
   xmlns:sodipodi="http://sodipodi.sourceforge.net/DTD/sodipodi-0.dtd"
   xmlns:inkscape="http://www.inkscape.org/namespaces/inkscape"
   version="1.1"
   viewBox="0.0 0.0 766.0 412.0"
   fill="none"
   stroke="none"
   stroke-linecap="square"
   stroke-miterlimit="10"
   id="svg2"
   inkscape:version="0.48.4 r9939"
   width="100%"
   height="100%"
   sodipodi:docname="deployment-ha-compact-red-hat.svg"
   inkscape:export-filename="/home/mmosesohn/git/fuel-docs/_images/deployment-ha-compact-red-hat_svg.png"
   inkscape:export-xdpi="90"
   inkscape:export-ydpi="90">
  <metadata
     id="metadata103">
    <rdf:RDF>
      <cc:Work
         rdf:about="">
        <dc:format>image/svg+xml</dc:format>
        <dc:type
           rdf:resource="http://purl.org/dc/dcmitype/StillImage" />
        <dc:title />
      </cc:Work>
    </rdf:RDF>
  </metadata>
  <defs
     id="defs101" />
  <sodipodi:namedview
     pagecolor="#ffffff"
     bordercolor="#666666"
     borderopacity="1"
     objecttolerance="10"
     gridtolerance="10"
     guidetolerance="10"
     inkscape:pageopacity="0"
     inkscape:pageshadow="2"
     inkscape:window-width="1920"
     inkscape:window-height="1061"
     id="namedview99"
     showgrid="true"
     showguides="false"
     inkscape:snap-global="false"
     inkscape:zoom="0.74953319"
     inkscape:cx="954.02051"
     inkscape:cy="264.32674"
     inkscape:window-x="1362"
     inkscape:window-y="-4"
     inkscape:window-maximized="1"
     inkscape:current-layer="g7">
    <inkscape:grid
       type="xygrid"
       id="grid3118" />
  </sodipodi:namedview>
  <clipPath
     id="p.0">
    <path
       d="m0 0l766.0 0l0 412.0l-766.0 0l0 -412.0z"
       clip-rule="nonzero"
       id="path5" />
  </clipPath>
  <g
     clip-path="url(#p.0)"
     id="g7">
    <path
       fill="#000000"
       fill-opacity="0.0"
       d="m0 0l766.8714 0l0 412.93176l-766.8714 0z"
       fill-rule="nonzero"
       id="path9" />
    <path
       fill="#f3f3f3"
       d="m24.945854 253.45992l0 0c0 -16.270264 13.189648 -29.459915 29.459908 -29.459915l175.09592 0c7.813263 0 15.306503 3.1038055 20.831314 8.628601c5.5247955 5.524811 8.628586 13.018051 8.628586 20.831314l0 117.836075c0 16.270264 -13.189636 29.45993 -29.4599 29.45993l-175.09592 0l0 0c-16.27026 0 -29.459908 -13.189667 -29.459908 -29.45993z"
       fill-rule="nonzero"
       id="path11"
       style="stroke:#000000;stroke-opacity:1;stroke-width:5;stroke-miterlimit:10;stroke-dasharray:none" />
    <path
       fill="#f3f3f3"
       d="m10.961601 37.192184l0 0c0 -16.122398 13.069786 -29.192184 29.192184 -29.192184l175.63138 0c7.7422485 0 15.167389 3.0755968 20.641998 8.550194c5.474594 5.474596 8.550186 12.899742 8.550186 20.64199l0 116.76524c0 16.12239 -13.069794 29.192184 -29.192184 29.192184l-175.63138 0l0 0c-16.122398 0 -29.192184 -13.069794 -29.192184 -29.192184z"
       fill-rule="nonzero"
       id="path15"
       style="stroke:#000000;stroke-opacity:1;stroke-width:5;stroke-miterlimit:10;stroke-dasharray:none" />
    <path
       d="m 45.638756,68.72714 0,0 c 0,-2.890492 2.343204,-5.2337 5.2337,-5.2337 l 154.194024,0 c 1.38806,0 2.71929,0.551407 3.70079,1.532913 0.98151,0.98151 1.53292,2.312722 1.53292,3.700787 l 0,20.93417 c 0,2.890495 -2.34322,5.233703 -5.23371,5.233703 l -154.194023,0 0,0 c -2.890495,0 -5.2337,-2.343208 -5.2337,-5.233703 z"
       id="path21"
       inkscape:connector-curvature="0"
       style="fill:#fce5cd;fill-rule:nonzero;stroke:#000000;stroke-width:2;stroke-miterlimit:10;stroke-opacity:1;stroke-dasharray:none" />
    <path
       d="m 45.638756,118.88724 0,0 c 0,-2.89049 2.343204,-5.2337 5.2337,-5.2337 l 154.194024,0 c 1.38806,0 2.71929,0.55141 3.70079,1.53292 0.98151,0.98151 1.53292,2.31272 1.53292,3.70078 l 0,20.93418 c 0,2.89049 -2.34322,5.23369 -5.23371,5.23369 l -154.194023,0 0,0 c -2.890495,0 -5.2337,-2.3432 -5.2337,-5.23369 z"
       id="path27"
       inkscape:connector-curvature="0"
       style="fill:#fce5cd;fill-rule:nonzero;stroke:#000000;stroke-width:2;stroke-miterlimit:10;stroke-opacity:1;stroke-dasharray:none" />
    <path
       fill="#f3f3f3"
       d="m8.945853 237.45992l0 0c0 -16.270264 13.189651 -29.459915 29.459908 -29.459915l175.09592 0c7.813263 0 15.306503 3.1038055 20.831314 8.628601c5.5247955 5.524811 8.628601 13.018051 8.628601 20.831314l0 117.836075c0 16.270264 -13.1896515 29.45993 -29.459915 29.45993l-175.09592 0l0 0c-16.270258 0 -29.459908 -13.189667 -29.459908 -29.45993z"
       fill-rule="nonzero"
       id="path33"
       style="stroke:#000000;stroke-opacity:1;stroke-width:5;stroke-miterlimit:10;stroke-dasharray:none" />
    <path
       d="m 43.223053,268.63528 0,0 c 0,-2.8905 2.343205,-5.2337 5.2337,-5.2337 l 154.194017,0 c 1.38808,0 2.71929,0.55139 3.70079,1.53289 0.98151,0.98151 1.53292,2.31275 1.53292,3.70081 l 0,20.93417 c 0,2.89048 -2.3432,5.23371 -5.23371,5.23371 l -154.194017,0 0,0 c -2.890495,0 -5.2337,-2.34323 -5.2337,-5.23371 z"
       id="path39"
       style="fill:#fce5cd;fill-rule:nonzero;stroke:#000000;stroke-width:2;stroke-miterlimit:10;stroke-opacity:1;stroke-dasharray:none"
       inkscape:connector-curvature="0" />
    <path
       fill="#f3f3f3"
       d="m266.9616 38.04258l0 0c0 -16.1224 13.069763 -29.192186 29.19217 -29.192186l175.63138 0c7.7422485 0 15.167389 3.0755968 20.641998 8.550194c5.474579 5.474596 8.550171 12.899744 8.550171 20.641993l0 116.765236c0 16.122406 -13.069794 29.192184 -29.19217 29.192184l-175.63138 0l0 0c-16.122406 0 -29.19217 -13.069778 -29.19217 -29.192184z"
       fill-rule="nonzero"
       id="path45"
       style="stroke:#000000;stroke-opacity:1;stroke-width:5;stroke-miterlimit:10;stroke-dasharray:none" />
    <path
       d="m 301.63875,68.72714 0,0 c 0,-2.890492 2.3432,-5.2337 5.2337,-5.2337 l 154.194,0 c 1.38807,0 2.7193,0.551407 3.70081,1.532913 0.98151,0.98151 1.5329,2.312722 1.5329,3.700787 l 0,20.93417 c 0,2.890495 -2.3432,5.233703 -5.23371,5.233703 l -154.194,0 0,0 c -2.8905,0 -5.2337,-2.343208 -5.2337,-5.233703 z"
       id="path51"
       inkscape:connector-curvature="0"
       style="fill:#fce5cd;fill-rule:nonzero;stroke:#000000;stroke-width:2;stroke-miterlimit:10;stroke-opacity:1;stroke-dasharray:none" />
    <path
       d="m 301.63875,118.88724 0,0 c 0,-2.89049 2.3432,-5.2337 5.2337,-5.2337 l 154.194,0 c 1.38807,0 2.7193,0.55141 3.70081,1.53292 0.98151,0.98151 1.5329,2.31272 1.5329,3.70078 l 0,20.93418 c 0,2.89049 -2.3432,5.23369 -5.23371,5.23369 l -154.194,0 0,0 c -2.8905,0 -5.2337,-2.3432 -5.2337,-5.23369 z"
       id="path57"
       inkscape:connector-curvature="0"
       style="fill:#fce5cd;fill-rule:nonzero;stroke:#000000;stroke-width:2;stroke-miterlimit:10;stroke-opacity:1;stroke-dasharray:none" />
    <path
       fill="#f3f3f3"
       d="m522.5189 38.04258l0 0c0 -16.1224 13.069763 -29.192186 29.1922 -29.192186l175.63135 0c7.7422485 0 15.167358 3.0755968 20.641968 8.550194c5.4746094 5.474596 8.550232 12.899744 8.550232 20.641993l0 116.765236c0 16.122406 -13.069824 29.192184 -29.1922 29.192184l-175.63135 0l0 0c-16.122437 0 -29.1922 -13.069778 -29.1922 -29.192184z"
       fill-rule="nonzero"
       id="path63"
       style="stroke:#000000;stroke-opacity:1;stroke-width:5;stroke-miterlimit:10;stroke-dasharray:none" />
    <path
       d="m 557.19605,68.72714 0,0 c 0,-2.890492 2.34321,-5.2337 5.2337,-5.2337 l 154.19403,0 c 1.38807,0 2.7193,0.551407 3.70082,1.532913 0.9815,0.98151 1.5329,2.312722 1.5329,3.700787 l 0,20.93417 c 0,2.890495 -2.3432,5.233703 -5.23371,5.233703 l -154.19403,0 0,0 c -2.8905,0 -5.2337,-2.343208 -5.2337,-5.233703 z"
       id="path69"
       inkscape:connector-curvature="0"
       style="fill:#fce5cd;fill-rule:nonzero;stroke:#000000;stroke-width:2;stroke-miterlimit:10;stroke-opacity:1;stroke-dasharray:none" />
    <path
       d="m 557.19605,118.88724 0,0 c 0,-2.89049 2.34321,-5.2337 5.2337,-5.2337 l 154.19403,0 c 1.38807,0 2.7193,0.55141 3.70082,1.53292 0.9815,0.98151 1.5329,2.31272 1.5329,3.70078 l 0,20.93418 c 0,2.89049 -2.3432,5.23369 -5.23371,5.23369 l -154.19403,0 0,0 c -2.8905,0 -5.2337,-2.3432 -5.2337,-5.23369 z"
       id="path75"
       inkscape:connector-curvature="0"
       style="fill:#fce5cd;fill-rule:nonzero;stroke:#000000;stroke-width:2;stroke-miterlimit:10;stroke-opacity:1;stroke-dasharray:none" />
    <text
       xml:space="preserve"
       style="font-size:16px;font-style:normal;font-weight:bold;text-align:center;line-height:125%;letter-spacing:0px;word-spacing:0px;text-anchor:middle;fill:#000000;fill-opacity:1;stroke:none;font-family:PT Sans;-inkscape-font-specification:PT Sans Bold;font-stretch:normal;font-variant:normal"
       x="130.20284"
       y="31.80772"
       id="text3080"
       sodipodi:linespacing="125%"><tspan
         sodipodi:role="line"
         id="tspan3082"
         x="130.20284"
         y="31.80772">Controller Node #1</tspan></text>
    <text
       xml:space="preserve"
       style="font-size:16px;font-style:normal;font-weight:bold;text-align:center;line-height:125%;letter-spacing:0px;word-spacing:0px;text-anchor:middle;fill:#000000;fill-opacity:1;stroke:none;font-family:PT Sans;-inkscape-font-specification:PT Sans Bold;font-stretch:normal;font-variant:normal"
       x="384.84326"
       y="31.852705"
       id="text3080-1"
       sodipodi:linespacing="125%"><tspan
         sodipodi:role="line"
         id="tspan3082-7"
         x="384.84326"
         y="31.852705">Controller Node #2</tspan></text>
    <text
       xml:space="preserve"
       style="font-size:16px;font-style:normal;font-weight:bold;text-align:center;line-height:125%;letter-spacing:0px;word-spacing:0px;text-anchor:middle;fill:#000000;fill-opacity:1;stroke:none;font-family:PT Sans;-inkscape-font-specification:PT Sans Bold;font-stretch:normal;font-variant:normal"
       x="640.04083"
       y="31.37924"
       id="text3080-4"
       sodipodi:linespacing="125%"><tspan
         sodipodi:role="line"
         id="tspan3082-0"
         x="640.04083"
         y="31.37924">Controller Node #3</tspan></text>
    <text
       xml:space="preserve"
       style="font-size:16px;font-style:normal;font-weight:normal;text-align:center;line-height:125%;letter-spacing:0px;word-spacing:0px;text-anchor:middle;fill:#000000;fill-opacity:1;stroke:none;font-family:PT Sans;-inkscape-font-specification:PT Sans;font-stretch:normal;font-variant:normal"
       x="639.02679"
       y="84.920792"
       id="text3114"
       sodipodi:linespacing="125%"><tspan
         sodipodi:role="line"
         id="tspan3116"
         x="639.02679"
         y="84.920792">Controller</tspan></text>
    <text
       xml:space="preserve"
       style="font-size:16px;font-style:normal;font-weight:normal;text-align:center;line-height:125%;letter-spacing:0px;word-spacing:0px;text-anchor:middle;fill:#000000;fill-opacity:1;stroke:none;font-family:PT Sans;-inkscape-font-specification:PT Sans;font-stretch:normal;font-variant:normal"
       x="639.50336"
       y="133.49495"
       id="text3120"
       sodipodi:linespacing="125%"><tspan
         sodipodi:role="line"
         id="tspan3122"
         x="639.50336"
         y="133.49495">Storage</tspan></text>
    <text
       xml:space="preserve"
       style="font-size:16px;font-style:normal;font-weight:normal;text-align:center;line-height:125%;letter-spacing:0px;word-spacing:0px;text-anchor:middle;fill:#000000;fill-opacity:1;stroke:none;font-family:PT Sans;-inkscape-font-specification:PT Sans;font-stretch:normal;font-variant:normal"
       x="383.46945"
       y="84.920792"
       id="text3114-5"
       sodipodi:linespacing="125%"><tspan
         sodipodi:role="line"
         id="tspan3116-5"
         x="383.46945"
         y="84.920792">Controller</tspan></text>
    <text
       xml:space="preserve"
       style="font-size:16px;font-style:normal;font-weight:normal;text-align:center;line-height:125%;letter-spacing:0px;word-spacing:0px;text-anchor:middle;fill:#000000;fill-opacity:1;stroke:none;font-family:PT Sans;-inkscape-font-specification:PT Sans;font-stretch:normal;font-variant:normal"
       x="383.94601"
       y="133.49495"
       id="text3120-1"
       sodipodi:linespacing="125%"><tspan
         sodipodi:role="line"
         id="tspan3122-7"
         x="383.94601"
         y="133.49495">Storage</tspan></text>
    <text
       xml:space="preserve"
       style="font-size:16px;font-style:normal;font-weight:normal;text-align:center;line-height:125%;letter-spacing:0px;word-spacing:0px;text-anchor:middle;fill:#000000;fill-opacity:1;stroke:none;font-family:PT Sans;-inkscape-font-specification:PT Sans;font-stretch:normal;font-variant:normal"
       x="127.46947"
       y="84.920792"
       id="text3114-52"
       sodipodi:linespacing="125%"><tspan
         sodipodi:role="line"
         id="tspan3116-7"
         x="127.46947"
         y="84.920792">Controller</tspan></text>
    <text
       xml:space="preserve"
       style="font-size:16px;font-style:normal;font-weight:normal;text-align:center;line-height:125%;letter-spacing:0px;word-spacing:0px;text-anchor:middle;fill:#000000;fill-opacity:1;stroke:none;font-family:PT Sans;-inkscape-font-specification:PT Sans;font-stretch:normal;font-variant:normal"
       x="127.94604"
       y="133.49495"
       id="text3120-6"
       sodipodi:linespacing="125%"><tspan
         sodipodi:role="line"
         id="tspan3122-1"
         x="127.94604"
         y="133.49495">Storage</tspan></text>
    <text
       xml:space="preserve"
       style="font-size:16px;font-style:normal;font-weight:bold;text-align:center;line-height:125%;letter-spacing:0px;word-spacing:0px;text-anchor:middle;fill:#000000;fill-opacity:1;stroke:none;font-family:PT Sans;-inkscape-font-specification:PT Sans Bold;font-stretch:normal;font-variant:normal"
       x="129.94377"
       y="231.97543"
       id="text3080-3"
       sodipodi:linespacing="125%"><tspan
         sodipodi:role="line"
         id="tspan3082-2"
         x="129.94377"
         y="231.97543">Compute Nodes</tspan></text>
    <text
       xml:space="preserve"
       style="font-size:16px;font-style:normal;font-weight:normal;text-align:center;line-height:125%;letter-spacing:0px;word-spacing:0px;text-anchor:middle;fill:#000000;fill-opacity:1;stroke:none;font-family:PT Sans;-inkscape-font-specification:PT Sans;font-stretch:normal;font-variant:normal"
       x="125.49126"
       y="283.33673"
       id="text3232"
       sodipodi:linespacing="125%"><tspan
         sodipodi:role="line"
         id="tspan3234"
         x="125.49126"
         y="283.33673">Compute</tspan></text>
    <path
       id="path3245"
       d="m 43.223053,319.38068 0,0 c 0,-2.89049 2.343208,-5.23369 5.2337,-5.23369 l 154.194027,0 c 1.38807,0 2.71928,0.55141 3.70079,1.53291 0.9815,0.98151 1.53291,2.31272 1.53291,3.70078 l 0,20.93417 c 0,2.89051 -2.3432,5.23371 -5.2337,5.23371 l -154.194027,0 0,0 c -2.890492,0 -5.2337,-2.3432 -5.2337,-5.23371 z"
       inkscape:connector-curvature="0"
       style="fill:#fce5cd;stroke:#000000;stroke-width:2;stroke-linecap:butt;stroke-linejoin:round" />
    <text
       sodipodi:linespacing="125%"
       id="text3247"
       y="335.48059"
       x="126.00259"
       style="font-size:16px;font-style:normal;font-weight:normal;text-align:center;line-height:125%;letter-spacing:0px;word-spacing:0px;text-anchor:middle;fill:#000000;fill-opacity:1;stroke:none;font-family:PT Sans;-inkscape-font-specification:PT Sans;font-stretch:normal;font-variant:normal"
       xml:space="preserve"><tspan
         y="335.48059"
         x="126.00259"
         id="tspan3249"
         sodipodi:role="line">Nova network</tspan></text>
  </g>
</svg>
