<?xml version="1.0" encoding="UTF-8" standalone="no"?>
<!-- Created with Inkscape (http://www.inkscape.org/) -->

<svg
   xmlns:dc="http://purl.org/dc/elements/1.1/"
   xmlns:cc="http://creativecommons.org/ns#"
   xmlns:rdf="http://www.w3.org/1999/02/22-rdf-syntax-ns#"
   xmlns:svg="http://www.w3.org/2000/svg"
   xmlns="http://www.w3.org/2000/svg"
   xmlns:sodipodi="http://sodipodi.sourceforge.net/DTD/sodipodi-0.dtd"
   xmlns:inkscape="http://www.inkscape.org/namespaces/inkscape"
   id="svg8286"
   version="1.1"
   inkscape:version="0.48.4 r9939"
   width="948.7025"
   height="663.7175"
   xml:space="preserve"
   sodipodi:docname="scheme-1.ai"><metadata
     id="metadata8292"><rdf:RDF><cc:Work
         rdf:about=""><dc:format>image/svg+xml</dc:format><dc:type
           rdf:resource="http://purl.org/dc/dcmitype/StillImage" /><dc:title></dc:title></cc:Work></rdf:RDF></metadata><defs
     id="defs8290"><clipPath
       clipPathUnits="userSpaceOnUse"
       id="clipPath8300"><path
         d="m 0,530.974 758.962,0 L 758.962,0 0,0 0,530.974 z"
         id="path8302" /></clipPath><clipPath
       clipPathUnits="userSpaceOnUse"
       id="clipPath8344"><path
         d="m 0,530.974 758.962,0 L 758.962,0 0,0 0,530.974 z"
         id="path8346" /></clipPath><clipPath
       clipPathUnits="userSpaceOnUse"
       id="clipPath8412"><path
         d="m 0,530.974 758.962,0 L 758.962,0 0,0 0,530.974 z"
         id="path8414" /></clipPath><clipPath
       clipPathUnits="userSpaceOnUse"
       id="clipPath8432"><path
         d="m 0,530.974 758.962,0 L 758.962,0 0,0 0,530.974 z"
         id="path8434" /></clipPath><clipPath
       clipPathUnits="userSpaceOnUse"
       id="clipPath8452"><path
         d="m 0,530.974 758.962,0 L 758.962,0 0,0 0,530.974 z"
         id="path8454" /></clipPath><clipPath
       clipPathUnits="userSpaceOnUse"
       id="clipPath8472"><path
         d="m 0,530.974 758.962,0 L 758.962,0 0,0 0,530.974 z"
         id="path8474" /></clipPath><clipPath
       clipPathUnits="userSpaceOnUse"
       id="clipPath8492"><path
         d="m 0,530.974 758.962,0 L 758.962,0 0,0 0,530.974 z"
         id="path8494" /></clipPath><clipPath
       clipPathUnits="userSpaceOnUse"
       id="clipPath8512"><path
         d="m 0,530.974 758.962,0 L 758.962,0 0,0 0,530.974 z"
         id="path8514" /></clipPath><clipPath
       clipPathUnits="userSpaceOnUse"
       id="clipPath8534"><path
         d="m 0,530.974 758.962,0 L 758.962,0 0,0 0,530.974 z"
         id="path8536" /></clipPath><clipPath
       clipPathUnits="userSpaceOnUse"
       id="clipPath8556"><path
         d="m 0,530.974 758.962,0 L 758.962,0 0,0 0,530.974 z"
         id="path8558" /></clipPath><clipPath
       clipPathUnits="userSpaceOnUse"
       id="clipPath8576"><path
         d="m 0,530.974 758.962,0 L 758.962,0 0,0 0,530.974 z"
         id="path8578" /></clipPath><clipPath
       clipPathUnits="userSpaceOnUse"
       id="clipPath8596"><path
         d="m 0,530.974 758.962,0 L 758.962,0 0,0 0,530.974 z"
         id="path8598" /></clipPath><clipPath
       clipPathUnits="userSpaceOnUse"
       id="clipPath8616"><path
         d="m 0,530.974 758.962,0 L 758.962,0 0,0 0,530.974 z"
         id="path8618" /></clipPath><clipPath
       clipPathUnits="userSpaceOnUse"
       id="clipPath8636"><path
         d="m 0,530.974 758.962,0 L 758.962,0 0,0 0,530.974 z"
         id="path8638" /></clipPath><clipPath
       clipPathUnits="userSpaceOnUse"
       id="clipPath8656"><path
         d="m 0,530.974 758.962,0 L 758.962,0 0,0 0,530.974 z"
         id="path8658" /></clipPath><clipPath
       clipPathUnits="userSpaceOnUse"
       id="clipPath8676"><path
         d="m 0,530.974 758.962,0 L 758.962,0 0,0 0,530.974 z"
         id="path8678" /></clipPath><clipPath
       clipPathUnits="userSpaceOnUse"
       id="clipPath8698"><path
         d="m 0,530.974 758.962,0 L 758.962,0 0,0 0,530.974 z"
         id="path8700" /></clipPath><clipPath
       clipPathUnits="userSpaceOnUse"
       id="clipPath8720"><path
         d="m 0,530.974 758.962,0 L 758.962,0 0,0 0,530.974 z"
         id="path8722" /></clipPath></defs><sodipodi:namedview
     pagecolor="#ffffff"
     bordercolor="#666666"
     borderopacity="1"
     objecttolerance="10"
     gridtolerance="10"
     guidetolerance="10"
     inkscape:pageopacity="0"
     inkscape:pageshadow="2"
     inkscape:window-width="1920"
     inkscape:window-height="1061"
     id="namedview8288"
     showgrid="false"
     inkscape:zoom="1.3239134"
     inkscape:cx="585.66255"
     inkscape:cy="125.79447"
     inkscape:window-x="1362"
     inkscape:window-y="-4"
     inkscape:window-maximized="1"
     inkscape:current-layer="g8294" /><g
     id="g8294"
     inkscape:groupmode="layer"
     inkscape:label="scheme-1"
     transform="matrix(1.25,0,0,-1.25,0,663.7175)"><g
       id="g8296"><g
         id="g8298"
         clip-path="url(#clipPath8300)"><g
           id="g8304"
           transform="translate(62.3906,26.5771)"><path
             d="m 0,0 c -4.516,0 -8.743,1.82 -11.904,5.126 l -2.931,3.067 0.02,-0.246 -16.012,16.012 -1.05,1.139 C -34.858,28.201 -36.5,32.25 -36.5,36.5 l 0,348 c 0,9.098 7.402,16.5 16.5,16.5 l 284,0 c 4.405,0 8.556,-1.736 11.688,-4.887 l 2.903,-2.923 -0.003,0.038 16.236,-16.235 0.902,-0.923 c 3.079,-3.119 4.774,-7.229 4.774,-11.57 l 0,-348 C 300.5,7.402 293.098,0 284,0 L 0,0 z"
             style="fill:#bcbec0;fill-opacity:1;fill-rule:nonzero;stroke:none"
             id="path8306" /></g><g
           id="g8308"
           transform="translate(326.3906,429.0771)"><path
             d="m 0,0 -284,0 c -9.9,0 -18,-8.1 -18,-18 l 0,-348 c 0,-4.819 1.929,-9.202 5.041,-12.441 l -0.083,-0.006 20.063,-20.063 -0.009,0.1 c 3.283,-3.434 7.892,-5.59 12.988,-5.59 l 284,0 c 9.9,0 18,8.1 18,18 l 0,348 c 0,4.907 -1.994,9.368 -5.207,12.624 l 0.02,0.001 L 12.75,-5.313 12.751,-5.33 C 9.486,-2.044 4.971,0 0,0 m 0,-3 c 4.002,0 7.775,-1.579 10.624,-4.445 l 5.802,-5.822 -0.004,0.039 12.74,-12.739 1.496,-1.516 C 33.458,-30.32 35,-34.056 35,-38 l 0,-348 c 0,-8.271 -6.729,-15 -15,-15 l -284,0 c -4.102,0 -7.944,1.656 -10.819,4.663 l -5.863,6.132 0.033,-0.393 -11.995,11.994 -2.151,2.241 c -2.712,2.822 -4.205,6.503 -4.205,10.363 l 0,348 c 0,8.271 6.729,15 15,15 L 0,-3"
             style="fill:#000000;fill-opacity:1;fill-rule:nonzero;stroke:none"
             id="path8310" /></g><g
           id="g8312"
           transform="translate(432.3906,26.5771)"><path
             d="m 0,0 c -4.516,0 -8.743,1.82 -11.904,5.127 l -2.954,3.089 0.022,-0.247 -15.993,15.992 -1.048,1.137 C -34.858,28.201 -36.5,32.251 -36.5,36.5 l 0,348 c 0,9.098 7.402,16.5 16.5,16.5 l 284,0 c 4.405,0 8.556,-1.736 11.688,-4.887 l 3.03,-3.049 -0.005,0.039 16.095,-16.095 0.918,-0.938 c 3.079,-3.12 4.774,-7.229 4.774,-11.57 l 0,-348 C 300.5,7.402 293.098,0 284,0 L 0,0 z"
             style="fill:#bcbec0;fill-opacity:1;fill-rule:nonzero;stroke:none"
             id="path8314" /></g><g
           id="g8316"
           transform="translate(696.3906,429.0771)"><path
             d="m 0,0 -284,0 c -9.9,0 -18,-8.1 -18,-18 l 0,-348 c 0,-4.819 1.93,-9.202 5.041,-12.441 l -0.083,-0.006 20.063,-20.063 -0.009,0.1 c 3.283,-3.434 7.892,-5.59 12.988,-5.59 l 284,0 c 9.9,0 18,8.1 18,18 l 0,348 c 0,4.907 -1.994,9.368 -5.207,12.624 l 0.02,0.001 L 12.75,-5.313 12.752,-5.33 C 9.486,-2.044 4.971,0 0,0 m 0,-3 c 4.003,0 7.775,-1.579 10.624,-4.445 l 6.05,-6.072 -0.005,0.043 12.447,-12.447 1.541,-1.562 C 33.458,-30.321 35,-34.056 35,-38 l 0,-348 c 0,-8.271 -6.729,-15 -15,-15 l -284,0 c -4.102,0 -7.944,1.656 -10.82,4.663 l -5.911,6.183 0.035,-0.396 -11.956,11.956 -2.143,2.231 c -2.712,2.823 -4.205,6.503 -4.205,10.363 l 0,348 c 0,8.271 6.729,15 15,15 L 0,-3"
             style="fill:#000000;fill-opacity:1;fill-rule:nonzero;stroke:none"
             id="path8318" /></g><g
           id="g8320"
           transform="translate(412.3906,46.5771)"><path
             d="m 0,0 c -9.099,0 -16.5,7.401 -16.5,16.5 l 0,348 c 0,9.098 7.401,16.5 16.5,16.5 l 284,0 c 9.099,0 16.5,-7.402 16.5,-16.5 l 0,-348 C 300.5,7.401 293.099,0 284,0 L 0,0 z"
             style="fill:#ffffff;fill-opacity:1;fill-rule:nonzero;stroke:none"
             id="path8322" /></g><g
           id="g8324"
           transform="translate(696.3906,429.0771)"><path
             d="m 0,0 -284,0 c -9.9,0 -18,-8.1 -18,-18 l 0,-348 c 0,-9.9 8.1,-18 18,-18 l 284,0 c 9.9,0 18,8.1 18,18 l 0,348 C 18,-8.1 9.9,0 0,0 m 0,-3 c 8.271,0 15,-6.729 15,-15 l 0,-348 c 0,-8.271 -6.729,-15 -15,-15 l -284,0 c -8.271,0 -15,6.729 -15,15 l 0,348 c 0,8.271 6.729,15 15,15 L 0,-3"
             style="fill:#000000;fill-opacity:1;fill-rule:nonzero;stroke:none"
             id="path8326" /></g><g
           id="g8328"
           transform="translate(42.3906,46.5771)"><path
             d="m 0,0 c -9.098,0 -16.5,7.401 -16.5,16.5 l 0,348 c 0,9.098 7.402,16.5 16.5,16.5 l 284,0 c 9.098,0 16.5,-7.402 16.5,-16.5 l 0,-348 C 300.5,7.401 293.098,0 284,0 L 0,0 z"
             style="fill:#ffffff;fill-opacity:1;fill-rule:nonzero;stroke:none"
             id="path8330" /></g><g
           id="g8332"
           transform="translate(326.3906,429.0771)"><path
             d="m 0,0 -284,0 c -9.9,0 -18,-8.1 -18,-18 l 0,-348 c 0,-9.9 8.1,-18 18,-18 l 284,0 c 9.9,0 18,8.1 18,18 l 0,348 C 18,-8.1 9.9,0 0,0 m 0,-3 c 8.271,0 15,-6.729 15,-15 l 0,-348 c 0,-8.271 -6.729,-15 -15,-15 l -284,0 c -8.271,0 -15,6.729 -15,15 l 0,348 c 0,8.271 6.729,15 15,15 L 0,-3"
             style="fill:#000000;fill-opacity:1;fill-rule:nonzero;stroke:none"
             id="path8334" /></g></g></g><text
       transform="matrix(1,0,0,-1,584.3906,392.0771)"
       id="text8336"><tspan
         style="fill:#000000;fill-opacity:1;fill-rule:nonzero;stroke:none;font-family:PT Sans Narrow;font-variant:normal;font-weight:normal;font-stretch:semi-condensed;font-size:20;writing-mode:lr;-inkscape-font-specification:PTSans-Narrow"
         x="0 8.6 17.24 30.26 38.96 47.64 52.98 61.24 70.24 74.48 85.24 93.88 102.54 -540 -531.4 -522.76 -509.74 -501.04 -492.36 -487.02 -478.76 -469.76 -465.52 -454.76 -446.12 -437.46"
         y="0"
         sodipodi:role="line"
         id="tspan8338">Compute2 NodeCompute1 Node</tspan></text>
<g
       id="g8340"><g
         id="g8342"
         clip-path="url(#clipPath8344)"><g
           id="g8348"
           transform="translate(334.7241,477.0781)"><path
             d="m 0,0 -58,-98.667 1.333,-16.666 -136,-61.334"
             style="fill:none;stroke:#be1e2d;stroke-opacity:1;stroke-width:3;stroke-linecap:butt;stroke-linejoin:miter;stroke-miterlimit:10;stroke-dasharray:none"
             id="path8350" /></g><g
           id="g8352"
           transform="translate(276.0571,348.4111)"><path
             d="m 0,0 0,-73.333 -61.667,-76.001"
             style="fill:none;stroke:#be1e2d;stroke-opacity:1;stroke-width:3;stroke-linecap:butt;stroke-linejoin:miter;stroke-miterlimit:10;stroke-dasharray:none"
             id="path8354" /></g><g
           id="g8356"
           transform="translate(246.7241,189.0781)"><path
             d="M 0,0 42.667,-100.001"
             style="fill:none;stroke:#be1e2d;stroke-opacity:1;stroke-width:3;stroke-linecap:butt;stroke-linejoin:miter;stroke-miterlimit:10;stroke-dasharray:none"
             id="path8358" /></g><g
           id="g8360"
           transform="translate(218.7236,187.0791)"><path
             d="M 0,0 0,-100.667"
             style="fill:none;stroke:#be1e2d;stroke-opacity:1;stroke-width:3;stroke-linecap:butt;stroke-linejoin:miter;stroke-miterlimit:10;stroke-dasharray:none"
             id="path8362" /></g><g
           id="g8364"
           transform="translate(200.0571,188.4111)"><path
             d="M 0,0 -50.667,-99.334"
             style="fill:none;stroke:#be1e2d;stroke-opacity:1;stroke-width:3;stroke-linecap:butt;stroke-linejoin:miter;stroke-miterlimit:10;stroke-dasharray:none"
             id="path8366" /></g><g
           id="g8368"
           transform="translate(181.3906,191.7451)"><path
             d="M 0,0 -104.667,-104.667"
             style="fill:none;stroke:#be1e2d;stroke-opacity:1;stroke-width:3;stroke-linecap:butt;stroke-linejoin:miter;stroke-miterlimit:10;stroke-dasharray:none"
             id="path8370" /></g><g
           id="g8372"
           transform="translate(587.3906,199.0771)"><path
             d="M 0,0 61.666,76.001"
             style="fill:none;stroke:#be1e2d;stroke-opacity:1;stroke-width:3;stroke-linecap:butt;stroke-linejoin:miter;stroke-miterlimit:10;stroke-dasharray:none"
             id="path8374" /></g><g
           id="g8376"
           transform="translate(619.7246,189.0781)"><path
             d="M 0,0 42.666,-100.001"
             style="fill:none;stroke:#be1e2d;stroke-opacity:1;stroke-width:3;stroke-linecap:butt;stroke-linejoin:miter;stroke-miterlimit:10;stroke-dasharray:none"
             id="path8378" /></g><g
           id="g8380"
           transform="translate(591.7236,187.0791)"><path
             d="M 0,0 0,-100.667"
             style="fill:none;stroke:#be1e2d;stroke-opacity:1;stroke-width:3;stroke-linecap:butt;stroke-linejoin:miter;stroke-miterlimit:10;stroke-dasharray:none"
             id="path8382" /></g><g
           id="g8384"
           transform="translate(573.0566,188.4111)"><path
             d="M 0,0 -50.666,-99.334"
             style="fill:none;stroke:#be1e2d;stroke-opacity:1;stroke-width:3;stroke-linecap:butt;stroke-linejoin:miter;stroke-miterlimit:10;stroke-dasharray:none"
             id="path8386" /></g><g
           id="g8388"
           transform="translate(554.3906,191.7451)"><path
             d="M 0,0 -104.666,-104.667"
             style="fill:none;stroke:#be1e2d;stroke-opacity:1;stroke-width:3;stroke-linecap:butt;stroke-linejoin:miter;stroke-miterlimit:10;stroke-dasharray:none"
             id="path8390" /></g><g
           id="g8392"
           transform="translate(410.7246,477.0781)"><path
             d="m 0,0 58,-98.667 -1.334,-16.666 136,-61.334"
             style="fill:none;stroke:#be1e2d;stroke-opacity:1;stroke-width:3;stroke-linecap:butt;stroke-linejoin:miter;stroke-miterlimit:10;stroke-dasharray:none"
             id="path8394" /></g><g
           id="g8396"
           transform="translate(241.3906,340.0771)"><path
             d="m 0,0 c -6.065,0 -11,4.935 -11,11 l 0,16 c 0,6.065 4.935,11 11,11 l 66,0 c 6.065,0 11,-4.935 11,-11 L 77,11 C 77,4.935 72.065,0 66,0 L 0,0 z"
             style="fill:#fce5cd;fill-opacity:1;fill-rule:nonzero;stroke:none"
             id="path8398" /></g><g
           id="g8400"
           transform="translate(307.3906,379.0771)"><path
             d="m 0,0 -66,0 c -6.6,0 -12,-5.4 -12,-12 l 0,-16 c 0,-6.6 5.4,-12 12,-12 l 66,0 c 6.6,0 12,5.4 12,12 l 0,16 C 12,-5.4 6.6,0 0,0 m 0,-2 c 5.514,0 10,-4.486 10,-10 l 0,-16 C 10,-33.514 5.514,-38 0,-38 l -66,0 c -5.514,0 -10,4.486 -10,10 l 0,16 c 0,5.514 4.486,10 10,10 l 66,0"
             style="fill:#000000;fill-opacity:1;fill-rule:nonzero;stroke:none"
             id="path8402" /></g></g></g><text
       transform="matrix(1,0,0,-1,258.6108,352.0771)"
       id="text8404"><tspan
         style="fill:#000000;fill-opacity:1;fill-rule:nonzero;stroke:none;font-family:PT Sans Narrow;font-variant:normal;font-weight:normal;font-stretch:semi-condensed;font-size:20;writing-mode:lr;-inkscape-font-specification:PTSans-Narrow"
         x="0 8.26 13.76 22.56"
         y="0"
         sodipodi:role="line"
         id="tspan8406">eth0</tspan></text>
<g
       id="g8408"><g
         id="g8410"
         clip-path="url(#clipPath8412)"><g
           id="g8416"
           transform="translate(271.3906,70.0771)"><path
             d="m 0,0 c -6.065,0 -11,4.935 -11,11 l 0,16 c 0,6.065 4.935,11 11,11 l 36,0 c 6.065,0 11,-4.935 11,-11 L 47,11 C 47,4.935 42.065,0 36,0 L 0,0 z"
             style="fill:#fce5cd;fill-opacity:1;fill-rule:nonzero;stroke:none"
             id="path8418" /></g><g
           id="g8420"
           transform="translate(307.3906,109.0771)"><path
             d="m 0,0 -36,0 c -6.6,0 -12,-5.4 -12,-12 l 0,-16 c 0,-6.6 5.4,-12 12,-12 l 36,0 c 6.6,0 12,5.4 12,12 l 0,16 C 12,-5.4 6.6,0 0,0 m 0,-2 c 5.514,0 10,-4.486 10,-10 l 0,-16 C 10,-33.514 5.514,-38 0,-38 l -36,0 c -5.514,0 -10,4.486 -10,10 l 0,16 c 0,5.514 4.486,10 10,10 l 36,0"
             style="fill:#000000;fill-opacity:1;fill-rule:nonzero;stroke:none"
             id="path8422" /></g></g></g><text
       transform="matrix(1,0,0,-1,274.501,82.0771)"
       id="text8424"><tspan
         style="fill:#000000;fill-opacity:1;fill-rule:nonzero;stroke:none;font-family:PT Sans Narrow;font-variant:normal;font-weight:normal;font-stretch:semi-condensed;font-size:20;writing-mode:lr;-inkscape-font-specification:PTSans-Narrow"
         x="0 7.76 20.78"
         y="0"
         sodipodi:role="line"
         id="tspan8426">vm3</tspan></text>
<g
       id="g8428"><g
         id="g8430"
         clip-path="url(#clipPath8432)"><g
           id="g8436"
           transform="translate(201.3906,70.0771)"><path
             d="m 0,0 c -6.065,0 -11,4.935 -11,11 l 0,16 c 0,6.065 4.935,11 11,11 l 36,0 c 6.065,0 11,-4.935 11,-11 L 47,11 C 47,4.935 42.065,0 36,0 L 0,0 z"
             style="fill:#fce5cd;fill-opacity:1;fill-rule:nonzero;stroke:none"
             id="path8438" /></g><g
           id="g8440"
           transform="translate(237.3906,109.0771)"><path
             d="m 0,0 -36,0 c -6.6,0 -12,-5.4 -12,-12 l 0,-16 c 0,-6.6 5.4,-12 12,-12 l 36,0 c 6.6,0 12,5.4 12,12 l 0,16 C 12,-5.4 6.6,0 0,0 m 0,-2 c 5.514,0 10,-4.486 10,-10 l 0,-16 C 10,-33.514 5.514,-38 0,-38 l -36,0 c -5.514,0 -10,4.486 -10,10 l 0,16 c 0,5.514 4.486,10 10,10 l 36,0"
             style="fill:#000000;fill-opacity:1;fill-rule:nonzero;stroke:none"
             id="path8442" /></g></g></g><text
       transform="matrix(1,0,0,-1,204.501,82.0771)"
       id="text8444"><tspan
         style="fill:#000000;fill-opacity:1;fill-rule:nonzero;stroke:none;font-family:PT Sans Narrow;font-variant:normal;font-weight:normal;font-stretch:semi-condensed;font-size:20;writing-mode:lr;-inkscape-font-specification:PTSans-Narrow"
         x="0 7.76 20.78"
         y="0"
         sodipodi:role="line"
         id="tspan8446">vm2</tspan></text>
<g
       id="g8448"><g
         id="g8450"
         clip-path="url(#clipPath8452)"><g
           id="g8456"
           transform="translate(131.3906,70.0771)"><path
             d="m 0,0 c -6.065,0 -11,4.935 -11,11 l 0,16 c 0,6.065 4.935,11 11,11 l 36,0 c 6.065,0 11,-4.935 11,-11 L 47,11 C 47,4.935 42.065,0 36,0 L 0,0 z"
             style="fill:#fce5cd;fill-opacity:1;fill-rule:nonzero;stroke:none"
             id="path8458" /></g><g
           id="g8460"
           transform="translate(167.3906,109.0771)"><path
             d="m 0,0 -36,0 c -6.6,0 -12,-5.4 -12,-12 l 0,-16 c 0,-6.6 5.4,-12 12,-12 l 36,0 c 6.6,0 12,5.4 12,12 l 0,16 C 12,-5.4 6.6,0 0,0 m 0,-2 c 5.514,0 10,-4.486 10,-10 l 0,-16 C 10,-33.514 5.514,-38 0,-38 l -36,0 c -5.514,0 -10,4.486 -10,10 l 0,16 c 0,5.514 4.486,10 10,10 l 36,0"
             style="fill:#000000;fill-opacity:1;fill-rule:nonzero;stroke:none"
             id="path8462" /></g></g></g><text
       transform="matrix(1,0,0,-1,134.501,82.0771)"
       id="text8464"><tspan
         style="fill:#000000;fill-opacity:1;fill-rule:nonzero;stroke:none;font-family:PT Sans Narrow;font-variant:normal;font-weight:normal;font-stretch:semi-condensed;font-size:20;writing-mode:lr;-inkscape-font-specification:PTSans-Narrow"
         x="0 7.76 20.78"
         y="0"
         sodipodi:role="line"
         id="tspan8466">vm1</tspan></text>
<g
       id="g8468"><g
         id="g8470"
         clip-path="url(#clipPath8472)"><g
           id="g8476"
           transform="translate(61.3906,70.0771)"><path
             d="m 0,0 c -6.065,0 -11,4.935 -11,11 l 0,16 c 0,6.065 4.935,11 11,11 l 36,0 c 6.065,0 11,-4.935 11,-11 L 47,11 C 47,4.935 42.065,0 36,0 L 0,0 z"
             style="fill:#fce5cd;fill-opacity:1;fill-rule:nonzero;stroke:none"
             id="path8478" /></g><g
           id="g8480"
           transform="translate(97.3906,109.0771)"><path
             d="m 0,0 -36,0 c -6.6,0 -12,-5.4 -12,-12 l 0,-16 c 0,-6.6 5.4,-12 12,-12 l 36,0 c 6.6,0 12,5.4 12,12 l 0,16 C 12,-5.4 6.6,0 0,0 m 0,-2 c 5.514,0 10,-4.486 10,-10 l 0,-16 C 10,-33.514 5.514,-38 0,-38 l -36,0 c -5.514,0 -10,4.486 -10,10 l 0,16 c 0,5.514 4.486,10 10,10 l 36,0"
             style="fill:#000000;fill-opacity:1;fill-rule:nonzero;stroke:none"
             id="path8482" /></g></g></g><text
       transform="matrix(1,0,0,-1,64.501,82.0771)"
       id="text8484"><tspan
         style="fill:#000000;fill-opacity:1;fill-rule:nonzero;stroke:none;font-family:PT Sans Narrow;font-variant:normal;font-weight:normal;font-stretch:semi-condensed;font-size:20;writing-mode:lr;-inkscape-font-specification:PTSans-Narrow"
         x="0 7.76 20.78"
         y="0"
         sodipodi:role="line"
         id="tspan8486">vm0</tspan></text>
<g
       id="g8488"><g
         id="g8490"
         clip-path="url(#clipPath8492)"><g
           id="g8496"
           transform="translate(181.3906,180.0771)"><path
             d="m 0,0 c -6.065,0 -11,4.935 -11,11 l 0,16 c 0,6.065 4.935,11 11,11 l 66,0 c 6.065,0 11,-4.935 11,-11 L 77,11 C 77,4.935 72.065,0 66,0 L 0,0 z"
             style="fill:#fce5cd;fill-opacity:1;fill-rule:nonzero;stroke:none"
             id="path8498" /></g><g
           id="g8500"
           transform="translate(247.3906,219.0771)"><path
             d="m 0,0 -66,0 c -6.6,0 -12,-5.4 -12,-12 l 0,-16 c 0,-6.6 5.4,-12 12,-12 l 66,0 c 6.6,0 12,5.4 12,12 l 0,16 C 12,-5.4 6.6,0 0,0 m 0,-2 c 5.514,0 10,-4.486 10,-10 l 0,-16 C 10,-33.514 5.514,-38 0,-38 l -66,0 c -5.514,0 -10,4.486 -10,10 l 0,16 c 0,5.514 4.486,10 10,10 l 66,0"
             style="fill:#000000;fill-opacity:1;fill-rule:nonzero;stroke:none"
             id="path8502" /></g></g></g><text
       transform="matrix(1,0,0,-1,193.811,192.0771)"
       id="text8504"><tspan
         style="fill:#000000;fill-opacity:1;fill-rule:nonzero;stroke:none;font-family:PT Sans Narrow;font-variant:normal;font-weight:normal;font-stretch:semi-condensed;font-size:20;writing-mode:lr;-inkscape-font-specification:PTSans-Narrow"
         x="0 8.68 14.16 23.16 32.16"
         y="0"
         sodipodi:role="line"
         id="tspan8506">br100</tspan></text>
<g
       id="g8508"><g
         id="g8510"
         clip-path="url(#clipPath8512)"><g
           id="g8516"
           transform="translate(241.3906,249.0771)"><path
             d="m 0,0 c -6.065,0 -11,4.935 -11,11 l 0,38 c 0,6.065 4.935,11 11,11 l 66,0 c 6.065,0 11,-4.935 11,-11 L 77,11 C 77,4.935 72.065,0 66,0 L 0,0 z"
             style="fill:#fce5cd;fill-opacity:1;fill-rule:nonzero;stroke:none"
             id="path8518" /></g><g
           id="g8520"
           transform="translate(307.3906,310.0771)"><path
             d="m 0,0 -66,0 c -6.6,0 -12,-5.4 -12,-12 l 0,-38 c 0,-6.6 5.4,-12 12,-12 l 66,0 c 6.6,0 12,5.4 12,12 l 0,38 C 12,-5.4 6.6,0 0,0 m 0,-2 c 5.514,0 10,-4.486 10,-10 l 0,-38 C 10,-55.514 5.514,-60 0,-60 l -66,0 c -5.514,0 -10,4.486 -10,10 l 0,38 c 0,5.514 4.486,10 10,10 l 66,0"
             style="fill:#000000;fill-opacity:1;fill-rule:nonzero;stroke:none"
             id="path8522" /></g></g></g><text
       transform="matrix(1,0,0,-1,243.3311,282.3604)"
       id="text8524"><tspan
         style="fill:#000000;fill-opacity:1;fill-rule:nonzero;stroke:none;font-family:PT Sans Narrow;font-variant:normal;font-weight:normal;font-stretch:semi-condensed;font-size:20;writing-mode:lr;-inkscape-font-specification:PTSans-Narrow"
         x="0 8.26 13.76 22.56 31.56 35.12 44.12 53.12"
         y="0"
         sodipodi:role="line"
         id="tspan8526">eth0.102</tspan><tspan
         style="fill:#000000;fill-opacity:1;fill-rule:nonzero;stroke:none;font-family:PT Sans Narrow;font-variant:normal;font-weight:normal;font-stretch:semi-condensed;font-size:20;writing-mode:lr;-inkscape-font-specification:PTSans-Narrow"
         x="20.06 29.32"
         y="24"
         sodipodi:role="line"
         id="tspan8528">VM</tspan></text>
<g
       id="g8530"><g
         id="g8532"
         clip-path="url(#clipPath8534)"><g
           id="g8538"
           transform="translate(93.3906,249.0771)"><path
             d="m 0,0 c -6.065,0 -11,4.935 -11,11 l 0,38 c 0,6.065 4.935,11 11,11 l 96,0 c 6.065,0 11,-4.935 11,-11 l 0,-38 C 107,4.935 102.065,0 96,0 L 0,0 z"
             style="fill:#fce5cd;fill-opacity:1;fill-rule:nonzero;stroke:none"
             id="path8540" /></g><g
           id="g8542"
           transform="translate(189.3906,310.0771)"><path
             d="m 0,0 -96,0 c -6.6,0 -12,-5.4 -12,-12 l 0,-38 c 0,-6.6 5.4,-12 12,-12 l 96,0 c 6.6,0 12,5.4 12,12 l 0,38 C 12,-5.4 6.6,0 0,0 m 0,-2 c 5.514,0 10,-4.486 10,-10 l 0,-38 C 10,-55.514 5.514,-60 0,-60 l -96,0 c -5.514,0 -10,4.486 -10,10 l 0,38 c 0,5.514 4.486,10 10,10 l 96,0"
             style="fill:#000000;fill-opacity:1;fill-rule:nonzero;stroke:none"
             id="path8544" /></g></g></g><text
       transform="matrix(1,0,0,-1,110.3311,282.3604)"
       id="text8546"><tspan
         style="fill:#000000;fill-opacity:1;fill-rule:nonzero;stroke:none;font-family:PT Sans Narrow;font-variant:normal;font-weight:normal;font-stretch:semi-condensed;font-size:20;writing-mode:lr;-inkscape-font-specification:PTSans-Narrow"
         x="0 8.26 13.76 22.56 31.56 35.12 44.12 53.12"
         y="0"
         sodipodi:role="line"
         id="tspan8548">eth0.101</tspan><tspan
         style="fill:#000000;fill-opacity:1;fill-rule:nonzero;stroke:none;font-family:PT Sans Narrow;font-variant:normal;font-weight:normal;font-stretch:semi-condensed;font-size:20;writing-mode:lr;-inkscape-font-specification:PTSans-Narrow"
         x="-13.92 -1.18 6.82 15.6 23.6 32.24 40.5 53.52 61.78 70.56"
         y="24"
         sodipodi:role="line"
         id="tspan8550">Management</tspan></text>
<g
       id="g8552"><g
         id="g8554"
         clip-path="url(#clipPath8556)"><g
           id="g8560"
           transform="translate(281.3906,470.0771)"><path
             d="m 0,0 c -6.065,0 -11,4.935 -11,11 l 0,16 c 0,6.065 4.935,11 11,11 l 176,0 c 6.065,0 11,-4.935 11,-11 l 0,-16 C 187,4.935 182.065,0 176,0 L 0,0 z"
             style="fill:#fce5cd;fill-opacity:1;fill-rule:nonzero;stroke:none"
             id="path8562" /></g><g
           id="g8564"
           transform="translate(457.3906,509.0771)"><path
             d="m 0,0 -176,0 c -6.6,0 -12,-5.4 -12,-12 l 0,-16 c 0,-6.6 5.4,-12 12,-12 l 176,0 c 6.6,0 12,5.4 12,12 l 0,16 C 12,-5.4 6.6,0 0,0 m 0,-2 c 5.514,0 10,-4.486 10,-10 l 0,-16 C 10,-33.514 5.514,-38 0,-38 l -176,0 c -5.514,0 -10,4.486 -10,10 l 0,16 c 0,5.514 4.486,10 10,10 L 0,-2"
             style="fill:#000000;fill-opacity:1;fill-rule:nonzero;stroke:none"
             id="path8566" /></g></g></g><text
       transform="matrix(1,0,0,-1,336.541,482.0771)"
       id="text8568"><tspan
         style="fill:#000000;fill-opacity:1;fill-rule:nonzero;stroke:none;font-family:PT Sans Narrow;font-variant:normal;font-weight:normal;font-stretch:semi-condensed;font-size:20;writing-mode:lr;-inkscape-font-specification:PTSans-Narrow"
         x="0 8.3 17.3 21.54 28.3 40.1 44.44 49.78 56.9"
         y="0"
         sodipodi:role="line"
         id="tspan8570">L2 switch</tspan></text>
<g
       id="g8572"><g
         id="g8574"
         clip-path="url(#clipPath8576)"><g
           id="g8580"
           transform="translate(641.3906,70.0771)"><path
             d="m 0,0 c -6.065,0 -11,4.935 -11,11 l 0,16 c 0,6.065 4.935,11 11,11 l 36,0 c 6.065,0 11,-4.935 11,-11 L 47,11 C 47,4.935 42.065,0 36,0 L 0,0 z"
             style="fill:#fce5cd;fill-opacity:1;fill-rule:nonzero;stroke:none"
             id="path8582" /></g><g
           id="g8584"
           transform="translate(677.3906,109.0771)"><path
             d="m 0,0 -36,0 c -6.6,0 -12,-5.4 -12,-12 l 0,-16 c 0,-6.6 5.4,-12 12,-12 l 36,0 c 6.6,0 12,5.4 12,12 l 0,16 C 12,-5.4 6.6,0 0,0 m 0,-2 c 5.514,0 10,-4.486 10,-10 l 0,-16 C 10,-33.514 5.514,-38 0,-38 l -36,0 c -5.514,0 -10,4.486 -10,10 l 0,16 c 0,5.514 4.486,10 10,10 l 36,0"
             style="fill:#000000;fill-opacity:1;fill-rule:nonzero;stroke:none"
             id="path8586" /></g></g></g><text
       transform="matrix(1,0,0,-1,644.501,82.0771)"
       id="text8588"><tspan
         style="fill:#000000;fill-opacity:1;fill-rule:nonzero;stroke:none;font-family:PT Sans Narrow;font-variant:normal;font-weight:normal;font-stretch:semi-condensed;font-size:20;writing-mode:lr;-inkscape-font-specification:PTSans-Narrow"
         x="0 7.76 20.78"
         y="0"
         sodipodi:role="line"
         id="tspan8590">vm3</tspan></text>
<g
       id="g8592"><g
         id="g8594"
         clip-path="url(#clipPath8596)"><g
           id="g8600"
           transform="translate(571.3906,70.0771)"><path
             d="m 0,0 c -6.065,0 -11,4.935 -11,11 l 0,16 c 0,6.065 4.935,11 11,11 l 36,0 c 6.065,0 11,-4.935 11,-11 L 47,11 C 47,4.935 42.065,0 36,0 L 0,0 z"
             style="fill:#fce5cd;fill-opacity:1;fill-rule:nonzero;stroke:none"
             id="path8602" /></g><g
           id="g8604"
           transform="translate(607.3906,109.0771)"><path
             d="m 0,0 -36,0 c -6.6,0 -12,-5.4 -12,-12 l 0,-16 c 0,-6.6 5.4,-12 12,-12 l 36,0 c 6.6,0 12,5.4 12,12 l 0,16 C 12,-5.4 6.6,0 0,0 m 0,-2 c 5.514,0 10,-4.486 10,-10 l 0,-16 C 10,-33.514 5.514,-38 0,-38 l -36,0 c -5.514,0 -10,4.486 -10,10 l 0,16 c 0,5.514 4.486,10 10,10 l 36,0"
             style="fill:#000000;fill-opacity:1;fill-rule:nonzero;stroke:none"
             id="path8606" /></g></g></g><text
       transform="matrix(1,0,0,-1,574.501,82.0771)"
       id="text8608"><tspan
         style="fill:#000000;fill-opacity:1;fill-rule:nonzero;stroke:none;font-family:PT Sans Narrow;font-variant:normal;font-weight:normal;font-stretch:semi-condensed;font-size:20;writing-mode:lr;-inkscape-font-specification:PTSans-Narrow"
         x="0 7.76 20.78"
         y="0"
         sodipodi:role="line"
         id="tspan8610">vm2</tspan></text>
<g
       id="g8612"><g
         id="g8614"
         clip-path="url(#clipPath8616)"><g
           id="g8620"
           transform="translate(501.3906,70.0771)"><path
             d="m 0,0 c -6.065,0 -11,4.935 -11,11 l 0,16 c 0,6.065 4.935,11 11,11 l 36,0 c 6.065,0 11,-4.935 11,-11 L 47,11 C 47,4.935 42.065,0 36,0 L 0,0 z"
             style="fill:#fce5cd;fill-opacity:1;fill-rule:nonzero;stroke:none"
             id="path8622" /></g><g
           id="g8624"
           transform="translate(537.3906,109.0771)"><path
             d="m 0,0 -36,0 c -6.6,0 -12,-5.4 -12,-12 l 0,-16 c 0,-6.6 5.4,-12 12,-12 l 36,0 c 6.6,0 12,5.4 12,12 l 0,16 C 12,-5.4 6.6,0 0,0 m 0,-2 c 5.514,0 10,-4.486 10,-10 l 0,-16 C 10,-33.514 5.514,-38 0,-38 l -36,0 c -5.514,0 -10,4.486 -10,10 l 0,16 c 0,5.514 4.486,10 10,10 l 36,0"
             style="fill:#000000;fill-opacity:1;fill-rule:nonzero;stroke:none"
             id="path8626" /></g></g></g><text
       transform="matrix(1,0,0,-1,504.501,82.0771)"
       id="text8628"><tspan
         style="fill:#000000;fill-opacity:1;fill-rule:nonzero;stroke:none;font-family:PT Sans Narrow;font-variant:normal;font-weight:normal;font-stretch:semi-condensed;font-size:20;writing-mode:lr;-inkscape-font-specification:PTSans-Narrow"
         x="0 7.76 20.78"
         y="0"
         sodipodi:role="line"
         id="tspan8630">vm1</tspan></text>
<g
       id="g8632"><g
         id="g8634"
         clip-path="url(#clipPath8636)"><g
           id="g8640"
           transform="translate(431.3906,70.0771)"><path
             d="m 0,0 c -6.065,0 -11,4.935 -11,11 l 0,16 c 0,6.065 4.935,11 11,11 l 36,0 c 6.065,0 11,-4.935 11,-11 L 47,11 C 47,4.935 42.065,0 36,0 L 0,0 z"
             style="fill:#fce5cd;fill-opacity:1;fill-rule:nonzero;stroke:none"
             id="path8642" /></g><g
           id="g8644"
           transform="translate(467.3906,109.0771)"><path
             d="m 0,0 -36,0 c -6.6,0 -12,-5.4 -12,-12 l 0,-16 c 0,-6.6 5.4,-12 12,-12 l 36,0 c 6.6,0 12,5.4 12,12 l 0,16 C 12,-5.4 6.6,0 0,0 m 0,-2 c 5.514,0 10,-4.486 10,-10 l 0,-16 C 10,-33.514 5.514,-38 0,-38 l -36,0 c -5.514,0 -10,4.486 -10,10 l 0,16 c 0,5.514 4.486,10 10,10 l 36,0"
             style="fill:#000000;fill-opacity:1;fill-rule:nonzero;stroke:none"
             id="path8646" /></g></g></g><text
       transform="matrix(1,0,0,-1,434.501,82.0771)"
       id="text8648"><tspan
         style="fill:#000000;fill-opacity:1;fill-rule:nonzero;stroke:none;font-family:PT Sans Narrow;font-variant:normal;font-weight:normal;font-stretch:semi-condensed;font-size:20;writing-mode:lr;-inkscape-font-specification:PTSans-Narrow"
         x="0 7.76 20.78"
         y="0"
         sodipodi:role="line"
         id="tspan8650">vm0</tspan></text>
<g
       id="g8652"><g
         id="g8654"
         clip-path="url(#clipPath8656)"><g
           id="g8660"
           transform="translate(551.3906,180.0771)"><path
             d="m 0,0 c -6.065,0 -11,4.935 -11,11 l 0,16 c 0,6.065 4.935,11 11,11 l 66,0 c 6.065,0 11,-4.935 11,-11 L 77,11 C 77,4.935 72.065,0 66,0 L 0,0 z"
             style="fill:#fce5cd;fill-opacity:1;fill-rule:nonzero;stroke:none"
             id="path8662" /></g><g
           id="g8664"
           transform="translate(617.3906,219.0771)"><path
             d="m 0,0 -66,0 c -6.6,0 -12,-5.4 -12,-12 l 0,-16 c 0,-6.6 5.4,-12 12,-12 l 66,0 c 6.6,0 12,5.4 12,12 l 0,16 C 12,-5.4 6.6,0 0,0 m 0,-2 c 5.514,0 10,-4.486 10,-10 l 0,-16 C 10,-33.514 5.514,-38 0,-38 l -66,0 c -5.514,0 -10,4.486 -10,10 l 0,16 c 0,5.514 4.486,10 10,10 l 66,0"
             style="fill:#000000;fill-opacity:1;fill-rule:nonzero;stroke:none"
             id="path8666" /></g></g></g><text
       transform="matrix(1,0,0,-1,563.811,192.0771)"
       id="text8668"><tspan
         style="fill:#000000;fill-opacity:1;fill-rule:nonzero;stroke:none;font-family:PT Sans Narrow;font-variant:normal;font-weight:normal;font-stretch:semi-condensed;font-size:20;writing-mode:lr;-inkscape-font-specification:PTSans-Narrow"
         x="0 8.68 14.16 23.16 32.16"
         y="0"
         sodipodi:role="line"
         id="tspan8670">br100</tspan></text>
<g
       id="g8672"><g
         id="g8674"
         clip-path="url(#clipPath8676)"><g
           id="g8680"
           transform="translate(581.3906,249.0771)"><path
             d="m 0,0 c -6.065,0 -11,4.935 -11,11 l 0,38 c 0,6.065 4.935,11 11,11 l 66,0 c 6.065,0 11,-4.935 11,-11 L 77,11 C 77,4.935 72.065,0 66,0 L 0,0 z"
             style="fill:#fce5cd;fill-opacity:1;fill-rule:nonzero;stroke:none"
             id="path8682" /></g><g
           id="g8684"
           transform="translate(647.3906,310.0771)"><path
             d="m 0,0 -66,0 c -6.6,0 -12,-5.4 -12,-12 l 0,-38 c 0,-6.6 5.4,-12 12,-12 l 66,0 c 6.6,0 12,5.4 12,12 l 0,38 C 12,-5.4 6.6,0 0,0 m 0,-2 c 5.514,0 10,-4.486 10,-10 l 0,-38 C 10,-55.514 5.514,-60 0,-60 l -66,0 c -5.514,0 -10,4.486 -10,10 l 0,38 c 0,5.514 4.486,10 10,10 l 66,0"
             style="fill:#000000;fill-opacity:1;fill-rule:nonzero;stroke:none"
             id="path8686" /></g></g></g><text
       transform="matrix(1,0,0,-1,583.3311,282.3604)"
       id="text8688"><tspan
         style="fill:#000000;fill-opacity:1;fill-rule:nonzero;stroke:none;font-family:PT Sans Narrow;font-variant:normal;font-weight:normal;font-stretch:semi-condensed;font-size:20;writing-mode:lr;-inkscape-font-specification:PTSans-Narrow"
         x="0 8.26 13.76 22.56 31.56 35.12 44.12 53.12"
         y="0"
         sodipodi:role="line"
         id="tspan8690">eth0.102</tspan><tspan
         style="fill:#000000;fill-opacity:1;fill-rule:nonzero;stroke:none;font-family:PT Sans Narrow;font-variant:normal;font-weight:normal;font-stretch:semi-condensed;font-size:20;writing-mode:lr;-inkscape-font-specification:PTSans-Narrow"
         x="20.06 29.32"
         y="24"
         sodipodi:role="line"
         id="tspan8692">VM</tspan></text>
<g
       id="g8694"><g
         id="g8696"
         clip-path="url(#clipPath8698)"><g
           id="g8702"
           transform="translate(431.3906,249.0771)"><path
             d="m 0,0 c -6.065,0 -11,4.935 -11,11 l 0,38 c 0,6.065 4.935,11 11,11 l 96,0 c 6.065,0 11,-4.935 11,-11 l 0,-38 C 107,4.935 102.065,0 96,0 L 0,0 z"
             style="fill:#fce5cd;fill-opacity:1;fill-rule:nonzero;stroke:none"
             id="path8704" /></g><g
           id="g8706"
           transform="translate(527.3906,310.0771)"><path
             d="m 0,0 -96,0 c -6.6,0 -12,-5.4 -12,-12 l 0,-38 c 0,-6.6 5.4,-12 12,-12 l 96,0 c 6.6,0 12,5.4 12,12 l 0,38 C 12,-5.4 6.6,0 0,0 m 0,-2 c 5.514,0 10,-4.486 10,-10 l 0,-38 C 10,-55.514 5.514,-60 0,-60 l -96,0 c -5.514,0 -10,4.486 -10,10 l 0,38 c 0,5.514 4.486,10 10,10 l 96,0"
             style="fill:#000000;fill-opacity:1;fill-rule:nonzero;stroke:none"
             id="path8708" /></g></g></g><text
       transform="matrix(1,0,0,-1,448.3311,282.3604)"
       id="text8710"><tspan
         style="fill:#000000;fill-opacity:1;fill-rule:nonzero;stroke:none;font-family:PT Sans Narrow;font-variant:normal;font-weight:normal;font-stretch:semi-condensed;font-size:20;writing-mode:lr;-inkscape-font-specification:PTSans-Narrow"
         x="0 8.26 13.76 22.56 31.56 35.12 44.12 53.12"
         y="0"
         sodipodi:role="line"
         id="tspan8712">eth0.101</tspan><tspan
         style="fill:#000000;fill-opacity:1;fill-rule:nonzero;stroke:none;font-family:PT Sans Narrow;font-variant:normal;font-weight:normal;font-stretch:semi-condensed;font-size:20;writing-mode:lr;-inkscape-font-specification:PTSans-Narrow"
         x="-13.92 -1.18 6.82 15.6 23.6 32.24 40.5 53.52 61.78 70.56"
         y="24"
         sodipodi:role="line"
         id="tspan8714">Management</tspan></text>
<g
       id="g8716"><g
         id="g8718"
         clip-path="url(#clipPath8720)"><g
           id="g8724"
           transform="translate(431.3906,340.0771)"><path
             d="m 0,0 c -6.065,0 -11,4.935 -11,11 l 0,16 c 0,6.065 4.935,11 11,11 l 66,0 c 6.065,0 11,-4.935 11,-11 L 77,11 C 77,4.935 72.065,0 66,0 L 0,0 z"
             style="fill:#fce5cd;fill-opacity:1;fill-rule:nonzero;stroke:none"
             id="path8726" /></g><g
           id="g8728"
           transform="translate(497.3906,379.0771)"><path
             d="m 0,0 -66,0 c -6.6,0 -12,-5.4 -12,-12 l 0,-16 c 0,-6.6 5.4,-12 12,-12 l 66,0 c 6.6,0 12,5.4 12,12 l 0,16 C 12,-5.4 6.6,0 0,0 m 0,-2 c 5.514,0 10,-4.486 10,-10 l 0,-16 C 10,-33.514 5.514,-38 0,-38 l -66,0 c -5.514,0 -10,4.486 -10,10 l 0,16 c 0,5.514 4.486,10 10,10 l 66,0"
             style="fill:#000000;fill-opacity:1;fill-rule:nonzero;stroke:none"
             id="path8730" /></g></g></g><text
       transform="matrix(1,0,0,-1,448.6108,352.0771)"
       id="text8732"><tspan
         style="fill:#000000;fill-opacity:1;fill-rule:nonzero;stroke:none;font-family:PT Sans Narrow;font-variant:normal;font-weight:normal;font-stretch:semi-condensed;font-size:20;writing-mode:lr;-inkscape-font-specification:PTSans-Narrow"
         x="0 8.26 13.76 22.56"
         y="0"
         sodipodi:role="line"
         id="tspan8734">eth0</tspan></text>
</g></svg>