<?xml version="1.0" encoding="UTF-8" standalone="no"?>
<!-- Created with Inkscape (http://www.inkscape.org/) -->

<svg
   xmlns:dc="http://purl.org/dc/elements/1.1/"
   xmlns:cc="http://creativecommons.org/ns#"
   xmlns:rdf="http://www.w3.org/1999/02/22-rdf-syntax-ns#"
   xmlns:svg="http://www.w3.org/2000/svg"
   xmlns="http://www.w3.org/2000/svg"
   xmlns:sodipodi="http://sodipodi.sourceforge.net/DTD/sodipodi-0.dtd"
   xmlns:inkscape="http://www.inkscape.org/namespaces/inkscape"
   id="svg8736"
   version="1.1"
   inkscape:version="0.48.4 r9939"
   width="1417.425"
   height="678.71625"
   xml:space="preserve"
   sodipodi:docname="scheme-3.ai"><metadata
     id="metadata8742"><rdf:RDF><cc:Work
         rdf:about=""><dc:format>image/svg+xml</dc:format><dc:type
           rdf:resource="http://purl.org/dc/dcmitype/StillImage" /><dc:title></dc:title></cc:Work></rdf:RDF></metadata><defs
     id="defs8740"><clipPath
       clipPathUnits="userSpaceOnUse"
       id="clipPath8750"><path
         d="m 0,542.973 1133.943,0 L 1133.943,0 0,0 0,542.973 z"
         id="path8752" /></clipPath><clipPath
       clipPathUnits="userSpaceOnUse"
       id="clipPath8810"><path
         d="m 0,542.973 1133.943,0 L 1133.943,0 0,0 0,542.973 z"
         id="path8812" /></clipPath><clipPath
       clipPathUnits="userSpaceOnUse"
       id="clipPath8830"><path
         d="m 0,542.973 1133.943,0 L 1133.943,0 0,0 0,542.973 z"
         id="path8832" /></clipPath><clipPath
       clipPathUnits="userSpaceOnUse"
       id="clipPath8850"><path
         d="m 0,542.973 1133.943,0 L 1133.943,0 0,0 0,542.973 z"
         id="path8852" /></clipPath><clipPath
       clipPathUnits="userSpaceOnUse"
       id="clipPath8878"><path
         d="m 0,542.973 1133.943,0 L 1133.943,0 0,0 0,542.973 z"
         id="path8880" /></clipPath><clipPath
       clipPathUnits="userSpaceOnUse"
       id="clipPath8898"><path
         d="m 0,542.973 1133.943,0 L 1133.943,0 0,0 0,542.973 z"
         id="path8900" /></clipPath><clipPath
       clipPathUnits="userSpaceOnUse"
       id="clipPath8918"><path
         d="m 0,542.973 1133.943,0 L 1133.943,0 0,0 0,542.973 z"
         id="path8920" /></clipPath><clipPath
       clipPathUnits="userSpaceOnUse"
       id="clipPath8962"><path
         d="m 0,542.973 1133.943,0 L 1133.943,0 0,0 0,542.973 z"
         id="path8964" /></clipPath><clipPath
       clipPathUnits="userSpaceOnUse"
       id="clipPath8982"><path
         d="m 0,542.973 1133.943,0 L 1133.943,0 0,0 0,542.973 z"
         id="path8984" /></clipPath><clipPath
       clipPathUnits="userSpaceOnUse"
       id="clipPath9002"><path
         d="m 0,542.973 1133.943,0 L 1133.943,0 0,0 0,542.973 z"
         id="path9004" /></clipPath><clipPath
       clipPathUnits="userSpaceOnUse"
       id="clipPath9048"><path
         d="m 0,542.973 1133.943,0 L 1133.943,0 0,0 0,542.973 z"
         id="path9050" /></clipPath><clipPath
       clipPathUnits="userSpaceOnUse"
       id="clipPath9062"><path
         d="m 0,542.973 1133.943,0 L 1133.943,0 0,0 0,542.973 z"
         id="path9064" /></clipPath><clipPath
       clipPathUnits="userSpaceOnUse"
       id="clipPath9076"><path
         d="m 0,542.973 1133.943,0 L 1133.943,0 0,0 0,542.973 z"
         id="path9078" /></clipPath><clipPath
       clipPathUnits="userSpaceOnUse"
       id="clipPath9090"><path
         d="m 0,542.973 1133.943,0 L 1133.943,0 0,0 0,542.973 z"
         id="path9092" /></clipPath><clipPath
       clipPathUnits="userSpaceOnUse"
       id="clipPath9112"><path
         d="m 0,542.973 1133.943,0 L 1133.943,0 0,0 0,542.973 z"
         id="path9114" /></clipPath><clipPath
       clipPathUnits="userSpaceOnUse"
       id="clipPath9134"><path
         d="m 0,542.973 1133.943,0 L 1133.943,0 0,0 0,542.973 z"
         id="path9136" /></clipPath><clipPath
       clipPathUnits="userSpaceOnUse"
       id="clipPath9156"><path
         d="m 0,542.973 1133.943,0 L 1133.943,0 0,0 0,542.973 z"
         id="path9158" /></clipPath><clipPath
       clipPathUnits="userSpaceOnUse"
       id="clipPath9186"><path
         d="m 0,542.973 1133.943,0 L 1133.943,0 0,0 0,542.973 z"
         id="path9188" /></clipPath><clipPath
       clipPathUnits="userSpaceOnUse"
       id="clipPath9208"><path
         d="m 0,542.973 1133.943,0 L 1133.943,0 0,0 0,542.973 z"
         id="path9210" /></clipPath></defs><sodipodi:namedview
     pagecolor="#ffffff"
     bordercolor="#666666"
     borderopacity="1"
     objecttolerance="10"
     gridtolerance="10"
     guidetolerance="10"
     inkscape:pageopacity="0"
     inkscape:pageshadow="2"
     inkscape:window-width="1920"
     inkscape:window-height="1061"
     id="namedview8738"
     showgrid="false"
     inkscape:zoom="1.2531543"
     inkscape:cx="722.43773"
     inkscape:cy="331.08943"
     inkscape:window-x="1362"
     inkscape:window-y="-4"
     inkscape:window-maximized="1"
     inkscape:current-layer="g8744" /><g
     id="g8744"
     inkscape:groupmode="layer"
     inkscape:label="scheme-3"
     transform="matrix(1.25,0,0,-1.25,0,678.71625)"><g
       id="g8746"><g
         id="g8748"
         clip-path="url(#clipPath8750)"><g
           id="g8754"
           transform="translate(67.8809,31.0771)"><path
             d="m 0,0 c -4.516,0 -8.743,1.82 -11.904,5.126 l -2.931,3.067 0.02,-0.246 -16.012,16.012 -1.05,1.139 C -34.858,28.201 -36.5,32.25 -36.5,36.5 l 0,348 c 0,9.098 7.402,16.5 16.5,16.5 l 284,0 c 4.405,0 8.556,-1.736 11.688,-4.887 l 2.903,-2.923 -0.003,0.038 16.236,-16.235 0.902,-0.923 c 3.079,-3.119 4.774,-7.229 4.774,-11.57 l 0,-348 C 300.5,7.402 293.098,0 284,0 L 0,0 z"
             style="fill:#bcbec0;fill-opacity:1;fill-rule:nonzero;stroke:none"
             id="path8756" /></g><g
           id="g8758"
           transform="translate(331.8809,433.5771)"><path
             d="m 0,0 -284,0 c -9.9,0 -18,-8.1 -18,-18 l 0,-348 c 0,-4.819 1.929,-9.202 5.041,-12.441 l -0.083,-0.006 20.063,-20.063 -0.009,0.1 c 3.283,-3.434 7.892,-5.59 12.988,-5.59 l 284,0 c 9.9,0 18,8.1 18,18 l 0,348 c 0,4.907 -1.994,9.368 -5.207,12.624 l 0.02,0.001 L 12.75,-5.313 12.751,-5.33 C 9.486,-2.044 4.971,0 0,0 m 0,-3 c 4.002,0 7.775,-1.579 10.624,-4.445 l 5.802,-5.822 -0.004,0.039 12.74,-12.739 1.496,-1.516 C 33.458,-30.32 35,-34.056 35,-38 l 0,-348 c 0,-8.271 -6.729,-15 -15,-15 l -284,0 c -4.102,0 -7.944,1.656 -10.819,4.663 l -5.863,6.132 0.033,-0.393 -11.995,11.994 -2.151,2.241 c -2.712,2.822 -4.205,6.503 -4.205,10.363 l 0,348 c 0,8.271 6.729,15 15,15 L 0,-3"
             style="fill:#000000;fill-opacity:1;fill-rule:nonzero;stroke:none"
             id="path8760" /></g><g
           id="g8762"
           transform="translate(47.8809,51.0771)"><path
             d="m 0,0 c -9.098,0 -16.5,7.401 -16.5,16.5 l 0,348 c 0,9.098 7.402,16.5 16.5,16.5 l 284,0 c 9.098,0 16.5,-7.402 16.5,-16.5 l 0,-348 C 300.5,7.401 293.098,0 284,0 L 0,0 z"
             style="fill:#ffffff;fill-opacity:1;fill-rule:nonzero;stroke:none"
             id="path8764" /></g><g
           id="g8766"
           transform="translate(331.8809,433.5771)"><path
             d="m 0,0 -284,0 c -9.9,0 -18,-8.1 -18,-18 l 0,-348 c 0,-9.9 8.1,-18 18,-18 l 284,0 c 9.9,0 18,8.1 18,18 l 0,348 C 18,-8.1 9.9,0 0,0 m 0,-3 c 8.271,0 15,-6.729 15,-15 l 0,-348 c 0,-8.271 -6.729,-15 -15,-15 l -284,0 c -8.271,0 -15,6.729 -15,15 l 0,348 c 0,8.271 6.729,15 15,15 L 0,-3"
             style="fill:#000000;fill-opacity:1;fill-rule:nonzero;stroke:none"
             id="path8768" /></g><g
           id="g8770"
           transform="translate(437.8809,31.0771)"><path
             d="m 0,0 c -4.516,0 -8.743,1.82 -11.904,5.126 l -2.931,3.067 0.02,-0.246 -16.012,16.012 -1.05,1.139 C -34.858,28.201 -36.5,32.25 -36.5,36.5 l 0,348 c 0,9.098 7.402,16.5 16.5,16.5 l 284,0 c 4.405,0 8.556,-1.736 11.688,-4.887 l 3.03,-3.049 -0.005,0.039 16.095,-16.095 0.918,-0.938 c 3.079,-3.12 4.774,-7.229 4.774,-11.57 l 0,-348 C 300.5,7.402 293.098,0 284,0 L 0,0 z"
             style="fill:#bcbec0;fill-opacity:1;fill-rule:nonzero;stroke:none"
             id="path8772" /></g><g
           id="g8774"
           transform="translate(701.8809,433.5771)"><path
             d="m 0,0 -284,0 c -9.9,0 -18,-8.1 -18,-18 l 0,-348 c 0,-4.819 1.929,-9.202 5.041,-12.441 l -0.083,-0.006 20.063,-20.063 -0.009,0.1 c 3.283,-3.434 7.892,-5.59 12.988,-5.59 l 284,0 c 9.9,0 18,8.1 18,18 l 0,348 c 0,4.907 -1.994,9.368 -5.207,12.624 l 0.02,0.001 L 12.75,-5.313 12.752,-5.33 C 9.486,-2.044 4.971,0 0,0 m 0,-3 c 4.003,0 7.775,-1.579 10.624,-4.445 l 6.05,-6.072 -0.005,0.043 12.447,-12.447 1.541,-1.562 C 33.458,-30.321 35,-34.056 35,-38 l 0,-348 c 0,-8.271 -6.729,-15 -15,-15 l -284,0 c -4.102,0 -7.944,1.656 -10.819,4.663 l -5.863,6.132 0.033,-0.393 -11.995,11.994 -2.151,2.241 c -2.712,2.822 -4.205,6.503 -4.205,10.363 l 0,348 c 0,8.271 6.729,15 15,15 L 0,-3"
             style="fill:#000000;fill-opacity:1;fill-rule:nonzero;stroke:none"
             id="path8776" /></g><g
           id="g8778"
           transform="translate(417.8809,51.0771)"><path
             d="m 0,0 c -9.098,0 -16.5,7.401 -16.5,16.5 l 0,348 c 0,9.098 7.402,16.5 16.5,16.5 l 284,0 c 9.099,0 16.5,-7.402 16.5,-16.5 l 0,-348 C 300.5,7.401 293.099,0 284,0 L 0,0 z"
             style="fill:#ffffff;fill-opacity:1;fill-rule:nonzero;stroke:none"
             id="path8780" /></g><g
           id="g8782"
           transform="translate(701.8809,433.5771)"><path
             d="m 0,0 -284,0 c -9.9,0 -18,-8.1 -18,-18 l 0,-348 c 0,-9.9 8.1,-18 18,-18 l 284,0 c 9.9,0 18,8.1 18,18 l 0,348 C 18,-8.1 9.9,0 0,0 m 0,-3 c 8.271,0 15,-6.729 15,-15 l 0,-348 c 0,-8.271 -6.729,-15 -15,-15 l -284,0 c -8.271,0 -15,6.729 -15,15 l 0,348 c 0,8.271 6.729,15 15,15 L 0,-3"
             style="fill:#000000;fill-opacity:1;fill-rule:nonzero;stroke:none"
             id="path8784" /></g><g
           id="g8786"
           transform="translate(295.3809,321.5771)"><path
             d="M 0,0 -0.5,-228"
             style="fill:none;stroke:#be1e2d;stroke-opacity:1;stroke-width:3;stroke-linecap:butt;stroke-linejoin:miter;stroke-miterlimit:10;stroke-dasharray:none"
             id="path8788" /></g><g
           id="g8790"
           transform="translate(268.8794,226.9111)"><path
             d="M 0,0 -73.332,-129.333"
             style="fill:none;stroke:#be1e2d;stroke-opacity:1;stroke-width:3;stroke-linecap:butt;stroke-linejoin:miter;stroke-miterlimit:10;stroke-dasharray:none"
             id="path8792" /></g><g
           id="g8794"
           transform="translate(276.8809,74.5771)"><path
             d="m 0,0 c -6.065,0 -11,4.935 -11,11 l 0,16 c 0,6.065 4.935,11 11,11 l 36,0 c 6.065,0 11,-4.935 11,-11 L 47,11 C 47,4.935 42.065,0 36,0 L 0,0 z"
             style="fill:#fce5cd;fill-opacity:1;fill-rule:nonzero;stroke:none"
             id="path8796" /></g><g
           id="g8798"
           transform="translate(312.8809,113.5771)"><path
             d="m 0,0 -36,0 c -6.6,0 -12,-5.4 -12,-12 l 0,-16 c 0,-6.6 5.4,-12 12,-12 l 36,0 c 6.6,0 12,5.4 12,12 l 0,16 C 12,-5.4 6.6,0 0,0 m 0,-2 c 5.514,0 10,-4.486 10,-10 l 0,-16 C 10,-33.514 5.514,-38 0,-38 l -36,0 c -5.514,0 -10,4.486 -10,10 l 0,16 c 0,5.514 4.486,10 10,10 l 36,0"
             style="fill:#000000;fill-opacity:1;fill-rule:nonzero;stroke:none"
             id="path8800" /></g></g></g><text
       transform="matrix(1,0,0,-1,279.9912,86.5771)"
       id="text8802"><tspan
         style="fill:#000000;fill-opacity:1;fill-rule:nonzero;stroke:none;font-family:PT Sans Narrow;font-variant:normal;font-weight:normal;font-stretch:semi-condensed;font-size:20;writing-mode:lr;-inkscape-font-specification:PTSans-Narrow"
         x="0 7.76 20.78"
         y="0"
         sodipodi:role="line"
         id="tspan8804">vm1</tspan></text>
<g
       id="g8806"><g
         id="g8808"
         clip-path="url(#clipPath8810)"><g
           id="g8814"
           transform="translate(176.8809,74.5771)"><path
             d="m 0,0 c -6.065,0 -11,4.935 -11,11 l 0,16 c 0,6.065 4.935,11 11,11 l 36,0 c 6.065,0 11,-4.935 11,-11 L 47,11 C 47,4.935 42.065,0 36,0 L 0,0 z"
             style="fill:#fce5cd;fill-opacity:1;fill-rule:nonzero;stroke:none"
             id="path8816" /></g><g
           id="g8818"
           transform="translate(212.8809,113.5771)"><path
             d="m 0,0 -36,0 c -6.6,0 -12,-5.4 -12,-12 l 0,-16 c 0,-6.6 5.4,-12 12,-12 l 36,0 c 6.6,0 12,5.4 12,12 l 0,16 C 12,-5.4 6.6,0 0,0 m 0,-2 c 5.514,0 10,-4.486 10,-10 l 0,-16 C 10,-33.514 5.514,-38 0,-38 l -36,0 c -5.514,0 -10,4.486 -10,10 l 0,16 c 0,5.514 4.486,10 10,10 l 36,0"
             style="fill:#000000;fill-opacity:1;fill-rule:nonzero;stroke:none"
             id="path8820" /></g></g></g><text
       transform="matrix(1,0,0,-1,179.9912,86.5771)"
       id="text8822"><tspan
         style="fill:#000000;fill-opacity:1;fill-rule:nonzero;stroke:none;font-family:PT Sans Narrow;font-variant:normal;font-weight:normal;font-stretch:semi-condensed;font-size:20;writing-mode:lr;-inkscape-font-specification:PTSans-Narrow"
         x="0 7.76 20.78"
         y="0"
         sodipodi:role="line"
         id="tspan8824">vm0</tspan></text>
<g
       id="g8826"><g
         id="g8828"
         clip-path="url(#clipPath8830)"><g
           id="g8834"
           transform="translate(256.8809,214.5771)"><path
             d="m 0,0 c -6.065,0 -11,4.935 -11,11 l 0,16 c 0,6.065 4.935,11 11,11 l 66,0 c 6.065,0 11,-4.935 11,-11 L 77,11 C 77,4.935 72.065,0 66,0 L 0,0 z"
             style="fill:#fce5cd;fill-opacity:1;fill-rule:nonzero;stroke:none"
             id="path8836" /></g><g
           id="g8838"
           transform="translate(322.8809,253.5771)"><path
             d="m 0,0 -66,0 c -6.6,0 -12,-5.4 -12,-12 l 0,-16 c 0,-6.6 5.4,-12 12,-12 l 66,0 c 6.6,0 12,5.4 12,12 l 0,16 C 12,-5.4 6.6,0 0,0 m 0,-2 c 5.514,0 10,-4.486 10,-10 l 0,-16 C 10,-33.514 5.514,-38 0,-38 l -66,0 c -5.514,0 -10,4.486 -10,10 l 0,16 c 0,5.514 4.486,10 10,10 l 66,0"
             style="fill:#000000;fill-opacity:1;fill-rule:nonzero;stroke:none"
             id="path8840" /></g></g></g><text
       transform="matrix(1,0,0,-1,269.3013,226.5771)"
       id="text8842"><tspan
         style="fill:#000000;fill-opacity:1;fill-rule:nonzero;stroke:none;font-family:PT Sans Narrow;font-variant:normal;font-weight:normal;font-stretch:semi-condensed;font-size:20;writing-mode:lr;-inkscape-font-specification:PTSans-Narrow"
         x="0 8.68 14.16 23.16 32.16"
         y="0"
         sodipodi:role="line"
         id="tspan8844">br100</tspan></text>
<g
       id="g8846"><g
         id="g8848"
         clip-path="url(#clipPath8850)"><g
           id="g8854"
           transform="translate(665.3809,321.5771)"><path
             d="M 0,0 -0.5,-228"
             style="fill:none;stroke:#be1e2d;stroke-opacity:1;stroke-width:3;stroke-linecap:butt;stroke-linejoin:miter;stroke-miterlimit:10;stroke-dasharray:none"
             id="path8856" /></g><g
           id="g8858"
           transform="translate(638.8789,226.9111)"><path
             d="M 0,0 -73.332,-129.333"
             style="fill:none;stroke:#be1e2d;stroke-opacity:1;stroke-width:3;stroke-linecap:butt;stroke-linejoin:miter;stroke-miterlimit:10;stroke-dasharray:none"
             id="path8860" /></g><g
           id="g8862"
           transform="translate(646.8809,74.5771)"><path
             d="m 0,0 c -6.065,0 -11,4.935 -11,11 l 0,16 c 0,6.065 4.935,11 11,11 l 36,0 c 6.065,0 11,-4.935 11,-11 L 47,11 C 47,4.935 42.065,0 36,0 L 0,0 z"
             style="fill:#fce5cd;fill-opacity:1;fill-rule:nonzero;stroke:none"
             id="path8864" /></g><g
           id="g8866"
           transform="translate(682.8809,113.5771)"><path
             d="m 0,0 -36,0 c -6.6,0 -12,-5.4 -12,-12 l 0,-16 c 0,-6.6 5.4,-12 12,-12 l 36,0 c 6.6,0 12,5.4 12,12 l 0,16 C 12,-5.4 6.6,0 0,0 m 0,-2 c 5.514,0 10,-4.486 10,-10 l 0,-16 C 10,-33.514 5.514,-38 0,-38 l -36,0 c -5.514,0 -10,4.486 -10,10 l 0,16 c 0,5.514 4.486,10 10,10 l 36,0"
             style="fill:#000000;fill-opacity:1;fill-rule:nonzero;stroke:none"
             id="path8868" /></g></g></g><text
       transform="matrix(1,0,0,-1,649.9912,86.5771)"
       id="text8870"><tspan
         style="fill:#000000;fill-opacity:1;fill-rule:nonzero;stroke:none;font-family:PT Sans Narrow;font-variant:normal;font-weight:normal;font-stretch:semi-condensed;font-size:20;writing-mode:lr;-inkscape-font-specification:PTSans-Narrow"
         x="0 7.76 20.78"
         y="0"
         sodipodi:role="line"
         id="tspan8872">vm1</tspan></text>
<g
       id="g8874"><g
         id="g8876"
         clip-path="url(#clipPath8878)"><g
           id="g8882"
           transform="translate(546.8809,74.5771)"><path
             d="m 0,0 c -6.065,0 -11,4.935 -11,11 l 0,16 c 0,6.065 4.935,11 11,11 l 36,0 c 6.065,0 11,-4.935 11,-11 L 47,11 C 47,4.935 42.065,0 36,0 L 0,0 z"
             style="fill:#fce5cd;fill-opacity:1;fill-rule:nonzero;stroke:none"
             id="path8884" /></g><g
           id="g8886"
           transform="translate(582.8809,113.5771)"><path
             d="m 0,0 -36,0 c -6.6,0 -12,-5.4 -12,-12 l 0,-16 c 0,-6.6 5.4,-12 12,-12 l 36,0 c 6.6,0 12,5.4 12,12 l 0,16 C 12,-5.4 6.6,0 0,0 m 0,-2 c 5.514,0 10,-4.486 10,-10 l 0,-16 C 10,-33.514 5.514,-38 0,-38 l -36,0 c -5.514,0 -10,4.486 -10,10 l 0,16 c 0,5.514 4.486,10 10,10 l 36,0"
             style="fill:#000000;fill-opacity:1;fill-rule:nonzero;stroke:none"
             id="path8888" /></g></g></g><text
       transform="matrix(1,0,0,-1,549.9912,86.5771)"
       id="text8890"><tspan
         style="fill:#000000;fill-opacity:1;fill-rule:nonzero;stroke:none;font-family:PT Sans Narrow;font-variant:normal;font-weight:normal;font-stretch:semi-condensed;font-size:20;writing-mode:lr;-inkscape-font-specification:PTSans-Narrow"
         x="0 7.76 20.78"
         y="0"
         sodipodi:role="line"
         id="tspan8892">vm0</tspan></text>
<g
       id="g8894"><g
         id="g8896"
         clip-path="url(#clipPath8898)"><g
           id="g8902"
           transform="translate(626.8809,214.5771)"><path
             d="m 0,0 c -6.065,0 -11,4.935 -11,11 l 0,16 c 0,6.065 4.935,11 11,11 l 66,0 c 6.065,0 11,-4.935 11,-11 L 77,11 C 77,4.935 72.065,0 66,0 L 0,0 z"
             style="fill:#fce5cd;fill-opacity:1;fill-rule:nonzero;stroke:none"
             id="path8904" /></g><g
           id="g8906"
           transform="translate(692.8809,253.5771)"><path
             d="m 0,0 -66,0 c -6.6,0 -12,-5.4 -12,-12 l 0,-16 c 0,-6.6 5.4,-12 12,-12 l 66,0 c 6.6,0 12,5.4 12,12 l 0,16 C 12,-5.4 6.6,0 0,0 m 0,-2 c 5.514,0 10,-4.486 10,-10 l 0,-16 C 10,-33.514 5.514,-38 0,-38 l -66,0 c -5.514,0 -10,4.486 -10,10 l 0,16 c 0,5.514 4.486,10 10,10 l 66,0"
             style="fill:#000000;fill-opacity:1;fill-rule:nonzero;stroke:none"
             id="path8908" /></g></g></g><text
       transform="matrix(1,0,0,-1,639.3013,226.5771)"
       id="text8910"><tspan
         style="fill:#000000;fill-opacity:1;fill-rule:nonzero;stroke:none;font-family:PT Sans Narrow;font-variant:normal;font-weight:normal;font-stretch:semi-condensed;font-size:20;writing-mode:lr;-inkscape-font-specification:PTSans-Narrow"
         x="0 8.68 14.16 23.16 32.16"
         y="0"
         sodipodi:role="line"
         id="tspan8912">br100</tspan></text>
<g
       id="g8914"><g
         id="g8916"
         clip-path="url(#clipPath8918)"><g
           id="g8922"
           transform="translate(807.8809,31.0771)"><path
             d="m 0,0 c -4.516,0 -8.743,1.82 -11.904,5.127 l -2.954,3.089 0.022,-0.247 -15.993,15.992 -1.048,1.137 C -34.858,28.201 -36.5,32.251 -36.5,36.5 l 0,348 c 0,9.098 7.402,16.5 16.5,16.5 l 284,0 c 4.405,0 8.556,-1.736 11.688,-4.887 l 3.03,-3.049 -0.005,0.039 16.095,-16.095 0.918,-0.938 c 3.079,-3.12 4.774,-7.229 4.774,-11.57 l 0,-348 C 300.5,7.402 293.098,0 284,0 L 0,0 z"
             style="fill:#bcbec0;fill-opacity:1;fill-rule:nonzero;stroke:none"
             id="path8924" /></g><g
           id="g8926"
           transform="translate(1071.8809,433.5771)"><path
             d="m 0,0 -284,0 c -9.9,0 -18,-8.1 -18,-18 l 0,-348 c 0,-4.819 1.93,-9.202 5.041,-12.441 l -0.083,-0.006 20.063,-20.063 -0.009,0.1 c 3.283,-3.434 7.892,-5.59 12.988,-5.59 l 284,0 c 9.9,0 18,8.1 18,18 l 0,348 c 0,4.907 -1.994,9.368 -5.207,12.624 l 0.02,0.001 L 12.75,-5.313 12.752,-5.33 C 9.486,-2.044 4.971,0 0,0 m 0,-3 c 4.003,0 7.775,-1.579 10.624,-4.445 l 6.05,-6.072 -0.005,0.043 12.447,-12.447 1.541,-1.562 C 33.458,-30.321 35,-34.056 35,-38 l 0,-348 c 0,-8.271 -6.729,-15 -15,-15 l -284,0 c -4.102,0 -7.944,1.656 -10.82,4.663 l -5.911,6.183 0.035,-0.396 -11.956,11.956 -2.143,2.231 c -2.712,2.823 -4.205,6.503 -4.205,10.363 l 0,348 c 0,8.271 6.729,15 15,15 L 0,-3"
             style="fill:#000000;fill-opacity:1;fill-rule:nonzero;stroke:none"
             id="path8928" /></g><g
           id="g8930"
           transform="translate(787.8809,51.0771)"><path
             d="m 0,0 c -9.099,0 -16.5,7.401 -16.5,16.5 l 0,348 c 0,9.098 7.401,16.5 16.5,16.5 l 284,0 c 9.099,0 16.5,-7.402 16.5,-16.5 l 0,-348 C 300.5,7.401 293.099,0 284,0 L 0,0 z"
             style="fill:#ffffff;fill-opacity:1;fill-rule:nonzero;stroke:none"
             id="path8932" /></g><g
           id="g8934"
           transform="translate(1071.8809,433.5771)"><path
             d="m 0,0 -284,0 c -9.9,0 -18,-8.1 -18,-18 l 0,-348 c 0,-9.9 8.1,-18 18,-18 l 284,0 c 9.9,0 18,8.1 18,18 l 0,348 C 18,-8.1 9.9,0 0,0 m 0,-3 c 8.271,0 15,-6.729 15,-15 l 0,-348 c 0,-8.271 -6.729,-15 -15,-15 l -284,0 c -8.271,0 -15,6.729 -15,15 l 0,348 c 0,8.271 6.729,15 15,15 L 0,-3"
             style="fill:#000000;fill-opacity:1;fill-rule:nonzero;stroke:none"
             id="path8936" /></g><g
           id="g8938"
           transform="translate(1035.3809,321.5771)"><path
             d="M 0,0 -0.5,-228"
             style="fill:none;stroke:#be1e2d;stroke-opacity:1;stroke-width:3;stroke-linecap:butt;stroke-linejoin:miter;stroke-miterlimit:10;stroke-dasharray:none"
             id="path8940" /></g><g
           id="g8942"
           transform="translate(1008.8789,226.9111)"><path
             d="M 0,0 -73.332,-129.333"
             style="fill:none;stroke:#be1e2d;stroke-opacity:1;stroke-width:3;stroke-linecap:butt;stroke-linejoin:miter;stroke-miterlimit:10;stroke-dasharray:none"
             id="path8944" /></g><g
           id="g8946"
           transform="translate(1016.8809,74.5771)"><path
             d="m 0,0 c -6.065,0 -11,4.935 -11,11 l 0,16 c 0,6.065 4.935,11 11,11 l 36,0 c 6.065,0 11,-4.935 11,-11 L 47,11 C 47,4.935 42.065,0 36,0 L 0,0 z"
             style="fill:#fce5cd;fill-opacity:1;fill-rule:nonzero;stroke:none"
             id="path8948" /></g><g
           id="g8950"
           transform="translate(1052.8809,113.5771)"><path
             d="m 0,0 -36,0 c -6.6,0 -12,-5.4 -12,-12 l 0,-16 c 0,-6.6 5.4,-12 12,-12 l 36,0 c 6.6,0 12,5.4 12,12 l 0,16 C 12,-5.4 6.6,0 0,0 m 0,-2 c 5.514,0 10,-4.486 10,-10 l 0,-16 C 10,-33.514 5.514,-38 0,-38 l -36,0 c -5.514,0 -10,4.486 -10,10 l 0,16 c 0,5.514 4.486,10 10,10 l 36,0"
             style="fill:#000000;fill-opacity:1;fill-rule:nonzero;stroke:none"
             id="path8952" /></g></g></g><text
       transform="matrix(1,0,0,-1,1019.9912,86.5771)"
       id="text8954"><tspan
         style="fill:#000000;fill-opacity:1;fill-rule:nonzero;stroke:none;font-family:PT Sans Narrow;font-variant:normal;font-weight:normal;font-stretch:semi-condensed;font-size:20;writing-mode:lr;-inkscape-font-specification:PTSans-Narrow"
         x="0 7.76 20.78"
         y="0"
         sodipodi:role="line"
         id="tspan8956">vm1</tspan></text>
<g
       id="g8958"><g
         id="g8960"
         clip-path="url(#clipPath8962)"><g
           id="g8966"
           transform="translate(916.8809,74.5771)"><path
             d="m 0,0 c -6.065,0 -11,4.935 -11,11 l 0,16 c 0,6.065 4.935,11 11,11 l 36,0 c 6.065,0 11,-4.935 11,-11 L 47,11 C 47,4.935 42.065,0 36,0 L 0,0 z"
             style="fill:#fce5cd;fill-opacity:1;fill-rule:nonzero;stroke:none"
             id="path8968" /></g><g
           id="g8970"
           transform="translate(952.8809,113.5771)"><path
             d="m 0,0 -36,0 c -6.6,0 -12,-5.4 -12,-12 l 0,-16 c 0,-6.6 5.4,-12 12,-12 l 36,0 c 6.6,0 12,5.4 12,12 l 0,16 C 12,-5.4 6.6,0 0,0 m 0,-2 c 5.514,0 10,-4.486 10,-10 l 0,-16 C 10,-33.514 5.514,-38 0,-38 l -36,0 c -5.514,0 -10,4.486 -10,10 l 0,16 c 0,5.514 4.486,10 10,10 l 36,0"
             style="fill:#000000;fill-opacity:1;fill-rule:nonzero;stroke:none"
             id="path8972" /></g></g></g><text
       transform="matrix(1,0,0,-1,919.9912,86.5771)"
       id="text8974"><tspan
         style="fill:#000000;fill-opacity:1;fill-rule:nonzero;stroke:none;font-family:PT Sans Narrow;font-variant:normal;font-weight:normal;font-stretch:semi-condensed;font-size:20;writing-mode:lr;-inkscape-font-specification:PTSans-Narrow"
         x="0 7.76 20.78"
         y="0"
         sodipodi:role="line"
         id="tspan8976">vm0</tspan></text>
<g
       id="g8978"><g
         id="g8980"
         clip-path="url(#clipPath8982)"><g
           id="g8986"
           transform="translate(996.8809,214.5771)"><path
             d="m 0,0 c -6.065,0 -11,4.935 -11,11 l 0,16 c 0,6.065 4.935,11 11,11 l 66,0 c 6.065,0 11,-4.935 11,-11 L 77,11 C 77,4.935 72.065,0 66,0 L 0,0 z"
             style="fill:#fce5cd;fill-opacity:1;fill-rule:nonzero;stroke:none"
             id="path8988" /></g><g
           id="g8990"
           transform="translate(1062.8809,253.5771)"><path
             d="m 0,0 -66,0 c -6.6,0 -12,-5.4 -12,-12 l 0,-16 c 0,-6.6 5.4,-12 12,-12 l 66,0 c 6.6,0 12,5.4 12,12 l 0,16 C 12,-5.4 6.6,0 0,0 m 0,-2 c 5.514,0 10,-4.486 10,-10 l 0,-16 C 10,-33.514 5.514,-38 0,-38 l -66,0 c -5.514,0 -10,4.486 -10,10 l 0,16 c 0,5.514 4.486,10 10,10 l 66,0"
             style="fill:#000000;fill-opacity:1;fill-rule:nonzero;stroke:none"
             id="path8992" /></g></g></g><text
       transform="matrix(1,0,0,-1,1009.3013,226.5771)"
       id="text8994"><tspan
         style="fill:#000000;fill-opacity:1;fill-rule:nonzero;stroke:none;font-family:PT Sans Narrow;font-variant:normal;font-weight:normal;font-stretch:semi-condensed;font-size:20;writing-mode:lr;-inkscape-font-specification:PTSans-Narrow"
         x="0 8.68 14.16 23.16 32.16"
         y="0"
         sodipodi:role="line"
         id="tspan8996">br100</tspan></text>
<g
       id="g8998"><g
         id="g9000"
         clip-path="url(#clipPath9002)"><g
           id="g9006"
           transform="translate(650.8789,494.2363)"><path
             d="M 0,0 C 0,0 384,19.332 384,-149.334"
             style="fill:none;stroke:#be1e2d;stroke-opacity:1;stroke-width:3;stroke-linecap:butt;stroke-linejoin:miter;stroke-miterlimit:10;stroke-dasharray:none"
             id="path9008" /></g><g
           id="g9010"
           transform="translate(504.8789,494.2363)"><path
             d="M 0,0 C 0,0 -1.742,0.088 -4.992,0.2"
             style="fill:none;stroke:#be1e2d;stroke-opacity:1;stroke-width:3;stroke-linecap:butt;stroke-linejoin:miter;stroke-miterlimit:10;stroke-dasharray:none"
             id="path9012" /></g><g
           id="g9014"
           transform="translate(489.6646,494.7119)"><path
             d="M 0,0 C -69.629,1.424 -355.086,-1.223 -368.311,-139.698"
             style="fill:none;stroke:#be1e2d;stroke-opacity:1;stroke-width:3;stroke-linecap:butt;stroke-linejoin:miter;stroke-miterlimit:10;stroke-dasharray:10.229,10.229;stroke-dashoffset:0"
             id="path9016" /></g><g
           id="g9018"
           transform="translate(120.9932,349.9014)"><path
             d="M 0,0 C -0.076,-1.648 -0.114,-3.314 -0.114,-4.999"
             style="fill:none;stroke:#be1e2d;stroke-opacity:1;stroke-width:3;stroke-linecap:butt;stroke-linejoin:miter;stroke-miterlimit:10;stroke-dasharray:none"
             id="path9020" /></g><g
           id="g9022"
           transform="translate(515.5454,495.5693)"><path
             d="M 0,0 C 0,0 -221.667,17.999 -221.667,-150.667"
             style="fill:none;stroke:#be1e2d;stroke-opacity:1;stroke-width:3;stroke-linecap:butt;stroke-linejoin:miter;stroke-miterlimit:10;stroke-dasharray:none"
             id="path9024" /></g><g
           id="g9026"
           transform="translate(633.8789,495.5693)"><path
             d="M 0,0 C 0,0 221.666,17.999 221.666,-150.667"
             style="fill:none;stroke:#be1e2d;stroke-opacity:1;stroke-width:3;stroke-linecap:butt;stroke-linejoin:miter;stroke-miterlimit:10;stroke-dasharray:10,10;stroke-dashoffset:0"
             id="path9028" /></g><g
           id="g9030"
           transform="translate(996.2734,303.5771)"><path
             d="m 0,0 c -5.179,0 -9.393,4.213 -9.393,9.392 l 0,41.216 C -9.393,55.787 -5.179,60 0,60 l 69.215,0 c 5.179,0 9.392,-4.213 9.392,-9.392 l 0,-41.216 C 78.607,4.213 74.394,0 69.215,0 L 0,0 z"
             style="fill:#fce5cd;fill-opacity:1;fill-rule:nonzero;stroke:none"
             id="path9032" /></g><g
           id="g9034"
           transform="translate(1065.4883,364.5771)"><path
             d="m 0,0 -69.215,0 c -5.716,0 -10.392,-4.677 -10.392,-10.392 l 0,-41.216 c 0,-5.715 4.676,-10.392 10.392,-10.392 L 0,-62 c 5.716,0 10.393,4.677 10.393,10.392 l 0,41.216 C 10.393,-4.677 5.716,0 0,0 m 0,-2 c 4.628,0 8.393,-3.765 8.393,-8.392 l 0,-41.216 C 8.393,-56.235 4.628,-60 0,-60 l -69.215,0 c -4.628,0 -8.392,3.765 -8.392,8.392 l 0,41.216 c 0,4.627 3.764,8.392 8.392,8.392 L 0,-2"
             style="fill:#000000;fill-opacity:1;fill-rule:nonzero;stroke:none"
             id="path9036" /></g></g></g><text
       transform="matrix(1,0,0,-1,1015.1011,337.8604)"
       id="text9038"><tspan
         style="fill:#000000;fill-opacity:1;fill-rule:nonzero;stroke:none;font-family:PT Sans Narrow;font-variant:normal;font-weight:normal;font-stretch:semi-condensed;font-size:20;writing-mode:lr;-inkscape-font-specification:PTSans-Narrow"
         x="0 8.26 13.76 22.56"
         y="0"
         sodipodi:role="line"
         id="tspan9040">eth1</tspan><tspan
         style="fill:#000000;fill-opacity:1;fill-rule:nonzero;stroke:none;font-family:PT Sans Narrow;font-variant:normal;font-weight:normal;font-stretch:semi-condensed;font-size:20;writing-mode:lr;-inkscape-font-specification:PTSans-Narrow"
         x="4.78 14.04"
         y="24"
         sodipodi:role="line"
         id="tspan9042">VM</tspan></text>
<g
       id="g9044"><g
         id="g9046"
         clip-path="url(#clipPath9048)"><path
           d="m 127.545,391.569 -85.333,0 0,25.333 85.333,0 0,-25.333 z"
           style="fill:#ffffff;fill-opacity:1;fill-rule:nonzero;stroke:none"
           id="path9052" /></g></g><text
       transform="matrix(1,0,0,-1,49.8809,396.5771)"
       id="text9054"><tspan
         style="fill:#000000;fill-opacity:1;fill-rule:nonzero;stroke:none;font-family:PT Sans Narrow;font-variant:normal;font-weight:normal;font-stretch:semi-condensed;font-size:20;writing-mode:lr;-inkscape-font-specification:PTSans-Narrow"
         x="0 8.6 17.24 30.26 38.96 47.64 52.98 61.24"
         y="0"
         sodipodi:role="line"
         id="tspan9056">Compute1</tspan></text>
<g
       id="g9058"><g
         id="g9060"
         clip-path="url(#clipPath9062)"><path
           d="m 497.545,391.569 -85.333,0 0,25.333 85.333,0 0,-25.333 z"
           style="fill:#ffffff;fill-opacity:1;fill-rule:nonzero;stroke:none"
           id="path9066" /></g></g><text
       transform="matrix(1,0,0,-1,419.8809,396.5771)"
       id="text9068"><tspan
         style="fill:#000000;fill-opacity:1;fill-rule:nonzero;stroke:none;font-family:PT Sans Narrow;font-variant:normal;font-weight:normal;font-stretch:semi-condensed;font-size:20;writing-mode:lr;-inkscape-font-specification:PTSans-Narrow"
         x="0 8.6 17.24 30.26 38.96 47.64 52.98 61.24"
         y="0"
         sodipodi:role="line"
         id="tspan9070">Compute2</tspan></text>
<g
       id="g9072"><g
         id="g9074"
         clip-path="url(#clipPath9076)"><path
           d="m 867.545,391.569 -85.332,0 0,25.333 85.332,0 0,-25.333 z"
           style="fill:#ffffff;fill-opacity:1;fill-rule:nonzero;stroke:none"
           id="path9080" /></g></g><text
       transform="matrix(1,0,0,-1,789.8809,396.5771)"
       id="text9082"><tspan
         style="fill:#000000;fill-opacity:1;fill-rule:nonzero;stroke:none;font-family:PT Sans Narrow;font-variant:normal;font-weight:normal;font-stretch:semi-condensed;font-size:20;writing-mode:lr;-inkscape-font-specification:PTSans-Narrow"
         x="0 8.6 17.24 30.26 38.96 47.64 52.98 61.24"
         y="0"
         sodipodi:role="line"
         id="tspan9084">Compute3</tspan></text>
<g
       id="g9086"><g
         id="g9088"
         clip-path="url(#clipPath9090)"><g
           id="g9094"
           transform="translate(58.8423,303.5771)"><path
             d="m 0,0 c -6.596,0 -11.961,5.366 -11.961,11.961 l 0,36.078 C -11.961,54.634 -6.596,60 0,60 l 114.077,0 c 6.596,0 11.962,-5.366 11.962,-11.961 l 0,-36.078 C 126.039,5.366 120.673,0 114.077,0 L 0,0 z"
             style="fill:#fce5cd;fill-opacity:1;fill-rule:nonzero;stroke:none"
             id="path9096" /></g><g
           id="g9098"
           transform="translate(172.9194,364.5771)"><path
             d="m 0,0 -114.077,0 c -7.129,0 -12.962,-5.833 -12.962,-12.961 l 0,-36.078 c 0,-7.128 5.833,-12.961 12.962,-12.961 L 0,-62 c 7.129,0 12.961,5.833 12.961,12.961 l 0,36.078 C 12.961,-5.833 7.129,0 0,0 m 0,-2 c 6.044,0 10.961,-4.917 10.961,-10.961 l 0,-36.078 C 10.961,-55.083 6.044,-60 0,-60 l -114.077,0 c -6.044,0 -10.962,4.917 -10.962,10.961 l 0,36.078 c 0,6.044 4.918,10.961 10.962,10.961 L 0,-2"
             style="fill:#000000;fill-opacity:1;fill-rule:nonzero;stroke:none"
             id="path9100" /></g></g></g><text
       transform="matrix(1,0,0,-1,100.1011,337.8604)"
       id="text9102"><tspan
         style="fill:#000000;fill-opacity:1;fill-rule:nonzero;stroke:none;font-family:PT Sans Narrow;font-variant:normal;font-weight:normal;font-stretch:semi-condensed;font-size:20;writing-mode:lr;-inkscape-font-specification:PTSans-Narrow"
         x="0 8.26 13.76 22.56"
         y="0"
         sodipodi:role="line"
         id="tspan9104">eth0</tspan><tspan
         style="fill:#000000;fill-opacity:1;fill-rule:nonzero;stroke:none;font-family:PT Sans Narrow;font-variant:normal;font-weight:normal;font-stretch:semi-condensed;font-size:20;writing-mode:lr;-inkscape-font-specification:PTSans-Narrow"
         x="-29.2 -16.46 -8.46 0.32 8.32 16.96 25.22 38.24 46.5 55.28"
         y="24"
         sodipodi:role="line"
         id="tspan9106">Management</tspan></text>
<g
       id="g9108"><g
         id="g9110"
         clip-path="url(#clipPath9112)"><g
           id="g9116"
           transform="translate(256.2729,303.5771)"><path
             d="m 0,0 c -5.179,0 -9.392,4.213 -9.392,9.392 l 0,41.216 C -9.392,55.787 -5.179,60 0,60 l 69.216,0 c 5.179,0 9.392,-4.213 9.392,-9.392 l 0,-41.216 C 78.608,4.213 74.395,0 69.216,0 L 0,0 z"
             style="fill:#fce5cd;fill-opacity:1;fill-rule:nonzero;stroke:none"
             id="path9118" /></g><g
           id="g9120"
           transform="translate(325.4888,364.5771)"><path
             d="m 0,0 -69.216,0 c -5.715,0 -10.392,-4.677 -10.392,-10.392 l 0,-41.216 c 0,-5.715 4.677,-10.392 10.392,-10.392 L 0,-62 c 5.715,0 10.392,4.677 10.392,10.392 l 0,41.216 C 10.392,-4.677 5.715,0 0,0 m 0,-2 c 4.627,0 8.392,-3.765 8.392,-8.392 l 0,-41.216 C 8.392,-56.235 4.627,-60 0,-60 l -69.216,0 c -4.627,0 -8.392,3.765 -8.392,8.392 l 0,41.216 c 0,4.627 3.765,8.392 8.392,8.392 L 0,-2"
             style="fill:#000000;fill-opacity:1;fill-rule:nonzero;stroke:none"
             id="path9122" /></g></g></g><text
       transform="matrix(1,0,0,-1,275.1011,337.8604)"
       id="text9124"><tspan
         style="fill:#000000;fill-opacity:1;fill-rule:nonzero;stroke:none;font-family:PT Sans Narrow;font-variant:normal;font-weight:normal;font-stretch:semi-condensed;font-size:20;writing-mode:lr;-inkscape-font-specification:PTSans-Narrow"
         x="0 8.26 13.76 22.56"
         y="0"
         sodipodi:role="line"
         id="tspan9126">eth1</tspan><tspan
         style="fill:#000000;fill-opacity:1;fill-rule:nonzero;stroke:none;font-family:PT Sans Narrow;font-variant:normal;font-weight:normal;font-stretch:semi-condensed;font-size:20;writing-mode:lr;-inkscape-font-specification:PTSans-Narrow"
         x="4.78 14.04"
         y="24"
         sodipodi:role="line"
         id="tspan9128">VM</tspan></text>
<g
       id="g9130"><g
         id="g9132"
         clip-path="url(#clipPath9134)"><g
           id="g9138"
           transform="translate(798.8428,303.5771)"><path
             d="m 0,0 c -6.596,0 -11.962,5.366 -11.962,11.961 l 0,36.078 C -11.962,54.634 -6.596,60 0,60 l 114.076,0 c 6.596,0 11.962,-5.366 11.962,-11.961 l 0,-36.078 C 126.038,5.366 120.672,0 114.076,0 L 0,0 z"
             style="fill:#fce5cd;fill-opacity:1;fill-rule:nonzero;stroke:none"
             id="path9140" /></g><g
           id="g9142"
           transform="translate(912.9189,364.5771)"><path
             d="m 0,0 -114.076,0 c -7.129,0 -12.962,-5.833 -12.962,-12.961 l 0,-36.078 c 0,-7.128 5.833,-12.961 12.962,-12.961 L 0,-62 c 7.129,0 12.962,5.833 12.962,12.961 l 0,36.078 C 12.962,-5.833 7.129,0 0,0 m 0,-2 c 6.044,0 10.962,-4.917 10.962,-10.961 l 0,-36.078 C 10.962,-55.083 6.044,-60 0,-60 l -114.076,0 c -6.044,0 -10.962,4.917 -10.962,10.961 l 0,36.078 c 0,6.044 4.918,10.961 10.962,10.961 L 0,-2"
             style="fill:#000000;fill-opacity:1;fill-rule:nonzero;stroke:none"
             id="path9144" /></g></g></g><text
       transform="matrix(1,0,0,-1,840.1011,337.8604)"
       id="text9146"><tspan
         style="fill:#000000;fill-opacity:1;fill-rule:nonzero;stroke:none;font-family:PT Sans Narrow;font-variant:normal;font-weight:normal;font-stretch:semi-condensed;font-size:20;writing-mode:lr;-inkscape-font-specification:PTSans-Narrow"
         x="0 8.26 13.76 22.56"
         y="0"
         sodipodi:role="line"
         id="tspan9148">eth0</tspan><tspan
         style="fill:#000000;fill-opacity:1;fill-rule:nonzero;stroke:none;font-family:PT Sans Narrow;font-variant:normal;font-weight:normal;font-stretch:semi-condensed;font-size:20;writing-mode:lr;-inkscape-font-specification:PTSans-Narrow"
         x="-29.2 -16.46 -8.46 0.32 8.32 16.96 25.22 38.24 46.5 55.28"
         y="24"
         sodipodi:role="line"
         id="tspan9150">Management</tspan></text>
<g
       id="g9152"><g
         id="g9154"
         clip-path="url(#clipPath9156)"><g
           id="g9160"
           transform="translate(543.8789,491.5693)"><path
             d="M 0,0 -65.333,-153.333"
             style="fill:none;stroke:#be1e2d;stroke-opacity:1;stroke-width:3;stroke-linecap:butt;stroke-linejoin:miter;stroke-miterlimit:10;stroke-dasharray:10,10;stroke-dashoffset:0"
             id="path9162" /></g><g
           id="g9164"
           transform="translate(595.5449,490.2363)"><path
             d="M 0,0 68,-150.667"
             style="fill:none;stroke:#be1e2d;stroke-opacity:1;stroke-width:3;stroke-linecap:butt;stroke-linejoin:miter;stroke-miterlimit:10;stroke-dasharray:none"
             id="path9166" /></g><g
           id="g9168"
           transform="translate(626.2734,303.5771)"><path
             d="m 0,0 c -5.179,0 -9.393,4.213 -9.393,9.392 l 0,41.216 C -9.393,55.787 -5.179,60 0,60 l 69.215,0 c 5.179,0 9.392,-4.213 9.392,-9.392 l 0,-41.216 C 78.607,4.213 74.394,0 69.215,0 L 0,0 z"
             style="fill:#fce5cd;fill-opacity:1;fill-rule:nonzero;stroke:none"
             id="path9170" /></g><g
           id="g9172"
           transform="translate(695.4883,364.5771)"><path
             d="m 0,0 -69.215,0 c -5.716,0 -10.392,-4.677 -10.392,-10.392 l 0,-41.216 c 0,-5.715 4.676,-10.392 10.392,-10.392 L 0,-62 c 5.716,0 10.393,4.677 10.393,10.392 l 0,41.216 C 10.393,-4.677 5.716,0 0,0 m 0,-2 c 4.628,0 8.393,-3.765 8.393,-8.392 l 0,-41.216 C 8.393,-56.235 4.628,-60 0,-60 l -69.215,0 c -4.628,0 -8.392,3.765 -8.392,8.392 l 0,41.216 c 0,4.627 3.764,8.392 8.392,8.392 L 0,-2"
             style="fill:#000000;fill-opacity:1;fill-rule:nonzero;stroke:none"
             id="path9174" /></g></g></g><text
       transform="matrix(1,0,0,-1,645.1011,337.8604)"
       id="text9176"><tspan
         style="fill:#000000;fill-opacity:1;fill-rule:nonzero;stroke:none;font-family:PT Sans Narrow;font-variant:normal;font-weight:normal;font-stretch:semi-condensed;font-size:20;writing-mode:lr;-inkscape-font-specification:PTSans-Narrow"
         x="0 8.26 13.76 22.56"
         y="0"
         sodipodi:role="line"
         id="tspan9178">eth1</tspan><tspan
         style="fill:#000000;fill-opacity:1;fill-rule:nonzero;stroke:none;font-family:PT Sans Narrow;font-variant:normal;font-weight:normal;font-stretch:semi-condensed;font-size:20;writing-mode:lr;-inkscape-font-specification:PTSans-Narrow"
         x="4.78 14.04"
         y="24"
         sodipodi:role="line"
         id="tspan9180">VM</tspan></text>
<g
       id="g9182"><g
         id="g9184"
         clip-path="url(#clipPath9186)"><g
           id="g9190"
           transform="translate(428.8423,303.5771)"><path
             d="m 0,0 c -6.596,0 -11.961,5.366 -11.961,11.961 l 0,36.078 C -11.961,54.634 -6.596,60 0,60 l 114.077,0 c 6.596,0 11.962,-5.366 11.962,-11.961 l 0,-36.078 C 126.039,5.366 120.673,0 114.077,0 L 0,0 z"
             style="fill:#fce5cd;fill-opacity:1;fill-rule:nonzero;stroke:none"
             id="path9192" /></g><g
           id="g9194"
           transform="translate(542.9194,364.5771)"><path
             d="m 0,0 -114.077,0 c -7.129,0 -12.962,-5.833 -12.962,-12.961 l 0,-36.078 c 0,-7.128 5.833,-12.961 12.962,-12.961 L 0,-62 c 7.129,0 12.961,5.833 12.961,12.961 l 0,36.078 C 12.961,-5.833 7.129,0 0,0 m 0,-2 c 6.044,0 10.961,-4.917 10.961,-10.961 l 0,-36.078 C 10.961,-55.083 6.044,-60 0,-60 l -114.077,0 c -6.044,0 -10.962,4.917 -10.962,10.961 l 0,36.078 c 0,6.044 4.918,10.961 10.962,10.961 L 0,-2"
             style="fill:#000000;fill-opacity:1;fill-rule:nonzero;stroke:none"
             id="path9196" /></g></g></g><text
       transform="matrix(1,0,0,-1,470.1011,337.8604)"
       id="text9198"><tspan
         style="fill:#000000;fill-opacity:1;fill-rule:nonzero;stroke:none;font-family:PT Sans Narrow;font-variant:normal;font-weight:normal;font-stretch:semi-condensed;font-size:20;writing-mode:lr;-inkscape-font-specification:PTSans-Narrow"
         x="0 8.26 13.76 22.56"
         y="0"
         sodipodi:role="line"
         id="tspan9200">eth0</tspan><tspan
         style="fill:#000000;fill-opacity:1;fill-rule:nonzero;stroke:none;font-family:PT Sans Narrow;font-variant:normal;font-weight:normal;font-stretch:semi-condensed;font-size:20;writing-mode:lr;-inkscape-font-specification:PTSans-Narrow"
         x="-29.2 -16.46 -8.46 0.32 8.32 16.96 25.22 38.24 46.5 55.28"
         y="24"
         sodipodi:role="line"
         id="tspan9202">Management</tspan></text>
<g
       id="g9204"><g
         id="g9206"
         clip-path="url(#clipPath9208)"><g
           id="g9212"
           transform="translate(471.8809,474.5771)"><path
             d="m 0,0 c -6.065,0 -11,4.935 -11,11 l 0,16 c 0,6.065 4.935,11 11,11 l 176,0 c 6.065,0 11,-4.935 11,-11 l 0,-16 C 187,4.935 182.065,0 176,0 L 0,0 z"
             style="fill:#fce5cd;fill-opacity:1;fill-rule:nonzero;stroke:none"
             id="path9214" /></g><g
           id="g9216"
           transform="translate(647.8809,513.5771)"><path
             d="m 0,0 -176,0 c -6.6,0 -12,-5.4 -12,-12 l 0,-16 c 0,-6.6 5.4,-12 12,-12 l 176,0 c 6.6,0 12,5.4 12,12 l 0,16 C 12,-5.4 6.6,0 0,0 m 0,-2 c 5.514,0 10,-4.486 10,-10 l 0,-16 C 10,-33.514 5.514,-38 0,-38 l -176,0 c -5.514,0 -10,4.486 -10,10 l 0,16 c 0,5.514 4.486,10 10,10 L 0,-2"
             style="fill:#000000;fill-opacity:1;fill-rule:nonzero;stroke:none"
             id="path9218" /></g></g></g><text
       transform="matrix(1,0,0,-1,527.0312,486.5771)"
       id="text9220"><tspan
         style="fill:#000000;fill-opacity:1;fill-rule:nonzero;stroke:none;font-family:PT Sans Narrow;font-variant:normal;font-weight:normal;font-stretch:semi-condensed;font-size:20;writing-mode:lr;-inkscape-font-specification:PTSans-Narrow"
         x="0 8.3 17.3 21.54 28.3 40.1 44.44 49.78 56.9"
         y="0"
         sodipodi:role="line"
         id="tspan9222">L2 switch</tspan></text>
</g></svg>