<?xml version="1.0" encoding="UTF-8" standalone="no"?>
<!-- Created with Inkscape (http://www.inkscape.org/) -->

<svg
   xmlns:dc="http://purl.org/dc/elements/1.1/"
   xmlns:cc="http://creativecommons.org/ns#"
   xmlns:rdf="http://www.w3.org/1999/02/22-rdf-syntax-ns#"
   xmlns:svg="http://www.w3.org/2000/svg"
   xmlns="http://www.w3.org/2000/svg"
   xmlns:sodipodi="http://sodipodi.sourceforge.net/DTD/sodipodi-0.dtd"
   xmlns:inkscape="http://www.inkscape.org/namespaces/inkscape"
   id="svg2985"
   version="1.1"
   inkscape:version="0.48.4 r9939"
   width="923.75"
   height="786.25"
   xml:space="preserve"
   sodipodi:docname="FuelSimpleDiagramv.ai"><metadata
     id="metadata2991"><rdf:RDF><cc:Work
         rdf:about=""><dc:format>image/svg+xml</dc:format><dc:type
           rdf:resource="http://purl.org/dc/dcmitype/StillImage" /><dc:title></dc:title></cc:Work></rdf:RDF></metadata><defs
     id="defs2989"><clipPath
       clipPathUnits="userSpaceOnUse"
       id="clipPath2999"><path
         d="M 0,629 739,629 739,0 0,0 0,629 z"
         id="path3001" /></clipPath><clipPath
       clipPathUnits="userSpaceOnUse"
       id="clipPath3023"><path
         d="M 0,629 739,629 739,0 0,0 0,629 z"
         id="path3025" /></clipPath><clipPath
       clipPathUnits="userSpaceOnUse"
       id="clipPath3043"><path
         d="M 0,629 739,629 739,0 0,0 0,629 z"
         id="path3045" /></clipPath><clipPath
       clipPathUnits="userSpaceOnUse"
       id="clipPath3063"><path
         d="M 0,629 739,629 739,0 0,0 0,629 z"
         id="path3065" /></clipPath><clipPath
       clipPathUnits="userSpaceOnUse"
       id="clipPath3097"><path
         d="M 0,629 739,629 739,0 0,0 0,629 z"
         id="path3099" /></clipPath><clipPath
       clipPathUnits="userSpaceOnUse"
       id="clipPath3119"><path
         d="M 0,629 739,629 739,0 0,0 0,629 z"
         id="path3121" /></clipPath></defs><sodipodi:namedview
     pagecolor="#ffffff"
     bordercolor="#666666"
     borderopacity="1"
     objecttolerance="10"
     gridtolerance="10"
     guidetolerance="10"
     inkscape:pageopacity="0"
     inkscape:pageshadow="2"
     inkscape:window-width="1920"
     inkscape:window-height="1061"
     id="namedview2987"
     showgrid="false"
     inkscape:zoom="1.6979556"
     inkscape:cx="419.02938"
     inkscape:cy="564.35647"
     inkscape:window-x="1362"
     inkscape:window-y="-4"
     inkscape:window-maximized="1"
     inkscape:current-layer="g2993" /><g
     id="g2993"
     inkscape:groupmode="layer"
     inkscape:label="FuelSimpleDiagramv"
     transform="matrix(1.25,0,0,-1.25,0,786.25)"><g
       id="g2995"><g
         id="g2997"
         clip-path="url(#clipPath2999)"><g
           id="g3003"
           transform="translate(468.8926,124.1182)"><path
             d="m 0,0 c 0.425,2.316 0.697,4.706 0.697,7.151 0,22.412 -19.283,40.553 -43.066,40.553 -11.378,0 -21.732,-4.183 -29.422,-11.005 -10.206,22.856 -34.146,38.903 -62.102,38.903 -37.17,0 -67.306,-28.373 -67.306,-63.389 0,-4.375 0.481,-8.649 1.346,-12.779 -22.572,-6.981 -39.04,-27.055 -39.04,-50.607 0,-29.251 25.432,-53.225 56.529,-53.225 l 166.904,0 c 31.118,0 56.567,23.974 56.567,53.225 C 41.107,-26.918 23.64,-6.368 0,0"
             style="fill:#2980b9;fill-opacity:1;fill-rule:nonzero;stroke:none"
             id="path3005" /></g><g
           id="g3007"
           transform="translate(168.9082,613)"><path
             d="m 0,0 -137.816,0 c -7.751,0 -14.092,-6.341 -14.092,-14.092 l 0,-59.816 c 0,-7.751 6.341,-14.092 14.092,-14.092 L 0,-88 c 7.75,0 14.092,6.341 14.092,14.092 l 0,59.816 C 14.092,-6.341 7.75,0 0,0 m 0,-2.642 c 6.313,0 11.45,-5.136 11.45,-11.45 l 0,-59.816 c 0,-6.314 -5.137,-11.45 -11.45,-11.45 l -137.816,0 c -6.314,0 -11.45,5.136 -11.45,11.45 l 0,59.816 c 0,6.314 5.136,11.45 11.45,11.45 L 0,-2.642"
             style="fill:#d1d2d3;fill-opacity:1;fill-rule:nonzero;stroke:none"
             id="path3009" /></g></g></g><text
       transform="matrix(1,0,0,-1,27.6665,584.3501)"
       id="text3011"><tspan
         style="fill:#000000;fill-opacity:1;fill-rule:nonzero;stroke:none;font-family:PT Sans Narrow;font-variant:normal;font-weight:bold;font-stretch:semi-condensed;font-size:14.5;writing-mode:lr;-inkscape-font-specification:PTSans-NarrowBold"
         x="0 7.105 13.0935 17.342 23.548 26.5205 36.1485 42.3545 46.574 52.5625 56.086 59.0585 65.6415 69.89 76.1975 81.983 85.2455 90.3205 93.583 100.0355 106.546 109.8085 116.319"
         y="0"
         sodipodi:role="line"
         id="tspan3013">Bare Metal Provisioning</tspan></text>
<text
       transform="matrix(1,0,0,-1,27.6665,558.75)"
       id="text3015"><tspan
         style="fill:#000000;fill-opacity:1;fill-rule:nonzero;stroke:none;font-family:PT Sans Narrow;font-variant:normal;font-weight:normal;font-stretch:semi-condensed;font-size:13;writing-mode:lr;-inkscape-font-specification:PTSans-Narrow"
         x="0 7.137 12.701 15.457 20.852 23.608 29.198 34.814 40.456 46.098 49.127 54.496"
         y="0"
         sodipodi:role="line"
         id="tspan3017">OS + Cobbler</tspan></text>
<g
       id="g3019"><g
         id="g3021"
         clip-path="url(#clipPath3023)"><g
           id="g3027"
           transform="translate(348.9082,613)"><path
             d="m 0,0 -137.816,0 c -7.751,0 -14.092,-6.341 -14.092,-14.092 l 0,-59.816 c 0,-7.751 6.341,-14.092 14.092,-14.092 L 0,-88 c 7.75,0 14.092,6.341 14.092,14.092 l 0,59.816 C 14.092,-6.341 7.75,0 0,0 m 0,-2.642 c 6.313,0 11.45,-5.136 11.45,-11.45 l 0,-59.816 c 0,-6.314 -5.137,-11.45 -11.45,-11.45 l -137.816,0 c -6.314,0 -11.45,5.136 -11.45,11.45 l 0,59.816 c 0,6.314 5.136,11.45 11.45,11.45 L 0,-2.642"
             style="fill:#d1d2d3;fill-opacity:1;fill-rule:nonzero;stroke:none"
             id="path3029" /></g></g></g><text
       transform="matrix(1,0,0,-1,207.8335,584.3501)"
       id="text3031"><tspan
         style="fill:#000000;fill-opacity:1;fill-rule:nonzero;stroke:none;font-family:PT Sans Narrow;font-variant:normal;font-weight:bold;font-stretch:semi-condensed;font-size:14.5;writing-mode:lr;-inkscape-font-specification:PTSans-NarrowBold"
         x="0 6.206 12.6585 19.169 25.839 32.2625 38.7295 42.978 48.9665 53.186 56.4485 62.901 69.4115 72.384 82.012 88.0005 94.511 100.4995 106.923 113.129 122.7425 128.9485 135.459"
         y="0"
         sodipodi:role="line"
         id="tspan3033">Conﬁguration Management</tspan></text>
<text
       transform="matrix(1,0,0,-1,207.8335,558.75)"
       id="text3035"><tspan
         style="fill:#000000;fill-opacity:1;fill-rule:nonzero;stroke:none;font-family:PT Sans Narrow;font-variant:normal;font-weight:normal;font-stretch:semi-condensed;font-size:13;writing-mode:lr;-inkscape-font-specification:PTSans-Narrow"
         x="0 5.512 11.154 16.809 22.464 27.833"
         y="0"
         sodipodi:role="line"
         id="tspan3037">Puppet</tspan></text>
<g
       id="g3039"><g
         id="g3041"
         clip-path="url(#clipPath3043)"><g
           id="g3047"
           transform="translate(528.9082,613)"><path
             d="m 0,0 -137.816,0 c -7.75,0 -14.092,-6.341 -14.092,-14.092 l 0,-59.816 c 0,-7.751 6.342,-14.092 14.092,-14.092 L 0,-88 c 7.75,0 14.092,6.341 14.092,14.092 l 0,59.816 C 14.092,-6.341 7.75,0 0,0 m 0,-2.642 c 6.313,0 11.449,-5.136 11.449,-11.45 l 0,-59.816 c 0,-6.314 -5.136,-11.45 -11.449,-11.45 l -137.816,0 c -6.314,0 -11.45,5.136 -11.45,11.45 l 0,59.816 c 0,6.314 5.136,11.45 11.45,11.45 L 0,-2.642"
             style="fill:#d1d2d3;fill-opacity:1;fill-rule:nonzero;stroke:none"
             id="path3049" /></g></g></g><text
       transform="matrix(1,0,0,-1,387.5,584.3501)"
       id="text3051"><tspan
         style="fill:#000000;fill-opacity:1;fill-rule:nonzero;stroke:none;font-family:PT Sans Narrow;font-variant:normal;font-weight:bold;font-stretch:semi-condensed;font-size:14.5;writing-mode:lr;-inkscape-font-specification:PTSans-NarrowBold"
         x="0 7.4675 12.5425 18.7485 22.997 25.9695 29.4205 35.931 40.1505 46.3565 50.605 54.4765 60.465 65.3515"
         y="0"
         sodipodi:role="line"
         id="tspan3053">User Interface</tspan></text>
<text
       transform="matrix(1,0,0,-1,387.5,558.75)"
       id="text3055"><tspan
         style="fill:#000000;fill-opacity:1;fill-rule:nonzero;stroke:none;font-family:PT Sans Narrow;font-variant:normal;font-weight:normal;font-stretch:semi-condensed;font-size:13;writing-mode:lr;-inkscape-font-specification:PTSans-Narrow"
         x="0 8.268 13.637 19.279 22.035 28.808 31.837 34.593 39.988 42.744 48.698 54.093"
         y="0"
         sodipodi:role="line"
         id="tspan3057">Web UI + CLI</tspan></text>
<g
       id="g3059"><g
         id="g3061"
         clip-path="url(#clipPath3063)"><g
           id="g3067"
           transform="translate(494,473)"><path
             d="m 0,0 -248,0 c -8.8,0 -16,-7.2 -16,-16 l 0,-148 c 0,-8.8 7.2,-16 16,-16 l 248,0 c 8.8,0 16,7.2 16,16 l 0,148 C 16,-7.2 8.8,0 0,0 m 0,-3 c 7.168,0 13,-5.832 13,-13 l 0,-148 c 0,-7.168 -5.832,-13 -13,-13 l -248,0 c -7.168,0 -13,5.832 -13,13 l 0,148 c 0,7.168 5.832,13 13,13 L 0,-3"
             style="fill:#d1d2d3;fill-opacity:1;fill-rule:nonzero;stroke:none"
             id="path3069" /></g></g></g><text
       transform="matrix(1,0,0,-1,340.6025,416.7002)"
       id="text3071"><tspan
         style="fill:#000000;fill-opacity:1;fill-rule:nonzero;stroke:none;font-family:PT Sans Narrow;font-variant:normal;font-weight:bold;font-stretch:semi-condensed;font-size:34;writing-mode:lr;-inkscape-font-specification:PTSans-NarrowBold"
         x="0 14.246 31.756 46.376"
         y="0"
         sodipodi:role="line"
         id="tspan3073">FUEL</tspan></text>
<text
       transform="matrix(1,0,0,-1,273.3218,372.7002)"
       id="text3075"><tspan
         style="fill:#000000;fill-opacity:1;fill-rule:nonzero;stroke:none;font-family:PT Sans Narrow;font-variant:normal;font-weight:normal;font-stretch:semi-condensed;font-size:20;writing-mode:lr;-inkscape-font-specification:PTSans-Narrow"
         x="0 8.6 17.24 26.02 31.52 35.86 44.64 53.32 61.96 70.64 77.4 82.06 89 93.24 97.58 106.36 111.7 119.8 128.44 133.92 141.92 147.26 155.52 164.18 168.42 176.42 185.2 193.86"
         y="0"
         sodipodi:role="line"
         id="tspan3077">Continuously integrated and </tspan><tspan
         style="fill:#000000;fill-opacity:1;fill-rule:nonzero;stroke:none;font-family:PT Sans Narrow;font-variant:normal;font-weight:normal;font-stretch:semi-condensed;font-size:20;writing-mode:lr;-inkscape-font-specification:PTSans-Narrow"
         x="6.8 12.14 20.4 27.16 32.5 40.76 49.42 53.66 59 67.64 71.88 83.5 92.14 97.62 104.9 109.14 114.48 123.12 131.76 140.02 145.52 154.32 162.58 168.06 172.3 180.3 187.06"
         y="24"
         sodipodi:role="line"
         id="tspan3079">tested to work together as </tspan><tspan
         style="fill:#000000;fill-opacity:1;fill-rule:nonzero;stroke:none;font-family:PT Sans Narrow;font-variant:normal;font-weight:normal;font-stretch:semi-condensed;font-size:20;writing-mode:lr;-inkscape-font-specification:PTSans-Narrow"
         x="-6.82 1.82 10.52 18.78 27.56 31.8 38.56 47.2 55.88 61.36 68.14 76.4 80.64 87.42 96.06 104.72 112.98 121.66 129.66 136.42 144.68 148.92 156.84 164.6 173.24 177.9 185.66 193.92"
         y="48"
         sodipodi:role="line"
         id="tspan3081">open source codebase evolves</tspan></text>
<text
       transform="matrix(1,0,0,-1,354.1821,244.7002)"
       id="text3083"><tspan
         style="fill:#000000;fill-opacity:1;fill-rule:nonzero;stroke:none;font-family:PT Sans Narrow;font-variant:normal;font-weight:bold;font-stretch:semi-condensed;font-size:24;writing-mode:lr;-inkscape-font-specification:PTSans-NarrowBold"
         x="0 10.536 21"
         y="0"
         sodipodi:role="line"
         id="tspan3085">SLA</tspan></text>
<text
       transform="matrix(1,0,0,-1,294.75,96.1001)"
       id="text3087"><tspan
         style="fill:#ffffff;fill-opacity:1;fill-rule:nonzero;stroke:none;font-family:PT Sans Narrow;font-variant:normal;font-weight:normal;font-stretch:semi-condensed;font-size:32;writing-mode:lr;-inkscape-font-specification:PTSans-Narrow"
         x="0 14.432 28.896 46.464 63.264 79.936 93.792 108.096 115.552 133.12 150.336"
         y="0"
         sodipodi:role="line"
         id="tspan3089">PRODUCTION </tspan><tspan
         style="fill:#ffffff;fill-opacity:1;fill-rule:nonzero;stroke:none;font-family:PT Sans Narrow;font-variant:normal;font-weight:normal;font-stretch:semi-condensed;font-size:32;writing-mode:lr;-inkscape-font-specification:PTSans-Narrow"
         x="-33.472 -15.904 -1.472 12.256 29.472 43.168 55.712 70.176 84.832 99.84 106.624 121.28 132.736 150.304 166.976"
         y="38.4"
         sodipodi:role="line"
         id="tspan3091">OPENSTACK CLOUD</tspan></text>
<g
       id="g3093"><g
         id="g3095"
         clip-path="url(#clipPath3097)"><g
           id="g3101"
           transform="translate(708.9082,613)"><path
             d="m 0,0 -137.816,0 c -7.75,0 -14.092,-6.341 -14.092,-14.092 l 0,-59.816 c 0,-7.751 6.342,-14.092 14.092,-14.092 L 0,-88 c 7.75,0 14.092,6.341 14.092,14.092 l 0,59.816 C 14.092,-6.341 7.75,0 0,0 m 0,-2.642 c 6.313,0 11.449,-5.136 11.449,-11.45 l 0,-59.816 c 0,-6.314 -5.136,-11.45 -11.449,-11.45 l -137.816,0 c -6.314,0 -11.45,5.136 -11.45,11.45 l 0,59.816 c 0,6.314 5.136,11.45 11.45,11.45 L 0,-2.642"
             style="fill:#d1d2d3;fill-opacity:1;fill-rule:nonzero;stroke:none"
             id="path3103" /></g></g></g><text
       transform="matrix(1,0,0,-1,567.5,584.3501)"
       id="text3105"><tspan
         style="fill:#000000;fill-opacity:1;fill-rule:nonzero;stroke:none;font-family:PT Sans Narrow;font-variant:normal;font-weight:bold;font-stretch:semi-condensed;font-size:14.5;writing-mode:lr;-inkscape-font-specification:PTSans-NarrowBold"
         x="0 8.0185 14.5 20.706 27.2165 33.582 37.8015 43.79 48.865 54.4765 57.275 63.481 69.9335 79.547 86.0285 92.481 98.9915 105.1975 111.708 115.9275"
         y="0"
         sodipodi:role="line"
         id="tspan3107">OpenStack Components</tspan></text>
<text
       transform="matrix(1,0,0,-1,567.5,558.75)"
       id="text3109"><tspan
         style="fill:#000000;fill-opacity:1;fill-rule:nonzero;stroke:none;font-family:PT Sans Narrow;font-variant:normal;font-weight:normal;font-stretch:semi-condensed;font-size:13;writing-mode:lr;-inkscape-font-specification:PTSans-Narrow"
         x="0 5.59 11.206 14.768 20.137 22.893 28.405 33.605 38.233 43.277 48.477 54.093 59.462 63.856 65.416 68.172 75.14 80.86 83.616 89.206 94.822 103.285 108.94 114.556 120.263 125.632 131.339 134.914 139.308 140.868"
         y="0"
         sodipodi:role="line"
         id="tspan3111">Core Packages, HA Components, </tspan><tspan
         style="fill:#000000;fill-opacity:1;fill-rule:nonzero;stroke:none;font-family:PT Sans Narrow;font-variant:normal;font-weight:normal;font-stretch:semi-condensed;font-size:13;writing-mode:lr;-inkscape-font-specification:PTSans-Narrow"
         x="0 8.281 13.897 19.604 22.425 25.896 31.512 35.074 37.895 43.602"
         y="15.6"
         sodipodi:role="line"
         id="tspan3113">Monitoring</tspan></text>
<g
       id="g3115"><g
         id="g3117"
         clip-path="url(#clipPath3119)"><g
           id="g3123"
           transform="translate(310.5,518.5)"><path
             d="M 0,0 0,-28.909"
             style="fill:none;stroke:#be1e2d;stroke-opacity:1;stroke-width:3;stroke-linecap:butt;stroke-linejoin:miter;stroke-miterlimit:10;stroke-dasharray:none"
             id="path3125" /></g><g
           id="g3127"
           transform="translate(310.5,479)"><path
             d="M 0,0 -6.098,14.924 0,11.383 6.097,14.924 0,0 z"
             style="fill:#be1e2d;fill-opacity:1;fill-rule:nonzero;stroke:none"
             id="path3129" /></g><g
           id="g3131"
           transform="translate(420.5,518.5)"><path
             d="M 0,0 0,-28.909"
             style="fill:none;stroke:#be1e2d;stroke-opacity:1;stroke-width:3;stroke-linecap:butt;stroke-linejoin:miter;stroke-miterlimit:10;stroke-dasharray:none"
             id="path3133" /></g><g
           id="g3135"
           transform="translate(420.5,479)"><path
             d="M 0,0 -6.098,14.924 0,11.383 6.097,14.924 0,0 z"
             style="fill:#be1e2d;fill-opacity:1;fill-rule:nonzero;stroke:none"
             id="path3137" /></g><g
           id="g3139"
           transform="translate(170.5,518.5)"><path
             d="M 0,0 49.247,-33.539"
             style="fill:none;stroke:#be1e2d;stroke-opacity:1;stroke-width:3;stroke-linecap:butt;stroke-linejoin:miter;stroke-miterlimit:10;stroke-dasharray:none"
             id="path3141" /></g><g
           id="g3143"
           transform="translate(228.5,479)"><path
             d="m 0,0 -15.768,3.36 6.36,3.047 0.505,7.032 L 0,0 z"
             style="fill:#be1e2d;fill-opacity:1;fill-rule:nonzero;stroke:none"
             id="path3145" /></g><g
           id="g3147"
           transform="translate(561.5,518.5)"><path
             d="M 0,0 -49.246,-33.539"
             style="fill:none;stroke:#be1e2d;stroke-opacity:1;stroke-width:3;stroke-linecap:butt;stroke-linejoin:miter;stroke-miterlimit:10;stroke-dasharray:none"
             id="path3149" /></g><g
           id="g3151"
           transform="translate(503.5,479)"><path
             d="M 0,0 8.902,13.441 9.408,6.407 15.767,3.361 0,0 z"
             style="fill:#be1e2d;fill-opacity:1;fill-rule:nonzero;stroke:none"
             id="path3153" /></g><g
           id="g3155"
           transform="translate(386,281.502)"><path
             d="m 0,0 -32,0 c -5.5,0 -10,-4.5 -10,-10 l 0,-20 -16,0 c -5.5,0 -6.3,-2.562 -1.778,-5.692 l 35.556,-24.616 c 2.261,-1.565 5.242,-2.348 8.222,-2.348 2.98,0 5.961,0.783 8.222,2.348 l 35.556,24.616 C 32.301,-32.562 31.5,-30 26,-30 l -16,0 0,20 C 10,-4.5 5.5,0 0,0 m 0,-3 c 3.859,0 7,-3.141 7,-7 l 0,-20 0,-3 3,0 16,0 c 0.134,0 0.261,-0.002 0.381,-0.005 -0.097,-0.071 -0.2,-0.144 -0.311,-0.221 L -9.486,-57.841 c -1.665,-1.153 -4.039,-1.815 -6.514,-1.815 -2.474,0 -4.848,0.662 -6.514,1.815 l -35.557,24.615 c -0.11,0.077 -0.213,0.15 -0.309,0.221 0.12,0.003 0.246,0.005 0.38,0.005 l 16,0 3,0 0,3 0,20 c 0,3.859 3.14,7 7,7 l 32,0"
             style="fill:#d1d2d3;fill-opacity:1;fill-rule:nonzero;stroke:none"
             id="path3157" /></g></g></g></g></svg>