<?xml version="1.0" encoding="UTF-8" standalone="no"?>
<svg
   xmlns:dc="http://purl.org/dc/elements/1.1/"
   xmlns:cc="http://creativecommons.org/ns#"
   xmlns:rdf="http://www.w3.org/1999/02/22-rdf-syntax-ns#"
   xmlns:svg="http://www.w3.org/2000/svg"
   xmlns="http://www.w3.org/2000/svg"
   xmlns:sodipodi="http://sodipodi.sourceforge.net/DTD/sodipodi-0.dtd"
   xmlns:inkscape="http://www.inkscape.org/namespaces/inkscape"
   version="1.1"
   viewBox="0.0 0.0 749.0 490.0"
   fill="none"
   stroke="none"
   stroke-linecap="square"
   stroke-miterlimit="10"
   id="svg2"
   inkscape:version="0.48.4 r9939"
   width="100%"
   height="100%"
   sodipodi:docname="ha-overview.svg">
  <metadata
     id="metadata323">
    <rdf:RDF>
      <cc:Work
         rdf:about="">
        <dc:format>image/svg+xml</dc:format>
        <dc:type
           rdf:resource="http://purl.org/dc/dcmitype/StillImage" />
        <dc:title />
      </cc:Work>
    </rdf:RDF>
  </metadata>
  <defs
     id="defs321" />
  <sodipodi:namedview
     pagecolor="#ffffff"
     bordercolor="#666666"
     borderopacity="1"
     objecttolerance="10"
     gridtolerance="10"
     guidetolerance="10"
     inkscape:pageopacity="0"
     inkscape:pageshadow="2"
     inkscape:window-width="1366"
     inkscape:window-height="749"
     id="namedview319"
     showgrid="false"
     inkscape:zoom="3.0547396"
     inkscape:cx="648.31861"
     inkscape:cy="277.69846"
     inkscape:window-x="-4"
     inkscape:window-y="-4"
     inkscape:window-maximized="1"
     inkscape:current-layer="g7" />
  <clipPath
     id="p.0">
    <path
       d="m0 0l749.0 0l0 490.0l-749.0 0l0 -490.0z"
       clip-rule="nonzero"
       id="path5" />
  </clipPath>
  <g
     clip-path="url(#p.0)"
     id="g7">
    <path
       fill="#000000"
       fill-opacity="0.0"
       d="m0 0l749.9711 0l0 490.77692l-749.9711 0z"
       fill-rule="nonzero"
       id="path9" />
    <path
       fill="#000000"
       fill-opacity="0.0"
       d="m545.3614 198.08862l-271.57413 200.38718"
       fill-rule="nonzero"
       id="path11" />
    <path
       fill="#000000"
       stroke="#000000"
       stroke-width="2.0"
       stroke-linecap="butt"
       d="m279.30252 394.40622l0.47442627 -3.1452026l-3.637024 5.478821l6.307831 -1.8591919z"
       fill-rule="evenodd"
       id="path15" />
    <path
       fill="#ffffff"
       d="m349.3296 187.57175l0 0c0 -2.264267 1.8355713 -4.099823 4.099823 -4.099823l111.957855 0c1.0873413 0 2.130127 0.4319458 2.8990173 1.2008209c0.76885986 0.76885986 1.2008057 1.8116608 1.2008057 2.899002l0 16.398788c0 2.264267 -1.8355713 4.099823 -4.099823 4.099823l-111.957855 0l0 0c-2.2642517 0 -4.099823 -1.835556 -4.099823 -4.099823z"
       fill-rule="nonzero"
       id="path17" />
    <path
       stroke="#000000"
       stroke-width="2.0"
       stroke-linejoin="round"
       stroke-linecap="butt"
       d="m349.3296 187.57175l0 0c0 -2.264267 1.8355713 -4.099823 4.099823 -4.099823l111.957855 0c1.0873413 0 2.130127 0.4319458 2.8990173 1.2008209c0.76885986 0.76885986 1.2008057 1.8116608 1.2008057 2.899002l0 16.398788c0 2.264267 -1.8355713 4.099823 -4.099823 4.099823l-111.957855 0l0 0c-2.2642517 0 -4.099823 -1.835556 -4.099823 -4.099823z"
       fill-rule="nonzero"
       id="path19" />
    <path
       d="m 630.12034,388.24382 0,0 c 0,-2.26425 1.83557,-4.09982 4.09985,-4.09982 l 97.53259,0 c 1.08734,0 2.13019,0.43194 2.89905,1.20083 0.76886,0.76886 1.20081,1.81165 1.20081,2.89899 l 0,16.3988 c 0,2.26426 -1.83557,4.09983 -4.09986,4.09983 l -97.53259,0 c -2.26428,0 -4.09985,-1.83557 -4.09985,-4.09983 z"
       id="path21"
       inkscape:connector-curvature="0"
       style="fill:#ffffff;fill-rule:nonzero" />
    <path
       d="m 630.12034,388.24382 0,0 c 0,-2.26425 1.83557,-4.09982 4.09985,-4.09982 l 97.53259,0 c 1.08734,0 2.13019,0.43194 2.89905,1.20083 0.76886,0.76886 1.20081,1.81165 1.20081,2.89899 l 0,16.3988 c 0,2.26426 -1.83557,4.09983 -4.09986,4.09983 l -97.53259,0 c -2.26428,0 -4.09985,-1.83557 -4.09985,-4.09983 z"
       id="path23"
       inkscape:connector-curvature="0"
       style="stroke:#000000;stroke-width:2;stroke-linecap:butt;stroke-linejoin:round" />
    <path
       d="m 135.13692,346.68386 0,0 c 0,-2.26952 1.69585,-4.1093 3.78779,-4.1093 l 120.40171,0 c 1.00459,0 1.96802,0.43294 2.67838,1.20357 0.71035,0.77064 1.10941,1.81587 1.10941,2.90573 l 0,16.43669 c 0,2.26953 -1.69585,4.10932 -3.78779,4.10932 l -120.40171,0 c -2.09194,0 -3.78779,-1.83979 -3.78779,-4.10932 z"
       id="path25"
       inkscape:connector-curvature="0"
       style="fill:#ffffff;fill-rule:nonzero" />
    <path
       d="m 135.13692,346.68386 0,0 c 0,-2.26952 1.69585,-4.1093 3.78779,-4.1093 l 120.40171,0 c 1.00459,0 1.96802,0.43294 2.67838,1.20357 0.71035,0.77064 1.10941,1.81587 1.10941,2.90573 l 0,16.43669 c 0,2.26953 -1.69585,4.10932 -3.78779,4.10932 l -120.40171,0 c -2.09194,0 -3.78779,-1.83979 -3.78779,-4.10932 z"
       id="path27"
       inkscape:connector-curvature="0"
       style="stroke:#000000;stroke-width:1.92460835;stroke-linecap:butt;stroke-linejoin:round" />
    <path
       d="m 333.1875,420.4628 0,0 c 0,5.45053 -23.04703,9.86905 -51.47699,9.86905 -28.42996,0 -51.47699,-4.41852 -51.47699,-9.86905"
       id="path31"
       inkscape:connector-curvature="0"
       style="fill:#000000;fill-opacity:0;fill-rule:nonzero" />
    <path
       d="m 230.23352,420.4628 0,0 c 0,-5.45053 23.04703,-9.86905 51.47699,-9.86905 28.42996,0 51.47699,4.41852 51.47699,9.86905 l 0,39.4762 c 0,5.45053 -23.04703,9.86905 -51.47699,9.86905 -28.42996,0 -51.47699,-4.41852 -51.47699,-9.86905 z"
       id="path35"
       inkscape:connector-curvature="0"
       style="fill:#000000;fill-opacity:0;fill-rule:nonzero" />
    <path
       d="m 230.23352,420.4628 0,0 c 0,-5.45053 23.04703,-9.86905 51.47699,-9.86905 28.42996,0 51.47699,4.41852 51.47699,9.86905 l 0,39.4762 c 0,5.45053 -23.04703,9.86905 -51.47699,9.86905 -28.42996,0 -51.47699,-4.41852 -51.47699,-9.86905 z"
       id="path37"
       inkscape:connector-curvature="0"
       style="stroke:#000000;stroke-width:2;stroke-linecap:butt;stroke-linejoin:round;fill:#fce5cd;fill-opacity:1" />
    <path
       d="m 333.1875,420.4628 0,0 c 0,5.45053 -23.04703,9.86905 -51.47699,9.86905 -28.42996,0 -51.47699,-4.41852 -51.47699,-9.86905"
       id="path33"
       inkscape:connector-curvature="0"
       style="stroke:#000000;stroke-width:2;stroke-linecap:butt;stroke-linejoin:round" />
    <path
       d="m 222.31027,408.87704 0,0 c 0,-5.45053 23.04703,-9.86905 51.47699,-9.86905 28.42996,0 51.47699,4.41852 51.47699,9.86905 l 0,39.4762 c 0,5.45053 -23.04703,9.86905 -51.47699,9.86905 -28.42996,0 -51.47699,-4.41852 -51.47699,-9.86905 z"
       id="path51"
       inkscape:connector-curvature="0"
       style="stroke:#000000;stroke-width:2;stroke-linecap:butt;stroke-linejoin:round;fill:#fce5cd;fill-opacity:1" />
    <path
       fill="#ffffff"
       d="m201.90773 187.57175l0 0c0 -2.264267 1.8355408 -4.099823 4.099823 -4.099823l111.95784 0c1.0873413 0 2.130127 0.4319458 2.8990173 1.2008209c0.76885986 0.76885986 1.2008057 1.8116608 1.2008057 2.899002l0 16.398788c0 2.264267 -1.8355713 4.099823 -4.099823 4.099823l-111.95784 0l0 0c-2.2642822 0 -4.099823 -1.835556 -4.099823 -4.099823z"
       fill-rule="nonzero"
       id="path39" />
    <path
       stroke="#000000"
       stroke-width="2.0"
       stroke-linejoin="round"
       stroke-linecap="butt"
       d="m201.90773 187.57175l0 0c0 -2.264267 1.8355408 -4.099823 4.099823 -4.099823l111.95784 0c1.0873413 0 2.130127 0.4319458 2.8990173 1.2008209c0.76885986 0.76885986 1.2008057 1.8116608 1.2008057 2.899002l0 16.398788c0 2.264267 -1.8355713 4.099823 -4.099823 4.099823l-111.95784 0l0 0c-2.2642822 0 -4.099823 -1.835556 -4.099823 -4.099823z"
       fill-rule="nonzero"
       id="path41" />
    <path
       d="m 325.26425,408.87704 0,0 c 0,5.45053 -23.04703,9.86905 -51.47699,9.86905 -28.42996,0 -51.47699,-4.41852 -51.47699,-9.86905"
       id="path45"
       inkscape:connector-curvature="0"
       style="fill:#000000;fill-opacity:0;fill-rule:nonzero" />
    <path
       d="m 222.31027,408.87704 0,0 c 0,-5.45053 23.04703,-9.86905 51.47699,-9.86905 28.42996,0 51.47699,4.41852 51.47699,9.86905 l 0,39.4762 c 0,5.45053 -23.04703,9.86905 -51.47699,9.86905 -28.42996,0 -51.47699,-4.41852 -51.47699,-9.86905 z"
       id="path49"
       inkscape:connector-curvature="0"
       style="fill:#000000;fill-opacity:0;fill-rule:nonzero" />
    <path
       fill="#00ff00"
       d="m322.06522 15.087648l119.27557 0l0 47.527557l-119.27557 0z"
       fill-rule="nonzero"
       id="path55"
       style="stroke:#000000;stroke-opacity:1;stroke-width:1.5;stroke-miterlimit:10;stroke-dasharray:none" />
    <path
       d="m 192.70851,177.08054 0,0 c 0,-2.26427 1.83556,-4.09981 4.09982,-4.09981 l 111.95784,0 c 1.08734,0 2.13016,0.43194 2.89902,1.2008 0.76886,0.76886 1.20081,1.81168 1.20081,2.89901 l 0,16.39878 c 0,2.26427 -1.83554,4.09983 -4.09983,4.09983 l -111.95784,0 0,0 c -2.26426,0 -4.09982,-1.83556 -4.09982,-4.09983 z"
       id="path61"
       inkscape:connector-curvature="0"
       style="fill:#ffffff;fill-rule:nonzero" />
    <path
       stroke="#000000"
       stroke-width="2.0"
       stroke-linejoin="round"
       stroke-linecap="butt"
       d="m192.70851 177.59001l0 0c0 -2.264267 1.835556 -4.0998077 4.099823 -4.0998077l111.95784 0c1.0873413 0 2.1301575 0.4319458 2.8990173 1.2008057c0.76885986 0.76885986 1.2008057 1.811676 1.2008057 2.899002l0 16.398788c0 2.264267 -1.8355408 4.099823 -4.099823 4.099823l-111.95784 0l0 0c-2.264267 0 -4.099823 -1.835556 -4.099823 -4.099823z"
       fill-rule="nonzero"
       id="path63" />
    <path
       fill="#ffffff"
       d="m340.1304 177.59001l0 0c0 -2.264267 1.8355713 -4.0998077 4.099823 -4.0998077l111.957855 0c1.0873413 0 2.130127 0.4319458 2.8990173 1.2008057c0.76885986 0.76885986 1.2008057 1.811676 1.2008057 2.899002l0 16.398788c0 2.264267 -1.8355713 4.099823 -4.099823 4.099823l-111.957855 0l0 0c-2.2642517 0 -4.099823 -1.835556 -4.099823 -4.099823z"
       fill-rule="nonzero"
       id="path67" />
    <path
       stroke="#000000"
       stroke-width="2.0"
       stroke-linejoin="round"
       stroke-linecap="butt"
       d="m340.1304 177.59001l0 0c0 -2.264267 1.8355713 -4.0998077 4.099823 -4.0998077l111.957855 0c1.0873413 0 2.130127 0.4319458 2.8990173 1.2008057c0.76885986 0.76885986 1.2008057 1.811676 1.2008057 2.899002l0 16.398788c0 2.264267 -1.8355713 4.099823 -4.099823 4.099823l-111.957855 0l0 0c-2.2642517 0 -4.099823 -1.835556 -4.099823 -4.099823z"
       fill-rule="nonzero"
       id="path69" />
    <path
       fill="#000000"
       fill-opacity="0.0"
       d="m381.703 62.615208l-128.91574 110.875"
       fill-rule="nonzero"
       id="path73" />
    <path
       stroke="#000000"
       stroke-width="2.0"
       stroke-linejoin="round"
       stroke-linecap="butt"
       d="m376.5064 67.08457l-118.52255 101.93626"
       fill-rule="evenodd"
       id="path75" />
    <path
       fill="#000000"
       stroke="#000000"
       stroke-width="2.0"
       stroke-linecap="butt"
       d="m376.5064 67.08457l-0.23861694 3.1718369l3.2184753 -5.734688l-6.151703 2.3242188z"
       fill-rule="evenodd"
       id="path77" />
    <path
       fill="#000000"
       stroke="#000000"
       stroke-width="2.0"
       stroke-linecap="butt"
       d="m257.98386 169.02083l0.23861694 -3.1718292l-3.2184906 5.7346954l6.1516876 -2.3242188z"
       fill-rule="evenodd"
       id="path79" />
    <path
       fill="#000000"
       fill-opacity="0.0"
       d="m381.703 62.615208l18.506165 110.875"
       fill-rule="nonzero"
       id="path81" />
    <path
       stroke="#000000"
       stroke-width="2.0"
       stroke-linejoin="round"
       stroke-linecap="butt"
       d="m382.83142 69.375854l16.249329 97.3537"
       fill-rule="evenodd"
       id="path83" />
    <path
       fill="#000000"
       stroke="#000000"
       stroke-width="2.0"
       stroke-linecap="butt"
       d="m382.83142 69.375854l2.5887756 1.8481903l-3.2358398 -5.72493l-1.2011108 6.4655075z"
       fill-rule="evenodd"
       id="path85" />
    <path
       fill="#000000"
       stroke="#000000"
       stroke-width="2.0"
       stroke-linecap="butt"
       d="m399.08072 166.72955l-2.588745 -1.8481903l3.2358398 5.72493l1.2011108 -6.4655z"
       fill-rule="evenodd"
       id="path87" />
    <path
       fill="#000000"
       fill-opacity="0.0"
       d="m252.78726 198.08862l21.0 200.38718"
       fill-rule="nonzero"
       id="path89" />
    <path
       stroke="#000000"
       stroke-width="2.0"
       stroke-linejoin="round"
       stroke-linecap="butt"
       d="m252.78726 198.08862l20.285614 193.57034"
       fill-rule="evenodd"
       id="path91" />
    <path
       fill="#000000"
       stroke="#000000"
       stroke-width="2.0"
       stroke-linecap="butt"
       d="m273.07288 391.65897l-2.471344 -2.0025024l2.8809814 5.9114685l1.592865 -6.38031z"
       fill-rule="evenodd"
       id="path93" />
    <path
       fill="#000000"
       fill-opacity="0.0"
       d="m400.20917 198.08862l-126.421906 200.38718"
       fill-rule="nonzero"
       id="path95" />
    <path
       stroke="#000000"
       stroke-width="2.0"
       stroke-linejoin="round"
       stroke-linecap="butt"
       d="m400.20917 198.08862l-122.76471 194.59027"
       fill-rule="evenodd"
       id="path97" />
    <path
       fill="#000000"
       stroke="#000000"
       stroke-width="2.0"
       stroke-linecap="butt"
       d="m277.4445 392.67886l-0.70214844 -3.1023254l-1.3950195 6.4264526l5.1994934 -4.0262756z"
       fill-rule="evenodd"
       id="path99" />
    <path
       fill="#000000"
       fill-opacity="0.0"
       d="m252.78726 198.08862l200.87115 208.80753"
       fill-rule="nonzero"
       id="path101" />
    <path
       stroke="#000000"
       stroke-width="2.0"
       stroke-linejoin="round"
       stroke-linecap="butt"
       d="m252.78726 198.08862l192.55182 200.15948"
       fill-rule="evenodd"
       id="path103" />
    <path
       fill="#000000"
       stroke="#000000"
       stroke-width="2.0"
       stroke-linecap="butt"
       d="m442.95837 400.53836l8.673035 4.250702l-3.911621 -8.831146z"
       fill-rule="evenodd"
       id="path105" />
    <path
       fill="#000000"
       fill-opacity="0.0"
       d="m400.20917 198.08862l53.44925 208.80753"
       fill-rule="nonzero"
       id="path107" />
    <path
       stroke="#000000"
       stroke-width="2.0"
       stroke-linejoin="round"
       stroke-linecap="butt"
       d="m400.20917 198.08862l50.47348 197.18234"
       fill-rule="evenodd"
       id="path109" />
    <path
       fill="#000000"
       stroke="#000000"
       stroke-width="2.0"
       stroke-linecap="butt"
       d="m447.4824 396.09018l5.450989 7.9735107l0.94958496 -9.611908z"
       fill-rule="evenodd"
       id="path111" />
    <path
       d="m 623.51396,377.66169 0,0 c 0,-2.26428 1.83557,-4.09982 4.09985,-4.09982 l 97.53265,0 c 1.08734,0 2.13013,0.43194 2.89899,1.2008 0.76886,0.76886 1.20081,1.81168 1.20081,2.89902 l 0,16.39877 c 0,2.26429 -1.83558,4.09983 -4.0998,4.09983 l -97.53265,0 c -2.26428,0 -4.09985,-1.83554 -4.09985,-4.09983 z"
       id="path113"
       inkscape:connector-curvature="0"
       style="fill:#ffffff;fill-rule:nonzero" />
    <path
       d="m 623.51396,377.66169 0,0 c 0,-2.26428 1.83557,-4.09982 4.09985,-4.09982 l 97.53265,0 c 1.08734,0 2.13013,0.43194 2.89899,1.2008 0.76886,0.76886 1.20081,1.81168 1.20081,2.89902 l 0,16.39877 c 0,2.26429 -1.83558,4.09983 -4.0998,4.09983 l -97.53265,0 c -2.26428,0 -4.09985,-1.83554 -4.09985,-4.09983 z"
       id="path115"
       inkscape:connector-curvature="0"
       style="stroke:#000000;stroke-width:2;stroke-linecap:butt;stroke-linejoin:round" />
    <path
       fill="#000000"
       fill-opacity="0.0"
       d="m651.3626 385.84613l-197.7042 21.050018"
       fill-rule="nonzero"
       id="path119" />
    <path
       d="M 655.18656,322.7543 457.25774,402.84793"
       id="path121"
       inkscape:connector-curvature="0"
       style="stroke:#000000;stroke-width:2;stroke-linecap:butt;stroke-linejoin:round"
       sodipodi:nodetypes="cc" />
    <path
       d="m 613.12432,390.23613 8.49868,-4.58951 -9.4604,-1.94704 z"
       id="path123"
       inkscape:connector-curvature="0"
       style="fill:#000000;fill-rule:evenodd;stroke:#000000;stroke-width:2;stroke-linecap:butt" />
    <path
       fill="#000000"
       stroke="#000000"
       stroke-width="2.0"
       stroke-linecap="butt"
       d="m465.24124 402.3408l-8.675446 4.245819l9.374939 2.3239746z"
       fill-rule="evenodd"
       id="path125" />
    <path
       fill="#ffffff"
       d="m54.904854 187.57175l0 0c0 -2.264267 1.8355522 -4.099823 4.099823 -4.099823l111.95785 0c1.087326 0 2.1301422 0.4319458 2.899002 1.2008209c0.76885986 0.76885986 1.2008057 1.8116608 1.2008057 2.899002l0 16.398788c0 2.264267 -1.8355408 4.099823 -4.0998077 4.099823l-111.95785 0l0 0c-2.2642708 0 -4.099823 -1.835556 -4.099823 -4.099823z"
       fill-rule="nonzero"
       id="path127" />
    <path
       stroke="#000000"
       stroke-width="2.0"
       stroke-linejoin="round"
       stroke-linecap="butt"
       d="m54.904854 187.57175l0 0c0 -2.264267 1.8355522 -4.099823 4.099823 -4.099823l111.95785 0c1.087326 0 2.1301422 0.4319458 2.899002 1.2008209c0.76885986 0.76885986 1.2008057 1.8116608 1.2008057 2.899002l0 16.398788c0 2.264267 -1.8355408 4.099823 -4.0998077 4.099823l-111.95785 0l0 0c-2.2642708 0 -4.099823 -1.835556 -4.099823 -4.099823z"
       fill-rule="nonzero"
       id="path129" />
    <path
       fill="#ffffff"
       d="m45.70566 177.59001l0 0c0 -2.264267 1.8355522 -4.0998077 4.099819 -4.0998077l111.95784 0c1.0873413 0 2.1301422 0.4319458 2.8990173 1.2008057c0.76885986 0.76885986 1.2008057 1.811676 1.2008057 2.899002l0 16.398788c0 2.264267 -1.835556 4.099823 -4.099823 4.099823l-111.95784 0l0 0c-2.264267 0 -4.099819 -1.835556 -4.099819 -4.099823z"
       fill-rule="nonzero"
       id="path131" />
    <path
       stroke="#000000"
       stroke-width="2.0"
       stroke-linejoin="round"
       stroke-linecap="butt"
       d="m45.70566 177.59001l0 0c0 -2.264267 1.8355522 -4.0998077 4.099819 -4.0998077l111.95784 0c1.0873413 0 2.1301422 0.4319458 2.8990173 1.2008057c0.76885986 0.76885986 1.2008057 1.811676 1.2008057 2.899002l0 16.398788c0 2.264267 -1.835556 4.099823 -4.099823 4.099823l-111.95784 0l0 0c-2.264267 0 -4.099819 -1.835556 -4.099819 -4.099823z"
       fill-rule="nonzero"
       id="path133" />
    <path
       fill="#000000"
       fill-opacity="0.0"
       d="m381.703 62.615208l-275.9186 110.875"
       fill-rule="nonzero"
       id="path137" />
    <path
       stroke="#000000"
       stroke-width="2.0"
       stroke-linejoin="round"
       stroke-linecap="butt"
       d="m375.34308 65.17087l-263.1988 105.76367"
       fill-rule="evenodd"
       id="path139" />
    <path
       fill="#000000"
       stroke="#000000"
       stroke-width="2.0"
       stroke-linecap="butt"
       d="m375.3431 65.17087l-1.248352 2.9255981l4.895294 -4.391083l-6.5725403 0.2171402z"
       fill-rule="evenodd"
       id="path141" />
    <path
       fill="#000000"
       stroke="#000000"
       stroke-width="2.0"
       stroke-linecap="butt"
       d="m112.1443 170.93454l1.2483444 -2.9255981l-4.895279 4.391083l6.5725403 -0.21713257z"
       fill-rule="evenodd"
       id="path143" />
    <path
       fill="#000000"
       fill-opacity="0.0"
       d="m105.7844 198.08862l87.091545 110.061554"
       fill-rule="nonzero"
       id="path145" />
    <path
       stroke="#000000"
       stroke-width="2.0"
       stroke-linejoin="round"
       stroke-linecap="butt"
       d="m105.78441 198.08862l79.64523 100.65134"
       fill-rule="evenodd"
       id="path147" />
    <path
       fill="#000000"
       stroke="#000000"
       stroke-width="2.0"
       stroke-linecap="butt"
       d="m182.83911 300.78983l8.222534 5.0675354l-3.0414734 -9.167297z"
       fill-rule="evenodd"
       id="path149"
       style="fill:#000000;fill-opacity:1" />
    <path
       d="m 129.1498,338.66536 0,0 c 0,-2.26952 1.69586,-4.10931 3.7878,-4.10931 l 120.40171,0 c 1.00459,0 1.96803,0.43294 2.67838,1.20358 0.71035,0.77064 1.10942,1.81587 1.10942,2.90573 l 0,16.43669 c 0,2.26953 -1.69586,4.10931 -3.7878,4.10931 l -120.40171,0 c -2.09194,0 -3.7878,-1.83978 -3.7878,-4.10931 z"
       id="path151"
       inkscape:connector-curvature="0"
       style="fill:#ffffff;fill-rule:nonzero" />
    <path
       d="m 129.1498,338.66536 0,0 c 0,-2.26952 1.69586,-4.10931 3.7878,-4.10931 l 120.40171,0 c 1.00459,0 1.96803,0.43294 2.67838,1.20358 0.71035,0.77064 1.10942,1.81587 1.10942,2.90573 l 0,16.43669 c 0,2.26953 -1.69586,4.10931 -3.7878,4.10931 l -120.40171,0 c -2.09194,0 -3.7878,-1.83978 -3.7878,-4.10931 z"
       id="path153"
       inkscape:connector-curvature="0"
       style="stroke:#000000;stroke-width:1.92460835;stroke-linecap:butt;stroke-linejoin:round" />
    <path
       fill="#000000"
       fill-opacity="0.0"
       d="m162.44867 359.20023l111.33859 39.275574"
       fill-rule="nonzero"
       id="path157" />
    <path
       d="m 194.68395,359.02851 67.9585,35.62701"
       id="path159"
       inkscape:connector-curvature="0"
       style="stroke:#000000;stroke-width:1.6565609;stroke-linecap:butt;stroke-linejoin:round" />
    <path
       fill="#000000"
       stroke="#000000"
       stroke-width="2.0"
       stroke-linecap="butt"
       d="m261.37177 397.59912l9.658203 -0.09597778l-7.4602966 -6.1346436z"
       fill-rule="evenodd"
       id="path161" />
    <path
       fill="#000000"
       fill-opacity="0.0"
       d="m499.48837 428.37704l0 0c0 5.1743774 -20.518768 9.369049 -45.829926 9.369049c-25.311188 0 -45.829956 -4.1946716 -45.829956 -9.369049"
       fill-rule="nonzero"
       id="path165" />
    <path
       stroke="#000000"
       stroke-width="2.0"
       stroke-linejoin="round"
       stroke-linecap="butt"
       d="m499.48837 428.37704l0 0c0 5.1743774 -20.518768 9.369049 -45.829926 9.369049c-25.311188 0 -45.829956 -4.1946716 -45.829956 -9.369049"
       fill-rule="nonzero"
       id="path167" />
    <path
       fill="#000000"
       fill-opacity="0.0"
       d="m407.8285 428.37704l0 0c0 -5.1743774 20.518768 -9.369049 45.829956 -9.369049c25.311157 0 45.829926 4.1946716 45.829926 9.369049l0 37.476196c0 5.1743774 -20.518768 9.369049 -45.829926 9.369049c-25.311188 0 -45.829956 -4.1946716 -45.829956 -9.369049z"
       fill-rule="nonzero"
       id="path169" />
    <path
       stroke="#000000"
       stroke-width="2.0"
       stroke-linejoin="round"
       stroke-linecap="butt"
       d="m407.8285 428.37704l0 0c0 -5.1743774 20.518768 -9.369049 45.829956 -9.369049c25.311157 0 45.829926 4.1946716 45.829926 9.369049l0 37.476196c0 5.1743774 -20.518768 9.369049 -45.829926 9.369049c-25.311188 0 -45.829956 -4.1946716 -45.829956 -9.369049z"
       fill-rule="nonzero"
       id="path171"
       style="fill:#fce5cd;fill-opacity:1" />
    <path
       d="m 7.52161,280.76752 119.27559,0 0,47.52759 -119.27559,0 z"
       id="path175"
       style="fill:#ffffff;fill-rule:nonzero;stroke:#000000;stroke-width:1.5;stroke-miterlimit:10;stroke-opacity:1;stroke-dasharray:none"
       inkscape:connector-curvature="0" />
    <path
       fill="#000000"
       fill-opacity="0.0"
       d="m105.7844 198.08862l-21.921257 51.874023"
       fill-rule="nonzero"
       id="path181" />
    <path
       stroke="#000000"
       stroke-width="2.0"
       stroke-linejoin="round"
       stroke-linecap="butt"
       d="m101.11332 209.14218l-12.579094 29.766891"
       fill-rule="evenodd"
       id="path183" />
    <path
       fill="#000000"
       stroke="#000000"
       stroke-width="2.0"
       stroke-linecap="butt"
       d="m104.15624 210.42807l0.49005127 -9.64624l-6.5758896 7.0744476z"
       fill-rule="evenodd"
       id="path185" />
    <path
       fill="#000000"
       stroke="#000000"
       stroke-width="2.0"
       stroke-linecap="butt"
       d="m85.49131 237.6232l-0.4900589 9.64624l6.5758896 -7.0744476z"
       fill-rule="evenodd"
       id="path187" />
    <path
       fill="#ffffff"
       d="m21.330662 38.51152l0 0c0 -2.2642708 1.8355522 -4.099823 4.099821 -4.099823l111.95784 0c1.0873413 0 2.1301422 0.4319458 2.8990173 1.2008095c0.76885986 0.7688675 1.2008057 1.8116722 1.2008057 2.8990135l0 16.398785c0 2.264267 -1.835556 4.099819 -4.099823 4.099819l-111.95784 0l0 0c-2.2642689 0 -4.099821 -1.8355522 -4.099821 -4.099819z"
       fill-rule="nonzero"
       id="path189" />
    <path
       stroke="#000000"
       stroke-width="2.0"
       stroke-linejoin="round"
       stroke-linecap="butt"
       d="m21.330662 38.51152l0 0c0 -2.2642708 1.8355522 -4.099823 4.099821 -4.099823l111.95784 0c1.0873413 0 2.1301422 0.4319458 2.8990173 1.2008095c0.76885986 0.7688675 1.2008057 1.8116722 1.2008057 2.8990135l0 16.398785c0 2.264267 -1.835556 4.099819 -4.099823 4.099819l-111.95784 0l0 0c-2.2642689 0 -4.099821 -1.8355522 -4.099821 -4.099819z"
       fill-rule="nonzero"
       id="path191" />
    <path
       fill="#000000"
       d="m44.019756 50.671852l0 -8.59375l1.125 0l0 3.53125l4.46875 0l0 -3.53125l1.140625 0l0 8.59375l-1.140625 0l0 -4.046875l-4.46875 0l0 4.046875l-1.125 0zm7.6816406 0l3.296875 -8.59375l1.21875 0l3.515625 8.59375l-1.28125 0l-1.015625 -2.609375l-3.578125 0l-0.953125 2.609375l-1.203125 0zm2.484375 -3.53125l2.90625 0l-0.890625 -2.375q-0.421875 -1.078125 -0.609375 -1.78125q-0.171875 0.828125 -0.46875 1.640625l-0.9375 2.515625zm13.697262 3.53125l0 -0.78125q-0.59375 0.921875 -1.734375 0.921875q-0.75 0 -1.375 -0.40625q-0.625 -0.421875 -0.9687462 -1.15625q-0.34375 -0.734375 -0.34375 -1.6875q0 -0.921875 0.3125 -1.6875q0.3124962 -0.765625 0.9374962 -1.15625q0.625 -0.40625 1.390625 -0.40625q0.5625 0 1.0 0.234375q0.4375 0.234375 0.71875 0.609375l0 -3.078125l1.046875 0l0 8.59375l-0.984375 0zm-3.328125 -3.109375q0 1.203125 0.5 1.796875q0.5 0.578125 1.1875 0.578125q0.6875 0 1.171875 -0.5625q0.484375 -0.5625 0.484375 -1.71875q0 -1.28125 -0.5 -1.875q-0.484375 -0.59375 -1.203125 -0.59375q-0.703125 0 -1.171875 0.578125q-0.46875 0.5625 -0.46875 1.796875zm10.033203 2.34375q-0.59375 0.5 -1.140625 0.703125q-0.53125 0.203125 -1.15625 0.203125q-1.03125 0 -1.578125 -0.5q-0.546875 -0.5 -0.546875 -1.28125q0 -0.453125 0.203125 -0.828125q0.203125 -0.390625 0.546875 -0.609375q0.34375 -0.234375 0.765625 -0.34375q0.296875 -0.09375 0.9375 -0.171875q1.265625 -0.140625 1.875 -0.359375q0 -0.21875 0 -0.265625q0 -0.65625 -0.296875 -0.921875q-0.40625 -0.34375 -1.203125 -0.34375q-0.734375 0 -1.09375 0.265625q-0.359375 0.25 -0.53125 0.90625l-1.03125 -0.140625q0.140625 -0.65625 0.46875 -1.0625q0.328125 -0.40625 0.9375 -0.625q0.609375 -0.21875 1.40625 -0.21875q0.796875 0 1.296875 0.1875q0.5 0.1875 0.734375 0.46875q0.234375 0.28125 0.328125 0.71875q0.046875 0.265625 0.046875 0.96875l0 1.40625q0 1.46875 0.0625 1.859375q0.078125 0.390625 0.28125 0.75l-1.109375 0q-0.15625 -0.328125 -0.203125 -0.765625zm-0.09375 -2.359375q-0.578125 0.234375 -1.71875 0.40625q-0.65625 0.09375 -0.921875 0.21875q-0.265625 0.109375 -0.421875 0.328125q-0.140625 0.21875 -0.140625 0.5q0 0.421875 0.3125 0.703125q0.328125 0.28125 0.9375 0.28125q0.609375 0 1.078125 -0.265625q0.484375 -0.265625 0.703125 -0.734375q0.171875 -0.359375 0.171875 -1.046875l0 -0.390625zm2.2832031 1.265625l1.03125 -0.15625q0.09375 0.625 0.484375 0.953125q0.40625 0.328125 1.140625 0.328125q0.71875 0 1.0625 -0.28125q0.359375 -0.296875 0.359375 -0.703125q0 -0.359375 -0.3125 -0.5625q-0.21875 -0.140625 -1.078125 -0.359375q-1.15625 -0.296875 -1.609375 -0.5q-0.4375 -0.21875 -0.671875 -0.59375q-0.234375 -0.375 -0.234375 -0.84375q0 -0.40625 0.1875 -0.765625q0.1875 -0.359375 0.515625 -0.59375q0.25 -0.171875 0.671875 -0.296875q0.421875 -0.125 0.921875 -0.125q0.71875 0 1.265625 0.21875q0.5625 0.203125 0.828125 0.5625q0.265625 0.359375 0.359375 0.953125l-1.03125 0.140625q-0.0625 -0.46875 -0.40625 -0.734375q-0.328125 -0.28125 -0.953125 -0.28125q-0.71875 0 -1.03125 0.25q-0.3125 0.234375 -0.3125 0.5625q0 0.203125 0.125 0.359375q0.140625 0.171875 0.40625 0.28125q0.15625 0.0625 0.9375 0.265625q1.125 0.3125 1.5625 0.5q0.4375 0.1875 0.6875 0.546875q0.25 0.359375 0.25 0.90625q0 0.53125 -0.3125 1.0q-0.296875 0.453125 -0.875 0.71875q-0.578125 0.25 -1.3125 0.25q-1.21875 0 -1.859375 -0.5q-0.625 -0.515625 -0.796875 -1.5zm6.421875 1.859375l0 -8.59375l1.046875 0l0 3.078125q0.734375 -0.84375 1.859375 -0.84375q0.703125 0 1.203125 0.28125q0.515625 0.265625 0.734375 0.75q0.21875 0.46875 0.21875 1.390625l0 3.9375l-1.046875 0l0 -3.9375q0 -0.796875 -0.34375 -1.15625q-0.34375 -0.359375 -0.96875 -0.359375q-0.46875 0 -0.890625 0.25q-0.40625 0.234375 -0.59375 0.65625q-0.171875 0.40625 -0.171875 1.140625l0 3.40625l-1.046875 0zm7.642578 0l-0.984375 0l0 -8.59375l1.0625 0l0 3.0625q0.671875 -0.828125 1.703125 -0.828125q0.578125 0 1.078125 0.234375q0.515625 0.21875 0.84375 0.640625q0.34375 0.421875 0.53125 1.015625q0.1875 0.59375 0.1875 1.265625q0 1.59375 -0.796875 2.46875q-0.796875 0.875 -1.890625 0.875q-1.109375 0 -1.734375 -0.921875l0 0.78125zm-0.015625 -3.15625q0 1.109375 0.3125 1.609375q0.5 0.8125 1.34375 0.8125q0.6875 0 1.1875 -0.59375q0.515625 -0.59375 0.515625 -1.796875q0 -1.21875 -0.484375 -1.796875q-0.484375 -0.578125 -1.171875 -0.578125q-0.6875 0 -1.203125 0.609375q-0.5 0.59375 -0.5 1.734375zm5.330078 0.046875q0 -1.734375 0.953125 -2.5625q0.796875 -0.6875 1.953125 -0.6875q1.28125 0 2.09375 0.84375q0.828125 0.828125 0.828125 2.3125q0 1.203125 -0.359375 1.890625q-0.359375 0.6875 -1.0625 1.078125q-0.6875 0.375 -1.5 0.375q-1.296875 0 -2.109375 -0.828125q-0.796875 -0.84375 -0.796875 -2.421875zm1.078125 0q0 1.1875 0.515625 1.78125q0.53125 0.59375 1.3125 0.59375q0.796875 0 1.3125 -0.59375q0.515625 -0.59375 0.515625 -1.8125q0 -1.15625 -0.53125 -1.75q-0.515625 -0.59375 -1.296875 -0.59375q-0.78125 0 -1.3125 0.59375q-0.515625 0.578125 -0.515625 1.78125zm10.048828 2.34375q-0.59375 0.5 -1.140625 0.703125q-0.53125 0.203125 -1.15625 0.203125q-1.03125 0 -1.578125 -0.5q-0.546875 -0.5 -0.546875 -1.28125q0 -0.453125 0.203125 -0.828125q0.203125 -0.390625 0.546875 -0.609375q0.34375 -0.234375 0.765625 -0.34375q0.296875 -0.09375 0.9375 -0.171875q1.265625 -0.140625 1.875 -0.359375q0 -0.21875 0 -0.265625q0 -0.65625 -0.296875 -0.921875q-0.40625 -0.34375 -1.203125 -0.34375q-0.734375 0 -1.09375 0.265625q-0.359375 0.25 -0.53125 0.90625l-1.03125 -0.140625q0.140625 -0.65625 0.46875 -1.0625q0.328125 -0.40625 0.9375 -0.625q0.609375 -0.21875 1.40625 -0.21875q0.796875 0 1.296875 0.1875q0.5 0.1875 0.734375 0.46875q0.234375 0.28125 0.328125 0.71875q0.046875 0.265625 0.046875 0.96875l0 1.40625q0 1.46875 0.0625 1.859375q0.078125 0.390625 0.28125 0.75l-1.109375 0q-0.15625 -0.328125 -0.203125 -0.765625zm-0.09375 -2.359375q-0.578125 0.234375 -1.71875 0.40625q-0.65625 0.09375 -0.921875 0.21875q-0.265625 0.109375 -0.421875 0.328125q-0.140625 0.21875 -0.140625 0.5q0 0.421875 0.3125 0.703125q0.328125 0.28125 0.9375 0.28125q0.609375 0 1.078125 -0.265625q0.484375 -0.265625 0.703125 -0.734375q0.171875 -0.359375 0.171875 -1.046875l0 -0.390625zm2.6894531 3.125l0 -6.21875l0.953125 0l0 0.9375q0.359375 -0.65625 0.65625 -0.859375q0.3125 -0.21875 0.6875 -0.21875q0.53125 0 1.078125 0.328125l-0.359375 0.984375q-0.390625 -0.234375 -0.765625 -0.234375q-0.359375 0 -0.640625 0.21875q-0.265625 0.203125 -0.375 0.578125q-0.1875 0.5625 -0.1875 1.21875l0 3.265625l-1.046875 0zm8.042969 0l0 -0.78125q-0.59375 0.921875 -1.734375 0.921875q-0.75 0 -1.375 -0.40625q-0.625 -0.421875 -0.96875 -1.15625q-0.34375 -0.734375 -0.34375 -1.6875q0 -0.921875 0.3125 -1.6875q0.3125 -0.765625 0.9375 -1.15625q0.625 -0.40625 1.390625 -0.40625q0.5625 0 1.0 0.234375q0.4375 0.234375 0.71875 0.609375l0 -3.078125l1.046875 0l0 8.59375l-0.984375 0zm-3.328125 -3.109375q0 1.203125 0.5 1.796875q0.5 0.578125 1.1875 0.578125q0.6875 0 1.171875 -0.5625q0.484375 -0.5625 0.484375 -1.71875q0 -1.28125 -0.5 -1.875q-0.484375 -0.59375 -1.203125 -0.59375q-0.703125 0 -1.171875 0.578125q-0.46875 0.5625 -0.46875 1.796875z"
       fill-rule="nonzero"
       id="path193" />
    <path
       fill="#ffffff"
       d="m13.080663 30.261518l0 0c0 -2.264267 1.8355513 -4.099819 4.09982 -4.099819l111.95784 0c1.0873413 0 2.1301422 0.4319439 2.8990173 1.2008095c0.76885986 0.7688656 1.2008057 1.8116703 1.2008057 2.8990097l0 16.398787c0 2.264267 -1.835556 4.099819 -4.099823 4.099819l-111.95784 0l0 0c-2.2642689 0 -4.09982 -1.8355522 -4.09982 -4.099819z"
       fill-rule="nonzero"
       id="path195" />
    <path
       stroke="#000000"
       stroke-width="2.0"
       stroke-linejoin="round"
       stroke-linecap="butt"
       d="m13.080663 30.261518l0 0c0 -2.264267 1.8355513 -4.099819 4.09982 -4.099819l111.95784 0c1.0873413 0 2.1301422 0.4319439 2.8990173 1.2008095c0.76885986 0.7688656 1.2008057 1.8116703 1.2008057 2.8990097l0 16.398787c0 2.264267 -1.835556 4.099819 -4.099823 4.099819l-111.95784 0l0 0c-2.2642689 0 -4.09982 -1.8355522 -4.09982 -4.099819z"
       fill-rule="nonzero"
       id="path197" />
    <path
       fill="#000000"
       fill-opacity="0.0"
       d="m322.06522 38.85143l-188.82707 -0.3905182"
       fill-rule="nonzero"
       id="path201" />
    <path
       stroke="#000000"
       stroke-width="2.0"
       stroke-linejoin="round"
       stroke-linecap="butt"
       d="m315.21103 38.837254l-175.11873 -0.36216736"
       fill-rule="evenodd"
       id="path203" />
    <path
       fill="#000000"
       stroke="#000000"
       stroke-width="2.0"
       stroke-linecap="butt"
       d="m315.21106 38.837254l-2.2538147 2.2445107l6.1841736 -2.2363815l-6.1748657 -2.2619438z"
       fill-rule="evenodd"
       id="path205" />
    <path
       fill="#000000"
       stroke="#000000"
       stroke-width="2.0"
       stroke-linecap="butt"
       d="m140.0923 38.475086l2.2538147 -2.2445107l-6.1841736 2.2363815l6.174881 2.2619438z"
       fill-rule="evenodd"
       id="path207" />
    <path
       fill="#000000"
       fill-opacity="0.0"
       d="m545.3614 198.08862l-91.70297 208.80753"
       fill-rule="nonzero"
       id="path219" />
    <path
       fill="#000000"
       stroke="#000000"
       stroke-width="2.0"
       stroke-linecap="butt"
       d="m455.45905 394.5807l-0.62493896 9.638458l6.674225 -6.9817505z"
       fill-rule="evenodd"
       id="path223" />
    <path
       d="m 501.2839,188.25 0,0 c 0,-2.26427 1.83557,-4.09982 4.09979,-4.09982 l 97.53265,0 c 1.08734,0 2.13019,0.43194 2.89905,1.2008 0.76886,0.76888 1.20081,1.81168 1.20081,2.89902 l 0,16.39879 c 0,2.26426 -1.83558,4.09982 -4.09986,4.09982 l -97.53265,0 c -2.26422,0 -4.09979,-1.83556 -4.09979,-4.09982 z"
       id="path225"
       inkscape:connector-curvature="0"
       style="fill:#ffffff;fill-rule:nonzero" />
    <path
       d="m 501.2839,188.25 0,0 c 0,-2.26427 1.83557,-4.09982 4.09979,-4.09982 l 97.53265,0 c 1.08734,0 2.13019,0.43194 2.89905,1.2008 0.76886,0.76888 1.20081,1.81168 1.20081,2.89902 l 0,16.39879 c 0,2.26426 -1.83558,4.09982 -4.09986,4.09982 l -97.53265,0 c -2.26422,0 -4.09979,-1.83556 -4.09979,-4.09982 z"
       id="path227"
       inkscape:connector-curvature="0"
       style="stroke:#000000;stroke-width:2;stroke-linecap:butt;stroke-linejoin:round" />
    <path
       d="m 494.6775,177.66788 0,0 c 0,-2.26427 1.83557,-4.09982 4.09979,-4.09982 l 97.53265,0 c 1.08734,0 2.13019,0.43194 2.89905,1.2008 0.76886,0.76888 1.20081,1.81168 1.20081,2.89902 l 0,16.39879 c 0,2.26426 -1.83558,4.09982 -4.09986,4.09982 l -97.53265,0 c -2.26422,0 -4.09979,-1.83556 -4.09979,-4.09982 z"
       id="path229"
       inkscape:connector-curvature="0"
       style="fill:#ffffff;fill-rule:nonzero" />
    <path
       d="m 494.6775,177.66788 0,0 c 0,-2.26427 1.83557,-4.09982 4.09979,-4.09982 l 97.53265,0 c 1.08734,0 2.13019,0.43194 2.89905,1.2008 0.76886,0.76888 1.20081,1.81168 1.20081,2.89902 l 0,16.39879 c 0,2.26426 -1.83558,4.09982 -4.09986,4.09982 l -97.53265,0 c -2.26422,0 -4.09979,-1.83556 -4.09979,-4.09982 z"
       id="path231"
       inkscape:connector-curvature="0"
       style="stroke:#000000;stroke-width:2;stroke-linecap:butt;stroke-linejoin:round" />
    <path
       fill="#000000"
       fill-opacity="0.0"
       d="m681.54364 202.16649l-227.88522 204.72966"
       fill-rule="nonzero"
       id="path235" />
    <path
       fill="#000000"
       stroke="#000000"
       stroke-width="2.0"
       stroke-linecap="butt"
       d="m460.37738 396.41913l-4.543976 8.523041l8.959412 -3.6082153z"
       fill-rule="evenodd"
       id="path239" />
    <path
       fill="#000000"
       fill-opacity="0.0"
       d="m681.54364 202.16649l-407.75638 196.30931"
       fill-rule="nonzero"
       id="path241" />
    <path
       fill="#000000"
       stroke="#000000"
       stroke-width="2.0"
       stroke-linecap="butt"
       d="m279.96298 395.50256l1.0509033 -3.0021667l-4.592224 4.707123l6.543518 -0.65405273z"
       fill-rule="evenodd"
       id="path245" />
    <path
       fill="#000000"
       fill-opacity="0.0"
       d="m381.703 62.615208l163.65839 110.875"
       fill-rule="nonzero"
       id="path247" />
    <path
       stroke="#000000"
       stroke-width="2.0"
       stroke-linejoin="round"
       stroke-linecap="butt"
       d="m387.37753 66.45959l152.3093 103.18624"
       fill-rule="evenodd"
       id="path249" />
    <path
       fill="#000000"
       stroke="#000000"
       stroke-width="2.0"
       stroke-linecap="butt"
       d="m387.37753 66.45959l3.1235962 -0.60056305l-6.377533 -1.6039047l3.8545227 5.328064z"
       fill-rule="evenodd"
       id="path251" />
    <path
       fill="#000000"
       stroke="#000000"
       stroke-width="2.0"
       stroke-linecap="butt"
       d="m539.6868 169.64581l-3.1235962 0.6005707l6.3775635 1.6039124l-3.8544922 -5.328064z"
       fill-rule="evenodd"
       id="path253" />
    <path
       fill="#000000"
       fill-opacity="0.0"
       d="m381.703 62.615208l299.84064 114.95285"
       fill-rule="nonzero"
       id="path261" />
    <path
       fill="#00ff00"
       d="m394.02063 406.89615l119.27557 0l0 32.1575l-119.27557 0z"
       fill-rule="nonzero"
       id="path269"
       style="stroke:#000000;stroke-opacity:1;stroke-width:1.5;stroke-miterlimit:10;stroke-dasharray:none" />
    <path
       d="m 133.23814,308.15018 119.27559,0 0,29.66928 -119.27559,0 z"
       id="path275"
       inkscape:connector-curvature="0"
       style="fill:#00ff00;fill-rule:nonzero;stroke:#000000;stroke-opacity:1;stroke-width:1.5;stroke-miterlimit:10;stroke-dasharray:none" />
    <path
       d="m 7.512434,248.53375 119.275586,0 0,32.15749 -119.275586,0 z"
       id="path281"
       style="fill:#00ff00;fill-rule:nonzero;stroke:#000000;stroke-width:1.5;stroke-miterlimit:10;stroke-opacity:1;stroke-dasharray:none"
       inkscape:connector-curvature="0" />
    <path
       fill="#000000"
       fill-opacity="0.0"
       d="m672.19904 271.49777l-126.83765 -73.40915"
       fill-rule="nonzero"
       id="path303" />
    <path
       fill="#000000"
       fill-opacity="0.0"
       d="m676.69995 328.2951l-223.04153 78.60104"
       fill-rule="nonzero"
       id="path311" />
    <path
       fill="#000000"
       stroke="#000000"
       stroke-width="2.0"
       stroke-linecap="butt"
       d="m463.87823 399.79205l-7.462219 6.132324l9.658173 0.09899902z"
       fill-rule="evenodd"
       id="path317" />
    <text
       sodipodi:linespacing="125%"
       id="text3145"
       y="448.06717"
       x="273.78305"
       style="font-size:16px;font-style:normal;font-weight:normal;text-align:center;line-height:125%;letter-spacing:0px;word-spacing:0px;text-anchor:middle;fill:#000000;fill-opacity:1;stroke:none;font-family:PT Sans"
       xml:space="preserve"><tspan
         style="font-size:12px"
         y="448.06717"
         x="273.78305"
         sodipodi:role="line"
         id="tspan3137">MySQL/Galera</tspan></text>
    <path
       d="m 325.26425,408.87704 0,0 c 0,5.45053 -23.04703,9.86905 -51.47699,9.86905 -28.42996,0 -51.47699,-4.41852 -51.47699,-9.86905"
       id="path47"
       inkscape:connector-curvature="0"
       style="stroke:#000000;stroke-width:2;stroke-linecap:butt;stroke-linejoin:round" />
    <path
       d="m 236.28696,418.29665 76.08624,0 0,17.05502 -76.08624,0 z"
       id="path297-7"
       style="fill:#ffff00;fill-rule:nonzero;stroke:#000000;stroke-width:1.5;stroke-linejoin:round;stroke-miterlimit:10;stroke-opacity:1;stroke-dasharray:none"
       inkscape:connector-curvature="0" />
    <text
       xml:space="preserve"
       style="font-size:16px;font-style:normal;font-weight:normal;text-align:center;line-height:125%;letter-spacing:0px;word-spacing:0px;text-anchor:middle;fill:#000000;fill-opacity:1;stroke:none;font-family:PT Sans"
       x="273.86011"
       y="430.32419"
       id="text3300-0"
       sodipodi:linespacing="125%"><tspan
         sodipodi:role="line"
         id="tspan3302-9"
         x="273.86011"
         y="430.32419"
         style="font-size:13px">pacemaker</tspan></text>
    <text
       sodipodi:linespacing="125%"
       id="text3149"
       y="458.28909"
       x="453.66028"
       style="font-size:16px;font-style:normal;font-weight:normal;text-align:center;line-height:125%;letter-spacing:0px;word-spacing:0px;text-anchor:middle;fill:#000000;fill-opacity:1;stroke:none;font-family:PT Sans"
       xml:space="preserve"><tspan
         style="font-size:12px"
         y="458.28909"
         x="453.66028"
         id="tspan3151"
         sodipodi:role="line">RabbitMQ</tspan></text>
    <text
       xml:space="preserve"
       style="font-size:16px;font-style:normal;font-weight:normal;text-align:center;line-height:125%;letter-spacing:0px;word-spacing:0px;text-anchor:middle;fill:#000000;fill-opacity:1;stroke:none;font-family:PT Sans"
       x="453.05685"
       y="427.02301"
       id="text3124-1"
       sodipodi:linespacing="125%"><tspan
         sodipodi:role="line"
         id="tspan3126-7"
         x="453.05685"
         y="427.02301">HAProxy</tspan></text>
    <text
       xml:space="preserve"
       style="font-size:16px;font-style:normal;font-weight:normal;text-align:center;line-height:125%;letter-spacing:0px;word-spacing:0px;text-anchor:middle;fill:#000000;fill-opacity:1;stroke:none;font-family:PT Sans"
       x="192.30562"
       y="327.0278"
       id="text3124-4"
       sodipodi:linespacing="125%"><tspan
         sodipodi:role="line"
         id="tspan3126-0"
         x="192.30562"
         y="327.0278">HAProxy</tspan></text>
    <text
       xml:space="preserve"
       style="font-size:16px;font-style:normal;font-weight:normal;text-align:center;line-height:125%;letter-spacing:0px;word-spacing:0px;text-anchor:middle;fill:#000000;fill-opacity:1;stroke:none;font-family:PT Sans"
       x="193.1702"
       y="350.24796"
       id="text3158"
       sodipodi:linespacing="125%"><tspan
         sodipodi:role="line"
         id="tspan3160"
         x="193.1702"
         y="350.24796"
         style="font-size:12px">glance-registry (HA)</tspan></text>
    <text
       xml:space="preserve"
       style="font-size:16px;font-style:normal;font-weight:normal;text-align:center;line-height:125%;letter-spacing:0px;word-spacing:0px;text-anchor:middle;fill:#000000;fill-opacity:1;stroke:none;font-family:PT Sans"
       x="66.579918"
       y="268.65546"
       id="text3124-4-9"
       sodipodi:linespacing="125%"><tspan
         sodipodi:role="line"
         id="tspan3126-0-4"
         x="66.579918"
         y="268.65546">HAProxy</tspan></text>
    <text
       xml:space="preserve"
       style="font-size:16px;font-style:normal;font-weight:normal;text-align:center;line-height:125%;letter-spacing:0px;word-spacing:0px;text-anchor:middle;fill:#000000;fill-opacity:1;stroke:none;font-family:PT Sans"
       x="66.854721"
       y="310.25787"
       id="text3183"
       sodipodi:linespacing="125%"><tspan
         sodipodi:role="line"
         id="tspan3185"
         x="66.854721"
         y="310.25787">Swift</tspan></text>
    <text
       xml:space="preserve"
       style="font-size:16px;font-style:normal;font-weight:normal;text-align:center;line-height:125%;letter-spacing:0px;word-spacing:0px;text-anchor:middle;fill:#000000;fill-opacity:1;stroke:none;font-family:PT Sans"
       x="105.84611"
       y="188.74144"
       id="text3187"
       sodipodi:linespacing="125%"><tspan
         sodipodi:role="line"
         id="tspan3189"
         x="105.84611"
         y="188.74144"
         style="font-size:12px">glance-api (HA)</tspan></text>
    <text
       xml:space="preserve"
       style="font-size:16px;font-style:normal;font-weight:normal;text-align:center;line-height:125%;letter-spacing:0px;word-spacing:0px;text-anchor:middle;fill:#000000;fill-opacity:1;stroke:none;font-family:PT Sans"
       x="381.13269"
       y="42.894394"
       id="text3124-4-9-8"
       sodipodi:linespacing="125%"><tspan
         sodipodi:role="line"
         id="tspan3126-0-4-8"
         x="381.13269"
         y="42.894394">HAProxy</tspan></text>
    <text
       xml:space="preserve"
       style="font-size:12px;font-style:normal;font-weight:normal;text-align:center;line-height:125%;letter-spacing:0px;word-spacing:0px;text-anchor:middle;fill:#000000;fill-opacity:1;stroke:none;font-family:PT Sans"
       x="675.90845"
       y="390.08566"
       id="text3212"
       sodipodi:linespacing="125%"><tspan
         sodipodi:role="line"
         id="tspan3214"
         x="675.90845"
         y="390.08566">nova-scheduler</tspan></text>
    <text
       xml:space="preserve"
       style="font-size:12px;font-style:normal;font-weight:normal;text-align:center;line-height:125%;letter-spacing:0px;word-spacing:0px;text-anchor:middle;fill:#000000;fill-opacity:1;stroke:none;font-family:PT Sans"
       x="547.60535"
       y="188.81931"
       id="text3216"
       sodipodi:linespacing="125%"><tspan
         sodipodi:role="line"
         id="tspan3218"
         x="547.60535"
         y="188.81931">cinder-api (HA)</tspan></text>
    <text
       xml:space="preserve"
       style="font-size:12px;font-style:normal;font-weight:normal;text-align:center;line-height:125%;letter-spacing:0px;word-spacing:0px;text-anchor:middle;fill:#000000;fill-opacity:1;stroke:none;font-family:PT Sans"
       x="400.03336"
       y="188.89488"
       id="text3220"
       sodipodi:linespacing="125%"><tspan
         sodipodi:role="line"
         id="tspan3222"
         x="400.03336"
         y="188.89488">keystone-api (HA)</tspan></text>
    <text
       xml:space="preserve"
       style="font-size:12px;font-style:normal;font-weight:normal;text-align:center;line-height:125%;letter-spacing:0px;word-spacing:0px;text-anchor:middle;fill:#000000;fill-opacity:1;stroke:none;font-family:PT Sans"
       x="252.6144"
       y="188.38541"
       id="text3224"
       sodipodi:linespacing="125%"><tspan
         sodipodi:role="line"
         id="tspan3226"
         x="252.6144"
         y="188.38541">nova-api (HA)</tspan></text>
    <text
       xml:space="preserve"
       style="font-size:12px;font-style:normal;font-weight:normal;text-align:center;line-height:125%;letter-spacing:0px;word-spacing:0px;text-anchor:middle;fill:#000000;fill-opacity:1;stroke:none;font-family:PT Sans"
       x="72.901588"
       y="41.56638"
       id="text3228"
       sodipodi:linespacing="125%"><tspan
         sodipodi:role="line"
         id="tspan3230"
         x="72.901588"
         y="41.56638">Horizon (HA)</tspan></text>
    <path
       d="m 631.3173,188.02134 0,0 c 0,-2.26427 1.83557,-4.09982 4.09979,-4.09982 l 97.53265,0 c 1.08734,0 2.13019,0.43194 2.89905,1.2008 0.76886,0.76888 1.20081,1.81168 1.20081,2.89902 l 0,16.39879 c 0,2.26426 -1.83558,4.09982 -4.09986,4.09982 l -97.53265,0 c -2.26422,0 -4.09979,-1.83556 -4.09979,-4.09982 z"
       id="path225-1"
       inkscape:connector-curvature="0"
       style="fill:#ffffff;fill-rule:nonzero" />
    <path
       d="m 631.3173,188.02134 0,0 c 0,-2.26427 1.83557,-4.09982 4.09979,-4.09982 l 97.53265,0 c 1.08734,0 2.13019,0.43194 2.89905,1.2008 0.76886,0.76888 1.20081,1.81168 1.20081,2.89902 l 0,16.39879 c 0,2.26426 -1.83558,4.09982 -4.09986,4.09982 l -97.53265,0 c -2.26422,0 -4.09979,-1.83556 -4.09979,-4.09982 z"
       id="path227-7"
       inkscape:connector-curvature="0"
       style="stroke:#000000;stroke-width:2;stroke-linecap:butt;stroke-linejoin:round" />
    <path
       d="m 624.7109,177.43922 0,0 c 0,-2.26427 1.83557,-4.09982 4.09979,-4.09982 l 97.53265,0 c 1.08734,0 2.13019,0.43194 2.89905,1.2008 0.76886,0.76888 1.20081,1.81168 1.20081,2.89902 l 0,16.39879 c 0,2.26426 -1.83558,4.09982 -4.09986,4.09982 l -97.53265,0 c -2.26422,0 -4.09979,-1.83556 -4.09979,-4.09982 z"
       id="path229-4"
       inkscape:connector-curvature="0"
       style="fill:#ffffff;fill-rule:nonzero" />
    <path
       d="m 624.7109,177.43922 0,0 c 0,-2.26427 1.83557,-4.09982 4.09979,-4.09982 l 97.53265,0 c 1.08734,0 2.13019,0.43194 2.89905,1.2008 0.76886,0.76888 1.20081,1.81168 1.20081,2.89902 l 0,16.39879 c 0,2.26426 -1.83558,4.09982 -4.09986,4.09982 l -97.53265,0 c -2.26422,0 -4.09979,-1.83556 -4.09979,-4.09982 z"
       id="path231-0"
       inkscape:connector-curvature="0"
       style="stroke:#000000;stroke-width:2;stroke-linecap:butt;stroke-linejoin:round" />
    <text
       xml:space="preserve"
       style="font-size:12px;font-style:normal;font-weight:normal;text-align:center;line-height:125%;letter-spacing:0px;word-spacing:0px;text-anchor:middle;fill:#000000;fill-opacity:1;stroke:none;font-family:PT Sans"
       x="677.63873"
       y="188.59065"
       id="text3216-9"
       sodipodi:linespacing="125%"><tspan
         sodipodi:role="line"
         id="tspan3218-4"
         x="677.63873"
         y="188.59065"
         style="font-size:11px">quantum-api (HA)</tspan></text>
    <path
       stroke="#000000"
       stroke-width="2.0"
       stroke-linejoin="round"
       stroke-linecap="butt"
       d="m545.3614 198.08862l-266.05887 196.31763"
       fill-rule="evenodd"
       id="path13" />
    <path
       stroke="#000000"
       stroke-width="2.0"
       stroke-linejoin="round"
       stroke-linecap="butt"
       d="m545.3614 198.08862l-86.877716 197.8204"
       fill-rule="evenodd"
       id="path221" />
    <path
       style="fill:#ffffff;fill-rule:nonzero"
       inkscape:connector-curvature="0"
       d="m 594.96314,297.76195 0,0 c 0,-2.37732 1.92719,-4.30454 4.30457,-4.30454 l 133.91058,0 c 1.1416,0 2.23651,0.45353 3.04376,1.26078 0.80725,0.80725 1.26074,1.90213 1.26074,3.04376 l 0,17.21768 c 0,2.37735 -1.92719,4.30457 -4.3045,4.30457 l -133.91058,0 c -2.37739,0 -4.30457,-1.92722 -4.30457,-4.30457 z"
       id="path287" />
    <path
       style="stroke:#000000;stroke-width:2;stroke-linecap:butt;stroke-linejoin:round"
       inkscape:connector-curvature="0"
       d="m 594.96314,297.76195 0,0 c 0,-2.37732 1.92719,-4.30454 4.30457,-4.30454 l 133.91058,0 c 1.1416,0 2.23651,0.45353 3.04376,1.26078 0.80725,0.80725 1.26074,1.90213 1.26074,3.04376 l 0,17.21768 c 0,2.37735 -1.92719,4.30457 -4.3045,4.30457 l -133.91058,0 c -2.37739,0 -4.30457,-1.92722 -4.30457,-4.30457 z"
       id="path289" />
    <path
       style="fill:#ffffff;fill-rule:nonzero"
       inkscape:connector-curvature="0"
       d="m 588.0195,286.91159 0,0 c 0,-2.37735 1.92725,-4.30457 4.30457,-4.30457 l 133.91058,0 c 1.14166,0 2.23651,0.45353 3.04376,1.26078 0.80725,0.80725 1.2608,1.90213 1.2608,3.04379 l 0,17.21765 c 0,2.37735 -1.92725,4.30457 -4.30456,4.30457 l -133.91058,0 c -2.37732,0 -4.30457,-1.92722 -4.30457,-4.30457 z"
       id="path291" />
    <path
       style="stroke:#000000;stroke-width:2;stroke-linecap:butt;stroke-linejoin:round"
       inkscape:connector-curvature="0"
       d="m 588.0195,286.91159 0,0 c 0,-2.37735 1.92725,-4.30457 4.30457,-4.30457 l 133.91058,0 c 1.14166,0 2.23651,0.45353 3.04376,1.26078 0.80725,0.80725 1.2608,1.90213 1.2608,3.04379 l 0,17.21765 c 0,2.37735 -1.92725,4.30457 -4.30456,4.30457 l -133.91058,0 c -2.37732,0 -4.30457,-1.92722 -4.30457,-4.30457 z"
       id="path293" />
    <path
       style="fill:#000000;fill-rule:nonzero"
       inkscape:connector-curvature="0"
       d="m 608.24808,303.98915 0,-4.07812 q -0.32812,0.46875 -0.92187,0.78125 -0.57813,0.29687 -1.25,0.29687 -1.46875,0 -2.54688,-1.17187 -1.0625,-1.1875 -1.0625,-3.25 0,-1.25 0.4375,-2.23438 0.4375,-1 1.25,-1.5 0.82813,-0.51562 1.8125,-0.51562 1.54688,0 2.42188,1.29687 l 0,-1.10937 1.26562,0 0,11.48437 -1.40625,0 z m -4.32812,-7.35937 q 0,1.59375 0.67187,2.40625 0.67188,0.79687 1.60938,0.79687 0.89062,0 1.53125,-0.76562 0.65625,-0.76563 0.65625,-2.3125 0,-1.65625 -0.6875,-2.48438 -0.67188,-0.84375 -1.59375,-0.84375 -0.92188,0 -1.5625,0.78125 -0.625,0.76563 -0.625,2.42188 z m 13.38281,4.17187 0,-1.21875 q -0.96875,1.40625 -2.64063,1.40625 -0.73437,0 -1.375,-0.28125 -0.625,-0.28125 -0.9375,-0.70312 -0.3125,-0.4375 -0.4375,-1.04688 -0.0781,-0.42187 -0.0781,-1.3125 l 0,-5.14062 1.40625,0 0,4.59375 q 0,1.10937 0.0781,1.48437 0.14063,0.5625 0.5625,0.875 0.4375,0.3125 1.0625,0.3125 0.64063,0 1.1875,-0.3125 0.5625,-0.32812 0.78125,-0.89062 0.23438,-0.5625 0.23438,-1.625 l 0,-4.4375 1.40625,0 0,8.29687 -1.25,0 z m 8.86719,-1.03125 q -0.78125,0.67188 -1.5,0.95313 -0.71875,0.26562 -1.54688,0.26562 -1.375,0 -2.10937,-0.67187 -0.73438,-0.67188 -0.73438,-1.70313 0,-0.60937 0.28125,-1.10937 0.28125,-0.51563 0.71875,-0.8125 0.45313,-0.3125 1.01563,-0.46875 0.42187,-0.10938 1.25,-0.20313 1.70312,-0.20312 2.51562,-0.48437 0,-0.29688 0,-0.375 0,-0.85938 -0.39062,-1.20313 -0.54688,-0.48437 -1.60938,-0.48437 -0.98437,0 -1.46875,0.35937 -0.46875,0.34375 -0.6875,1.21875 l -1.375,-0.1875 q 0.1875,-0.875 0.60938,-1.42187 0.4375,-0.54688 1.25,-0.82813 0.8125,-0.29687 1.875,-0.29687 1.0625,0 1.71875,0.25 0.67187,0.25 0.98437,0.625 0.3125,0.375 0.4375,0.95312 0.0781,0.35938 0.0781,1.29688 l 0,1.875 q 0,1.96875 0.0781,2.48437 0.0937,0.51563 0.35938,1 l -1.46875,0 q -0.21875,-0.4375 -0.28125,-1.03125 z m -0.10938,-3.14062 q -0.76562,0.3125 -2.29687,0.53125 -0.875,0.125 -1.23438,0.28125 -0.35937,0.15625 -0.5625,0.46875 -0.1875,0.29687 -0.1875,0.65625 0,0.5625 0.42188,0.9375 0.4375,0.375 1.25,0.375 0.8125,0 1.4375,-0.34375 0.64062,-0.35938 0.9375,-0.98438 0.23437,-0.46875 0.23437,-1.40625 l 0,-0.51562 z m 3.60156,4.17187 0,-8.29687 1.26563,0 0,1.17187 q 0.90625,-1.35937 2.64062,-1.35937 0.75,0 1.375,0.26562 0.625,0.26563 0.9375,0.70313 0.3125,0.4375 0.4375,1.04687 0.0781,0.39063 0.0781,1.35938 l 0,5.10937 -1.40625,0 0,-5.04687 q 0,-0.85938 -0.17188,-1.28125 -0.15625,-0.4375 -0.57812,-0.6875 -0.40625,-0.25 -0.96875,-0.25 -0.90625,0 -1.5625,0.57812 -0.64063,0.5625 -0.64063,2.15625 l 0,4.53125 -1.40625,0 z m 11.96094,-1.26562 0.20313,1.25 q -0.59375,0.125 -1.0625,0.125 -0.76563,0 -1.1875,-0.23438 -0.42188,-0.25 -0.59375,-0.64062 -0.17188,-0.40625 -0.17188,-1.67188 l 0,-4.76562 -1.03125,0 0,-1.09375 1.03125,0 0,-2.0625 1.40625,-0.84375 0,2.90625 1.40625,0 0,1.09375 -1.40625,0 0,4.84375 q 0,0.60937 0.0625,0.78125 0.0781,0.17187 0.25,0.28125 0.17188,0.0937 0.48438,0.0937 0.23437,0 0.60937,-0.0625 z m 6.82031,1.26562 0,-1.21875 q -0.96875,1.40625 -2.64062,1.40625 -0.73438,0 -1.375,-0.28125 -0.625,-0.28125 -0.9375,-0.70312 -0.3125,-0.4375 -0.4375,-1.04688 -0.0781,-0.42187 -0.0781,-1.3125 l 0,-5.14062 1.40625,0 0,4.59375 q 0,1.10937 0.0781,1.48437 0.14062,0.5625 0.5625,0.875 0.4375,0.3125 1.0625,0.3125 0.64062,0 1.1875,-0.3125 0.5625,-0.32812 0.78125,-0.89062 0.23437,-0.5625 0.23437,-1.625 l 0,-4.4375 1.40625,0 0,8.29687 -1.25,0 z m 3.46094,0 0,-8.29687 1.25,0 0,1.15625 q 0.39063,-0.60938 1.03125,-0.96875 0.65625,-0.375 1.48438,-0.375 0.92187,0 1.51562,0.39062 0.59375,0.375 0.82813,1.0625 0.98437,-1.45312 2.5625,-1.45312 1.23437,0 1.89062,0.6875 0.67188,0.67187 0.67188,2.09375 l 0,5.70312 -1.39063,0 0,-5.23437 q 0,-0.84375 -0.14062,-1.20313 -0.14063,-0.375 -0.5,-0.59375 -0.35938,-0.23437 -0.84375,-0.23437 -0.875,0 -1.45313,0.57812 -0.57812,0.57813 -0.57812,1.85938 l 0,4.82812 -1.40625,0 0,-5.39062 q 0,-0.9375 -0.34375,-1.40625 -0.34375,-0.46875 -1.125,-0.46875 -0.59375,0 -1.09375,0.3125 -0.5,0.3125 -0.73438,0.92187 -0.21875,0.59375 -0.21875,1.71875 l 0,4.3125 -1.40625,0 z m 23.17969,-1.03125 q -0.78125,0.67188 -1.5,0.95313 -0.71875,0.26562 -1.54688,0.26562 -1.375,0 -2.10937,-0.67187 -0.73438,-0.67188 -0.73438,-1.70313 0,-0.60937 0.28125,-1.10937 0.28125,-0.51563 0.71875,-0.8125 0.45313,-0.3125 1.01563,-0.46875 0.42187,-0.10938 1.25,-0.20313 1.70312,-0.20312 2.51562,-0.48437 0,-0.29688 0,-0.375 0,-0.85938 -0.39062,-1.20313 -0.54688,-0.48437 -1.60938,-0.48437 -0.98437,0 -1.46875,0.35937 -0.46875,0.34375 -0.6875,1.21875 l -1.375,-0.1875 q 0.1875,-0.875 0.60938,-1.42187 0.4375,-0.54688 1.25,-0.82813 0.8125,-0.29687 1.875,-0.29687 1.0625,0 1.71875,0.25 0.67187,0.25 0.98437,0.625 0.3125,0.375 0.4375,0.95312 0.0781,0.35938 0.0781,1.29688 l 0,1.875 q 0,1.96875 0.0781,2.48437 0.0937,0.51563 0.35938,1 l -1.46875,0 q -0.21875,-0.4375 -0.28125,-1.03125 z m -0.10938,-3.14062 q -0.76562,0.3125 -2.29687,0.53125 -0.875,0.125 -1.23438,0.28125 -0.35937,0.15625 -0.5625,0.46875 -0.1875,0.29687 -0.1875,0.65625 0,0.5625 0.42188,0.9375 0.4375,0.375 1.25,0.375 0.8125,0 1.4375,-0.34375 0.64062,-0.35938 0.9375,-0.98438 0.23437,-0.46875 0.23437,-1.40625 l 0,-0.51562 z m 3.33594,4.85937 1.375,0.20313 q 0.0781,0.64062 0.46875,0.92187 0.53125,0.39063 1.4375,0.39063 0.96875,0 1.5,-0.39063 0.53125,-0.39062 0.71875,-1.09375 0.10938,-0.42187 0.10938,-1.8125 -0.92188,1.09375 -2.29688,1.09375 -1.71875,0 -2.65625,-1.23437 -0.9375,-1.23438 -0.9375,-2.96875 0,-1.1875 0.42188,-2.1875 0.4375,-1 1.25,-1.54688 0.82812,-0.54687 1.92187,-0.54687 1.46875,0 2.42188,1.1875 l 0,-1 1.29687,0 0,7.17187 q 0,1.9375 -0.39062,2.75 -0.39063,0.8125 -1.25,1.28125 -0.85938,0.46875 -2.10938,0.46875 -1.48437,0 -2.40625,-0.67187 -0.90625,-0.67188 -0.875,-2.01563 z m 1.17188,-4.98437 q 0,1.625 0.64062,2.375 0.65625,0.75 1.625,0.75 0.96875,0 1.625,-0.73438 0.65625,-0.75 0.65625,-2.34375 0,-1.53125 -0.67187,-2.29687 -0.67188,-0.78125 -1.625,-0.78125 -0.9375,0 -1.59375,0.76562 -0.65625,0.76563 -0.65625,2.26563 z m 13.66406,1.625 1.45312,0.17187 q -0.34375,1.28125 -1.28125,1.98438 -0.92187,0.70312 -2.35937,0.70312 -1.82813,0 -2.89063,-1.125 -1.0625,-1.125 -1.0625,-3.14062 0,-2.09375 1.07813,-3.25 1.07812,-1.15625 2.79687,-1.15625 1.65625,0 2.70313,1.14062 1.0625,1.125 1.0625,3.17188 0,0.125 0,0.375 l -6.1875,0 q 0.0781,1.375 0.76562,2.10937 0.70313,0.71875 1.73438,0.71875 0.78125,0 1.32812,-0.40625 0.54688,-0.40625 0.85938,-1.29687 z m -4.60938,-2.28125 4.625,0 q -0.0937,-1.04688 -0.53125,-1.5625 -0.67187,-0.8125 -1.73437,-0.8125 -0.96875,0 -1.64063,0.65625 -0.65625,0.64062 -0.71875,1.71875 z m 7.83594,4.95312 0,-8.29687 1.26563,0 0,1.17187 q 0.90625,-1.35937 2.64062,-1.35937 0.75,0 1.375,0.26562 0.625,0.26563 0.9375,0.70313 0.3125,0.4375 0.4375,1.04687 0.0781,0.39063 0.0781,1.35938 l 0,5.10937 -1.40625,0 0,-5.04687 q 0,-0.85938 -0.17188,-1.28125 -0.15625,-0.4375 -0.57812,-0.6875 -0.40625,-0.25 -0.96875,-0.25 -0.90625,0 -1.5625,0.57812 -0.64063,0.5625 -0.64063,2.15625 l 0,4.53125 -1.40625,0 z m 11.96094,-1.26562 0.20312,1.25 q -0.59375,0.125 -1.0625,0.125 -0.76562,0 -1.1875,-0.23438 -0.42187,-0.25 -0.59375,-0.64062 -0.17187,-0.40625 -0.17187,-1.67188 l 0,-4.76562 -1.03125,0 0,-1.09375 1.03125,0 0,-2.0625 1.40625,-0.84375 0,2.90625 1.40625,0 0,1.09375 -1.40625,0 0,4.84375 q 0,0.60937 0.0625,0.78125 0.0781,0.17187 0.25,0.28125 0.17187,0.0937 0.48437,0.0937 0.23438,0 0.60938,-0.0625 z m 0.82031,-1.21875 1.39063,-0.21875 q 0.10937,0.84375 0.64062,1.29687 0.54688,0.4375 1.5,0.4375 0.96875,0 1.4375,-0.39062 0.46875,-0.40625 0.46875,-0.9375 0,-0.46875 -0.40625,-0.75 -0.29687,-0.1875 -1.4375,-0.46875 -1.54687,-0.39063 -2.15625,-0.67188 -0.59375,-0.29687 -0.90625,-0.79687 -0.29687,-0.5 -0.29687,-1.10938 0,-0.5625 0.25,-1.03125 0.25,-0.46875 0.6875,-0.78125 0.32812,-0.25 0.89062,-0.40625 0.57813,-0.17187 1.21875,-0.17187 0.98438,0 1.71875,0.28125 0.73438,0.28125 1.07813,0.76562 0.35937,0.46875 0.5,1.28125 l -1.375,0.1875 q -0.0937,-0.64062 -0.54688,-1 -0.45312,-0.35937 -1.26562,-0.35937 -0.96875,0 -1.39063,0.32812 -0.40625,0.3125 -0.40625,0.73438 0,0.28125 0.17188,0.5 0.17187,0.21875 0.53125,0.375 0.21875,0.0781 1.25,0.35937 1.48437,0.39063 2.07812,0.65625 0.59375,0.25 0.92188,0.73438 0.34375,0.48437 0.34375,1.20312 0,0.70313 -0.42188,1.32813 -0.40625,0.60937 -1.1875,0.95312 -0.76562,0.34375 -1.73437,0.34375 -1.625,0 -2.46875,-0.67187 -0.84375,-0.67188 -1.07813,-2 z"
       id="path295" />
    <path
       style="fill:#000000;fill-rule:evenodd;stroke:#000000;stroke-width:2;stroke-linecap:butt"
       inkscape:connector-curvature="0"
       d="m 659.32853,250.53164 0.15272,9.65744 6.09071,-7.49619 z"
       id="path307" />
    <path
       style="fill:#000000;fill-rule:evenodd;stroke:#000000;stroke-width:2;stroke-linecap:butt"
       inkscape:connector-curvature="0"
       d="m 656.0032,326.38829 7.46222,-6.13232 -9.6582,-0.099 z"
       id="path315" />
    <path
       d="M 617.47643,386.52806 457.97306,403.65951"
       id="path121-8"
       inkscape:connector-curvature="0"
       style="stroke:#000000;stroke-width:2;stroke-linecap:butt;stroke-linejoin:round"
       sodipodi:nodetypes="cc" />
    <path
       d="m 675.39742,204.65169 -12.79731,46.69492"
       id="path121-82"
       inkscape:connector-curvature="0"
       style="stroke:#000000;stroke-width:2;stroke-linecap:butt;stroke-linejoin:round"
       sodipodi:nodetypes="cc" />
    <path
       style="fill:#000000;fill-rule:evenodd;stroke:#000000;stroke-width:2;stroke-linecap:butt"
       inkscape:connector-curvature="0"
       d="m 676.55382,209.5598 0.40137,-9.65031 -6.51058,7.13457 z"
       id="path307-4" />
    <path
       style="stroke:#000000;stroke-width:2;stroke-linecap:butt;stroke-linejoin:round"
       inkscape:connector-curvature="0"
       d="M 662.41258,199.42554 458.4067,404.65325"
       id="path221-5"
       sodipodi:nodetypes="cc" />
    <path
       d="m 590.7457,262.48686 137.95276,0 0,20.12598 -137.95276,0 z"
       id="path297"
       style="fill:#ffff00;fill-rule:nonzero;stroke:#000000;stroke-opacity:1;stroke-width:2;stroke-miterlimit:10;stroke-dasharray:none"
       inkscape:connector-curvature="0" />
    <text
       xml:space="preserve"
       style="font-size:16px;font-style:normal;font-weight:normal;text-align:center;line-height:125%;letter-spacing:0px;word-spacing:0px;text-anchor:middle;fill:#000000;fill-opacity:1;stroke:none;font-family:Sans"
       x="659.17181"
       y="276.16946"
       id="text3300"
       sodipodi:linespacing="125%"><tspan
         sodipodi:role="line"
         id="tspan3302"
         x="659.17181"
         y="276.16946"
         style="font-size:14px">pacemaker</tspan></text>
    <path
       style="stroke:#000000;stroke-width:2;stroke-linecap:butt;stroke-linejoin:round"
       inkscape:connector-curvature="0"
       d="M 660.79223,199.42553 279.47376,395.85706"
       id="path221-5-5"
       sodipodi:nodetypes="cc" />
    <path
       inkscape:connector-curvature="0"
       d="m 217.51542,398.13449 119.59183,0 0,19.97392 -119.59183,0 z"
       id="path269-1"
       style="fill:#00ff00;fill-rule:nonzero;stroke:#000000;stroke-width:1.18374109;stroke-miterlimit:10;stroke-opacity:1;stroke-dasharray:none" />
    <text
       xml:space="preserve"
       style="font-size:16px;font-style:normal;font-weight:normal;text-align:center;line-height:125%;letter-spacing:0px;word-spacing:0px;text-anchor:middle;fill:#000000;fill-opacity:1;stroke:none;font-family:PT Sans"
       x="276.70978"
       y="412.16956"
       id="text3124-1-7"
       sodipodi:linespacing="125%"><tspan
         sodipodi:role="line"
         id="tspan3126-7-1"
         x="276.70978"
         y="412.16956">HAProxy</tspan></text>
  </g>
</svg>
