<?xml version="1.0" encoding="UTF-8" standalone="no"?>
<svg
   xmlns:dc="http://purl.org/dc/elements/1.1/"
   xmlns:cc="http://creativecommons.org/ns#"
   xmlns:rdf="http://www.w3.org/1999/02/22-rdf-syntax-ns#"
   xmlns:svg="http://www.w3.org/2000/svg"
   xmlns="http://www.w3.org/2000/svg"
   xmlns:sodipodi="http://sodipodi.sourceforge.net/DTD/sodipodi-0.dtd"
   xmlns:inkscape="http://www.inkscape.org/namespaces/inkscape"
   version="1.1"
   viewBox="0 0 699.79366 501.87501"
   stroke-miterlimit="10"
   id="svg2"
   inkscape:version="0.48.4 r9939"
   width="100%"
   height="100%"
   sodipodi:docname="ha-overview-red-hat.svg"
   style="fill:none;stroke:none">
  <metadata
     id="metadata323">
    <rdf:RDF>
      <cc:Work
         rdf:about="">
        <dc:format>image/svg+xml</dc:format>
        <dc:type
           rdf:resource="http://purl.org/dc/dcmitype/StillImage" />
        <dc:title />
      </cc:Work>
    </rdf:RDF>
  </metadata>
  <defs
     id="defs321" />
  <sodipodi:namedview
     pagecolor="#ffffff"
     bordercolor="#666666"
     borderopacity="1"
     objecttolerance="10"
     gridtolerance="10"
     guidetolerance="10"
     inkscape:pageopacity="0"
     inkscape:pageshadow="2"
     inkscape:window-width="1600"
     inkscape:window-height="877"
     id="namedview319"
     showgrid="false"
     inkscape:zoom="0.7636849"
     inkscape:cx="225.62586"
     inkscape:cy="304.45335"
     inkscape:window-x="0"
     inkscape:window-y="0"
     inkscape:window-maximized="1"
     inkscape:current-layer="g7"
     fit-margin-top="20"
     fit-margin-left="20"
     fit-margin-right="5"
     fit-margin-bottom="20" />
  <clipPath
     id="p.0">
    <path
       d="M 0,0 749,0 749,490 0,490 0,0 z"
       clip-rule="nonzero"
       id="path5"
       inkscape:connector-curvature="0" />
  </clipPath>
  <g
     clip-path="url(#p.0)"
     id="g7"
     transform="translate(13.249999,5.6562463)">
    <path
       d="m 0,0 749.9711,0 0,490.77692 -749.9711,0 z"
       id="path9"
       inkscape:connector-curvature="0"
       style="fill:#000000;fill-opacity:0;fill-rule:nonzero" />
    <path
       d="M 545.3614,198.08862 273.78727,398.4758"
       id="path11"
       inkscape:connector-curvature="0"
       style="fill:#000000;fill-opacity:0;fill-rule:nonzero" />
    <path
       d="M 545.3614,198.08862 279.30253,394.40625"
       id="path13"
       inkscape:connector-curvature="0"
       style="stroke:#000000;stroke-width:2;stroke-linecap:butt;stroke-linejoin:round" />
    <path
       d="m 279.30252,394.40622 0.47443,-3.1452 -3.63703,5.47882 6.30783,-1.85919 z"
       id="path15"
       inkscape:connector-curvature="0"
       style="fill:#000000;fill-rule:evenodd;stroke:#000000;stroke-width:2;stroke-linecap:butt" />
    <path
       d="m 349.3296,187.57175 0,0 c 0,-2.26427 1.83557,-4.09982 4.09982,-4.09982 l 111.95786,0 c 1.08734,0 2.13013,0.43194 2.89902,1.20082 0.76886,0.76886 1.2008,1.81166 1.2008,2.899 l 0,16.39879 c 0,2.26426 -1.83557,4.09982 -4.09982,4.09982 l -111.95786,0 0,0 c -2.26425,0 -4.09982,-1.83556 -4.09982,-4.09982 z"
       id="path17"
       inkscape:connector-curvature="0"
       style="fill:#ffffff;fill-rule:nonzero" />
    <path
       d="m 349.3296,187.57175 0,0 c 0,-2.26427 1.83557,-4.09982 4.09982,-4.09982 l 111.95786,0 c 1.08734,0 2.13013,0.43194 2.89902,1.20082 0.76886,0.76886 1.2008,1.81166 1.2008,2.899 l 0,16.39879 c 0,2.26426 -1.83557,4.09982 -4.09982,4.09982 l -111.95786,0 0,0 c -2.26425,0 -4.09982,-1.83556 -4.09982,-4.09982 z"
       id="path19"
       inkscape:connector-curvature="0"
       style="stroke:#000000;stroke-width:2;stroke-linecap:butt;stroke-linejoin:round" />
    <path
       d="m 549.10284,335.92966 0,0 c 0,-2.26425 1.83557,-4.09982 4.09985,-4.09982 l 97.53259,0 c 1.08734,0 2.13019,0.43194 2.89905,1.20083 0.76886,0.76886 1.20081,1.81165 1.20081,2.89899 l 0,16.3988 c 0,2.26426 -1.83557,4.09983 -4.09986,4.09983 l -97.53259,0 c -2.26428,0 -4.09985,-1.83557 -4.09985,-4.09983 z"
       id="path21"
       inkscape:connector-curvature="0"
       style="fill:#ffffff;fill-rule:nonzero" />
    <path
       d="m 549.10284,335.92966 0,0 c 0,-2.26425 1.83557,-4.09982 4.09985,-4.09982 l 97.53259,0 c 1.08734,0 2.13019,0.43194 2.89905,1.20083 0.76886,0.76886 1.20081,1.81165 1.20081,2.89899 l 0,16.3988 c 0,2.26426 -1.83557,4.09983 -4.09986,4.09983 l -97.53259,0 c -2.26428,0 -4.09985,-1.83557 -4.09985,-4.09983 z"
       id="path23"
       inkscape:connector-curvature="0"
       style="stroke:#000000;stroke-width:2;stroke-linecap:butt;stroke-linejoin:round" />
    <path
       d="m 135.13692,346.68386 0,0 c 0,-2.26952 1.69585,-4.1093 3.78779,-4.1093 l 120.40171,0 c 1.00459,0 1.96802,0.43294 2.67838,1.20357 0.71035,0.77064 1.10941,1.81587 1.10941,2.90573 l 0,16.43669 c 0,2.26953 -1.69585,4.10932 -3.78779,4.10932 l -120.40171,0 c -2.09194,0 -3.78779,-1.83979 -3.78779,-4.10932 z"
       id="path25"
       inkscape:connector-curvature="0"
       style="fill:#ffffff;fill-rule:nonzero" />
    <path
       d="m 135.13692,346.68386 0,0 c 0,-2.26952 1.69585,-4.1093 3.78779,-4.1093 l 120.40171,0 c 1.00459,0 1.96802,0.43294 2.67838,1.20357 0.71035,0.77064 1.10941,1.81587 1.10941,2.90573 l 0,16.43669 c 0,2.26953 -1.69585,4.10932 -3.78779,4.10932 l -120.40171,0 c -2.09194,0 -3.78779,-1.83979 -3.78779,-4.10932 z"
       id="path27"
       inkscape:connector-curvature="0"
       style="stroke:#000000;stroke-width:1.92460835;stroke-linecap:butt;stroke-linejoin:round" />
    <path
       d="m 333.1875,420.4628 0,0 c 0,5.45053 -23.04703,9.86905 -51.47699,9.86905 -28.42996,0 -51.47699,-4.41852 -51.47699,-9.86905"
       id="path31"
       inkscape:connector-curvature="0"
       style="fill:#000000;fill-opacity:0;fill-rule:nonzero" />
    <path
       d="m 230.23352,420.4628 0,0 c 0,-5.45053 23.04703,-9.86905 51.47699,-9.86905 28.42996,0 51.47699,4.41852 51.47699,9.86905 l 0,39.4762 c 0,5.45053 -23.04703,9.86905 -51.47699,9.86905 -28.42996,0 -51.47699,-4.41852 -51.47699,-9.86905 z"
       id="path35"
       inkscape:connector-curvature="0"
       style="fill:#000000;fill-opacity:0;fill-rule:nonzero" />
    <path
       d="m 230.23352,420.4628 0,0 c 0,-5.45053 23.04703,-9.86905 51.47699,-9.86905 28.42996,0 51.47699,4.41852 51.47699,9.86905 l 0,39.4762 c 0,5.45053 -23.04703,9.86905 -51.47699,9.86905 -28.42996,0 -51.47699,-4.41852 -51.47699,-9.86905 z"
       id="path37"
       inkscape:connector-curvature="0"
       style="fill:#fce5cd;fill-opacity:1;stroke:#000000;stroke-width:2;stroke-linecap:butt;stroke-linejoin:round" />
    <path
       d="m 333.1875,420.4628 0,0 c 0,5.45053 -23.04703,9.86905 -51.47699,9.86905 -28.42996,0 -51.47699,-4.41852 -51.47699,-9.86905"
       id="path33"
       inkscape:connector-curvature="0"
       style="stroke:#000000;stroke-width:2;stroke-linecap:butt;stroke-linejoin:round" />
    <path
       d="m 222.31027,408.87704 0,0 c 0,-5.45053 23.04703,-9.86905 51.47699,-9.86905 28.42996,0 51.47699,4.41852 51.47699,9.86905 l 0,39.4762 c 0,5.45053 -23.04703,9.86905 -51.47699,9.86905 -28.42996,0 -51.47699,-4.41852 -51.47699,-9.86905 z"
       id="path51"
       inkscape:connector-curvature="0"
       style="fill:#fce5cd;fill-opacity:1;stroke:#000000;stroke-width:2;stroke-linecap:butt;stroke-linejoin:round" />
    <path
       d="m 201.90773,187.57175 0,0 c 0,-2.26427 1.83554,-4.09982 4.09982,-4.09982 l 111.95784,0 c 1.08734,0 2.13013,0.43194 2.89902,1.20082 0.76886,0.76886 1.20081,1.81166 1.20081,2.899 l 0,16.39879 c 0,2.26426 -1.83558,4.09982 -4.09983,4.09982 l -111.95784,0 0,0 c -2.26428,0 -4.09982,-1.83556 -4.09982,-4.09982 z"
       id="path39"
       inkscape:connector-curvature="0"
       style="fill:#ffffff;fill-rule:nonzero" />
    <path
       d="m 201.90773,187.57175 0,0 c 0,-2.26427 1.83554,-4.09982 4.09982,-4.09982 l 111.95784,0 c 1.08734,0 2.13013,0.43194 2.89902,1.20082 0.76886,0.76886 1.20081,1.81166 1.20081,2.899 l 0,16.39879 c 0,2.26426 -1.83558,4.09982 -4.09983,4.09982 l -111.95784,0 0,0 c -2.26428,0 -4.09982,-1.83556 -4.09982,-4.09982 z"
       id="path41"
       inkscape:connector-curvature="0"
       style="stroke:#000000;stroke-width:2;stroke-linecap:butt;stroke-linejoin:round" />
    <path
       d="m 325.26425,408.87704 0,0 c 0,5.45053 -23.04703,9.86905 -51.47699,9.86905 -28.42996,0 -51.47699,-4.41852 -51.47699,-9.86905"
       id="path45"
       inkscape:connector-curvature="0"
       style="fill:#000000;fill-opacity:0;fill-rule:nonzero" />
    <path
       d="m 222.31027,408.87704 0,0 c 0,-5.45053 23.04703,-9.86905 51.47699,-9.86905 28.42996,0 51.47699,4.41852 51.47699,9.86905 l 0,39.4762 c 0,5.45053 -23.04703,9.86905 -51.47699,9.86905 -28.42996,0 -51.47699,-4.41852 -51.47699,-9.86905 z"
       id="path49"
       inkscape:connector-curvature="0"
       style="fill:#000000;fill-opacity:0;fill-rule:nonzero" />
    <path
       d="m 322.06522,15.087648 119.27557,0 0,47.527557 -119.27557,0 z"
       id="path55"
       style="fill:#00ff00;fill-rule:nonzero;stroke:#000000;stroke-width:1.5;stroke-miterlimit:10;stroke-opacity:1;stroke-dasharray:none"
       inkscape:connector-curvature="0" />
    <path
       d="m 192.70851,177.08054 0,0 c 0,-2.26427 1.83556,-4.09981 4.09982,-4.09981 l 111.95784,0 c 1.08734,0 2.13016,0.43194 2.89902,1.2008 0.76886,0.76886 1.20081,1.81168 1.20081,2.89901 l 0,16.39878 c 0,2.26427 -1.83554,4.09983 -4.09983,4.09983 l -111.95784,0 0,0 c -2.26426,0 -4.09982,-1.83556 -4.09982,-4.09983 z"
       id="path61"
       inkscape:connector-curvature="0"
       style="fill:#ffffff;fill-rule:nonzero" />
    <path
       d="m 192.70851,177.59001 0,0 c 0,-2.26427 1.83556,-4.09981 4.09982,-4.09981 l 111.95784,0 c 1.08734,0 2.13016,0.43195 2.89902,1.20081 0.76886,0.76886 1.20081,1.81167 1.20081,2.899 l 0,16.39879 c 0,2.26426 -1.83554,4.09982 -4.09983,4.09982 l -111.95784,0 0,0 c -2.26426,0 -4.09982,-1.83556 -4.09982,-4.09982 z"
       id="path63"
       inkscape:connector-curvature="0"
       style="stroke:#000000;stroke-width:2;stroke-linecap:butt;stroke-linejoin:round" />
    <path
       d="m 340.1304,177.59001 0,0 c 0,-2.26427 1.83557,-4.09981 4.09982,-4.09981 l 111.95786,0 c 1.08734,0 2.13013,0.43195 2.89902,1.20081 0.76886,0.76886 1.2008,1.81167 1.2008,2.899 l 0,16.39879 c 0,2.26426 -1.83557,4.09982 -4.09982,4.09982 l -111.95786,0 0,0 c -2.26425,0 -4.09982,-1.83556 -4.09982,-4.09982 z"
       id="path67"
       inkscape:connector-curvature="0"
       style="fill:#ffffff;fill-rule:nonzero" />
    <path
       d="m 340.1304,177.59001 0,0 c 0,-2.26427 1.83557,-4.09981 4.09982,-4.09981 l 111.95786,0 c 1.08734,0 2.13013,0.43195 2.89902,1.20081 0.76886,0.76886 1.2008,1.81167 1.2008,2.899 l 0,16.39879 c 0,2.26426 -1.83557,4.09982 -4.09982,4.09982 l -111.95786,0 0,0 c -2.26425,0 -4.09982,-1.83556 -4.09982,-4.09982 z"
       id="path69"
       inkscape:connector-curvature="0"
       style="stroke:#000000;stroke-width:2;stroke-linecap:butt;stroke-linejoin:round" />
    <path
       d="M 381.703,62.615208 252.78726,173.49021"
       id="path73"
       inkscape:connector-curvature="0"
       style="fill:#000000;fill-opacity:0;fill-rule:nonzero" />
    <path
       d="M 376.5064,67.08457 257.98385,169.02083"
       id="path75"
       inkscape:connector-curvature="0"
       style="stroke:#000000;stroke-width:2;stroke-linecap:butt;stroke-linejoin:round" />
    <path
       d="m 376.5064,67.08457 -0.23862,3.171837 3.21848,-5.734688 -6.1517,2.324219 z"
       id="path77"
       inkscape:connector-curvature="0"
       style="fill:#000000;fill-rule:evenodd;stroke:#000000;stroke-width:2;stroke-linecap:butt" />
    <path
       d="m 257.98386,169.02083 0.23862,-3.17183 -3.21849,5.7347 6.15168,-2.32422 z"
       id="path79"
       inkscape:connector-curvature="0"
       style="fill:#000000;fill-rule:evenodd;stroke:#000000;stroke-width:2;stroke-linecap:butt" />
    <path
       d="M 381.703,62.615208 400.20916,173.49021"
       id="path81"
       inkscape:connector-curvature="0"
       style="fill:#000000;fill-opacity:0;fill-rule:nonzero" />
    <path
       d="m 382.83142,69.375854 16.24933,97.353696"
       id="path83"
       inkscape:connector-curvature="0"
       style="stroke:#000000;stroke-width:2;stroke-linecap:butt;stroke-linejoin:round" />
    <path
       d="m 382.83142,69.375854 2.58878,1.84819 -3.23584,-5.72493 -1.20112,6.465508 z"
       id="path85"
       inkscape:connector-curvature="0"
       style="fill:#000000;fill-rule:evenodd;stroke:#000000;stroke-width:2;stroke-linecap:butt" />
    <path
       d="m 399.08072,166.72955 -2.58875,-1.84819 3.23584,5.72493 1.20112,-6.4655 z"
       id="path87"
       inkscape:connector-curvature="0"
       style="fill:#000000;fill-rule:evenodd;stroke:#000000;stroke-width:2;stroke-linecap:butt" />
    <path
       d="m 252.78726,198.08862 21,200.38718"
       id="path89"
       inkscape:connector-curvature="0"
       style="fill:#000000;fill-opacity:0;fill-rule:nonzero" />
    <path
       d="m 252.78726,198.08862 20.28561,193.57034"
       id="path91"
       inkscape:connector-curvature="0"
       style="stroke:#000000;stroke-width:2;stroke-linecap:butt;stroke-linejoin:round" />
    <path
       d="m 273.07288,391.65897 -2.47134,-2.0025 2.88098,5.91147 1.59286,-6.38031 z"
       id="path93"
       inkscape:connector-curvature="0"
       style="fill:#000000;fill-rule:evenodd;stroke:#000000;stroke-width:2;stroke-linecap:butt" />
    <path
       d="M 400.20917,198.08862 273.78726,398.4758"
       id="path95"
       inkscape:connector-curvature="0"
       style="fill:#000000;fill-opacity:0;fill-rule:nonzero" />
    <path
       d="M 400.20917,198.08862 277.44446,392.67889"
       id="path97"
       inkscape:connector-curvature="0"
       style="stroke:#000000;stroke-width:2;stroke-linecap:butt;stroke-linejoin:round" />
    <path
       d="m 277.4445,392.67886 -0.70215,-3.10233 -1.39502,6.42646 5.1995,-4.02628 z"
       id="path99"
       inkscape:connector-curvature="0"
       style="fill:#000000;fill-rule:evenodd;stroke:#000000;stroke-width:2;stroke-linecap:butt" />
    <path
       d="M 252.78726,198.08862 453.65841,406.89615"
       id="path101"
       inkscape:connector-curvature="0"
       style="fill:#000000;fill-opacity:0;fill-rule:nonzero" />
    <path
       d="M 252.78726,198.08862 445.33908,398.2481"
       id="path103"
       inkscape:connector-curvature="0"
       style="stroke:#000000;stroke-width:2;stroke-linecap:butt;stroke-linejoin:round" />
    <path
       d="m 442.95837,400.53836 8.67304,4.2507 -3.91163,-8.83114 z"
       id="path105"
       inkscape:connector-curvature="0"
       style="fill:#000000;fill-rule:evenodd;stroke:#000000;stroke-width:2;stroke-linecap:butt" />
    <path
       d="m 400.20917,198.08862 53.44925,208.80753"
       id="path107"
       inkscape:connector-curvature="0"
       style="fill:#000000;fill-opacity:0;fill-rule:nonzero" />
    <path
       d="m 400.20917,198.08862 50.47348,197.18234"
       id="path109"
       inkscape:connector-curvature="0"
       style="stroke:#000000;stroke-width:2;stroke-linecap:butt;stroke-linejoin:round" />
    <path
       d="m 447.4824,396.09018 5.45099,7.97351 0.94958,-9.61191 z"
       id="path111"
       inkscape:connector-curvature="0"
       style="fill:#000000;fill-rule:evenodd;stroke:#000000;stroke-width:2;stroke-linecap:butt" />
    <path
       d="m 542.49646,325.34753 0,0 c 0,-2.26428 1.83557,-4.09982 4.09985,-4.09982 l 97.53265,0 c 1.08734,0 2.13013,0.43194 2.89899,1.2008 0.76886,0.76886 1.20081,1.81168 1.20081,2.89902 l 0,16.39877 c 0,2.26429 -1.83558,4.09983 -4.0998,4.09983 l -97.53265,0 c -2.26428,0 -4.09985,-1.83554 -4.09985,-4.09983 z"
       id="path113"
       inkscape:connector-curvature="0"
       style="fill:#ffffff;fill-rule:nonzero" />
    <path
       d="m 542.49646,325.34753 0,0 c 0,-2.26428 1.83557,-4.09982 4.09985,-4.09982 l 97.53265,0 c 1.08734,0 2.13013,0.43194 2.89899,1.2008 0.76886,0.76886 1.20081,1.81168 1.20081,2.89902 l 0,16.39877 c 0,2.26429 -1.83558,4.09983 -4.0998,4.09983 l -97.53265,0 c -2.26428,0 -4.09985,-1.83554 -4.09985,-4.09983 z"
       id="path115"
       inkscape:connector-curvature="0"
       style="stroke:#000000;stroke-width:2;stroke-linecap:butt;stroke-linejoin:round" />
    <path
       d="M 651.3626,385.84613 453.6584,406.89615"
       id="path119"
       inkscape:connector-curvature="0"
       style="fill:#000000;fill-opacity:0;fill-rule:nonzero" />
    <path
       d="M 585.74299,349.14286 465.59097,405.62567"
       id="path121"
       inkscape:connector-curvature="0"
       style="stroke:#000000;stroke-width:2;stroke-linecap:butt;stroke-linejoin:round"
       sodipodi:nodetypes="cc" />
    <path
       d="m 585.12197,352.04273 6.96254,-6.69434 -9.6366,0.65275 z"
       id="path123"
       inkscape:connector-curvature="0"
       style="fill:#000000;fill-rule:evenodd;stroke:#000000;stroke-width:2;stroke-linecap:butt" />
    <path
       d="m 465.24124,402.3408 -8.67545,4.24582 9.37494,2.32397 z"
       id="path125"
       inkscape:connector-curvature="0"
       style="fill:#000000;fill-rule:evenodd;stroke:#000000;stroke-width:2;stroke-linecap:butt" />
    <path
       d="m 54.904854,187.57175 0,0 c 0,-2.26427 1.835552,-4.09982 4.099823,-4.09982 l 111.957853,0 c 1.08732,0 2.13014,0.43194 2.899,1.20082 0.76886,0.76886 1.2008,1.81166 1.2008,2.899 l 0,16.39879 c 0,2.26426 -1.83554,4.09982 -4.0998,4.09982 l -111.957853,0 0,0 c -2.264271,0 -4.099823,-1.83556 -4.099823,-4.09982 z"
       id="path127"
       inkscape:connector-curvature="0"
       style="fill:#ffffff;fill-rule:nonzero" />
    <path
       d="m 54.904854,187.57175 0,0 c 0,-2.26427 1.835552,-4.09982 4.099823,-4.09982 l 111.957853,0 c 1.08732,0 2.13014,0.43194 2.899,1.20082 0.76886,0.76886 1.2008,1.81166 1.2008,2.899 l 0,16.39879 c 0,2.26426 -1.83554,4.09982 -4.0998,4.09982 l -111.957853,0 0,0 c -2.264271,0 -4.099823,-1.83556 -4.099823,-4.09982 z"
       id="path129"
       inkscape:connector-curvature="0"
       style="stroke:#000000;stroke-width:2;stroke-linecap:butt;stroke-linejoin:round" />
    <path
       d="m 45.70566,177.59001 0,0 c 0,-2.26427 1.835552,-4.09981 4.099819,-4.09981 l 111.957841,0 c 1.08734,0 2.13014,0.43195 2.89902,1.20081 0.76886,0.76886 1.2008,1.81167 1.2008,2.899 l 0,16.39879 c 0,2.26426 -1.83555,4.09982 -4.09982,4.09982 l -111.957841,0 0,0 c -2.264267,0 -4.099819,-1.83556 -4.099819,-4.09982 z"
       id="path131"
       inkscape:connector-curvature="0"
       style="fill:#ffffff;fill-rule:nonzero" />
    <path
       d="m 45.70566,177.59001 0,0 c 0,-2.26427 1.835552,-4.09981 4.099819,-4.09981 l 111.957841,0 c 1.08734,0 2.13014,0.43195 2.89902,1.20081 0.76886,0.76886 1.2008,1.81167 1.2008,2.899 l 0,16.39879 c 0,2.26426 -1.83555,4.09982 -4.09982,4.09982 l -111.957841,0 0,0 c -2.264267,0 -4.099819,-1.83556 -4.099819,-4.09982 z"
       id="path133"
       inkscape:connector-curvature="0"
       style="stroke:#000000;stroke-width:2;stroke-linecap:butt;stroke-linejoin:round" />
    <path
       d="M 381.703,62.615208 105.7844,173.49021"
       id="path137"
       inkscape:connector-curvature="0"
       style="fill:#000000;fill-opacity:0;fill-rule:nonzero" />
    <path
       d="M 375.34308,65.17087 112.14428,170.93454"
       id="path139"
       inkscape:connector-curvature="0"
       style="stroke:#000000;stroke-width:2;stroke-linecap:butt;stroke-linejoin:round" />
    <path
       d="m 375.3431,65.17087 -1.24835,2.925598 4.89529,-4.391083 -6.57254,0.21714 z"
       id="path141"
       inkscape:connector-curvature="0"
       style="fill:#000000;fill-rule:evenodd;stroke:#000000;stroke-width:2;stroke-linecap:butt" />
    <path
       d="m 112.1443,170.93454 1.24834,-2.9256 -4.89527,4.39108 6.57254,-0.21713 z"
       id="path143"
       inkscape:connector-curvature="0"
       style="fill:#000000;fill-rule:evenodd;stroke:#000000;stroke-width:2;stroke-linecap:butt" />
    <path
       d="m 105.7844,198.08862 87.09154,110.06155"
       id="path145"
       inkscape:connector-curvature="0"
       style="fill:#000000;fill-opacity:0;fill-rule:nonzero" />
    <path
       d="m 105.78441,198.08862 79.64523,100.65134"
       id="path147"
       inkscape:connector-curvature="0"
       style="stroke:#000000;stroke-width:2;stroke-linecap:butt;stroke-linejoin:round" />
    <path
       d="m 182.83911,300.78983 8.22253,5.06754 -3.04147,-9.1673 z"
       id="path149"
       inkscape:connector-curvature="0"
       style="fill:#000000;fill-rule:evenodd;stroke:#000000;stroke-width:2;stroke-linecap:butt" />
    <path
       d="m 129.1498,338.66536 0,0 c 0,-2.26952 1.69586,-4.10931 3.7878,-4.10931 l 120.40171,0 c 1.00459,0 1.96803,0.43294 2.67838,1.20358 0.71035,0.77064 1.10942,1.81587 1.10942,2.90573 l 0,16.43669 c 0,2.26953 -1.69586,4.10931 -3.7878,4.10931 l -120.40171,0 c -2.09194,0 -3.7878,-1.83978 -3.7878,-4.10931 z"
       id="path151"
       inkscape:connector-curvature="0"
       style="fill:#ffffff;fill-rule:nonzero" />
    <path
       d="m 129.1498,338.66536 0,0 c 0,-2.26952 1.69586,-4.10931 3.7878,-4.10931 l 120.40171,0 c 1.00459,0 1.96803,0.43294 2.67838,1.20358 0.71035,0.77064 1.10942,1.81587 1.10942,2.90573 l 0,16.43669 c 0,2.26953 -1.69586,4.10931 -3.7878,4.10931 l -120.40171,0 c -2.09194,0 -3.7878,-1.83978 -3.7878,-4.10931 z"
       id="path153"
       inkscape:connector-curvature="0"
       style="stroke:#000000;stroke-width:1.92460835;stroke-linecap:butt;stroke-linejoin:round" />
    <path
       d="M 162.44867,359.20023 273.78726,398.4758"
       id="path157"
       inkscape:connector-curvature="0"
       style="fill:#000000;fill-opacity:0;fill-rule:nonzero" />
    <path
       d="m 194.68395,359.02851 67.9585,35.62701"
       id="path159"
       inkscape:connector-curvature="0"
       style="stroke:#000000;stroke-width:1.6565609;stroke-linecap:butt;stroke-linejoin:round" />
    <path
       d="m 261.37177,397.59912 9.6582,-0.096 -7.46029,-6.13464 z"
       id="path161"
       inkscape:connector-curvature="0"
       style="fill:#000000;fill-rule:evenodd;stroke:#000000;stroke-width:2;stroke-linecap:butt" />
    <path
       d="m 499.48837,428.37704 0,0 c 0,5.17438 -20.51877,9.36905 -45.82993,9.36905 -25.31118,0 -45.82995,-4.19467 -45.82995,-9.36905"
       id="path165"
       inkscape:connector-curvature="0"
       style="fill:#000000;fill-opacity:0;fill-rule:nonzero" />
    <path
       d="m 499.48837,428.37704 0,0 c 0,5.17438 -20.51877,9.36905 -45.82993,9.36905 -25.31118,0 -45.82995,-4.19467 -45.82995,-9.36905"
       id="path167"
       inkscape:connector-curvature="0"
       style="stroke:#000000;stroke-width:2;stroke-linecap:butt;stroke-linejoin:round" />
    <path
       d="m 407.8285,428.37704 0,0 c 0,-5.17438 20.51877,-9.36905 45.82996,-9.36905 25.31115,0 45.82992,4.19467 45.82992,9.36905 l 0,37.4762 c 0,5.17437 -20.51877,9.36905 -45.82992,9.36905 -25.31119,0 -45.82996,-4.19468 -45.82996,-9.36905 z"
       id="path169"
       inkscape:connector-curvature="0"
       style="fill:#000000;fill-opacity:0;fill-rule:nonzero" />
    <path
       d="m 407.8285,428.37704 0,0 c 0,-5.17438 20.51877,-9.36905 45.82996,-9.36905 25.31115,0 45.82992,4.19467 45.82992,9.36905 l 0,37.4762 c 0,5.17437 -20.51877,9.36905 -45.82992,9.36905 -25.31119,0 -45.82996,-4.19468 -45.82996,-9.36905 z"
       id="path171"
       style="fill:#fce5cd;fill-opacity:1;fill-rule:nonzero;stroke:#000000;stroke-width:2;stroke-linecap:butt;stroke-linejoin:round"
       inkscape:connector-curvature="0" />
    <path
       d="m 7.52161,280.76752 119.27559,0 0,47.52759 -119.27559,0 z"
       id="path175"
       style="fill:#ffffff;fill-rule:nonzero;stroke:#000000;stroke-width:1.5;stroke-miterlimit:10;stroke-opacity:1;stroke-dasharray:none"
       inkscape:connector-curvature="0" />
    <path
       d="M 105.7844,198.08862 83.863143,249.96264"
       id="path181"
       inkscape:connector-curvature="0"
       style="fill:#000000;fill-opacity:0;fill-rule:nonzero" />
    <path
       d="M 101.11332,209.14218 88.534226,238.90907"
       id="path183"
       inkscape:connector-curvature="0"
       style="stroke:#000000;stroke-width:2;stroke-linecap:butt;stroke-linejoin:round" />
    <path
       d="m 104.15624,210.42807 0.49005,-9.64624 -6.575888,7.07445 z"
       id="path185"
       inkscape:connector-curvature="0"
       style="fill:#000000;fill-rule:evenodd;stroke:#000000;stroke-width:2;stroke-linecap:butt" />
    <path
       d="m 85.49131,237.6232 -0.490059,9.64624 6.57589,-7.07445 z"
       id="path187"
       inkscape:connector-curvature="0"
       style="fill:#000000;fill-rule:evenodd;stroke:#000000;stroke-width:2;stroke-linecap:butt" />
    <path
       d="m 21.330662,38.51152 0,0 c 0,-2.264271 1.835552,-4.099823 4.099821,-4.099823 l 111.957837,0 c 1.08734,0 2.13015,0.431946 2.89902,1.200809 0.76886,0.768868 1.20081,1.811673 1.20081,2.899014 l 0,16.398785 c 0,2.264267 -1.83556,4.099819 -4.09983,4.099819 l -111.957837,0 0,0 c -2.264269,0 -4.099821,-1.835552 -4.099821,-4.099819 z"
       id="path189"
       inkscape:connector-curvature="0"
       style="fill:#ffffff;fill-rule:nonzero" />
    <path
       d="m 21.330662,38.51152 0,0 c 0,-2.264271 1.835552,-4.099823 4.099821,-4.099823 l 111.957837,0 c 1.08734,0 2.13015,0.431946 2.89902,1.200809 0.76886,0.768868 1.20081,1.811673 1.20081,2.899014 l 0,16.398785 c 0,2.264267 -1.83556,4.099819 -4.09983,4.099819 l -111.957837,0 0,0 c -2.264269,0 -4.099821,-1.835552 -4.099821,-4.099819 z"
       id="path191"
       inkscape:connector-curvature="0"
       style="stroke:#000000;stroke-width:2;stroke-linecap:butt;stroke-linejoin:round" />
    <path
       d="m 44.019756,50.671852 0,-8.59375 1.125,0 0,3.53125 4.46875,0 0,-3.53125 1.140625,0 0,8.59375 -1.140625,0 0,-4.046875 -4.46875,0 0,4.046875 -1.125,0 z m 7.681641,0 3.296875,-8.59375 1.21875,0 3.515625,8.59375 -1.28125,0 -1.015625,-2.609375 -3.578125,0 -0.953125,2.609375 -1.203125,0 z m 2.484375,-3.53125 2.90625,0 -0.890625,-2.375 q -0.421875,-1.078125 -0.609375,-1.78125 -0.171875,0.828125 -0.46875,1.640625 l -0.9375,2.515625 z m 13.697262,3.53125 0,-0.78125 q -0.59375,0.921875 -1.734375,0.921875 -0.75,0 -1.375,-0.40625 -0.625,-0.421875 -0.968747,-1.15625 -0.34375,-0.734375 -0.34375,-1.6875 0,-0.921875 0.3125,-1.6875 0.312497,-0.765625 0.937497,-1.15625 0.625,-0.40625 1.390625,-0.40625 0.5625,0 1,0.234375 0.4375,0.234375 0.71875,0.609375 l 0,-3.078125 1.046875,0 0,8.59375 -0.984375,0 z m -3.328125,-3.109375 q 0,1.203125 0.5,1.796875 0.5,0.578125 1.1875,0.578125 0.6875,0 1.171875,-0.5625 0.484375,-0.5625 0.484375,-1.71875 0,-1.28125 -0.5,-1.875 -0.484375,-0.59375 -1.203125,-0.59375 -0.703125,0 -1.171875,0.578125 -0.46875,0.5625 -0.46875,1.796875 z m 10.033203,2.34375 q -0.59375,0.5 -1.140625,0.703125 -0.53125,0.203125 -1.15625,0.203125 -1.03125,0 -1.578125,-0.5 -0.546875,-0.5 -0.546875,-1.28125 0,-0.453125 0.203125,-0.828125 0.203125,-0.390625 0.546875,-0.609375 0.34375,-0.234375 0.765625,-0.34375 0.296875,-0.09375 0.9375,-0.171875 1.265625,-0.140625 1.875,-0.359375 0,-0.21875 0,-0.265625 0,-0.65625 -0.296875,-0.921875 -0.40625,-0.34375 -1.203125,-0.34375 -0.734375,0 -1.09375,0.265625 -0.359375,0.25 -0.53125,0.90625 l -1.03125,-0.140625 q 0.140625,-0.65625 0.46875,-1.0625 0.328125,-0.40625 0.9375,-0.625 0.609375,-0.21875 1.40625,-0.21875 0.796875,0 1.296875,0.1875 0.5,0.1875 0.734375,0.46875 0.234375,0.28125 0.328125,0.71875 0.04687,0.265625 0.04687,0.96875 l 0,1.40625 q 0,1.46875 0.0625,1.859375 0.07813,0.390625 0.28125,0.75 l -1.109375,0 q -0.15625,-0.328125 -0.203125,-0.765625 z m -0.09375,-2.359375 q -0.578125,0.234375 -1.71875,0.40625 -0.65625,0.09375 -0.921875,0.21875 -0.265625,0.109375 -0.421875,0.328125 -0.140625,0.21875 -0.140625,0.5 0,0.421875 0.3125,0.703125 0.328125,0.28125 0.9375,0.28125 0.609375,0 1.078125,-0.265625 0.484375,-0.265625 0.703125,-0.734375 0.171875,-0.359375 0.171875,-1.046875 l 0,-0.390625 z m 2.283203,1.265625 1.03125,-0.15625 q 0.09375,0.625 0.484375,0.953125 0.40625,0.328125 1.140625,0.328125 0.71875,0 1.0625,-0.28125 0.359375,-0.296875 0.359375,-0.703125 0,-0.359375 -0.3125,-0.5625 -0.21875,-0.140625 -1.078125,-0.359375 -1.15625,-0.296875 -1.609375,-0.5 -0.4375,-0.21875 -0.671875,-0.59375 -0.234375,-0.375 -0.234375,-0.84375 0,-0.40625 0.1875,-0.765625 0.1875,-0.359375 0.515625,-0.59375 0.25,-0.171875 0.671875,-0.296875 0.421875,-0.125 0.921875,-0.125 0.71875,0 1.265625,0.21875 0.5625,0.203125 0.828125,0.5625 0.265625,0.359375 0.359375,0.953125 l -1.03125,0.140625 q -0.0625,-0.46875 -0.40625,-0.734375 -0.328125,-0.28125 -0.953125,-0.28125 -0.71875,0 -1.03125,0.25 -0.3125,0.234375 -0.3125,0.5625 0,0.203125 0.125,0.359375 0.140625,0.171875 0.40625,0.28125 0.15625,0.0625 0.9375,0.265625 1.125,0.3125 1.5625,0.5 0.4375,0.1875 0.6875,0.546875 0.25,0.359375 0.25,0.90625 0,0.53125 -0.3125,1 -0.296875,0.453125 -0.875,0.71875 -0.578125,0.25 -1.3125,0.25 -1.21875,0 -1.859375,-0.5 -0.625,-0.515625 -0.796875,-1.5 z m 6.421875,1.859375 0,-8.59375 1.046875,0 0,3.078125 q 0.734375,-0.84375 1.859375,-0.84375 0.703125,0 1.203125,0.28125 0.515625,0.265625 0.734375,0.75 0.21875,0.46875 0.21875,1.390625 l 0,3.9375 -1.046875,0 0,-3.9375 q 0,-0.796875 -0.34375,-1.15625 -0.34375,-0.359375 -0.96875,-0.359375 -0.46875,0 -0.890625,0.25 -0.40625,0.234375 -0.59375,0.65625 -0.171875,0.40625 -0.171875,1.140625 l 0,3.40625 -1.046875,0 z m 7.642578,0 -0.984375,0 0,-8.59375 1.0625,0 0,3.0625 q 0.671875,-0.828125 1.703125,-0.828125 0.578125,0 1.078125,0.234375 0.515625,0.21875 0.84375,0.640625 0.34375,0.421875 0.53125,1.015625 0.1875,0.59375 0.1875,1.265625 0,1.59375 -0.796875,2.46875 -0.796875,0.875 -1.890625,0.875 -1.109375,0 -1.734375,-0.921875 l 0,0.78125 z m -0.01563,-3.15625 q 0,1.109375 0.3125,1.609375 0.5,0.8125 1.34375,0.8125 0.6875,0 1.1875,-0.59375 0.515625,-0.59375 0.515625,-1.796875 0,-1.21875 -0.484375,-1.796875 -0.484375,-0.578125 -1.171875,-0.578125 -0.6875,0 -1.203125,0.609375 -0.5,0.59375 -0.5,1.734375 z m 5.330078,0.04687 q 0,-1.734375 0.953125,-2.5625 0.796875,-0.6875 1.953125,-0.6875 1.281244,0 2.093744,0.84375 0.82814,0.828125 0.82814,2.3125 0,1.203125 -0.35939,1.890625 -0.35936,0.6875 -1.0625,1.078125 -0.687494,0.375 -1.499994,0.375 -1.296875,0 -2.109375,-0.828125 -0.796875,-0.84375 -0.796875,-2.421875 z m 1.078125,0 q 0,1.1875 0.515625,1.78125 0.53125,0.59375 1.3125,0.59375 0.796875,0 1.312494,-0.59375 0.51564,-0.59375 0.51564,-1.8125 0,-1.15625 -0.53125,-1.75 -0.515634,-0.59375 -1.296884,-0.59375 -0.78125,0 -1.3125,0.59375 -0.515625,0.578125 -0.515625,1.78125 z m 10.048819,2.34375 q -0.59375,0.5 -1.14062,0.703125 -0.53125,0.203125 -1.15625,0.203125 -1.03125,0 -1.57813,-0.5 -0.54687,-0.5 -0.54687,-1.28125 0,-0.453125 0.20312,-0.828125 0.20313,-0.390625 0.54688,-0.609375 0.34375,-0.234375 0.76562,-0.34375 0.29688,-0.09375 0.9375,-0.171875 1.26563,-0.140625 1.875,-0.359375 0,-0.21875 0,-0.265625 0,-0.65625 -0.29687,-0.921875 -0.40625,-0.34375 -1.20313,-0.34375 -0.73437,0 -1.09375,0.265625 -0.35937,0.25 -0.53125,0.90625 l -1.03125,-0.140625 q 0.14063,-0.65625 0.46875,-1.0625 0.32813,-0.40625 0.9375,-0.625 0.60938,-0.21875 1.40625,-0.21875 0.79688,0 1.29688,0.1875 0.5,0.1875 0.73437,0.46875 0.23438,0.28125 0.32813,0.71875 0.0469,0.265625 0.0469,0.96875 l 0,1.40625 q 0,1.46875 0.0625,1.859375 0.0781,0.390625 0.28125,0.75 l -1.10937,0 q -0.15625,-0.328125 -0.20313,-0.765625 z m -0.0937,-2.359375 q -0.57812,0.234375 -1.71875,0.40625 -0.65625,0.09375 -0.92187,0.21875 -0.26563,0.109375 -0.42188,0.328125 -0.14062,0.21875 -0.14062,0.5 0,0.421875 0.3125,0.703125 0.32812,0.28125 0.9375,0.28125 0.60937,0 1.07812,-0.265625 0.48438,-0.265625 0.70313,-0.734375 0.17187,-0.359375 0.17187,-1.046875 l 0,-0.390625 z m 2.68946,3.125 0,-6.21875 0.95312,0 0,0.9375 q 0.35938,-0.65625 0.65625,-0.859375 0.3125,-0.21875 0.6875,-0.21875 0.53125,0 1.07813,0.328125 l -0.35938,0.984375 q -0.39062,-0.234375 -0.76562,-0.234375 -0.35938,0 -0.64063,0.21875 -0.26562,0.203125 -0.375,0.578125 -0.1875,0.5625 -0.1875,1.21875 l 0,3.265625 -1.04687,0 z m 8.04297,0 0,-0.78125 q -0.59375,0.921875 -1.73438,0.921875 -0.75,0 -1.375,-0.40625 -0.625,-0.421875 -0.96875,-1.15625 -0.34375,-0.734375 -0.34375,-1.6875 0,-0.921875 0.3125,-1.6875 0.3125,-0.765625 0.9375,-1.15625 0.625,-0.40625 1.39063,-0.40625 0.5625,0 1,0.234375 0.4375,0.234375 0.71875,0.609375 l 0,-3.078125 1.04687,0 0,8.59375 -0.98437,0 z m -3.32813,-3.109375 q 0,1.203125 0.5,1.796875 0.5,0.578125 1.1875,0.578125 0.6875,0 1.17188,-0.5625 0.48437,-0.5625 0.48437,-1.71875 0,-1.28125 -0.5,-1.875 -0.48437,-0.59375 -1.20312,-0.59375 -0.70313,0 -1.17188,0.578125 -0.46875,0.5625 -0.46875,1.796875 z"
       id="path193"
       inkscape:connector-curvature="0"
       style="fill:#000000;fill-rule:nonzero" />
    <path
       d="m 13.080663,30.261518 0,0 c 0,-2.264267 1.835551,-4.099819 4.09982,-4.099819 l 111.957837,0 c 1.08734,0 2.13015,0.431944 2.89902,1.200809 0.76886,0.768866 1.20081,1.811671 1.20081,2.89901 l 0,16.398787 c 0,2.264267 -1.83556,4.099819 -4.09983,4.099819 l -111.957837,0 0,0 c -2.264269,0 -4.09982,-1.835552 -4.09982,-4.099819 z"
       id="path195"
       inkscape:connector-curvature="0"
       style="fill:#ffffff;fill-rule:nonzero" />
    <path
       d="m 13.080663,30.261518 0,0 c 0,-2.264267 1.835551,-4.099819 4.09982,-4.099819 l 111.957837,0 c 1.08734,0 2.13015,0.431944 2.89902,1.200809 0.76886,0.768866 1.20081,1.811671 1.20081,2.89901 l 0,16.398787 c 0,2.264267 -1.83556,4.099819 -4.09983,4.099819 l -111.957837,0 0,0 c -2.264269,0 -4.09982,-1.835552 -4.09982,-4.099819 z"
       id="path197"
       inkscape:connector-curvature="0"
       style="stroke:#000000;stroke-width:2;stroke-linecap:butt;stroke-linejoin:round" />
    <path
       d="M 322.06522,38.85143 133.23815,38.460912"
       id="path201"
       inkscape:connector-curvature="0"
       style="fill:#000000;fill-opacity:0;fill-rule:nonzero" />
    <path
       d="M 315.21103,38.837254 140.0923,38.475087"
       id="path203"
       inkscape:connector-curvature="0"
       style="stroke:#000000;stroke-width:2;stroke-linecap:butt;stroke-linejoin:round" />
    <path
       d="m 315.21106,38.837254 -2.25381,2.244511 6.18417,-2.236382 -6.17487,-2.261944 z"
       id="path205"
       inkscape:connector-curvature="0"
       style="fill:#000000;fill-rule:evenodd;stroke:#000000;stroke-width:2;stroke-linecap:butt" />
    <path
       d="m 140.0923,38.475086 2.25381,-2.244511 -6.18417,2.236382 6.17488,2.261944 z"
       id="path207"
       inkscape:connector-curvature="0"
       style="fill:#000000;fill-rule:evenodd;stroke:#000000;stroke-width:2;stroke-linecap:butt" />
    <path
       d="M 545.3614,198.08862 453.65843,406.89615"
       id="path219"
       inkscape:connector-curvature="0"
       style="fill:#000000;fill-opacity:0;fill-rule:nonzero" />
    <path
       d="m 545.3614,198.08862 -86.87772,197.8204"
       id="path221"
       inkscape:connector-curvature="0"
       style="stroke:#000000;stroke-width:2;stroke-linecap:butt;stroke-linejoin:round" />
    <path
       d="m 455.45905,394.5807 -0.62494,9.63846 6.67423,-6.98175 z"
       id="path223"
       inkscape:connector-curvature="0"
       style="fill:#000000;fill-rule:evenodd;stroke:#000000;stroke-width:2;stroke-linecap:butt" />
    <path
       d="m 501.2839,188.25 0,0 c 0,-2.26427 1.83557,-4.09982 4.09979,-4.09982 l 97.53265,0 c 1.08734,0 2.13019,0.43194 2.89905,1.2008 0.76886,0.76888 1.20081,1.81168 1.20081,2.89902 l 0,16.39879 c 0,2.26426 -1.83558,4.09982 -4.09986,4.09982 l -97.53265,0 c -2.26422,0 -4.09979,-1.83556 -4.09979,-4.09982 z"
       id="path225"
       inkscape:connector-curvature="0"
       style="fill:#ffffff;fill-rule:nonzero" />
    <path
       d="m 501.2839,188.25 0,0 c 0,-2.26427 1.83557,-4.09982 4.09979,-4.09982 l 97.53265,0 c 1.08734,0 2.13019,0.43194 2.89905,1.2008 0.76886,0.76888 1.20081,1.81168 1.20081,2.89902 l 0,16.39879 c 0,2.26426 -1.83558,4.09982 -4.09986,4.09982 l -97.53265,0 c -2.26422,0 -4.09979,-1.83556 -4.09979,-4.09982 z"
       id="path227"
       inkscape:connector-curvature="0"
       style="stroke:#000000;stroke-width:2;stroke-linecap:butt;stroke-linejoin:round" />
    <path
       d="m 494.6775,177.66788 0,0 c 0,-2.26427 1.83557,-4.09982 4.09979,-4.09982 l 97.53265,0 c 1.08734,0 2.13019,0.43194 2.89905,1.2008 0.76886,0.76888 1.20081,1.81168 1.20081,2.89902 l 0,16.39879 c 0,2.26426 -1.83558,4.09982 -4.09986,4.09982 l -97.53265,0 c -2.26422,0 -4.09979,-1.83556 -4.09979,-4.09982 z"
       id="path229"
       inkscape:connector-curvature="0"
       style="fill:#ffffff;fill-rule:nonzero" />
    <path
       d="m 494.6775,177.66788 0,0 c 0,-2.26427 1.83557,-4.09982 4.09979,-4.09982 l 97.53265,0 c 1.08734,0 2.13019,0.43194 2.89905,1.2008 0.76886,0.76888 1.20081,1.81168 1.20081,2.89902 l 0,16.39879 c 0,2.26426 -1.83558,4.09982 -4.09986,4.09982 l -97.53265,0 c -2.26422,0 -4.09979,-1.83556 -4.09979,-4.09982 z"
       id="path231"
       inkscape:connector-curvature="0"
       style="stroke:#000000;stroke-width:2;stroke-linecap:butt;stroke-linejoin:round" />
    <path
       d="M 681.54364,202.16649 453.65842,406.89615"
       id="path235"
       inkscape:connector-curvature="0"
       style="fill:#000000;fill-opacity:0;fill-rule:nonzero" />
    <path
       d="m 460.37738,396.41913 -4.54398,8.52304 8.95942,-3.60821 z"
       id="path239"
       inkscape:connector-curvature="0"
       style="fill:#000000;fill-rule:evenodd;stroke:#000000;stroke-width:2;stroke-linecap:butt" />
    <path
       d="M 681.54364,202.16649 273.78726,398.4758"
       id="path241"
       inkscape:connector-curvature="0"
       style="fill:#000000;fill-opacity:0;fill-rule:nonzero" />
    <path
       d="m 279.96298,395.50256 1.0509,-3.00217 -4.59222,4.70713 6.54352,-0.65406 z"
       id="path245"
       inkscape:connector-curvature="0"
       style="fill:#000000;fill-rule:evenodd;stroke:#000000;stroke-width:2;stroke-linecap:butt" />
    <path
       d="M 381.703,62.615208 545.36139,173.49021"
       id="path247"
       inkscape:connector-curvature="0"
       style="fill:#000000;fill-opacity:0;fill-rule:nonzero" />
    <path
       d="m 387.37753,66.45959 152.3093,103.18624"
       id="path249"
       inkscape:connector-curvature="0"
       style="stroke:#000000;stroke-width:2;stroke-linecap:butt;stroke-linejoin:round" />
    <path
       d="m 387.37753,66.45959 3.1236,-0.600563 -6.37754,-1.603905 3.85453,5.328064 z"
       id="path251"
       inkscape:connector-curvature="0"
       style="fill:#000000;fill-rule:evenodd;stroke:#000000;stroke-width:2;stroke-linecap:butt" />
    <path
       d="m 539.6868,169.64581 -3.1236,0.60057 6.37757,1.60391 -3.85449,-5.32806 z"
       id="path253"
       inkscape:connector-curvature="0"
       style="fill:#000000;fill-rule:evenodd;stroke:#000000;stroke-width:2;stroke-linecap:butt" />
    <path
       d="M 381.703,62.615208 681.54364,177.56806"
       id="path261"
       inkscape:connector-curvature="0"
       style="fill:#000000;fill-opacity:0;fill-rule:nonzero" />
    <path
       d="m 388.10297,65.068825 2.90524,-1.294975 -6.57516,-0.111996 4.9649,4.312229 z"
       id="path265"
       inkscape:connector-curvature="0"
       style="fill:#000000;fill-rule:evenodd;stroke:#000000;stroke-width:2;stroke-linecap:butt" />
    <path
       d="m 541.1437,171.11444 -2.90527,1.29498 6.57519,0.11199 -4.9649,-4.31223 z"
       id="path267"
       inkscape:connector-curvature="0"
       style="fill:#000000;fill-rule:evenodd;stroke:#000000;stroke-width:2;stroke-linecap:butt" />
    <path
       d="m 394.02063,406.89615 119.27557,0 0,32.1575 -119.27557,0 z"
       id="path269"
       style="fill:#00ff00;fill-rule:nonzero;stroke:#000000;stroke-width:1.5;stroke-miterlimit:10;stroke-opacity:1;stroke-dasharray:none"
       inkscape:connector-curvature="0" />
    <path
       d="m 133.23814,308.15018 119.27559,0 0,29.66928 -119.27559,0 z"
       id="path275"
       inkscape:connector-curvature="0"
       style="fill:#00ff00;fill-rule:nonzero;stroke:#000000;stroke-width:1.5;stroke-miterlimit:10;stroke-opacity:1;stroke-dasharray:none" />
    <path
       d="m 7.512434,248.53375 119.275586,0 0,32.15749 -119.275586,0 z"
       id="path281"
       style="fill:#00ff00;fill-rule:nonzero;stroke:#000000;stroke-width:1.5;stroke-miterlimit:10;stroke-opacity:1;stroke-dasharray:none"
       inkscape:connector-curvature="0" />
    <path
       d="M 672.19904,271.49777 545.36139,198.08862"
       id="path303"
       inkscape:connector-curvature="0"
       style="fill:#000000;fill-opacity:0;fill-rule:nonzero" />
    <path
       d="M 676.69995,328.2951 453.65842,406.89614"
       id="path311"
       inkscape:connector-curvature="0"
       style="fill:#000000;fill-opacity:0;fill-rule:nonzero" />
    <path
       d="m 463.87823,399.79205 -7.46222,6.13232 9.65817,0.099 z"
       id="path317"
       inkscape:connector-curvature="0"
       style="fill:#000000;fill-rule:evenodd;stroke:#000000;stroke-width:2;stroke-linecap:butt" />
    <text
       sodipodi:linespacing="125%"
       id="text3145"
       y="434.06717"
       x="273.78305"
       style="font-size:16px;font-style:normal;font-weight:normal;text-align:center;line-height:125%;letter-spacing:0px;word-spacing:0px;text-anchor:middle;fill:#000000;fill-opacity:1;stroke:none;font-family:PT Sans"
       xml:space="preserve"><tspan
         style="font-size:12px"
         y="434.06717"
         x="273.78305"
         id="tspan3147"
         sodipodi:role="line">MySQL</tspan><tspan
         style="font-size:12px"
         y="449.06717"
         x="273.78305"
         sodipodi:role="line"
         id="tspan3137">(Active/Passive)</tspan></text>
    <path
       d="m 325.26425,408.87704 0,0 c 0,5.45053 -23.04703,9.86905 -51.47699,9.86905 -28.42996,0 -51.47699,-4.41852 -51.47699,-9.86905"
       id="path47"
       inkscape:connector-curvature="0"
       style="stroke:#000000;stroke-width:2;stroke-linecap:butt;stroke-linejoin:round" />
    <path
       d="m 236.74992,403.35229 76.08624,0 0,17.05502 -76.08624,0 z"
       id="path297-7"
       style="fill:#ffff00;fill-rule:nonzero;stroke:#000000;stroke-width:1.5;stroke-linejoin:round;stroke-miterlimit:10;stroke-opacity:1;stroke-dasharray:none"
       inkscape:connector-curvature="0" />
    <text
       xml:space="preserve"
       style="font-size:16px;font-style:normal;font-weight:normal;text-align:center;line-height:125%;letter-spacing:0px;word-spacing:0px;text-anchor:middle;fill:#000000;fill-opacity:1;stroke:none;font-family:PT Sans"
       x="274.32306"
       y="415.37982"
       id="text3300-0"
       sodipodi:linespacing="125%"><tspan
         sodipodi:role="line"
         id="tspan3302-9"
         x="274.32306"
         y="415.37982"
         style="font-size:12px">pacemaker</tspan></text>
    <text
       sodipodi:linespacing="125%"
       id="text3149"
       y="458.28909"
       x="453.66028"
       style="font-size:16px;font-style:normal;font-weight:normal;text-align:center;line-height:125%;letter-spacing:0px;word-spacing:0px;text-anchor:middle;fill:#000000;fill-opacity:1;stroke:none;font-family:PT Sans"
       xml:space="preserve"><tspan
         style="font-size:12px"
         y="458.28909"
         x="453.66028"
         id="tspan3151"
         sodipodi:role="line">QPID</tspan></text>
    <text
       xml:space="preserve"
       style="font-size:16px;font-style:normal;font-weight:normal;text-align:center;line-height:125%;letter-spacing:0px;word-spacing:0px;text-anchor:middle;fill:#000000;fill-opacity:1;stroke:none;font-family:PT Sans"
       x="453.0881"
       y="427.01788"
       id="text3124-1"
       sodipodi:linespacing="125%"><tspan
         sodipodi:role="line"
         id="tspan3126-7"
         x="453.0881"
         y="427.01788">HAProxy</tspan></text>
    <text
       xml:space="preserve"
       style="font-size:16px;font-style:normal;font-weight:normal;text-align:center;line-height:125%;letter-spacing:0px;word-spacing:0px;text-anchor:middle;fill:#000000;fill-opacity:1;stroke:none;font-family:PT Sans"
       x="192.30562"
       y="327.0278"
       id="text3124-4"
       sodipodi:linespacing="125%"><tspan
         sodipodi:role="line"
         id="tspan3126-0"
         x="192.30562"
         y="327.0278">HAProxy</tspan></text>
    <text
       xml:space="preserve"
       style="font-size:16px;font-style:normal;font-weight:normal;text-align:center;line-height:125%;letter-spacing:0px;word-spacing:0px;text-anchor:middle;fill:#000000;fill-opacity:1;stroke:none;font-family:PT Sans"
       x="193.1702"
       y="350.24796"
       id="text3158"
       sodipodi:linespacing="125%"><tspan
         sodipodi:role="line"
         id="tspan3160"
         x="193.1702"
         y="350.24796"
         style="font-size:12px">glance-registry (HA)</tspan></text>
    <text
       xml:space="preserve"
       style="font-size:16px;font-style:normal;font-weight:normal;text-align:center;line-height:125%;letter-spacing:0px;word-spacing:0px;text-anchor:middle;fill:#000000;fill-opacity:1;stroke:none;font-family:PT Sans"
       x="66.579918"
       y="268.65546"
       id="text3124-4-9"
       sodipodi:linespacing="125%"><tspan
         sodipodi:role="line"
         id="tspan3126-0-4"
         x="66.579918"
         y="268.65546">HAProxy</tspan></text>
    <text
       xml:space="preserve"
       style="font-size:16px;font-style:normal;font-weight:normal;text-align:center;line-height:125%;letter-spacing:0px;word-spacing:0px;text-anchor:middle;fill:#000000;fill-opacity:1;stroke:none;font-family:PT Sans"
       x="66.854721"
       y="310.25787"
       id="text3183"
       sodipodi:linespacing="125%"><tspan
         sodipodi:role="line"
         id="tspan3185"
         x="66.854721"
         y="310.25787">Swift</tspan></text>
    <text
       xml:space="preserve"
       style="font-size:16px;font-style:normal;font-weight:normal;text-align:center;line-height:125%;letter-spacing:0px;word-spacing:0px;text-anchor:middle;fill:#000000;fill-opacity:1;stroke:none;font-family:PT Sans"
       x="105.84611"
       y="188.74144"
       id="text3187"
       sodipodi:linespacing="125%"><tspan
         sodipodi:role="line"
         id="tspan3189"
         x="105.84611"
         y="188.74144"
         style="font-size:12px">glance-api (HA)</tspan></text>
    <text
       xml:space="preserve"
       style="font-size:16px;font-style:normal;font-weight:normal;text-align:center;line-height:125%;letter-spacing:0px;word-spacing:0px;text-anchor:middle;fill:#000000;fill-opacity:1;stroke:none;font-family:PT Sans"
       x="381.13269"
       y="42.894394"
       id="text3124-4-9-8"
       sodipodi:linespacing="125%"><tspan
         sodipodi:role="line"
         id="tspan3126-0-4-8"
         x="381.13269"
         y="42.894394">HAProxy</tspan></text>
    <text
       xml:space="preserve"
       style="font-size:12px;font-style:normal;font-weight:normal;text-align:center;line-height:125%;letter-spacing:0px;word-spacing:0px;text-anchor:middle;fill:#000000;fill-opacity:1;stroke:none;font-family:PT Sans"
       x="594.89093"
       y="337.77151"
       id="text3212"
       sodipodi:linespacing="125%"><tspan
         sodipodi:role="line"
         id="tspan3214"
         x="594.89093"
         y="337.77151">nova-scheduler</tspan></text>
    <text
       xml:space="preserve"
       style="font-size:12px;font-style:normal;font-weight:normal;text-align:center;line-height:125%;letter-spacing:0px;word-spacing:0px;text-anchor:middle;fill:#000000;fill-opacity:1;stroke:none;font-family:PT Sans"
       x="547.60535"
       y="188.81931"
       id="text3216"
       sodipodi:linespacing="125%"><tspan
         sodipodi:role="line"
         id="tspan3218"
         x="547.60535"
         y="188.81931">cinder-api (HA)</tspan></text>
    <text
       xml:space="preserve"
       style="font-size:12px;font-style:normal;font-weight:normal;text-align:center;line-height:125%;letter-spacing:0px;word-spacing:0px;text-anchor:middle;fill:#000000;fill-opacity:1;stroke:none;font-family:PT Sans"
       x="400.03336"
       y="188.89488"
       id="text3220"
       sodipodi:linespacing="125%"><tspan
         sodipodi:role="line"
         id="tspan3222"
         x="400.03336"
         y="188.89488">keystone-api (HA)</tspan></text>
    <text
       xml:space="preserve"
       style="font-size:12px;font-style:normal;font-weight:normal;text-align:center;line-height:125%;letter-spacing:0px;word-spacing:0px;text-anchor:middle;fill:#000000;fill-opacity:1;stroke:none;font-family:PT Sans"
       x="252.6144"
       y="188.38541"
       id="text3224"
       sodipodi:linespacing="125%"><tspan
         sodipodi:role="line"
         id="tspan3226"
         x="252.6144"
         y="188.38541">nova-api (HA)</tspan></text>
    <text
       xml:space="preserve"
       style="font-size:12px;font-style:normal;font-weight:normal;text-align:center;line-height:125%;letter-spacing:0px;word-spacing:0px;text-anchor:middle;fill:#000000;fill-opacity:1;stroke:none;font-family:PT Sans"
       x="72.901588"
       y="41.56638"
       id="text3228"
       sodipodi:linespacing="125%"><tspan
         sodipodi:role="line"
         id="tspan3230"
         x="72.901588"
         y="41.56638">Horizon (HA)</tspan></text>
  </g>
</svg>
