<?xml version="1.0" encoding="UTF-8" standalone="no"?>
<svg
   xmlns:dc="http://purl.org/dc/elements/1.1/"
   xmlns:cc="http://creativecommons.org/ns#"
   xmlns:rdf="http://www.w3.org/1999/02/22-rdf-syntax-ns#"
   xmlns:svg="http://www.w3.org/2000/svg"
   xmlns="http://www.w3.org/2000/svg"
   xmlns:sodipodi="http://sodipodi.sourceforge.net/DTD/sodipodi-0.dtd"
   xmlns:inkscape="http://www.inkscape.org/namespaces/inkscape"
   version="1.1"
   viewBox="0.0 0.0 677.0 617.0"
   fill="none"
   stroke="none"
   stroke-linecap="square"
   stroke-miterlimit="10"
   id="svg2"
   inkscape:version="0.48.4 r9939"
   width="100%"
   height="100%"
   sodipodi:docname="010-how-it-works.svg">
  <metadata
     id="metadata189">
    <rdf:RDF>
      <cc:Work
         rdf:about="">
        <dc:format>image/svg+xml</dc:format>
        <dc:type
           rdf:resource="http://purl.org/dc/dcmitype/StillImage" />
        <dc:title></dc:title>
      </cc:Work>
    </rdf:RDF>
  </metadata>
  <defs
     id="defs187" />
  <sodipodi:namedview
     pagecolor="#ffffff"
     bordercolor="#666666"
     borderopacity="1"
     objecttolerance="10"
     gridtolerance="10"
     guidetolerance="10"
     inkscape:pageopacity="0"
     inkscape:pageshadow="2"
     inkscape:window-width="1920"
     inkscape:window-height="1061"
     id="namedview185"
     showgrid="false"
     inkscape:zoom="1.5299838"
     inkscape:cx="243.15373"
     inkscape:cy="357.96391"
     inkscape:window-x="1362"
     inkscape:window-y="-4"
     inkscape:window-maximized="1"
     inkscape:current-layer="g7" />
  <clipPath
     id="p.0">
    <path
       d="m0 0l677.0 0l0 617.0l-677.0 0l0 -617.0z"
       clip-rule="nonzero"
       id="path5" />
  </clipPath>
  <g
     clip-path="url(#p.0)"
     id="g7">
    <path
       d="m 98.056803,84.254919 511.842497,0 0,274.771671 -511.842497,0 z"
       id="path17"
       inkscape:connector-curvature="0"
       style="fill:#f3f3f3;fill-rule:nonzero" />
    <path
       d="m 375.26603,165.808 0,0 c 0,-8.38921 11.99571,-15.19001 26.79313,-15.19001 l 125.13991,0 c 7.10597,0 13.92091,1.60037 18.94561,4.44905 5.0247,2.84867 7.8475,6.71232 7.8475,10.74096 l 0,60.75824 c 0,8.38922 -11.99565,15.19002 -26.79311,15.19002 l -125.13991,0 c -14.79742,0 -26.79313,-6.8008 -26.79313,-15.19002 z"
       id="path35"
       inkscape:connector-curvature="0"
       style="fill:#f3f3f3;fill-rule:nonzero" />
    <path
       fill="#000000"
       fill-opacity="0.0"
       d="m0 0l677.81366 0l0 617.3438l-677.81366 0z"
       fill-rule="nonzero"
       id="path9" />
    <path
       d="m 401.31448,205.04533 0,0 c 0,-2.20049 1.78384,-3.98433 3.98431,-3.98433 l 117.44864,0 c 1.05677,0 2.07019,0.41977 2.81739,1.16698 0.74719,0.74721 1.16699,1.76063 1.16699,2.81735 l 0,15.93684 c 0,2.20049 -1.78388,3.98435 -3.98438,3.98435 l -117.44864,0 0,0 c -2.20047,0 -3.98431,-1.78386 -3.98431,-3.98435 z"
       id="path41"
       inkscape:connector-curvature="0"
       style="fill:#d9ead3;fill-rule:nonzero" />
    <path
       fill="#f3f3f3"
       d="m149.68367 395.72647l0 0c0 -3.3050842 2.679306 -5.984375 5.984375 -5.984375l384.40924 0c1.5871582 0 3.109253 0.63049316 4.2315674 1.7527771c1.1223145 1.1222839 1.7528076 2.6444397 1.7528076 4.231598l0 23.936768c0 3.3050537 -2.6793213 5.9843445 -5.984375 5.9843445l-384.40924 0c-3.305069 0 -5.984375 -2.6792908 -5.984375 -5.9843445z"
       fill-rule="nonzero"
       id="path11" />
    <path
       d="m 401.31448,205.04533 0,0 c 0,-2.20049 1.78384,-3.98433 3.98431,-3.98433 l 117.44864,0 c 1.05677,0 2.07019,0.41977 2.81739,1.16698 0.74719,0.74721 1.16699,1.76063 1.16699,2.81735 l 0,15.93684 c 0,2.20049 -1.78388,3.98435 -3.98438,3.98435 l -117.44864,0 0,0 c -2.20047,0 -3.98431,-1.78386 -3.98431,-3.98435 z"
       id="path43"
       inkscape:connector-curvature="0"
       style="stroke:#000000;stroke-width:2;stroke-linecap:butt;stroke-linejoin:round" />
    <path
       stroke="#000000"
       stroke-width="2.0"
       stroke-linejoin="round"
       stroke-linecap="butt"
       stroke-dasharray="8.0,6.0"
       d="m149.68367 395.72647l0 0c0 -3.3050842 2.679306 -5.984375 5.984375 -5.984375l384.40924 0c1.5871582 0 3.109253 0.63049316 4.2315674 1.7527771c1.1223145 1.1222839 1.7528076 2.6444397 1.7528076 4.231598l0 23.936768c0 3.3050537 -2.6793213 5.9843445 -5.984375 5.9843445l-384.40924 0c-3.305069 0 -5.984375 -2.6792908 -5.984375 -5.9843445z"
       fill-rule="nonzero"
       id="path13" />
    <path
       stroke="#000000"
       stroke-width="2.0"
       stroke-linejoin="round"
       stroke-linecap="butt"
       d="m96.7496 84.347084l511.8425 0l0 274.77167l-511.8425 0z"
       fill-rule="nonzero"
       id="path19" />
    <path
       fill="#f3f3f3"
       d="m15.999952 496.19083l0 0c0 -12.394043 10.047354 -22.441406 22.441393 -22.441406l133.35344 0c5.951828 0 11.659882 2.3643494 15.868469 6.572937c4.2085724 4.2085876 6.5729218 9.916626 6.5729218 15.868469l0 89.76285c0 12.394043 -10.047348 22.441406 -22.441391 22.441406l-133.35344 0l0 0c-12.394039 0 -22.441393 -10.047363 -22.441393 -22.441406z"
       fill-rule="nonzero"
       id="path47" />
    <path
       stroke="#000000"
       stroke-width="2.0"
       stroke-linejoin="round"
       stroke-linecap="butt"
       d="m15.999952 496.19083l0 0c0 -12.394043 10.047354 -22.441406 22.441393 -22.441406l133.35344 0c5.951828 0 11.659882 2.3643494 15.868469 6.572937c4.2085724 4.2085876 6.5729218 9.916626 6.5729218 15.868469l0 89.76285c0 12.394043 -10.047348 22.441406 -22.441391 22.441406l-133.35344 0l0 0c-12.394039 0 -22.441393 -10.047363 -22.441393 -22.441406z"
       fill-rule="nonzero"
       id="path49" />
    <path
       fill="#f3f3f3"
       d="m3.8131375 484.00397l0 0c0 -12.394043 10.047354 -22.441376 22.441395 -22.441376l133.35344 0c5.951828 0 11.659882 2.3643494 15.868469 6.572937c4.2085724 4.208557 6.5729218 9.916626 6.5729218 15.868439l0 89.76288c0 12.394043 -10.047348 22.441406 -22.441391 22.441406l-133.35344 0l0 0c-12.39404 0 -22.441395 -10.047363 -22.441395 -22.441406z"
       fill-rule="nonzero"
       id="path51" />
    <path
       d="M 242.35639,319.42923 99.848079,495.29486"
       id="path127"
       inkscape:connector-curvature="0"
       style="stroke:#ff9900;stroke-width:1.93769789;stroke-linecap:butt;stroke-linejoin:round" />
    <path
       stroke="#000000"
       stroke-width="2.0"
       stroke-linejoin="round"
       stroke-linecap="butt"
       d="m3.8131375 484.00397l0 0c0 -12.394043 10.047354 -22.441376 22.441395 -22.441376l133.35344 0c5.951828 0 11.659882 2.3643494 15.868469 6.572937c4.2085724 4.208557 6.5729218 9.916626 6.5729218 15.868439l0 89.76288c0 12.394043 -10.047348 22.441406 -22.441391 22.441406l-133.35344 0l0 0c-12.39404 0 -22.441395 -10.047363 -22.441395 -22.441406z"
       fill-rule="nonzero"
       id="path53" />
    <path
       fill="#d9ead3"
       d="m29.722115 508.6566l0 0c0 -2.2005005 1.7838478 -3.9843445 3.984333 -3.9843445l117.448654 0c1.0567169 0 2.0701447 0.4197693 2.8173523 1.1669922c0.74720764 0.7471924 1.1669769 1.7606201 1.1669769 2.8173523l0 15.936859c0 2.2004395 -1.783844 3.984314 -3.9843292 3.984314l-117.448654 0l0 0c-2.2004852 0 -3.984333 -1.7838745 -3.984333 -3.984314z"
       fill-rule="nonzero"
       id="path63" />
    <path
       d="M 463.6487,312.15832 103.88288,540.43396"
       id="path145"
       inkscape:connector-curvature="0"
       style="stroke:#4a86e8;stroke-width:2;stroke-linecap:butt;stroke-linejoin:round"
       sodipodi:nodetypes="cc" />
    <path
       stroke="#000000"
       stroke-width="2.0"
       stroke-linejoin="round"
       stroke-linecap="butt"
       d="m29.722115 508.6566l0 0c0 -2.2005005 1.7838478 -3.9843445 3.984333 -3.9843445l117.448654 0c1.0567169 0 2.0701447 0.4197693 2.8173523 1.1669922c0.74720764 0.7471924 1.1669769 1.7606201 1.1669769 2.8173523l0 15.936859c0 2.2004395 -1.783844 3.984314 -3.9843292 3.984314l-117.448654 0l0 0c-2.2004852 0 -3.984333 -1.7838745 -3.984333 -3.984314z"
       fill-rule="nonzero"
       id="path65" />
    <path
       fill="#d9ead3"
       d="m31.046347 552.46094l0 0c0 -3.0876465 2.503027 -5.590637 5.590662 -5.590637l114.23599 0c1.4827423 0 2.9047546 0.58898926 3.9532013 1.6374512c1.0484619 1.0484619 1.6374664 2.470459 1.6374664 3.953186l0 22.362c0 3.0876465 -2.5030212 5.590637 -5.5906677 5.590637l-114.23599 0c-3.087635 0 -5.590662 -2.5029907 -5.590662 -5.590637z"
       fill-rule="nonzero"
       id="path69" />
    <path
       stroke="#000000"
       stroke-width="2.0"
       stroke-linejoin="round"
       stroke-linecap="butt"
       d="m31.046347 552.46094l0 0c0 -3.0876465 2.503027 -5.590637 5.590662 -5.590637l114.23599 0c1.4827423 0 2.9047546 0.58898926 3.9532013 1.6374512c1.0484619 1.0484619 1.6374664 2.470459 1.6374664 3.953186l0 22.362c0 3.0876465 -2.5030212 5.590637 -5.5906677 5.590637l-114.23599 0c-3.087635 0 -5.590662 -2.5029907 -5.590662 -5.590637z"
       fill-rule="nonzero"
       id="path71" />
    <path
       fill="#f3f3f3"
       d="m255.17819 496.19083l0 0c0 -12.394043 10.047363 -22.441406 22.441406 -22.441406l133.35342 0c5.9518433 0 11.659882 2.3643494 15.868469 6.572937c4.2085876 4.2085876 6.572937 9.916626 6.572937 15.868469l0 89.76285c0 12.394043 -10.047363 22.441406 -22.441406 22.441406l-133.35342 0l0 0c-12.394043 0 -22.441406 -10.047363 -22.441406 -22.441406z"
       fill-rule="nonzero"
       id="path77" />
    <path
       stroke="#000000"
       stroke-width="2.0"
       stroke-linejoin="round"
       stroke-linecap="butt"
       d="m255.17819 496.19083l0 0c0 -12.394043 10.047363 -22.441406 22.441406 -22.441406l133.35342 0c5.9518433 0 11.659882 2.3643494 15.868469 6.572937c4.2085876 4.2085876 6.572937 9.916626 6.572937 15.868469l0 89.76285c0 12.394043 -10.047363 22.441406 -22.441406 22.441406l-133.35342 0l0 0c-12.394043 0 -22.441406 -10.047363 -22.441406 -22.441406z"
       fill-rule="nonzero"
       id="path79" />
    <path
       fill="#f3f3f3"
       d="m242.99136 484.00397l0 0c0 -12.394043 10.047363 -22.441376 22.441406 -22.441376l133.35342 0c5.9518433 0 11.659882 2.3643494 15.868469 6.572937c4.2085876 4.208557 6.572937 9.916626 6.572937 15.868439l0 89.76288c0 12.394043 -10.047363 22.441406 -22.441406 22.441406l-133.35342 0l0 0c-12.394043 0 -22.441406 -10.047363 -22.441406 -22.441406z"
       fill-rule="nonzero"
       id="path81" />
    <path
       d="m 242.9736,318.47473 83.74139,175.24844"
       id="path133"
       inkscape:connector-curvature="0"
       style="stroke:#ff9900;stroke-width:1.98949862;stroke-linecap:butt;stroke-linejoin:round" />
    <path
       stroke="#000000"
       stroke-width="2.0"
       stroke-linejoin="round"
       stroke-linecap="butt"
       d="m242.99136 484.00397l0 0c0 -12.394043 10.047363 -22.441376 22.441406 -22.441376l133.35342 0c5.9518433 0 11.659882 2.3643494 15.868469 6.572937c4.2085876 4.208557 6.572937 9.916626 6.572937 15.868439l0 89.76288c0 12.394043 -10.047363 22.441406 -22.441406 22.441406l-133.35342 0l0 0c-12.394043 0 -22.441406 -10.047363 -22.441406 -22.441406z"
       fill-rule="nonzero"
       id="path83" />
    <path
       fill="#d9ead3"
       d="m268.90033 508.6566l0 0c0 -2.2005005 1.7838745 -3.9843445 3.9843445 -3.9843445l117.44867 0c1.0567017 0 2.0701294 0.4197693 2.8173523 1.1669922c0.7471924 0.7471924 1.1669617 1.7606201 1.1669617 2.8173523l0 15.936859c0 2.2004395 -1.783844 3.984314 -3.984314 3.984314l-117.44867 0l0 0c-2.20047 0 -3.9843445 -1.7838745 -3.9843445 -3.984314z"
       fill-rule="nonzero"
       id="path87" />
    <path
       stroke="#000000"
       stroke-width="2.0"
       stroke-linejoin="round"
       stroke-linecap="butt"
       d="m268.90033 508.6566l0 0c0 -2.2005005 1.7838745 -3.9843445 3.9843445 -3.9843445l117.44867 0c1.0567017 0 2.0701294 0.4197693 2.8173523 1.1669922c0.7471924 0.7471924 1.1669617 1.7606201 1.1669617 2.8173523l0 15.936859c0 2.2004395 -1.783844 3.984314 -3.984314 3.984314l-117.44867 0l0 0c-2.20047 0 -3.9843445 -1.7838745 -3.9843445 -3.984314z"
       fill-rule="nonzero"
       id="path89" />
    <path
       fill="#d9ead3"
       d="m270.22458 551.2552l0 0c0 -3.0876465 2.5030518 -5.590637 5.5906677 -5.590637l114.23602 0c1.482727 0 2.9047241 0.58898926 3.953186 1.6374512c1.0484619 1.0484619 1.6374512 2.470459 1.6374512 3.953186l0 22.362c0 3.0876465 -2.5030212 5.590637 -5.590637 5.590637l-114.23602 0c-3.087616 0 -5.5906677 -2.5029907 -5.5906677 -5.590637z"
       fill-rule="nonzero"
       id="path93" />
    <path
       stroke="#000000"
       stroke-width="2.0"
       stroke-linejoin="round"
       stroke-linecap="butt"
       d="m270.22458 551.2552l0 0c0 -3.0876465 2.5030518 -5.590637 5.5906677 -5.590637l114.23602 0c1.482727 0 2.9047241 0.58898926 3.953186 1.6374512c1.0484619 1.0484619 1.6374512 2.470459 1.6374512 3.953186l0 22.362c0 3.0876465 -2.5030212 5.590637 -5.590637 5.590637l-114.23602 0c-3.087616 0 -5.5906677 -2.5029907 -5.5906677 -5.590637z"
       fill-rule="nonzero"
       id="path95" />
    <path
       fill="#f3f3f3"
       d="m491.2857 496.19083l0 0c0 -12.394043 10.047363 -22.441406 22.441406 -22.441406l133.35345 0c5.9518433 0 11.659851 2.3643494 15.868469 6.572937c4.208557 4.2085876 6.572937 9.916626 6.572937 15.868469l0 89.76285c0 12.394043 -10.047363 22.441406 -22.441406 22.441406l-133.35345 0l0 0c-12.394043 0 -22.441406 -10.047363 -22.441406 -22.441406z"
       fill-rule="nonzero"
       id="path101" />
    <path
       stroke="#000000"
       stroke-width="2.0"
       stroke-linejoin="round"
       stroke-linecap="butt"
       d="m491.2857 496.19083l0 0c0 -12.394043 10.047363 -22.441406 22.441406 -22.441406l133.35345 0c5.9518433 0 11.659851 2.3643494 15.868469 6.572937c4.208557 4.2085876 6.572937 9.916626 6.572937 15.868469l0 89.76285c0 12.394043 -10.047363 22.441406 -22.441406 22.441406l-133.35345 0l0 0c-12.394043 0 -22.441406 -10.047363 -22.441406 -22.441406z"
       fill-rule="nonzero"
       id="path103" />
    <path
       fill="#f3f3f3"
       d="m479.0989 484.00397l0 0c0 -12.394043 10.047363 -22.441376 22.441406 -22.441376l133.35342 0c5.9518433 0 11.659912 2.3643494 15.868469 6.572937c4.208557 4.208557 6.572937 9.916626 6.572937 15.868439l0 89.76288c0 12.394043 -10.047363 22.441406 -22.441406 22.441406l-133.35342 0l0 0c-12.394043 0 -22.441406 -10.047363 -22.441406 -22.441406z"
       fill-rule="nonzero"
       id="path105" />
    <path
       d="M 243.94291,318.46364 557.43719,498.52437"
       id="path139"
       inkscape:connector-curvature="0"
       style="stroke:#ff9900;stroke-width:1.96732235;stroke-linecap:butt;stroke-linejoin:round" />
    <path
       stroke="#000000"
       stroke-width="2.0"
       stroke-linejoin="round"
       stroke-linecap="butt"
       d="m479.0989 484.00397l0 0c0 -12.394043 10.047363 -22.441376 22.441406 -22.441376l133.35342 0c5.9518433 0 11.659912 2.3643494 15.868469 6.572937c4.208557 4.208557 6.572937 9.916626 6.572937 15.868439l0 89.76288c0 12.394043 -10.047363 22.441406 -22.441406 22.441406l-133.35342 0l0 0c-12.394043 0 -22.441406 -10.047363 -22.441406 -22.441406z"
       fill-rule="nonzero"
       id="path107" />
    <path
       fill="#d9ead3"
       d="m505.0079 508.6566l0 0c0 -2.2005005 1.783844 -3.9843445 3.9843445 -3.9843445l117.44867 0c1.0567017 0 2.0701294 0.4197693 2.8173218 1.1669922c0.7472534 0.7471924 1.1669922 1.7606201 1.1669922 2.8173523l0 15.936859c0 2.2004395 -1.7838135 3.984314 -3.984314 3.984314l-117.44867 0l0 0c-2.2005005 0 -3.9843445 -1.7838745 -3.9843445 -3.984314z"
       fill-rule="nonzero"
       id="path111" />
    <path
       stroke="#000000"
       stroke-width="2.0"
       stroke-linejoin="round"
       stroke-linecap="butt"
       d="m505.0079 508.6566l0 0c0 -2.2005005 1.783844 -3.9843445 3.9843445 -3.9843445l117.44867 0c1.0567017 0 2.0701294 0.4197693 2.8173218 1.1669922c0.7472534 0.7471924 1.1669922 1.7606201 1.1669922 2.8173523l0 15.936859c0 2.2004395 -1.7838135 3.984314 -3.984314 3.984314l-117.44867 0l0 0c-2.2005005 0 -3.9843445 -1.7838745 -3.9843445 -3.984314z"
       fill-rule="nonzero"
       id="path113" />
    <path
       fill="#d9ead3"
       d="m506.33215 551.2552l0 0c0 -3.0876465 2.5030212 -5.590637 5.5906677 -5.590637l114.23599 0c1.482727 0 2.9047241 0.58898926 3.953186 1.6374512c1.0484619 1.0484619 1.6374512 2.470459 1.6374512 3.953186l0 22.362c0 3.0876465 -2.5029907 5.590637 -5.590637 5.590637l-114.23599 0c-3.0876465 0 -5.5906677 -2.5029907 -5.5906677 -5.590637z"
       fill-rule="nonzero"
       id="path117" />
    <path
       stroke="#000000"
       stroke-width="2.0"
       stroke-linejoin="round"
       stroke-linecap="butt"
       d="m506.33215 551.2552l0 0c0 -3.0876465 2.5030212 -5.590637 5.5906677 -5.590637l114.23599 0c1.482727 0 2.9047241 0.58898926 3.953186 1.6374512c1.0484619 1.0484619 1.6374512 2.470459 1.6374512 3.953186l0 22.362c0 3.0876465 -2.5029907 5.590637 -5.590637 5.590637l-114.23599 0c-3.0876465 0 -5.5906677 -2.5029907 -5.5906677 -5.590637z"
       fill-rule="nonzero"
       id="path119" />
    <path
       fill="#000000"
       fill-opacity="0.0"
       d="m245.26643 311.61713l-152.83566 193.05511"
       fill-rule="nonzero"
       id="path125" />
    <path
       d="m 156.22123,183.96461 0,0 c 0,-16.76368 11.7863,-30.35331 26.32543,-30.35331 l 125.43956,0 c 6.98195,0 13.67792,3.19792 18.61488,8.89028 4.937,5.69236 7.71055,13.41283 7.71055,21.46303 l 0,121.40961 c 0,16.76365 -11.78631,30.35327 -26.32543,30.35327 l -125.43956,0 c -14.53913,0 -26.32543,-13.58962 -26.32543,-30.35327 z"
       id="path23"
       inkscape:connector-curvature="0"
       style="fill:#f3f3f3;fill-rule:nonzero" />
    <path
       fill="#ff9900"
       stroke="#ff9900"
       stroke-width="2.0"
       stroke-linecap="butt"
       d="m97.289154 493.21323l-3.0435638 9.166626l8.223694 -5.065674z"
       fill-rule="evenodd"
       id="path129" />
    <path
       fill="#000000"
       fill-opacity="0.0"
       d="m245.26643 311.61713l86.342575 193.05511"
       fill-rule="nonzero"
       id="path131" />
    <path
       d="m181.9518 204.39761l0 0c0 -2.2004852 1.783844 -3.9843292 3.9843292 -3.9843292l117.44867 0c1.0567017 0 2.0701294 0.4197693 2.8173218 1.1669769c0.7472229 0.74720764 1.1669922 1.7606506 1.1669922 2.8173523l0 15.936844c0 2.2004852 -1.783844 3.9843445 -3.984314 3.9843445l-117.44867 0l0 0c-2.2004852 0 -3.9843292 -1.7838593 -3.9843292 -3.9843445z"
       id="path29"
       fill-rule="nonzero"
       fill="#d9ead3" />
    <path
       fill="#ff9900"
       stroke="#ff9900"
       stroke-width="2.0"
       stroke-linecap="butt"
       d="m323.69415 495.06662l6.721161 6.9365845l-0.6899414 -9.634003z"
       fill-rule="evenodd"
       id="path135" />
    <path
       fill="#000000"
       fill-opacity="0.0"
       d="m245.26643 311.61713l322.45013 193.05511"
       fill-rule="nonzero"
       id="path137" />
    <path
       d="m181.9518 204.39761l0 0c0 -2.2004852 1.783844 -3.9843292 3.9843292 -3.9843292l117.44867 0c1.0567017 0 2.0701294 0.4197693 2.8173218 1.1669769c0.7472229 0.74720764 1.1669922 1.7606506 1.1669922 2.8173523l0 15.936844c0 2.2004852 -1.783844 3.9843445 -3.984314 3.9843445l-117.44867 0l0 0c-2.2004852 0 -3.9843292 -1.7838593 -3.9843292 -3.9843445z"
       id="path31"
       stroke-linejoin="round"
       stroke-linecap="butt"
       stroke-width="2.0"
       stroke="#000000"
       fill-rule="nonzero" />
    <path
       stroke="#4a86e8"
       stroke-width="2.0"
       stroke-linejoin="round"
       stroke-linecap="butt"
       d="m464.6291 311.17792l-125.81958 224.02386"
       fill-rule="evenodd"
       id="path151" />
    <path
       fill="#ff9900"
       stroke="#ff9900"
       stroke-width="2.0"
       stroke-linecap="butt"
       d="m555.7239 501.34235l9.484131 1.8279724l-6.090271 -7.496582z"
       fill-rule="evenodd"
       id="path141" />
    <path
       stroke="#4a86e8"
       stroke-width="2.0"
       stroke-linejoin="round"
       stroke-linecap="butt"
       d="m464.6291 311.17792l99.53046 223.52429"
       fill-rule="evenodd"
       id="path157" />
    <path
       fill="#000000"
       fill-opacity="0.0"
       d="m464.62912 311.17792l-370.8741 235.69238"
       fill-rule="nonzero"
       id="path143" />
    <path
       d="m183.06488 241.41388l0 0c0 -2.2004852 1.783844 -3.9843292 3.9843292 -3.9843292l117.448654 0c1.0567322 0 2.07016 0.4197693 2.8173523 1.1669769c0.7472229 0.74720764 1.1669922 1.7606354 1.1669922 2.8173523l0 15.936859c0 2.20047 -1.783844 3.984314 -3.9843445 3.984314l-117.448654 0l0 0c-2.2004852 0 -3.9843292 -1.783844 -3.9843292 -3.984314z"
       id="path57"
       fill-rule="nonzero"
       fill="#d9ead3" />
    <path
       d="m 375.26603,165.808 0,0 c 0,-8.38921 11.99571,-15.19001 26.79313,-15.19001 l 125.13991,0 c 7.10597,0 13.92091,1.60037 18.94561,4.44905 5.0247,2.84867 7.8475,6.71232 7.8475,10.74096 l 0,60.75824 c 0,8.38922 -11.99565,15.19002 -26.79311,15.19002 l -125.13991,0 c -14.79742,0 -26.79313,-6.8008 -26.79313,-15.19002 z"
       id="path37"
       inkscape:connector-curvature="0"
       style="stroke:#000000;stroke-width:3;stroke-linecap:butt;stroke-linejoin:round;stroke-miterlimit:10;stroke-dasharray:none" />
    <path
       fill="#4a86e8"
       stroke="#4a86e8"
       stroke-width="2.0"
       stroke-linecap="butt"
       d="m102.111046 537.6459l-5.8883743 7.656189l9.43206 -2.080017z"
       fill-rule="evenodd"
       id="path147" />
    <path
       fill="#000000"
       fill-opacity="0.0"
       d="m464.62912 311.17792l-131.69586 234.48663"
       fill-rule="nonzero"
       id="path149" />
    <path
       d="m183.06488 241.41388l0 0c0 -2.2004852 1.783844 -3.9843292 3.9843292 -3.9843292l117.448654 0c1.0567322 0 2.07016 0.4197693 2.8173523 1.1669769c0.7472229 0.74720764 1.1669922 1.7606354 1.1669922 2.8173523l0 15.936859c0 2.20047 -1.783844 3.984314 -3.9843445 3.984314l-117.448654 0l0 0c-2.2004852 0 -3.9843292 -1.783844 -3.9843292 -3.984314z"
       id="path59"
       stroke-linejoin="round"
       stroke-linecap="butt"
       stroke-width="2.0"
       stroke="#000000"
       fill-rule="nonzero" />
    <path
       fill="#4a86e8"
       stroke="#4a86e8"
       stroke-width="2.0"
       stroke-linecap="butt"
       d="m335.92923 533.5841l-1.564209 9.531189l7.324768 -6.2958374z"
       fill-rule="evenodd"
       id="path153" />
    <text
       xml:space="preserve"
       style="font-size:28px;font-style:normal;font-weight:normal;text-align:center;line-height:125%;letter-spacing:0px;word-spacing:0px;text-anchor:middle;fill:#000000;fill-opacity:1;stroke:none;font-family:Sans"
       x="464.71082"
       y="179.81885"
       id="text3180"
       sodipodi:linespacing="125%"><tspan
         sodipodi:role="line"
         id="tspan3182"
         x="464.71082"
         y="179.81885"
         style="font-size:22px">Orchestration</tspan></text>
    <path
       fill="#000000"
       fill-opacity="0.0"
       d="m464.62912 311.17792l104.41171 234.48663"
       fill-rule="nonzero"
       id="path155" />
    <text
       xml:space="preserve"
       style="font-size:20px;font-style:normal;font-weight:normal;text-align:center;line-height:125%;letter-spacing:0px;word-spacing:0px;text-anchor:middle;fill:#000000;fill-opacity:1;stroke:none;font-family:Sans"
       x="465.36441"
       y="220.22458"
       id="text3196"
       sodipodi:linespacing="125%"><tspan
         sodipodi:role="line"
         x="465.36441"
         y="220.22458"
         id="tspan3954">MCollective</tspan></text>
    <path
       fill="#4a86e8"
       stroke="#4a86e8"
       stroke-width="2.0"
       stroke-linecap="butt"
       d="m561.1417 536.04596l6.709778 6.947571l-0.67419434 -9.635132z"
       fill-rule="evenodd"
       id="path159" />
    <path
       fill="#fce5cd"
       d="m96.7496 11.117161l0 0c0 -3.305077 2.6792908 -5.984371 5.9843674 -5.984371l500.1887 0c1.5871582 0 3.109314 0.6304941 4.2316284 1.7527819c1.1222534 1.1222868 1.7527466 2.644436 1.7527466 4.2315893l0 23.936768c0 3.3050766 -2.6792603 5.984371 -5.984375 5.984371l-500.1887 0c-3.3050766 0 -5.9843674 -2.6792946 -5.9843674 -5.984371z"
       fill-rule="nonzero"
       id="path161" />
    <path
       fill="#000000"
       fill-opacity="0.0"
       d="m352.82834 41.0383l-107.561905 112.50009"
       fill-rule="nonzero"
       id="path167" />
    <path
       stroke="#ff9900"
       stroke-width="2.0"
       stroke-linejoin="round"
       stroke-linecap="butt"
       stroke-dasharray="8.0,6.0"
       d="m352.82834 41.0383l-99.26912 103.826584"
       fill-rule="evenodd"
       id="path169" />
    <path
       d="m 156.22123,183.96461 0,0 c 0,-16.76368 11.7863,-30.35331 26.32543,-30.35331 l 125.43956,0 c 6.98195,0 13.67792,3.19792 18.61488,8.89028 4.937,5.69236 7.71055,13.41283 7.71055,21.46303 l 0,121.40961 c 0,16.76365 -11.78631,30.35327 -26.32543,30.35327 l -125.43956,0 c -14.53913,0 -26.32543,-13.58962 -26.32543,-30.35327 z"
       id="path25"
       inkscape:connector-curvature="0"
       style="stroke:#000000;stroke-width:3;stroke-linecap:butt;stroke-linejoin:round;stroke-miterlimit:10;stroke-dasharray:none" />
    <path
       fill="#ff9900"
       stroke="#ff9900"
       stroke-width="2.0"
       stroke-linecap="butt"
       d="m251.17151 142.58199l-3.8845215 8.843109l8.659958 -4.277298z"
       fill-rule="evenodd"
       id="path171" />
    <path
       fill="#000000"
       fill-opacity="0.0"
       d="m352.82834 41.0383l111.80078 109.82466"
       fill-rule="nonzero"
       id="path173" />
    <path
       d="m352.82834 41.0383l103.24014 101.415375"
       id="path175"
       stroke-dasharray="8.0,6.0"
       stroke-linejoin="round"
       stroke-linecap="butt"
       stroke-width="2.0"
       stroke="#4a86e8"
       fill-rule="evenodd" />
    <path
       stroke="#000000"
       stroke-width="2.0"
       stroke-linejoin="round"
       stroke-linecap="butt"
       d="m96.7496 11.117161l0 0c0 -3.305077 2.6792908 -5.984371 5.9843674 -5.984371l500.1887 0c1.5871582 0 3.109314 0.6304941 4.2316284 1.7527819c1.1222534 1.1222868 1.7527466 2.644436 1.7527466 4.2315893l0 23.936768c0 3.3050766 -2.6792603 5.984371 -5.984375 5.984371l-500.1887 0c-3.3050766 0 -5.9843674 -2.6792946 -5.9843674 -5.984371z"
       fill-rule="nonzero"
       id="path163" />
    <path
       d="m453.7535 144.81032l8.789795 4.003723l-4.1598206 -8.716995z"
       id="path177"
       stroke-linecap="butt"
       stroke-width="2.0"
       stroke="#4a86e8"
       fill-rule="evenodd"
       fill="#4a86e8" />
    <path
       d="m181.9518 278.69995l0 0c0 -2.20047 1.783844 -3.984314 3.9843292 -3.984314l117.44867 0c1.0567017 0 2.0701294 0.4197693 2.8173218 1.1669922c0.7472229 0.7471924 1.1669922 1.7606201 1.1669922 2.8173218l0 15.936859c0 2.2005005 -1.783844 3.9843445 -3.984314 3.9843445l-117.44867 0l0 0c-2.2004852 0 -3.9843292 -1.783844 -3.9843292 -3.9843445z"
       id="path179"
       fill-rule="nonzero"
       fill="#d9ead3" />
    <path
       d="m181.9518 278.69995l0 0c0 -2.20047 1.783844 -3.984314 3.9843292 -3.984314l117.44867 0c1.0567017 0 2.0701294 0.4197693 2.8173218 1.1669922c0.7472229 0.7471924 1.1669922 1.7606201 1.1669922 2.8173218l0 15.936859c0 2.2005005 -1.783844 3.9843445 -3.984314 3.9843445l-117.44867 0l0 0c-2.2004852 0 -3.9843292 -1.783844 -3.9843292 -3.9843445z"
       id="path181"
       stroke-linejoin="round"
       stroke-linecap="butt"
       stroke-width="2.0"
       stroke="#000000"
       fill-rule="nonzero" />
    <text
       xml:space="preserve"
       style="font-size:20.40438461px;font-style:normal;font-weight:normal;text-align:center;line-height:125%;letter-spacing:0px;word-spacing:0px;text-anchor:middle;fill:#000000;fill-opacity:1;stroke:none;font-family:Sans"
       x="350.72931"
       y="27.653543"
       id="text3166"
       sodipodi:linespacing="125%"><tspan
         sodipodi:role="line"
         id="tspan3168"
         x="350.72931"
         y="27.653543">Configuration of OpenStack deployment (UI or CLI)</tspan></text>
    <text
       xml:space="preserve"
       style="font-size:28px;font-style:normal;font-weight:normal;text-align:center;line-height:125%;letter-spacing:0px;word-spacing:0px;text-anchor:middle;fill:#000000;fill-opacity:1;stroke:none;font-family:Sans"
       x="245.75423"
       y="182.43326"
       id="text3176"
       sodipodi:linespacing="125%"><tspan
         sodipodi:role="line"
         id="tspan3178"
         x="245.75423"
         y="182.43326"
         style="font-size:22px">Cobbler</tspan></text>
    <text
       xml:space="preserve"
       style="font-size:20px;font-style:normal;font-weight:normal;text-align:center;line-height:125%;letter-spacing:0px;word-spacing:0px;text-anchor:middle;fill:#000000;fill-opacity:1;stroke:none;font-family:Sans"
       x="241.79343"
       y="218.30296"
       id="text3184"
       sodipodi:linespacing="125%"><tspan
         sodipodi:role="line"
         id="tspan3186"
         x="241.79343"
         y="218.30296"
         style="font-size:18px">CentOS 6.4</tspan></text>
    <text
       xml:space="preserve"
       style="font-size:20px;font-style:normal;font-weight:normal;text-align:center;line-height:125%;letter-spacing:0px;word-spacing:0px;text-anchor:middle;fill:#000000;fill-opacity:1;stroke:none;font-family:Sans"
       x="243.75424"
       y="256.21185"
       id="text3188"
       sodipodi:linespacing="125%"><tspan
         sodipodi:role="line"
         id="tspan3190"
         x="243.75424"
         y="256.21185">RHEL 6.4</tspan></text>
    <text
       xml:space="preserve"
       style="font-size:20px;font-style:normal;font-weight:normal;text-align:center;line-height:125%;letter-spacing:0px;word-spacing:0px;text-anchor:middle;fill:#000000;fill-opacity:1;stroke:none;font-family:Sans"
       x="244.44704"
       y="292.77435"
       id="text3192"
       sodipodi:linespacing="125%"><tspan
         sodipodi:role="line"
         id="tspan3194"
         x="244.44704"
         y="292.77435">RHOS 3.0</tspan></text>
    <text
       xml:space="preserve"
       style="font-size:20px;font-style:normal;font-weight:normal;text-align:center;line-height:125%;letter-spacing:0px;word-spacing:0px;text-anchor:middle;fill:#000000;fill-opacity:1;stroke:none;font-family:Sans"
       x="355.83368"
       y="415.6123"
       id="text3200"
       sodipodi:linespacing="125%"><tspan
         sodipodi:role="line"
         id="tspan3202"
         x="355.83368"
         y="415.6123"
         style="font-size:24px">HA Architecture</tspan></text>
    <text
       xml:space="preserve"
       style="font-size:20px;font-style:normal;font-weight:normal;text-align:center;line-height:125%;letter-spacing:0px;word-spacing:0px;text-anchor:middle;fill:#000000;fill-opacity:1;stroke:none;font-family:Sans"
       x="92.758476"
       y="485.05084"
       id="text3204"
       sodipodi:linespacing="125%"><tspan
         sodipodi:role="line"
         id="tspan3206"
         x="92.758476"
         y="485.05084">Controller nodes</tspan></text>
    <text
       xml:space="preserve"
       style="font-size:20px;font-style:normal;font-weight:normal;text-align:center;line-height:125%;letter-spacing:0px;word-spacing:0px;text-anchor:middle;fill:#000000;fill-opacity:1;stroke:none;font-family:Sans"
       x="331.45444"
       y="485.05084"
       id="text3208"
       sodipodi:linespacing="125%"><tspan
         sodipodi:role="line"
         id="tspan3210"
         x="331.45444"
         y="485.05084">Compute nodes</tspan></text>
    <text
       xml:space="preserve"
       style="font-size:20px;font-style:normal;font-weight:normal;text-align:center;line-height:125%;letter-spacing:0px;word-spacing:0px;text-anchor:middle;fill:#000000;fill-opacity:1;stroke:none;font-family:Sans"
       x="570.71185"
       y="485.05084"
       id="text3212"
       sodipodi:linespacing="125%"><tspan
         sodipodi:role="line"
         id="tspan3214"
         x="570.71185"
         y="485.05084">Storage nodes</tspan></text>
    <text
       xml:space="preserve"
       style="font-size:16px;font-style:normal;font-weight:normal;text-align:center;line-height:125%;letter-spacing:0px;word-spacing:0px;text-anchor:middle;fill:#000000;fill-opacity:1;stroke:none;font-family:Sans"
       x="93.465042"
       y="522.80298"
       id="text3216"
       sodipodi:linespacing="125%"><tspan
         sodipodi:role="line"
         id="tspan3218"
         x="93.465042"
         y="522.80298"
         style="font-size:18px">OS</tspan></text>
    <text
       xml:space="preserve"
       style="font-size:14px;font-style:normal;font-weight:normal;text-align:center;line-height:125%;letter-spacing:0px;word-spacing:0px;text-anchor:middle;fill:#000000;fill-opacity:1;stroke:none;font-family:Sans"
       x="95.42585"
       y="558.79028"
       id="text3220"
       sodipodi:linespacing="125%"><tspan
         sodipodi:role="line"
         id="tspan3222"
         x="95.42585"
         y="558.79028"
         style="font-size:13px">OpenStack</tspan><tspan
         sodipodi:role="line"
         x="95.42585"
         y="575.04028"
         id="tspan3224"
         style="font-size:13px">Components</tspan></text>
    <text
       xml:space="preserve"
       style="font-size:16px;font-style:normal;font-weight:normal;text-align:center;line-height:125%;letter-spacing:0px;word-spacing:0px;text-anchor:middle;fill:#000000;fill-opacity:1;stroke:none;font-family:Sans"
       x="332.60464"
       y="521.91125"
       id="text3216-1"
       sodipodi:linespacing="125%"><tspan
         sodipodi:role="line"
         id="tspan3218-7"
         x="332.60464"
         y="521.91125"
         style="font-size:18px">OS</tspan></text>
    <text
       xml:space="preserve"
       style="font-size:14px;font-style:normal;font-weight:normal;text-align:center;line-height:125%;letter-spacing:0px;word-spacing:0px;text-anchor:middle;fill:#000000;fill-opacity:1;stroke:none;font-family:Sans"
       x="334.56546"
       y="557.89862"
       id="text3220-4"
       sodipodi:linespacing="125%"><tspan
         sodipodi:role="line"
         id="tspan3222-0"
         x="334.56546"
         y="557.89862"
         style="font-size:13px">OpenStack</tspan><tspan
         sodipodi:role="line"
         x="334.56546"
         y="574.14862"
         id="tspan3224-9"
         style="font-size:13px">Components</tspan></text>
    <text
       xml:space="preserve"
       style="font-size:16px;font-style:normal;font-weight:normal;text-align:center;line-height:125%;letter-spacing:0px;word-spacing:0px;text-anchor:middle;fill:#000000;fill-opacity:1;stroke:none;font-family:Sans"
       x="568.55487"
       y="521.91125"
       id="text3216-4"
       sodipodi:linespacing="125%"><tspan
         sodipodi:role="line"
         id="tspan3218-8"
         x="568.55487"
         y="521.91125"
         style="font-size:18px">OS</tspan></text>
    <text
       xml:space="preserve"
       style="font-size:14px;font-style:normal;font-weight:normal;text-align:center;line-height:125%;letter-spacing:0px;word-spacing:0px;text-anchor:middle;fill:#000000;fill-opacity:1;stroke:none;font-family:Sans"
       x="570.51569"
       y="557.89856"
       id="text3220-8"
       sodipodi:linespacing="125%"><tspan
         sodipodi:role="line"
         id="tspan3222-2"
         x="570.51569"
         y="557.89856"
         style="font-size:13px">OpenStack</tspan><tspan
         sodipodi:role="line"
         x="570.51569"
         y="574.14856"
         id="tspan3224-4"
         style="font-size:13px">Components</tspan></text>
    <text
       xml:space="preserve"
       style="font-size:40px;font-style:normal;font-weight:normal;text-align:center;line-height:125%;letter-spacing:0px;word-spacing:0px;text-anchor:middle;fill:#000000;fill-opacity:1;stroke:none;font-family:Sans"
       x="352.55453"
       y="112.65466"
       id="text3172"
       sodipodi:linespacing="125%"><tspan
         sodipodi:role="line"
         id="tspan3174"
         x="352.55453"
         y="112.65466"
         style="font-size:28px;font-weight:bold;text-align:center;text-anchor:middle;-inkscape-font-specification:Sans Bold">Fuel Master Node</tspan></text>
    <rect
       style="fill:#aaeeff;fill-opacity:1;stroke:#000000;stroke-width:1.25394762;stroke-linejoin:round;stroke-opacity:1"
       id="rect3864"
       width="47.744926"
       height="16.249495"
       x="177.29388"
       y="312.58945"
       ry="4.3041816" />
    <text
       xml:space="preserve"
       style="font-size:16px;font-style:normal;font-weight:normal;text-align:center;line-height:125%;letter-spacing:0px;word-spacing:0px;text-anchor:middle;fill:#000000;fill-opacity:1;stroke:none;font-family:Sans"
       x="201.26846"
       y="326.59662"
       id="text3866"
       sodipodi:linespacing="125%"><tspan
         sodipodi:role="line"
         id="tspan3868"
         x="201.26846"
         y="326.59662">DHCP</tspan></text>
    <rect
       style="fill:#aaeeff;fill-opacity:1;stroke:#000000;stroke-width:1.25394762;stroke-linejoin:round;stroke-opacity:1"
       id="rect3864-1"
       width="47.744926"
       height="16.249495"
       x="264.44659"
       y="312.58911"
       ry="4.3041816" />
    <text
       xml:space="preserve"
       style="font-size:16px;font-style:normal;font-weight:normal;text-align:center;line-height:125%;letter-spacing:0px;word-spacing:0px;text-anchor:middle;fill:#000000;fill-opacity:1;stroke:none;font-family:Sans"
       x="288.42117"
       y="326.59628"
       id="text3866-7"
       sodipodi:linespacing="125%"><tspan
         sodipodi:role="line"
         id="tspan3868-4"
         x="288.42117"
         y="326.59628">TFTP</tspan></text>
    <path
       d="m 375.40599,259.47541 0,0 c 0,-8.38921 11.99571,-15.19001 26.79313,-15.19001 l 125.13991,0 c 7.10597,0 13.92091,1.60037 18.94561,4.44905 5.0247,2.84867 7.8475,6.71232 7.8475,10.74096 l 0,60.75824 c 0,8.38922 -11.99565,15.19002 -26.79311,15.19002 l -125.13991,0 c -14.79742,0 -26.79313,-6.8008 -26.79313,-15.19002 z"
       id="path35-4"
       inkscape:connector-curvature="0"
       style="fill:#f3f3f3;fill-rule:nonzero" />
    <path
       d="m 401.45444,298.71274 0,0 c 0,-2.20049 1.78384,-3.98433 3.98431,-3.98433 l 117.44864,0 c 1.05677,0 2.07019,0.41977 2.81739,1.16698 0.74719,0.74721 1.16699,1.76063 1.16699,2.81735 l 0,15.93684 c 0,2.20049 -1.78388,3.98435 -3.98438,3.98435 l -117.44864,0 0,0 c -2.20047,0 -3.98431,-1.78386 -3.98431,-3.98435 z"
       id="path41-8"
       inkscape:connector-curvature="0"
       style="fill:#d9ead3;fill-rule:nonzero" />
    <path
       d="m 401.45444,298.71274 0,0 c 0,-2.20049 1.78384,-3.98433 3.98431,-3.98433 l 117.44864,0 c 1.05677,0 2.07019,0.41977 2.81739,1.16698 0.74719,0.74721 1.16699,1.76063 1.16699,2.81735 l 0,15.93684 c 0,2.20049 -1.78388,3.98435 -3.98438,3.98435 l -117.44864,0 0,0 c -2.20047,0 -3.98431,-1.78386 -3.98431,-3.98435 z"
       id="path43-8"
       inkscape:connector-curvature="0"
       style="stroke:#000000;stroke-width:2;stroke-linecap:butt;stroke-linejoin:round" />
    <path
       d="m 375.40599,259.47541 0,0 c 0,-8.38921 11.99571,-15.19001 26.79313,-15.19001 l 125.13991,0 c 7.10597,0 13.92091,1.60037 18.94561,4.44905 5.0247,2.84867 7.8475,6.71232 7.8475,10.74096 l 0,60.75824 c 0,8.38922 -11.99565,15.19002 -26.79311,15.19002 l -125.13991,0 c -14.79742,0 -26.79313,-6.8008 -26.79313,-15.19002 z"
       id="path37-2"
       inkscape:connector-curvature="0"
       style="stroke:#000000;stroke-width:3;stroke-linecap:butt;stroke-linejoin:round;stroke-miterlimit:10;stroke-dasharray:none" />
    <text
       xml:space="preserve"
       style="font-size:28px;font-style:normal;font-weight:normal;text-align:center;line-height:125%;letter-spacing:0px;word-spacing:0px;text-anchor:middle;fill:#000000;fill-opacity:1;stroke:none;font-family:Sans"
       x="464.85077"
       y="273.48627"
       id="text3180-4"
       sodipodi:linespacing="125%"><tspan
         sodipodi:role="line"
         id="tspan3182-5"
         x="464.85077"
         y="273.48627"
         style="font-size:22px">Puppet Master</tspan></text>
    <text
       xml:space="preserve"
       style="font-size:20px;font-style:normal;font-weight:normal;text-align:center;line-height:125%;letter-spacing:0px;word-spacing:0px;text-anchor:middle;fill:#000000;fill-opacity:1;stroke:none;font-family:Sans"
       x="465.50439"
       y="313.892"
       id="text3196-5"
       sodipodi:linespacing="125%"><tspan
         sodipodi:role="line"
         id="tspan3198-1"
         x="465.50439"
         y="313.892">Manifests</tspan></text>
  </g>
</svg>
