<?xml version="1.0" standalone="yes"?>

<svg version="1.1" viewBox="0.0 0.0 720.0 540.0" fill="none" stroke="none" stroke-linecap="square" stroke-miterlimit="10" xmlns="http://www.w3.org/2000/svg" xmlns:xlink="http://www.w3.org/1999/xlink"><clipPath id="p.0"><path d="m0 0l720.0 0l0 540.0l-720.0 0l0 -540.0z" clip-rule="nonzero"></path></clipPath><g clip-path="url(#p.0)"><path fill="#000000" fill-opacity="0.0" d="m0 0l720.0 0l0 540.0l-720.0 0z" fill-rule="nonzero"></path><path fill="#cfe2f3" d="m112.0 62.46719l61.984253 0l0 29.007877l-61.984253 0z" fill-rule="nonzero"></path><path stroke="#000000" stroke-width="2.0" stroke-linejoin="round" stroke-linecap="butt" d="m112.0 62.46719l61.984253 0l0 29.007877l-61.984253 0z" fill-rule="nonzero"></path><path fill="#000000" d="m122.03125 81.771126l0 -9.3125l6.71875 0l0 1.109375l-5.484375 0l0 2.84375l5.140625 0l0 1.09375l-5.140625 0l0 3.171875l5.703125 0l0 1.09375l-6.9375 0zm11.21788 -1.015625l0.15625 1.0q-0.484375 0.109375 -0.859375 0.109375q-0.625 0 -0.96875 -0.203125q-0.34375 -0.203125 -0.484375 -0.515625q-0.140625 -0.328125 -0.140625 -1.34375l0 -3.890625l-0.828125 0l0 -0.875l0.828125 0l0 -1.671875l1.140625 -0.6875l0 2.359375l1.15625 0l0 0.875l-1.15625 0l0 3.953125q0 0.484375 0.0625 0.625q0.0625 0.140625 0.1875 0.21875q0.140625 0.078125 0.390625 0.078125q0.203125 0 0.515625 -0.03125zm1.2029877 1.015625l0 -9.3125l1.140625 0l0 3.34375q0.796875 -0.921875 2.015625 -0.921875q0.75 0 1.296875 0.296875q0.5625 0.296875 0.796875 0.8125q0.234375 0.515625 0.234375 1.515625l0 4.265625l-1.140625 0l0 -4.265625q0 -0.859375 -0.375 -1.25q-0.359375 -0.390625 -1.046875 -0.390625q-0.5 0 -0.953125 0.265625q-0.453125 0.25 -0.640625 0.703125q-0.1875 0.453125 -0.1875 1.25l0 3.6875l-1.140625 0zm7.0999756 -4.59375q0 -1.640625 0.328125 -2.640625q0.34375 -1.015625 1.015625 -1.5625q0.671875 -0.546875 1.6875 -0.546875q0.75 0 1.3125 0.3125q0.5625 0.296875 0.921875 0.859375q0.375 0.5625 0.578125 1.390625q0.21875 0.8125 0.21875 2.1875q0 1.640625 -0.34375 2.65625q-0.328125 1.0 -1.0 1.546875q-0.671875 0.546875 -1.6875 0.546875q-1.34375 0 -2.125 -0.96875q-0.90625 -1.15625 -0.90625 -3.78125zm1.171875 0q0 2.296875 0.53125 3.0625q0.53125 0.75 1.328125 0.75q0.78125 0 1.3125 -0.75q0.546875 -0.765625 0.546875 -3.0625q0 -2.296875 -0.546875 -3.046875q-0.53125 -0.75 -1.328125 -0.75q-0.78125 0 -1.265625 0.65625q-0.578125 0.859375 -0.578125 3.140625z" fill-rule="nonzero"></path><path fill="#cfe2f3" d="m445.0 241.16536l0 0c0 -7.462372 6.0494385 -13.51181 13.51181 -13.51181l82.456696 0c3.5835571 0 7.0203247 1.4235535 9.554321 3.9575195c2.5339355 2.5339508 3.9575195 5.9707336 3.9575195 9.554291l0 0l0 0c0 7.4623566 -6.0494995 13.51181 -13.511841 13.51181l-82.456696 0c-7.462372 0 -13.51181 -6.0494537 -13.51181 -13.51181z" fill-rule="nonzero"></path><path stroke="#000000" stroke-width="2.0" stroke-linejoin="round" stroke-linecap="butt" d="m445.0 241.16536l0 0c0 -7.462372 6.0494385 -13.51181 13.51181 -13.51181l82.456696 0c3.5835571 0 7.0203247 1.4235535 9.554321 3.9575195c2.5339355 2.5339508 3.9575195 5.9707336 3.9575195 9.554291l0 0l0 0c0 7.4623566 -6.0494995 13.51181 -13.511841 13.51181l-82.456696 0c-7.462372 0 -13.51181 -6.0494537 -13.51181 -13.51181z" fill-rule="nonzero"></path><path fill="#000000" d="m459.86374 245.96535l-1.0625 0l0 -9.3125l1.15625 0l0 3.328125q0.71875 -0.90625 1.84375 -0.90625q0.625 0 1.171875 0.25q0.5625 0.25 0.921875 0.703125q0.359375 0.453125 0.5625 1.09375q0.203125 0.640625 0.203125 1.375q0 1.734375 -0.859375 2.6875q-0.859375 0.9375 -2.0625 0.9375q-1.1875 0 -1.875 -1.0l0 0.84375zm-0.015625 -3.421875q0 1.21875 0.34375 1.75q0.53125 0.890625 1.453125 0.890625q0.75 0 1.296875 -0.65625q0.546875 -0.65625 0.546875 -1.9375q0 -1.328125 -0.53125 -1.953125q-0.515625 -0.625 -1.265625 -0.625q-0.75 0 -1.296875 0.65625q-0.546875 0.640625 -0.546875 1.875zm6.3656006 3.421875l0 -6.734375l1.03125 0l0 1.015625q0.390625 -0.71875 0.71875 -0.9375q0.34375 -0.234375 0.734375 -0.234375q0.578125 0 1.171875 0.359375l-0.390625 1.0625q-0.421875 -0.25 -0.828125 -0.25q-0.375 0 -0.6875 0.234375q-0.296875 0.21875 -0.421875 0.625q-0.1875 0.609375 -0.1875 1.328125l0 3.53125l-1.140625 0zm4.0008545 -2.796875l0 -1.140625l3.515625 0l0 1.140625l-3.515625 0zm4.438385 0.78125l1.125 -0.171875q0.09375 0.671875 0.53125 1.046875q0.4375 0.359375 1.21875 0.359375q0.78125 0 1.15625 -0.3125q0.390625 -0.328125 0.390625 -0.765625q0 -0.390625 -0.34375 -0.609375q-0.234375 -0.15625 -1.171875 -0.390625q-1.25 -0.3125 -1.734375 -0.546875q-0.484375 -0.234375 -0.734375 -0.640625q-0.25 -0.40625 -0.25 -0.90625q0 -0.453125 0.203125 -0.828125q0.203125 -0.390625 0.5625 -0.640625q0.265625 -0.203125 0.71875 -0.328125q0.46875 -0.140625 1.0 -0.140625q0.78125 0 1.375 0.234375q0.609375 0.21875 0.890625 0.609375q0.296875 0.390625 0.40625 1.046875l-1.125 0.15625q-0.078125 -0.53125 -0.4375 -0.8125q-0.359375 -0.296875 -1.03125 -0.296875q-0.78125 0 -1.125 0.265625q-0.34375 0.25 -0.34375 0.609375q0 0.21875 0.140625 0.390625q0.140625 0.1875 0.4375 0.3125q0.171875 0.0625 1.015625 0.28125q1.21875 0.328125 1.6875 0.53125q0.484375 0.203125 0.75 0.609375q0.28125 0.390625 0.28125 0.96875q0 0.578125 -0.34375 1.078125q-0.328125 0.5 -0.953125 0.78125q-0.625 0.28125 -1.421875 0.28125q-1.3125 0 -2.0 -0.546875q-0.6875 -0.546875 -0.875 -1.625zm9.6171875 1.0l0.15625 1.0q-0.484375 0.109375 -0.859375 0.109375q-0.625 0 -0.96875 -0.203125q-0.34375 -0.203125 -0.484375 -0.515625q-0.140625 -0.328125 -0.140625 -1.34375l0 -3.890625l-0.828125 0l0 -0.875l0.828125 0l0 -1.671875l1.140625 -0.6875l0 2.359375l1.15625 0l0 0.875l-1.15625 0l0 3.953125q0 0.484375 0.0625 0.625q0.0625 0.140625 0.1875 0.21875q0.140625 0.078125 0.390625 0.078125q0.203125 0 0.515625 -0.03125zm0.7810974 -2.359375q0 -1.875 1.03125 -2.765625q0.875 -0.75 2.125 -0.75q1.390625 0 2.265625 0.90625q0.890625 0.90625 0.890625 2.515625q0 1.296875 -0.390625 2.046875q-0.390625 0.75 -1.140625 1.171875q-0.75 0.40625 -1.625 0.40625q-1.421875 0 -2.296875 -0.90625q-0.859375 -0.90625 -0.859375 -2.625zm1.171875 0q0 1.296875 0.5625 1.953125q0.5625 0.640625 1.421875 0.640625q0.84375 0 1.40625 -0.640625q0.578125 -0.65625 0.578125 -1.984375q0 -1.25 -0.578125 -1.890625q-0.5625 -0.65625 -1.40625 -0.65625q-0.859375 0 -1.421875 0.640625q-0.5625 0.640625 -0.5625 1.9375zm6.6468506 3.375l0 -6.734375l1.03125 0l0 1.015625q0.390625 -0.71875 0.71875 -0.9375q0.34375 -0.234375 0.734375 -0.234375q0.578125 0 1.171875 0.359375l-0.390625 1.0625q-0.421875 -0.25 -0.828125 -0.25q-0.375 0 -0.6875 0.234375q-0.296875 0.21875 -0.421875 0.625q-0.1875 0.609375 -0.1875 1.328125l0 3.53125l-1.140625 0zm8.844635 -0.828125q-0.625 0.53125 -1.21875 0.765625q-0.578125 0.21875 -1.25 0.21875q-1.125 0 -1.71875 -0.546875q-0.59375 -0.546875 -0.59375 -1.390625q0 -0.484375 0.21875 -0.890625q0.234375 -0.421875 0.59375 -0.671875q0.375 -0.25 0.828125 -0.375q0.328125 -0.078125 1.015625 -0.171875q1.375 -0.15625 2.03125 -0.390625q0.015625 -0.234375 0.015625 -0.296875q0 -0.703125 -0.328125 -0.984375q-0.4375 -0.390625 -1.296875 -0.390625q-0.8125 0 -1.203125 0.28125q-0.375 0.28125 -0.5625 1.0l-1.109375 -0.140625q0.140625 -0.71875 0.484375 -1.15625q0.359375 -0.453125 1.015625 -0.6875q0.671875 -0.234375 1.53125 -0.234375q0.875 0 1.40625 0.203125q0.546875 0.203125 0.796875 0.515625q0.25 0.296875 0.359375 0.765625q0.046875 0.296875 0.046875 1.0625l0 1.515625q0 1.59375 0.078125 2.015625q0.078125 0.421875 0.28125 0.8125l-1.1875 0q-0.171875 -0.359375 -0.234375 -0.828125zm-0.09375 -2.5625q-0.625 0.265625 -1.859375 0.4375q-0.703125 0.109375 -1.0 0.234375q-0.296875 0.125 -0.453125 0.375q-0.15625 0.234375 -0.15625 0.53125q0 0.453125 0.34375 0.765625q0.34375 0.296875 1.015625 0.296875q0.65625 0 1.171875 -0.28125q0.515625 -0.296875 0.765625 -0.796875q0.171875 -0.375 0.171875 -1.140625l0 -0.421875zm2.8968506 3.953125l1.125 0.15625q0.0625 0.515625 0.375 0.75q0.4375 0.328125 1.171875 0.328125q0.78125 0 1.21875 -0.328125q0.4375 -0.3125 0.578125 -0.890625q0.09375 -0.34375 0.09375 -1.453125q-0.75 0.875 -1.875 0.875q-1.390625 0 -2.15625 -1.0q-0.75 -1.0 -0.75 -2.40625q0 -0.96875 0.34375 -1.78125q0.359375 -0.8125 1.015625 -1.25q0.65625 -0.453125 1.5625 -0.453125q1.1875 0 1.96875 0.96875l0 -0.8125l1.046875 0l0 5.8125q0 1.578125 -0.328125 2.234375q-0.3125 0.65625 -1.015625 1.03125q-0.6875 0.390625 -1.703125 0.390625q-1.203125 0 -1.953125 -0.546875q-0.734375 -0.53125 -0.71875 -1.625zm0.953125 -4.046875q0 1.3125 0.515625 1.921875q0.53125 0.609375 1.328125 0.609375q0.796875 0 1.328125 -0.59375q0.53125 -0.609375 0.53125 -1.90625q0 -1.234375 -0.546875 -1.859375q-0.546875 -0.640625 -1.328125 -0.640625q-0.765625 0 -1.296875 0.625q-0.53125 0.625 -0.53125 1.84375zm11.287476 1.3125l1.1875 0.140625q-0.28125 1.046875 -1.046875 1.625q-0.75 0.5625 -1.921875 0.5625q-1.484375 0 -2.359375 -0.90625q-0.859375 -0.921875 -0.859375 -2.5625q0 -1.703125 0.875 -2.640625q0.890625 -0.9375 2.28125 -0.9375q1.359375 0 2.203125 0.921875q0.859375 0.921875 0.859375 2.578125q0 0.109375 0 0.3125l-5.03125 0q0.0625 1.109375 0.625 1.703125q0.5625 0.59375 1.40625 0.59375q0.640625 0 1.078125 -0.328125q0.453125 -0.34375 0.703125 -1.0625zm-3.75 -1.84375l3.765625 0q-0.078125 -0.859375 -0.4375 -1.28125q-0.546875 -0.65625 -1.40625 -0.65625q-0.796875 0 -1.328125 0.53125q-0.53125 0.515625 -0.59375 1.40625z" fill-rule="nonzero"></path><path fill="#000000" fill-opacity="0.0" d="m295.6299 197.0971l149.37009 0" fill-rule="nonzero"></path><path stroke="#000000" stroke-width="2.0" stroke-linejoin="round" stroke-linecap="butt" d="m307.6299 197.0971l125.37009 0" fill-rule="evenodd"></path><path fill="#000000" stroke="#000000" stroke-width="2.0" stroke-linecap="butt" d="m307.6299 193.79366l-9.076202 3.3034515l9.076202 3.3034668z" fill-rule="evenodd"></path><path fill="#000000" stroke="#000000" stroke-width="2.0" stroke-linecap="butt" d="m433.0 200.40057l9.076202 -3.3034668l-9.076202 -3.3034515z" fill-rule="evenodd"></path><path fill="#cfe2f3" d="m112.0 133.4672l61.984253 0l0 29.007874l-61.984253 0z" fill-rule="nonzero"></path><path stroke="#000000" stroke-width="2.0" stroke-linejoin="round" stroke-linecap="butt" d="m112.0 133.4672l61.984253 0l0 29.007874l-61.984253 0z" fill-rule="nonzero"></path><path fill="#000000" d="m122.03125 152.77113l0 -9.3125l6.71875 0l0 1.109375l-5.484375 0l0 2.84375l5.140625 0l0 1.09375l-5.140625 0l0 3.171875l5.703125 0l0 1.09375l-6.9375 0zm11.21788 -1.015625l0.15625 1.0q-0.484375 0.109375 -0.859375 0.109375q-0.625 0 -0.96875 -0.203125q-0.34375 -0.203125 -0.484375 -0.515625q-0.140625 -0.328125 -0.140625 -1.34375l0 -3.890625l-0.828125 0l0 -0.875l0.828125 0l0 -1.671875l1.140625 -0.6875l0 2.359375l1.15625 0l0 0.875l-1.15625 0l0 3.953125q0 0.484375 0.0625 0.625q0.0625 0.140625 0.1875 0.21875q0.140625 0.078125 0.390625 0.078125q0.203125 0 0.515625 -0.03125zm1.2029877 1.015625l0 -9.3125l1.140625 0l0 3.34375q0.796875 -0.921875 2.015625 -0.921875q0.75 0 1.296875 0.296875q0.5625 0.296875 0.796875 0.8125q0.234375 0.515625 0.234375 1.515625l0 4.265625l-1.140625 0l0 -4.265625q0 -0.859375 -0.375 -1.25q-0.359375 -0.390625 -1.046875 -0.390625q-0.5 0 -0.953125 0.265625q-0.453125 0.25 -0.640625 0.703125q-0.1875 0.453125 -0.1875 1.25l0 3.6875l-1.140625 0zm11.396851 0l-1.140625 0l0 -7.28125q-0.421875 0.390625 -1.09375 0.796875q-0.65625 0.390625 -1.1875 0.578125l0 -1.109375q0.953125 -0.4375 1.671875 -1.078125q0.71875 -0.640625 1.015625 -1.25l0.734375 0l0 9.34375z" fill-rule="nonzero"></path><path fill="#000000" fill-opacity="0.0" d="m173.98425 147.97113l42.015747 0" fill-rule="nonzero"></path><path stroke="#000000" stroke-width="2.0" stroke-linejoin="round" stroke-linecap="butt" d="m173.98425 147.97113l35.161575 0" fill-rule="evenodd"></path><path fill="#000000" stroke="#000000" stroke-width="2.0" stroke-linecap="butt" d="m209.14583 147.97113l-2.249176 2.2491608l6.17955 -2.2491608l-6.17955 -2.249176z" fill-rule="evenodd"></path><path fill="#cfe2f3" d="m216.76378 147.97113l0 0c0 -7.462372 6.0494385 -13.51181 13.51181 -13.51181l51.842514 0l0 0c3.5835571 0 7.020355 1.4235535 9.554291 3.9575195c2.533966 2.5339508 3.9575195 5.9707336 3.9575195 9.554291l0 0l0 0c0 7.462372 -6.0494385 13.51181 -13.51181 13.51181l-51.842514 0c-7.462372 0 -13.51181 -6.0494385 -13.51181 -13.51181z" fill-rule="nonzero"></path><path stroke="#000000" stroke-width="2.0" stroke-linejoin="round" stroke-linecap="butt" d="m216.76378 147.97113l0 0c0 -7.462372 6.0494385 -13.51181 13.51181 -13.51181l51.842514 0l0 0c3.5835571 0 7.020355 1.4235535 9.554291 3.9575195c2.533966 2.5339508 3.9575195 5.9707336 3.9575195 9.554291l0 0l0 0c0 7.462372 -6.0494385 13.51181 -13.51181 13.51181l-51.842514 0c-7.462372 0 -13.51181 -6.0494385 -13.51181 -13.51181z" fill-rule="nonzero"></path><path fill="#000000" d="m231.6275 152.77113l-1.0625 0l0 -9.3125l1.15625 0l0 3.328125q0.71875 -0.90625 1.84375 -0.90625q0.625 0 1.171875 0.25q0.5625 0.25 0.921875 0.703125q0.359375 0.453125 0.5625 1.09375q0.203125 0.640625 0.203125 1.375q0 1.734375 -0.859375 2.6875q-0.859375 0.9375 -2.0625 0.9375q-1.1875 0 -1.875 -1.0l0 0.84375zm-0.015625 -3.421875q0 1.21875 0.34375 1.75q0.53125 0.890625 1.453125 0.890625q0.75 0 1.296875 -0.65625q0.546875 -0.65625 0.546875 -1.9375q0 -1.328125 -0.53125 -1.953125q-0.515625 -0.625 -1.265625 -0.625q-0.75 0 -1.296875 0.65625q-0.546875 0.640625 -0.546875 1.875zm6.3656006 3.421875l0 -6.734375l1.03125 0l0 1.015625q0.390625 -0.71875 0.71875 -0.9375q0.34375 -0.234375 0.734375 -0.234375q0.578125 0 1.171875 0.359375l-0.390625 1.0625q-0.421875 -0.25 -0.828125 -0.25q-0.375 0 -0.6875 0.234375q-0.296875 0.21875 -0.421875 0.625q-0.1875 0.609375 -0.1875 1.328125l0 3.53125l-1.140625 0zm4.0008698 -2.796875l0 -1.140625l3.515625 0l0 1.140625l-3.515625 0zm9.50087 0.625l1.1875 0.140625q-0.28125 1.046875 -1.046875 1.625q-0.75 0.5625 -1.921875 0.5625q-1.484375 0 -2.359375 -0.90625q-0.859375 -0.921875 -0.859375 -2.5625q0 -1.703125 0.875 -2.640625q0.890625 -0.9375 2.28125 -0.9375q1.359375 0 2.203125 0.921875q0.859375 0.921875 0.859375 2.578125q0 0.109375 0 0.3125l-5.03125 0q0.0625 1.109375 0.625 1.703125q0.5625 0.59375 1.40625 0.59375q0.640625 0 1.078125 -0.328125q0.453125 -0.34375 0.703125 -1.0625zm-3.75 -1.84375l3.765625 0q-0.078125 -0.859375 -0.4375 -1.28125q-0.546875 -0.65625 -1.40625 -0.65625q-0.796875 0 -1.328125 0.53125q-0.53125 0.515625 -0.59375 1.40625zm9.053101 3.0l0.15625 1.0q-0.484375 0.109375 -0.859375 0.109375q-0.625 0 -0.96875 -0.203125q-0.34375 -0.203125 -0.484375 -0.515625q-0.140625 -0.328125 -0.140625 -1.34375l0 -3.890625l-0.828125 0l0 -0.875l0.828125 0l0 -1.671875l1.140625 -0.6875l0 2.359375l1.15625 0l0 0.875l-1.15625 0l0 3.953125q0 0.484375 0.0625 0.625q0.0625 0.140625 0.1875 0.21875q0.140625 0.078125 0.390625 0.078125q0.203125 0 0.515625 -0.03125zm1.2030029 1.015625l0 -9.3125l1.140625 0l0 3.34375q0.796875 -0.921875 2.015625 -0.921875q0.75 0 1.296875 0.296875q0.5625 0.296875 0.796875 0.8125q0.234375 0.515625 0.234375 1.515625l0 4.265625l-1.140625 0l0 -4.265625q0 -0.859375 -0.375 -1.25q-0.359375 -0.390625 -1.046875 -0.390625q-0.5 0 -0.953125 0.265625q-0.453125 0.25 -0.640625 0.703125q-0.1875 0.453125 -0.1875 1.25l0 3.6875l-1.140625 0zm11.396851 0l-1.140625 0l0 -7.28125q-0.421875 0.390625 -1.09375 0.796875q-0.65625 0.390625 -1.1875 0.578125l0 -1.109375q0.953125 -0.4375 1.671875 -1.078125q0.71875 -0.640625 1.015625 -1.25l0.734375 0l0 9.34375z" fill-rule="nonzero"></path><path fill="#cfe2f3" d="m445.0 197.0971l0 0c0 -7.4623566 6.0494385 -13.51181 13.51181 -13.51181l82.456696 0c3.5835571 0 7.0203247 1.4235687 9.554321 3.9575195c2.5339355 2.533966 3.9575195 5.970749 3.9575195 9.554291l0 0l0 0c0 7.462372 -6.0494995 13.51181 -13.511841 13.51181l-82.456696 0c-7.462372 0 -13.51181 -6.0494385 -13.51181 -13.51181z" fill-rule="nonzero"></path><path stroke="#000000" stroke-width="2.0" stroke-linejoin="round" stroke-linecap="butt" d="m445.0 197.0971l0 0c0 -7.4623566 6.0494385 -13.51181 13.51181 -13.51181l82.456696 0c3.5835571 0 7.0203247 1.4235687 9.554321 3.9575195c2.5339355 2.533966 3.9575195 5.970749 3.9575195 9.554291l0 0l0 0c0 7.462372 -6.0494995 13.51181 -13.511841 13.51181l-82.456696 0c-7.462372 0 -13.51181 -6.0494385 -13.51181 -13.51181z" fill-rule="nonzero"></path><path fill="#000000" d="m459.86374 201.89711l-1.0625 0l0 -9.3125l1.15625 0l0 3.328125q0.71875 -0.90625 1.84375 -0.90625q0.625 0 1.171875 0.25q0.5625 0.25 0.921875 0.703125q0.359375 0.453125 0.5625 1.09375q0.203125 0.640625 0.203125 1.375q0 1.734375 -0.859375 2.6875q-0.859375 0.9375 -2.0625 0.9375q-1.1875 0 -1.875 -1.0l0 0.84375zm-0.015625 -3.421875q0 1.21875 0.34375 1.75q0.53125 0.890625 1.453125 0.890625q0.75 0 1.296875 -0.65625q0.546875 -0.65625 0.546875 -1.9375q0 -1.328125 -0.53125 -1.953125q-0.515625 -0.625 -1.265625 -0.625q-0.75 0 -1.296875 0.65625q-0.546875 0.640625 -0.546875 1.875zm6.3656006 3.421875l0 -6.734375l1.03125 0l0 1.015625q0.390625 -0.71875 0.71875 -0.9375q0.34375 -0.234375 0.734375 -0.234375q0.578125 0 1.171875 0.359375l-0.390625 1.0625q-0.421875 -0.25 -0.828125 -0.25q-0.375 0 -0.6875 0.234375q-0.296875 0.21875 -0.421875 0.625q-0.1875 0.609375 -0.1875 1.328125l0 3.53125l-1.140625 0zm4.0008545 -2.796875l0 -1.140625l3.515625 0l0 1.140625l-3.515625 0zm9.500885 0.625l1.1875 0.140625q-0.28125 1.046875 -1.046875 1.625q-0.75 0.5625 -1.921875 0.5625q-1.484375 0 -2.359375 -0.90625q-0.859375 -0.921875 -0.859375 -2.5625q0 -1.703125 0.875 -2.640625q0.890625 -0.9375 2.28125 -0.9375q1.359375 0 2.203125 0.921875q0.859375 0.921875 0.859375 2.578125q0 0.109375 0 0.3125l-5.03125 0q0.0625 1.109375 0.625 1.703125q0.5625 0.59375 1.40625 0.59375q0.640625 0 1.078125 -0.328125q0.453125 -0.34375 0.703125 -1.0625zm-3.75 -1.84375l3.765625 0q-0.078125 -0.859375 -0.4375 -1.28125q-0.546875 -0.65625 -1.40625 -0.65625q-0.796875 0 -1.328125 0.53125q-0.53125 0.515625 -0.59375 1.40625zm5.7874756 4.015625l2.46875 -3.5l-2.28125 -3.234375l1.421875 0l1.046875 1.578125q0.28125 0.453125 0.46875 0.75q0.265625 -0.421875 0.5 -0.734375l1.140625 -1.59375l1.375 0l-2.34375 3.171875l2.515625 3.5625l-1.40625 0l-1.375 -2.09375l-0.375 -0.5625l-1.765625 2.65625l-1.390625 0z" fill-rule="nonzero"></path><path fill="#cfe2f3" d="m445.0 147.97113l0 0c0 -7.462372 6.0494385 -13.51181 13.51181 -13.51181l82.456696 0c3.5835571 0 7.0203247 1.4235535 9.554321 3.9575195c2.5339355 2.5339508 3.9575195 5.9707336 3.9575195 9.554291l0 0l0 0c0 7.462372 -6.0494995 13.51181 -13.511841 13.51181l-82.456696 0c-7.462372 0 -13.51181 -6.0494385 -13.51181 -13.51181z" fill-rule="nonzero"></path><path stroke="#000000" stroke-width="2.0" stroke-linejoin="round" stroke-linecap="butt" d="m445.0 147.97113l0 0c0 -7.462372 6.0494385 -13.51181 13.51181 -13.51181l82.456696 0c3.5835571 0 7.0203247 1.4235535 9.554321 3.9575195c2.5339355 2.5339508 3.9575195 5.9707336 3.9575195 9.554291l0 0l0 0c0 7.462372 -6.0494995 13.51181 -13.511841 13.51181l-82.456696 0c-7.462372 0 -13.51181 -6.0494385 -13.51181 -13.51181z" fill-rule="nonzero"></path><path fill="#000000" d="m459.86374 152.77113l-1.0625 0l0 -9.3125l1.15625 0l0 3.328125q0.71875 -0.90625 1.84375 -0.90625q0.625 0 1.171875 0.25q0.5625 0.25 0.921875 0.703125q0.359375 0.453125 0.5625 1.09375q0.203125 0.640625 0.203125 1.375q0 1.734375 -0.859375 2.6875q-0.859375 0.9375 -2.0625 0.9375q-1.1875 0 -1.875 -1.0l0 0.84375zm-0.015625 -3.421875q0 1.21875 0.34375 1.75q0.53125 0.890625 1.453125 0.890625q0.75 0 1.296875 -0.65625q0.546875 -0.65625 0.546875 -1.9375q0 -1.328125 -0.53125 -1.953125q-0.515625 -0.625 -1.265625 -0.625q-0.75 0 -1.296875 0.65625q-0.546875 0.640625 -0.546875 1.875zm6.3656006 3.421875l0 -6.734375l1.03125 0l0 1.015625q0.390625 -0.71875 0.71875 -0.9375q0.34375 -0.234375 0.734375 -0.234375q0.578125 0 1.171875 0.359375l-0.390625 1.0625q-0.421875 -0.25 -0.828125 -0.25q-0.375 0 -0.6875 0.234375q-0.296875 0.21875 -0.421875 0.625q-0.1875 0.609375 -0.1875 1.328125l0 3.53125l-1.140625 0zm4.0008545 -2.796875l0 -1.140625l3.515625 0l0 1.140625l-3.515625 0zm4.89151 2.796875l0 -6.734375l1.015625 0l0 0.9375q0.328125 -0.5 0.84375 -0.796875q0.53125 -0.296875 1.203125 -0.296875q0.75 0 1.21875 0.3125q0.484375 0.3125 0.6875 0.859375q0.796875 -1.171875 2.078125 -1.171875q1.0 0 1.53125 0.5625q0.546875 0.546875 0.546875 1.703125l0 4.625l-1.125 0l0 -4.25q0 -0.6875 -0.109375 -0.984375q-0.109375 -0.296875 -0.40625 -0.484375q-0.296875 -0.1875 -0.6875 -0.1875q-0.71875 0 -1.1875 0.484375q-0.46875 0.46875 -0.46875 1.5l0 3.921875l-1.140625 0l0 -4.375q0 -0.765625 -0.28125 -1.140625q-0.28125 -0.390625 -0.90625 -0.390625q-0.484375 0 -0.890625 0.265625q-0.40625 0.25 -0.59375 0.734375q-0.1875 0.484375 -0.1875 1.40625l0 3.5l-1.140625 0zm10.883667 0.5625l1.125 0.15625q0.0625 0.515625 0.375 0.75q0.4375 0.328125 1.171875 0.328125q0.78125 0 1.21875 -0.328125q0.4375 -0.3125 0.578125 -0.890625q0.09375 -0.34375 0.09375 -1.453125q-0.75 0.875 -1.875 0.875q-1.390625 0 -2.15625 -1.0q-0.75 -1.0 -0.75 -2.40625q0 -0.96875 0.34375 -1.78125q0.359375 -0.8125 1.015625 -1.25q0.65625 -0.453125 1.5625 -0.453125q1.1875 0 1.96875 0.96875l0 -0.8125l1.046875 0l0 5.8125q0 1.578125 -0.328125 2.234375q-0.3125 0.65625 -1.015625 1.03125q-0.6875 0.390625 -1.703125 0.390625q-1.203125 0 -1.953125 -0.546875q-0.734375 -0.53125 -0.71875 -1.625zm0.953125 -4.046875q0 1.3125 0.515625 1.921875q0.53125 0.609375 1.328125 0.609375q0.796875 0 1.328125 -0.59375q0.53125 -0.609375 0.53125 -1.90625q0 -1.234375 -0.546875 -1.859375q-0.546875 -0.640625 -1.328125 -0.640625q-0.765625 0 -1.296875 0.625q-0.53125 0.625 -0.53125 1.84375zm6.6781006 3.484375l0 -6.734375l1.015625 0l0 0.9375q0.328125 -0.5 0.84375 -0.796875q0.53125 -0.296875 1.203125 -0.296875q0.75 0 1.21875 0.3125q0.484375 0.3125 0.6875 0.859375q0.796875 -1.171875 2.078125 -1.171875q1.0 0 1.53125 0.5625q0.546875 0.546875 0.546875 1.703125l0 4.625l-1.125 0l0 -4.25q0 -0.6875 -0.109375 -0.984375q-0.109375 -0.296875 -0.40625 -0.484375q-0.296875 -0.1875 -0.6875 -0.1875q-0.71875 0 -1.1875 0.484375q-0.46875 0.46875 -0.46875 1.5l0 3.921875l-1.140625 0l0 -4.375q0 -0.765625 -0.28125 -1.140625q-0.28125 -0.390625 -0.90625 -0.390625q-0.484375 0 -0.890625 0.265625q-0.40625 0.25 -0.59375 0.734375q-0.1875 0.484375 -0.1875 1.40625l0 3.5l-1.140625 0zm13.6024475 -1.015625l0.15625 1.0q-0.484375 0.109375 -0.859375 0.109375q-0.625 0 -0.96875 -0.203125q-0.34375 -0.203125 -0.484375 -0.515625q-0.140625 -0.328125 -0.140625 -1.34375l0 -3.890625l-0.828125 0l0 -0.875l0.828125 0l0 -1.671875l1.140625 -0.6875l0 2.359375l1.15625 0l0 0.875l-1.15625 0l0 3.953125q0 0.484375 0.0625 0.625q0.0625 0.140625 0.1875 0.21875q0.140625 0.078125 0.390625 0.078125q0.203125 0 0.515625 -0.03125z" fill-rule="nonzero"></path><path fill="#000000" fill-opacity="0.0" d="m295.6299 147.97113l149.37009 0" fill-rule="nonzero"></path><path stroke="#000000" stroke-width="2.0" stroke-linejoin="round" stroke-linecap="butt" d="m307.6299 147.97113l125.37009 0" fill-rule="evenodd"></path><path fill="#000000" stroke="#000000" stroke-width="2.0" stroke-linecap="butt" d="m307.6299 144.66766l-9.076202 3.3034668l9.076202 3.3034668z" fill-rule="evenodd"></path><path fill="#000000" stroke="#000000" stroke-width="2.0" stroke-linecap="butt" d="m433.0 151.2746l9.076202 -3.3034668l-9.076202 -3.3034668z" fill-rule="evenodd"></path><path fill="#000000" fill-opacity="0.0" d="m173.98425 76.97113l106.50394 0" fill-rule="nonzero"></path><path stroke="#000000" stroke-width="1.0" stroke-linejoin="round" stroke-linecap="butt" d="m173.98425 76.97113l100.87564 0" fill-rule="evenodd"></path><path stroke="#000000" stroke-width="1.0" stroke-linecap="butt" d="m274.85992 76.97113l2.3782654 1.6652832l2.3782654 -1.6652832l-2.3782654 -1.6652908z" fill-rule="evenodd"></path><path fill="#000000" fill-opacity="0.0" d="m280.4882 59.742783l306.96066 0l0 34.456688l-306.96066 0z" fill-rule="nonzero"></path><path fill="#000000" d="m289.47256 77.70278l2.484375 -6.4375l0.90625 0l2.640625 6.4375l-0.96875 0l-0.75 -1.953125l-2.703125 0l-0.703125 1.953125l-0.90625 0zm1.859375 -2.640625l2.1875 0l-0.671875 -1.796875q-0.3125 -0.8125 -0.453125 -1.328125q-0.125 0.625 -0.359375 1.234375l-0.703125 1.890625zm8.003021 2.640625l0 -0.59375q-0.453125 0.703125 -1.3125 0.703125q-0.546875 0 -1.015625 -0.3125q-0.46875 -0.3125 -0.734375 -0.859375q-0.25 -0.546875 -0.25 -1.265625q0 -0.703125 0.234375 -1.265625q0.234375 -0.578125 0.6875 -0.875q0.46875 -0.296875 1.046875 -0.296875q0.421875 0 0.75 0.171875q0.328125 0.171875 0.53125 0.46875l0 -2.3125l0.796875 0l0 6.4375l-0.734375 0zm-2.5 -2.328125q0 0.890625 0.375 1.34375q0.375 0.4375 0.890625 0.4375q0.515625 0 0.875 -0.421875q0.375 -0.421875 0.375 -1.296875q0 -0.953125 -0.375 -1.40625q-0.375 -0.453125 -0.90625 -0.453125q-0.53125 0 -0.890625 0.4375q-0.34375 0.4375 -0.34375 1.359375zm4.656616 2.328125l0 -4.671875l0.703125 0l0 0.65625q0.21875 -0.34375 0.578125 -0.546875q0.375 -0.203125 0.84375 -0.203125q0.515625 0 0.84375 0.21875q0.328125 0.203125 0.46875 0.59375q0.5625 -0.8125 1.4375 -0.8125q0.703125 0 1.078125 0.390625q0.375 0.375 0.375 1.171875l0 3.203125l-0.796875 0l0 -2.9375q0 -0.484375 -0.078125 -0.6875q-0.0625 -0.203125 -0.265625 -0.328125q-0.203125 -0.140625 -0.484375 -0.140625q-0.484375 0 -0.8125 0.328125q-0.328125 0.328125 -0.328125 1.046875l0 2.71875l-0.796875 0l0 -3.03125q0 -0.53125 -0.1875 -0.796875q-0.1875 -0.265625 -0.625 -0.265625q-0.34375 0 -0.625 0.1875q-0.28125 0.171875 -0.40625 0.515625q-0.125 0.328125 -0.125 0.96875l0 2.421875l-0.796875 0zm7.7704163 -5.53125l0 -0.90625l0.796875 0l0 0.90625l-0.796875 0zm0 5.53125l0 -4.671875l0.796875 0l0 4.671875l-0.796875 0zm2.0724182 0l0 -4.671875l0.71875 0l0 0.671875q0.5 -0.765625 1.484375 -0.765625q0.421875 0 0.765625 0.15625q0.359375 0.140625 0.53125 0.390625q0.171875 0.234375 0.25 0.578125q0.046875 0.21875 0.046875 0.765625l0 2.875l-0.796875 0l0 -2.84375q0 -0.484375 -0.09375 -0.71875q-0.09375 -0.234375 -0.328125 -0.375q-0.234375 -0.15625 -0.546875 -0.15625q-0.5 0 -0.875 0.328125q-0.359375 0.3125 -0.359375 1.21875l0 2.546875l-0.796875 0zm5.187866 -5.53125l0 -0.90625l0.796875 0l0 0.90625l-0.796875 0zm0 5.53125l0 -4.671875l0.796875 0l0 4.671875l-0.796875 0zm1.7599182 -1.390625l0.78125 -0.125q0.0625 0.46875 0.359375 0.71875q0.3125 0.25 0.84375 0.25q0.546875 0 0.8125 -0.21875q0.265625 -0.21875 0.265625 -0.515625q0 -0.28125 -0.234375 -0.421875q-0.171875 -0.109375 -0.8125 -0.28125q-0.875 -0.21875 -1.21875 -0.375q-0.328125 -0.15625 -0.5 -0.4375q-0.171875 -0.28125 -0.171875 -0.625q0 -0.3125 0.140625 -0.578125q0.140625 -0.265625 0.390625 -0.453125q0.1875 -0.125 0.5 -0.21875q0.328125 -0.09375 0.6875 -0.09375q0.546875 0 0.953125 0.15625q0.421875 0.15625 0.625 0.421875q0.203125 0.265625 0.28125 0.71875l-0.78125 0.109375q-0.046875 -0.359375 -0.3125 -0.5625q-0.25 -0.203125 -0.703125 -0.203125q-0.546875 0 -0.78125 0.1875q-0.234375 0.171875 -0.234375 0.421875q0 0.15625 0.09375 0.265625q0.09375 0.140625 0.3125 0.21875q0.109375 0.046875 0.6875 0.203125q0.84375 0.21875 1.171875 0.359375q0.34375 0.140625 0.53125 0.421875q0.1875 0.265625 0.1875 0.671875q0 0.40625 -0.234375 0.75q-0.234375 0.34375 -0.671875 0.546875q-0.421875 0.1875 -0.984375 0.1875q-0.90625 0 -1.390625 -0.375q-0.46875 -0.390625 -0.59375 -1.125zm6.7109375 0.6875l0.109375 0.6875q-0.34375 0.078125 -0.59375 0.078125q-0.4375 0 -0.671875 -0.140625q-0.234375 -0.140625 -0.34375 -0.359375q-0.09375 -0.21875 -0.09375 -0.921875l0 -2.6875l-0.578125 0l0 -0.625l0.578125 0l0 -1.15625l0.796875 -0.46875l0 1.625l0.796875 0l0 0.625l-0.796875 0l0 2.71875q0 0.34375 0.03125 0.4375q0.046875 0.09375 0.140625 0.15625q0.09375 0.0625 0.265625 0.0625q0.140625 0 0.359375 -0.03125zm0.8416443 0.703125l0 -4.671875l0.71875 0l0 0.71875q0.265625 -0.5 0.5 -0.65625q0.234375 -0.15625 0.515625 -0.15625q0.390625 0 0.8125 0.25l-0.28125 0.734375q-0.28125 -0.171875 -0.578125 -0.171875q-0.25 0 -0.46875 0.15625q-0.203125 0.15625 -0.296875 0.4375q-0.125 0.421875 -0.125 0.921875l0 2.4375l-0.796875 0zm6.1688538 -0.578125q-0.4375 0.375 -0.84375 0.53125q-0.40625 0.15625 -0.875 0.15625q-0.765625 0 -1.1875 -0.375q-0.40625 -0.375 -0.40625 -0.96875q0 -0.34375 0.15625 -0.625q0.15625 -0.28125 0.40625 -0.453125q0.25 -0.171875 0.5625 -0.265625q0.234375 -0.046875 0.703125 -0.109375q0.96875 -0.109375 1.421875 -0.28125q0 -0.15625 0 -0.203125q0 -0.484375 -0.21875 -0.671875q-0.3125 -0.28125 -0.90625 -0.28125q-0.5625 0 -0.828125 0.203125q-0.265625 0.1875 -0.390625 0.6875l-0.765625 -0.09375q0.09375 -0.5 0.328125 -0.796875q0.25 -0.3125 0.703125 -0.46875q0.46875 -0.171875 1.0625 -0.171875q0.609375 0 0.96875 0.140625q0.375 0.140625 0.546875 0.359375q0.1875 0.203125 0.25 0.53125q0.046875 0.203125 0.046875 0.71875l0 1.0625q0 1.09375 0.046875 1.390625q0.046875 0.296875 0.203125 0.5625l-0.828125 0q-0.125 -0.25 -0.15625 -0.578125zm-0.0625 -1.765625q-0.4375 0.171875 -1.296875 0.296875q-0.484375 0.078125 -0.6875 0.171875q-0.203125 0.078125 -0.3125 0.25q-0.109375 0.171875 -0.109375 0.375q0 0.3125 0.234375 0.53125q0.234375 0.203125 0.703125 0.203125q0.453125 0 0.8125 -0.203125q0.359375 -0.203125 0.53125 -0.546875q0.125 -0.265625 0.125 -0.78125l0 -0.296875zm3.9378662 1.640625l0.109375 0.6875q-0.34375 0.078125 -0.59375 0.078125q-0.4375 0 -0.671875 -0.140625q-0.234375 -0.140625 -0.34375 -0.359375q-0.09375 -0.21875 -0.09375 -0.921875l0 -2.6875l-0.578125 0l0 -0.625l0.578125 0l0 -1.15625l0.796875 -0.46875l0 1.625l0.796875 0l0 0.625l-0.796875 0l0 2.71875q0 0.34375 0.03125 0.4375q0.046875 0.09375 0.140625 0.15625q0.09375 0.0625 0.265625 0.0625q0.140625 0 0.359375 -0.03125zm0.8572693 -4.828125l0 -0.90625l0.796875 0l0 0.90625l-0.796875 0zm0 5.53125l0 -4.671875l0.796875 0l0 4.671875l-0.796875 0zm3.3692932 0l-1.78125 -4.671875l0.84375 0l1.0 2.796875q0.15625 0.453125 0.296875 0.9375q0.109375 -0.359375 0.296875 -0.875l1.03125 -2.859375l0.8125 0l-1.765625 4.671875l-0.734375 0zm6.5546875 -1.5l0.828125 0.09375q-0.203125 0.71875 -0.734375 1.125q-0.515625 0.390625 -1.328125 0.390625q-1.015625 0 -1.625 -0.625q-0.59375 -0.640625 -0.59375 -1.78125q0 -1.171875 0.609375 -1.8125q0.609375 -0.65625 1.578125 -0.65625q0.9375 0 1.515625 0.640625q0.59375 0.625 0.59375 1.78125q0 0.078125 0 0.21875l-3.484375 0q0.046875 0.765625 0.4375 1.171875q0.390625 0.40625 0.984375 0.40625q0.4375 0 0.734375 -0.21875q0.3125 -0.234375 0.484375 -0.734375zm-2.59375 -1.28125l2.609375 0q-0.046875 -0.59375 -0.296875 -0.890625q-0.375 -0.453125 -0.984375 -0.453125q-0.546875 0 -0.921875 0.375q-0.359375 0.359375 -0.40625 0.96875zm7.185791 2.78125l0 -4.671875l0.71875 0l0 0.671875q0.5 -0.765625 1.484375 -0.765625q0.421875 0 0.765625 0.15625q0.359375 0.140625 0.53125 0.390625q0.171875 0.234375 0.25 0.578125q0.046875 0.21875 0.046875 0.765625l0 2.875l-0.796875 0l0 -2.84375q0 -0.484375 -0.09375 -0.71875q-0.09375 -0.234375 -0.328125 -0.375q-0.234375 -0.15625 -0.546875 -0.15625q-0.5 0 -0.875 0.328125q-0.359375 0.3125 -0.359375 1.21875l0 2.546875l-0.796875 0zm8.375366 -1.5l0.828125 0.09375q-0.203125 0.71875 -0.734375 1.125q-0.515625 0.390625 -1.328125 0.390625q-1.015625 0 -1.625 -0.625q-0.59375 -0.640625 -0.59375 -1.78125q0 -1.171875 0.609375 -1.8125q0.609375 -0.65625 1.578125 -0.65625q0.9375 0 1.515625 0.640625q0.59375 0.625 0.59375 1.78125q0 0.078125 0 0.21875l-3.484375 0q0.046875 0.765625 0.4375 1.171875q0.390625 0.40625 0.984375 0.40625q0.4375 0 0.734375 -0.21875q0.3125 -0.234375 0.484375 -0.734375zm-2.59375 -1.28125l2.609375 0q-0.046875 -0.59375 -0.296875 -0.890625q-0.375 -0.453125 -0.984375 -0.453125q-0.546875 0 -0.921875 0.375q-0.359375 0.359375 -0.40625 0.96875zm6.328491 2.078125l0.109375 0.6875q-0.34375 0.078125 -0.59375 0.078125q-0.4375 0 -0.671875 -0.140625q-0.234375 -0.140625 -0.34375 -0.359375q-0.09375 -0.21875 -0.09375 -0.921875l0 -2.6875l-0.578125 0l0 -0.625l0.578125 0l0 -1.15625l0.796875 -0.46875l0 1.625l0.796875 0l0 0.625l-0.796875 0l0 2.71875q0 0.34375 0.03125 0.4375q0.046875 0.09375 0.140625 0.15625q0.09375 0.0625 0.265625 0.0625q0.140625 0 0.359375 -0.03125zm1.7166443 0.703125l-1.421875 -4.671875l0.8125 0l0.75 2.703125l0.265625 1.0q0.015625 -0.078125 0.25 -0.96875l0.734375 -2.734375l0.8125 0l0.703125 2.71875l0.234375 0.890625l0.265625 -0.90625l0.796875 -2.703125l0.765625 0l-1.453125 4.671875l-0.8125 0l-0.75 -2.796875l-0.1875 -0.796875l-0.9375 3.59375l-0.828125 0zm5.5802307 -2.328125q0 -1.296875 0.71875 -1.921875q0.609375 -0.515625 1.46875 -0.515625q0.96875 0 1.578125 0.625q0.609375 0.625 0.609375 1.734375q0 0.90625 -0.28125 1.421875q-0.265625 0.515625 -0.78125 0.8125q-0.515625 0.28125 -1.125 0.28125q-0.984375 0 -1.59375 -0.625q-0.59375 -0.640625 -0.59375 -1.8125zm0.8125 0q0 0.890625 0.390625 1.34375q0.390625 0.4375 0.984375 0.4375q0.59375 0 0.984375 -0.4375q0.390625 -0.453125 0.390625 -1.375q0 -0.859375 -0.390625 -1.3125q-0.390625 -0.453125 -0.984375 -0.453125q-0.59375 0 -0.984375 0.453125q-0.390625 0.4375 -0.390625 1.34375zm4.656616 2.328125l0 -4.671875l0.71875 0l0 0.71875q0.265625 -0.5 0.5 -0.65625q0.234375 -0.15625 0.515625 -0.15625q0.390625 0 0.8125 0.25l-0.28125 0.734375q-0.28125 -0.171875 -0.578125 -0.171875q-0.25 0 -0.46875 0.15625q-0.203125 0.15625 -0.296875 0.4375q-0.125 0.421875 -0.125 0.921875l0 2.4375l-0.796875 0zm3.1219788 0l0 -6.4375l0.796875 0l0 3.671875l1.875 -1.90625l1.015625 0l-1.78125 1.734375l1.96875 2.9375l-0.984375 0l-1.53125 -2.390625l-0.5625 0.546875l0 1.84375l-0.796875 0z" fill-rule="nonzero"></path><path fill="#cfe2f3" d="m112.0 182.59317l61.984253 0l0 29.007874l-61.984253 0z" fill-rule="nonzero"></path><path stroke="#000000" stroke-width="2.0" stroke-linejoin="round" stroke-linecap="butt" d="m112.0 182.59317l61.984253 0l0 29.007874l-61.984253 0z" fill-rule="nonzero"></path><path fill="#000000" d="m122.03125 201.89711l0 -9.3125l6.71875 0l0 1.109375l-5.484375 0l0 2.84375l5.140625 0l0 1.09375l-5.140625 0l0 3.171875l5.703125 0l0 1.09375l-6.9375 0zm11.21788 -1.015625l0.15625 1.0q-0.484375 0.109375 -0.859375 0.109375q-0.625 0 -0.96875 -0.203125q-0.34375 -0.203125 -0.484375 -0.515625q-0.140625 -0.328125 -0.140625 -1.34375l0 -3.890625l-0.828125 0l0 -0.875l0.828125 0l0 -1.671875l1.140625 -0.6875l0 2.359375l1.15625 0l0 0.875l-1.15625 0l0 3.953125q0 0.484375 0.0625 0.625q0.0625 0.140625 0.1875 0.21875q0.140625 0.078125 0.390625 0.078125q0.203125 0 0.515625 -0.03125zm1.2029877 1.015625l0 -9.3125l1.140625 0l0 3.34375q0.796875 -0.921875 2.015625 -0.921875q0.75 0 1.296875 0.296875q0.5625 0.296875 0.796875 0.8125q0.234375 0.515625 0.234375 1.515625l0 4.265625l-1.140625 0l0 -4.265625q0 -0.859375 -0.375 -1.25q-0.359375 -0.390625 -1.046875 -0.390625q-0.5 0 -0.953125 0.265625q-0.453125 0.25 -0.640625 0.703125q-0.1875 0.453125 -0.1875 1.25l0 3.6875l-1.140625 0zm13.099976 -1.09375l0 1.09375l-6.15625 0q-0.015625 -0.40625 0.140625 -0.796875q0.234375 -0.625 0.75 -1.234375q0.515625 -0.609375 1.5 -1.40625q1.515625 -1.25 2.046875 -1.96875q0.53125 -0.734375 0.53125 -1.375q0 -0.6875 -0.484375 -1.140625q-0.484375 -0.46875 -1.265625 -0.46875q-0.828125 0 -1.328125 0.5q-0.484375 0.484375 -0.5 1.359375l-1.171875 -0.125q0.125 -1.3125 0.90625 -2.0q0.78125 -0.6875 2.109375 -0.6875q1.34375 0 2.125 0.75q0.78125 0.734375 0.78125 1.828125q0 0.5625 -0.234375 1.109375q-0.21875 0.53125 -0.75 1.140625q-0.53125 0.59375 -1.765625 1.625q-1.03125 0.859375 -1.328125 1.171875q-0.28125 0.3125 -0.46875 0.625l4.5625 0z" fill-rule="nonzero"></path><path fill="#000000" fill-opacity="0.0" d="m173.98425 197.0971l42.015747 0" fill-rule="nonzero"></path><path stroke="#000000" stroke-width="2.0" stroke-linejoin="round" stroke-linecap="butt" d="m173.98425 197.0971l35.161575 0" fill-rule="evenodd"></path><path fill="#000000" stroke="#000000" stroke-width="2.0" stroke-linecap="butt" d="m209.14583 197.0971l-2.249176 2.249176l6.17955 -2.249176l-6.17955 -2.2491608z" fill-rule="evenodd"></path><path fill="#cfe2f3" d="m216.76378 197.0971l0 0c0 -7.4623566 6.0494385 -13.51181 13.51181 -13.51181l51.842514 0l0 0c3.5835571 0 7.020355 1.4235687 9.554291 3.9575195c2.533966 2.533966 3.9575195 5.970749 3.9575195 9.554291l0 0l0 0c0 7.462372 -6.0494385 13.51181 -13.51181 13.51181l-51.842514 0c-7.462372 0 -13.51181 -6.0494385 -13.51181 -13.51181z" fill-rule="nonzero"></path><path stroke="#000000" stroke-width="2.0" stroke-linejoin="round" stroke-linecap="butt" d="m216.76378 197.0971l0 0c0 -7.4623566 6.0494385 -13.51181 13.51181 -13.51181l51.842514 0l0 0c3.5835571 0 7.020355 1.4235687 9.554291 3.9575195c2.533966 2.533966 3.9575195 5.970749 3.9575195 9.554291l0 0l0 0c0 7.462372 -6.0494385 13.51181 -13.51181 13.51181l-51.842514 0c-7.462372 0 -13.51181 -6.0494385 -13.51181 -13.51181z" fill-rule="nonzero"></path><path fill="#000000" d="m231.6275 201.89711l-1.0625 0l0 -9.3125l1.15625 0l0 3.328125q0.71875 -0.90625 1.84375 -0.90625q0.625 0 1.171875 0.25q0.5625 0.25 0.921875 0.703125q0.359375 0.453125 0.5625 1.09375q0.203125 0.640625 0.203125 1.375q0 1.734375 -0.859375 2.6875q-0.859375 0.9375 -2.0625 0.9375q-1.1875 0 -1.875 -1.0l0 0.84375zm-0.015625 -3.421875q0 1.21875 0.34375 1.75q0.53125 0.890625 1.453125 0.890625q0.75 0 1.296875 -0.65625q0.546875 -0.65625 0.546875 -1.9375q0 -1.328125 -0.53125 -1.953125q-0.515625 -0.625 -1.265625 -0.625q-0.75 0 -1.296875 0.65625q-0.546875 0.640625 -0.546875 1.875zm6.3656006 3.421875l0 -6.734375l1.03125 0l0 1.015625q0.390625 -0.71875 0.71875 -0.9375q0.34375 -0.234375 0.734375 -0.234375q0.578125 0 1.171875 0.359375l-0.390625 1.0625q-0.421875 -0.25 -0.828125 -0.25q-0.375 0 -0.6875 0.234375q-0.296875 0.21875 -0.421875 0.625q-0.1875 0.609375 -0.1875 1.328125l0 3.53125l-1.140625 0zm4.0008698 -2.796875l0 -1.140625l3.515625 0l0 1.140625l-3.515625 0zm9.50087 0.625l1.1875 0.140625q-0.28125 1.046875 -1.046875 1.625q-0.75 0.5625 -1.921875 0.5625q-1.484375 0 -2.359375 -0.90625q-0.859375 -0.921875 -0.859375 -2.5625q0 -1.703125 0.875 -2.640625q0.890625 -0.9375 2.28125 -0.9375q1.359375 0 2.203125 0.921875q0.859375 0.921875 0.859375 2.578125q0 0.109375 0 0.3125l-5.03125 0q0.0625 1.109375 0.625 1.703125q0.5625 0.59375 1.40625 0.59375q0.640625 0 1.078125 -0.328125q0.453125 -0.34375 0.703125 -1.0625zm-3.75 -1.84375l3.765625 0q-0.078125 -0.859375 -0.4375 -1.28125q-0.546875 -0.65625 -1.40625 -0.65625q-0.796875 0 -1.328125 0.53125q-0.53125 0.515625 -0.59375 1.40625zm9.053101 3.0l0.15625 1.0q-0.484375 0.109375 -0.859375 0.109375q-0.625 0 -0.96875 -0.203125q-0.34375 -0.203125 -0.484375 -0.515625q-0.140625 -0.328125 -0.140625 -1.34375l0 -3.890625l-0.828125 0l0 -0.875l0.828125 0l0 -1.671875l1.140625 -0.6875l0 2.359375l1.15625 0l0 0.875l-1.15625 0l0 3.953125q0 0.484375 0.0625 0.625q0.0625 0.140625 0.1875 0.21875q0.140625 0.078125 0.390625 0.078125q0.203125 0 0.515625 -0.03125zm1.2030029 1.015625l0 -9.3125l1.140625 0l0 3.34375q0.796875 -0.921875 2.015625 -0.921875q0.75 0 1.296875 0.296875q0.5625 0.296875 0.796875 0.8125q0.234375 0.515625 0.234375 1.515625l0 4.265625l-1.140625 0l0 -4.265625q0 -0.859375 -0.375 -1.25q-0.359375 -0.390625 -1.046875 -0.390625q-0.5 0 -0.953125 0.265625q-0.453125 0.25 -0.640625 0.703125q-0.1875 0.453125 -0.1875 1.25l0 3.6875l-1.140625 0zm13.099976 -1.09375l0 1.09375l-6.15625 0q-0.015625 -0.40625 0.140625 -0.796875q0.234375 -0.625 0.75 -1.234375q0.515625 -0.609375 1.5 -1.40625q1.515625 -1.25 2.046875 -1.96875q0.53125 -0.734375 0.53125 -1.375q0 -0.6875 -0.484375 -1.140625q-0.484375 -0.46875 -1.265625 -0.46875q-0.828125 0 -1.328125 0.5q-0.484375 0.484375 -0.5 1.359375l-1.171875 -0.125q0.125 -1.3125 0.90625 -2.0q0.78125 -0.6875 2.109375 -0.6875q1.34375 0 2.125 0.75q0.78125 0.734375 0.78125 1.828125q0 0.5625 -0.234375 1.109375q-0.21875 0.53125 -0.75 1.140625q-0.53125 0.59375 -1.765625 1.625q-1.03125 0.859375 -1.328125 1.171875q-0.28125 0.3125 -0.46875 0.625l4.5625 0z" fill-rule="nonzero"></path><path fill="#cfe2f3" d="m112.0 226.66142l61.984253 0l0 29.007874l-61.984253 0z" fill-rule="nonzero"></path><path stroke="#000000" stroke-width="2.0" stroke-linejoin="round" stroke-linecap="butt" d="m112.0 226.66142l61.984253 0l0 29.007874l-61.984253 0z" fill-rule="nonzero"></path><path fill="#000000" d="m122.03125 245.96535l0 -9.3125l6.71875 0l0 1.109375l-5.484375 0l0 2.84375l5.140625 0l0 1.09375l-5.140625 0l0 3.171875l5.703125 0l0 1.09375l-6.9375 0zm11.21788 -1.015625l0.15625 1.0q-0.484375 0.109375 -0.859375 0.109375q-0.625 0 -0.96875 -0.203125q-0.34375 -0.203125 -0.484375 -0.515625q-0.140625 -0.328125 -0.140625 -1.34375l0 -3.890625l-0.828125 0l0 -0.875l0.828125 0l0 -1.671875l1.140625 -0.6875l0 2.359375l1.15625 0l0 0.875l-1.15625 0l0 3.953125q0 0.484375 0.0625 0.625q0.0625 0.140625 0.1875 0.21875q0.140625 0.078125 0.390625 0.078125q0.203125 0 0.515625 -0.03125zm1.2029877 1.015625l0 -9.3125l1.140625 0l0 3.34375q0.796875 -0.921875 2.015625 -0.921875q0.75 0 1.296875 0.296875q0.5625 0.296875 0.796875 0.8125q0.234375 0.515625 0.234375 1.515625l0 4.265625l-1.140625 0l0 -4.265625q0 -0.859375 -0.375 -1.25q-0.359375 -0.390625 -1.046875 -0.390625q-0.5 0 -0.953125 0.265625q-0.453125 0.25 -0.640625 0.703125q-0.1875 0.453125 -0.1875 1.25l0 3.6875l-1.140625 0zm7.0999756 -2.453125l1.140625 -0.15625q0.203125 0.96875 0.671875 1.40625q0.46875 0.421875 1.15625 0.421875q0.796875 0 1.34375 -0.546875q0.5625 -0.5625 0.5625 -1.390625q0 -0.796875 -0.515625 -1.296875q-0.5 -0.515625 -1.296875 -0.515625q-0.328125 0 -0.8125 0.125l0.125 -1.0q0.125 0.015625 0.1875 0.015625q0.734375 0 1.3125 -0.375q0.59375 -0.390625 0.59375 -1.1875q0 -0.625 -0.4375 -1.03125q-0.421875 -0.421875 -1.09375 -0.421875q-0.671875 0 -1.109375 0.421875q-0.4375 0.421875 -0.578125 1.25l-1.140625 -0.203125q0.21875 -1.140625 0.953125 -1.765625q0.75 -0.640625 1.84375 -0.640625q0.765625 0 1.40625 0.328125q0.640625 0.328125 0.984375 0.890625q0.34375 0.5625 0.34375 1.203125q0 0.59375 -0.328125 1.09375q-0.328125 0.5 -0.953125 0.78125q0.8125 0.203125 1.265625 0.796875q0.46875 0.59375 0.46875 1.5q0 1.21875 -0.890625 2.078125q-0.890625 0.84375 -2.25 0.84375q-1.21875 0 -2.03125 -0.734375q-0.8125 -0.734375 -0.921875 -1.890625z" fill-rule="nonzero"></path><path fill="#000000" fill-opacity="0.0" d="m173.98425 241.16536l42.015747 0" fill-rule="nonzero"></path><path stroke="#000000" stroke-width="2.0" stroke-linejoin="round" stroke-linecap="butt" d="m173.98425 241.16536l35.161575 0" fill-rule="evenodd"></path><path fill="#000000" stroke="#000000" stroke-width="2.0" stroke-linecap="butt" d="m209.14583 241.16536l-2.249176 2.2491608l6.17955 -2.2491608l-6.17955 -2.249176z" fill-rule="evenodd"></path><path fill="#cfe2f3" d="m216.76378 241.16536l0 0c0 -7.462372 6.0494385 -13.51181 13.51181 -13.51181l51.842514 0l0 0c3.5835571 0 7.020355 1.4235535 9.554291 3.9575195c2.533966 2.5339508 3.9575195 5.9707336 3.9575195 9.554291l0 0l0 0c0 7.4623566 -6.0494385 13.51181 -13.51181 13.51181l-51.842514 0c-7.462372 0 -13.51181 -6.0494537 -13.51181 -13.51181z" fill-rule="nonzero"></path><path stroke="#000000" stroke-width="2.0" stroke-linejoin="round" stroke-linecap="butt" d="m216.76378 241.16536l0 0c0 -7.462372 6.0494385 -13.51181 13.51181 -13.51181l51.842514 0l0 0c3.5835571 0 7.020355 1.4235535 9.554291 3.9575195c2.533966 2.5339508 3.9575195 5.9707336 3.9575195 9.554291l0 0l0 0c0 7.4623566 -6.0494385 13.51181 -13.51181 13.51181l-51.842514 0c-7.462372 0 -13.51181 -6.0494537 -13.51181 -13.51181z" fill-rule="nonzero"></path><path fill="#000000" d="m231.6275 245.96535l-1.0625 0l0 -9.3125l1.15625 0l0 3.328125q0.71875 -0.90625 1.84375 -0.90625q0.625 0 1.171875 0.25q0.5625 0.25 0.921875 0.703125q0.359375 0.453125 0.5625 1.09375q0.203125 0.640625 0.203125 1.375q0 1.734375 -0.859375 2.6875q-0.859375 0.9375 -2.0625 0.9375q-1.1875 0 -1.875 -1.0l0 0.84375zm-0.015625 -3.421875q0 1.21875 0.34375 1.75q0.53125 0.890625 1.453125 0.890625q0.75 0 1.296875 -0.65625q0.546875 -0.65625 0.546875 -1.9375q0 -1.328125 -0.53125 -1.953125q-0.515625 -0.625 -1.265625 -0.625q-0.75 0 -1.296875 0.65625q-0.546875 0.640625 -0.546875 1.875zm6.3656006 3.421875l0 -6.734375l1.03125 0l0 1.015625q0.390625 -0.71875 0.71875 -0.9375q0.34375 -0.234375 0.734375 -0.234375q0.578125 0 1.171875 0.359375l-0.390625 1.0625q-0.421875 -0.25 -0.828125 -0.25q-0.375 0 -0.6875 0.234375q-0.296875 0.21875 -0.421875 0.625q-0.1875 0.609375 -0.1875 1.328125l0 3.53125l-1.140625 0zm4.0008698 -2.796875l0 -1.140625l3.515625 0l0 1.140625l-3.515625 0zm9.50087 0.625l1.1875 0.140625q-0.28125 1.046875 -1.046875 1.625q-0.75 0.5625 -1.921875 0.5625q-1.484375 0 -2.359375 -0.90625q-0.859375 -0.921875 -0.859375 -2.5625q0 -1.703125 0.875 -2.640625q0.890625 -0.9375 2.28125 -0.9375q1.359375 0 2.203125 0.921875q0.859375 0.921875 0.859375 2.578125q0 0.109375 0 0.3125l-5.03125 0q0.0625 1.109375 0.625 1.703125q0.5625 0.59375 1.40625 0.59375q0.640625 0 1.078125 -0.328125q0.453125 -0.34375 0.703125 -1.0625zm-3.75 -1.84375l3.765625 0q-0.078125 -0.859375 -0.4375 -1.28125q-0.546875 -0.65625 -1.40625 -0.65625q-0.796875 0 -1.328125 0.53125q-0.53125 0.515625 -0.59375 1.40625zm9.053101 3.0l0.15625 1.0q-0.484375 0.109375 -0.859375 0.109375q-0.625 0 -0.96875 -0.203125q-0.34375 -0.203125 -0.484375 -0.515625q-0.140625 -0.328125 -0.140625 -1.34375l0 -3.890625l-0.828125 0l0 -0.875l0.828125 0l0 -1.671875l1.140625 -0.6875l0 2.359375l1.15625 0l0 0.875l-1.15625 0l0 3.953125q0 0.484375 0.0625 0.625q0.0625 0.140625 0.1875 0.21875q0.140625 0.078125 0.390625 0.078125q0.203125 0 0.515625 -0.03125zm1.2030029 1.015625l0 -9.3125l1.140625 0l0 3.34375q0.796875 -0.921875 2.015625 -0.921875q0.75 0 1.296875 0.296875q0.5625 0.296875 0.796875 0.8125q0.234375 0.515625 0.234375 1.515625l0 4.265625l-1.140625 0l0 -4.265625q0 -0.859375 -0.375 -1.25q-0.359375 -0.390625 -1.046875 -0.390625q-0.5 0 -0.953125 0.265625q-0.453125 0.25 -0.640625 0.703125q-0.1875 0.453125 -0.1875 1.25l0 3.6875l-1.140625 0zm7.0999756 -2.453125l1.140625 -0.15625q0.203125 0.96875 0.671875 1.40625q0.46875 0.421875 1.15625 0.421875q0.796875 0 1.34375 -0.546875q0.5625 -0.5625 0.5625 -1.390625q0 -0.796875 -0.515625 -1.296875q-0.5 -0.515625 -1.296875 -0.515625q-0.328125 0 -0.8125 0.125l0.125 -1.0q0.125 0.015625 0.1875 0.015625q0.734375 0 1.3125 -0.375q0.59375 -0.390625 0.59375 -1.1875q0 -0.625 -0.4375 -1.03125q-0.421875 -0.421875 -1.09375 -0.421875q-0.671875 0 -1.109375 0.421875q-0.4375 0.421875 -0.578125 1.25l-1.140625 -0.203125q0.21875 -1.140625 0.953125 -1.765625q0.75 -0.640625 1.84375 -0.640625q0.765625 0 1.40625 0.328125q0.640625 0.328125 0.984375 0.890625q0.34375 0.5625 0.34375 1.203125q0 0.59375 -0.328125 1.09375q-0.328125 0.5 -0.953125 0.78125q0.8125 0.203125 1.265625 0.796875q0.46875 0.59375 0.46875 1.5q0 1.21875 -0.890625 2.078125q-0.890625 0.84375 -2.25 0.84375q-1.21875 0 -2.03125 -0.734375q-0.8125 -0.734375 -0.921875 -1.890625z" fill-rule="nonzero"></path><path fill="#000000" fill-opacity="0.0" d="m295.6299 241.16536l149.37009 0" fill-rule="nonzero"></path><path stroke="#000000" stroke-width="2.0" stroke-linejoin="round" stroke-linecap="butt" d="m307.6299 241.16536l125.37009 0" fill-rule="evenodd"></path><path fill="#000000" stroke="#000000" stroke-width="2.0" stroke-linecap="butt" d="m307.6299 237.8619l-9.076202 3.3034668l9.076202 3.3034668z" fill-rule="evenodd"></path><path fill="#000000" stroke="#000000" stroke-width="2.0" stroke-linecap="butt" d="m433.0 244.46883l9.076202 -3.3034668l-9.076202 -3.3034668z" fill-rule="evenodd"></path></g></svg>

