<?xml version="1.0" standalone="yes"?>

<svg version="1.1" viewBox="0.0 0.0 720.0 540.0" fill="none" stroke="none" stroke-linecap="square" stroke-miterlimit="10" xmlns="http://www.w3.org/2000/svg" xmlns:xlink="http://www.w3.org/1999/xlink"><clipPath id="p.0"><path d="m0 0l720.0 0l0 540.0l-720.0 0l0 -540.0z" clip-rule="nonzero"></path></clipPath><g clip-path="url(#p.0)"><path fill="#000000" fill-opacity="0.0" d="m0 0l720.0 0l0 540.0l-720.0 0z" fill-rule="nonzero"></path><path fill="#cfe2f3" d="m112.0 62.46719l61.984253 0l0 29.007877l-61.984253 0z" fill-rule="nonzero"></path><path stroke="#000000" stroke-width="2.0" stroke-linejoin="round" stroke-linecap="butt" d="m112.0 62.46719l61.984253 0l0 29.007877l-61.984253 0z" fill-rule="nonzero"></path><path fill="#000000" d="m122.03125 81.771126l0 -9.3125l6.71875 0l0 1.109375l-5.484375 0l0 2.84375l5.140625 0l0 1.09375l-5.140625 0l0 3.171875l5.703125 0l0 1.09375l-6.9375 0zm11.21788 -1.015625l0.15625 1.0q-0.484375 0.109375 -0.859375 0.109375q-0.625 0 -0.96875 -0.203125q-0.34375 -0.203125 -0.484375 -0.515625q-0.140625 -0.328125 -0.140625 -1.34375l0 -3.890625l-0.828125 0l0 -0.875l0.828125 0l0 -1.671875l1.140625 -0.6875l0 2.359375l1.15625 0l0 0.875l-1.15625 0l0 3.953125q0 0.484375 0.0625 0.625q0.0625 0.140625 0.1875 0.21875q0.140625 0.078125 0.390625 0.078125q0.203125 0 0.515625 -0.03125zm1.2029877 1.015625l0 -9.3125l1.140625 0l0 3.34375q0.796875 -0.921875 2.015625 -0.921875q0.75 0 1.296875 0.296875q0.5625 0.296875 0.796875 0.8125q0.234375 0.515625 0.234375 1.515625l0 4.265625l-1.140625 0l0 -4.265625q0 -0.859375 -0.375 -1.25q-0.359375 -0.390625 -1.046875 -0.390625q-0.5 0 -0.953125 0.265625q-0.453125 0.25 -0.640625 0.703125q-0.1875 0.453125 -0.1875 1.25l0 3.6875l-1.140625 0zm7.0999756 -4.59375q0 -1.640625 0.328125 -2.640625q0.34375 -1.015625 1.015625 -1.5625q0.671875 -0.546875 1.6875 -0.546875q0.75 0 1.3125 0.3125q0.5625 0.296875 0.921875 0.859375q0.375 0.5625 0.578125 1.390625q0.21875 0.8125 0.21875 2.1875q0 1.640625 -0.34375 2.65625q-0.328125 1.0 -1.0 1.546875q-0.671875 0.546875 -1.6875 0.546875q-1.34375 0 -2.125 -0.96875q-0.90625 -1.15625 -0.90625 -3.78125zm1.171875 0q0 2.296875 0.53125 3.0625q0.53125 0.75 1.328125 0.75q0.78125 0 1.3125 -0.75q0.546875 -0.765625 0.546875 -3.0625q0 -2.296875 -0.546875 -3.046875q-0.53125 -0.75 -1.328125 -0.75q-0.78125 0 -1.265625 0.65625q-0.578125 0.859375 -0.578125 3.140625z" fill-rule="nonzero"></path><path fill="#cfe2f3" d="m445.0 221.46982l0 0c0 -7.462372 6.0494385 -13.51181 13.51181 -13.51181l82.456696 0c3.5835571 0 7.0203247 1.4235535 9.554321 3.9575195c2.5339355 2.5339508 3.9575195 5.9707336 3.9575195 9.554291l0 0l0 0c0 7.462372 -6.0494995 13.51181 -13.511841 13.51181l-82.456696 0c-7.462372 0 -13.51181 -6.0494385 -13.51181 -13.51181z" fill-rule="nonzero"></path><path stroke="#000000" stroke-width="2.0" stroke-linejoin="round" stroke-linecap="butt" d="m445.0 221.46982l0 0c0 -7.462372 6.0494385 -13.51181 13.51181 -13.51181l82.456696 0c3.5835571 0 7.0203247 1.4235535 9.554321 3.9575195c2.5339355 2.5339508 3.9575195 5.9707336 3.9575195 9.554291l0 0l0 0c0 7.462372 -6.0494995 13.51181 -13.511841 13.51181l-82.456696 0c-7.462372 0 -13.51181 -6.0494385 -13.51181 -13.51181z" fill-rule="nonzero"></path><path fill="#000000" d="m459.86374 226.26982l-1.0625 0l0 -9.3125l1.15625 0l0 3.328125q0.71875 -0.90625 1.84375 -0.90625q0.625 0 1.171875 0.25q0.5625 0.25 0.921875 0.703125q0.359375 0.453125 0.5625 1.09375q0.203125 0.640625 0.203125 1.375q0 1.734375 -0.859375 2.6875q-0.859375 0.9375 -2.0625 0.9375q-1.1875 0 -1.875 -1.0l0 0.84375zm-0.015625 -3.421875q0 1.21875 0.34375 1.75q0.53125 0.890625 1.453125 0.890625q0.75 0 1.296875 -0.65625q0.546875 -0.65625 0.546875 -1.9375q0 -1.328125 -0.53125 -1.953125q-0.515625 -0.625 -1.265625 -0.625q-0.75 0 -1.296875 0.65625q-0.546875 0.640625 -0.546875 1.875zm6.3656006 3.421875l0 -6.734375l1.03125 0l0 1.015625q0.390625 -0.71875 0.71875 -0.9375q0.34375 -0.234375 0.734375 -0.234375q0.578125 0 1.171875 0.359375l-0.390625 1.0625q-0.421875 -0.25 -0.828125 -0.25q-0.375 0 -0.6875 0.234375q-0.296875 0.21875 -0.421875 0.625q-0.1875 0.609375 -0.1875 1.328125l0 3.53125l-1.140625 0zm4.0008545 -2.796875l0 -1.140625l3.515625 0l0 1.140625l-3.515625 0zm4.438385 0.78125l1.125 -0.171875q0.09375 0.671875 0.53125 1.046875q0.4375 0.359375 1.21875 0.359375q0.78125 0 1.15625 -0.3125q0.390625 -0.328125 0.390625 -0.765625q0 -0.390625 -0.34375 -0.609375q-0.234375 -0.15625 -1.171875 -0.390625q-1.25 -0.3125 -1.734375 -0.546875q-0.484375 -0.234375 -0.734375 -0.640625q-0.25 -0.40625 -0.25 -0.90625q0 -0.453125 0.203125 -0.828125q0.203125 -0.390625 0.5625 -0.640625q0.265625 -0.203125 0.71875 -0.328125q0.46875 -0.140625 1.0 -0.140625q0.78125 0 1.375 0.234375q0.609375 0.21875 0.890625 0.609375q0.296875 0.390625 0.40625 1.046875l-1.125 0.15625q-0.078125 -0.53125 -0.4375 -0.8125q-0.359375 -0.296875 -1.03125 -0.296875q-0.78125 0 -1.125 0.265625q-0.34375 0.25 -0.34375 0.609375q0 0.21875 0.140625 0.390625q0.140625 0.1875 0.4375 0.3125q0.171875 0.0625 1.015625 0.28125q1.21875 0.328125 1.6875 0.53125q0.484375 0.203125 0.75 0.609375q0.28125 0.390625 0.28125 0.96875q0 0.578125 -0.34375 1.078125q-0.328125 0.5 -0.953125 0.78125q-0.625 0.28125 -1.421875 0.28125q-1.3125 0 -2.0 -0.546875q-0.6875 -0.546875 -0.875 -1.625zm9.6171875 1.0l0.15625 1.0q-0.484375 0.109375 -0.859375 0.109375q-0.625 0 -0.96875 -0.203125q-0.34375 -0.203125 -0.484375 -0.515625q-0.140625 -0.328125 -0.140625 -1.34375l0 -3.890625l-0.828125 0l0 -0.875l0.828125 0l0 -1.671875l1.140625 -0.6875l0 2.359375l1.15625 0l0 0.875l-1.15625 0l0 3.953125q0 0.484375 0.0625 0.625q0.0625 0.140625 0.1875 0.21875q0.140625 0.078125 0.390625 0.078125q0.203125 0 0.515625 -0.03125zm0.7810974 -2.359375q0 -1.875 1.03125 -2.765625q0.875 -0.75 2.125 -0.75q1.390625 0 2.265625 0.90625q0.890625 0.90625 0.890625 2.515625q0 1.296875 -0.390625 2.046875q-0.390625 0.75 -1.140625 1.171875q-0.75 0.40625 -1.625 0.40625q-1.421875 0 -2.296875 -0.90625q-0.859375 -0.90625 -0.859375 -2.625zm1.171875 0q0 1.296875 0.5625 1.953125q0.5625 0.640625 1.421875 0.640625q0.84375 0 1.40625 -0.640625q0.578125 -0.65625 0.578125 -1.984375q0 -1.25 -0.578125 -1.890625q-0.5625 -0.65625 -1.40625 -0.65625q-0.859375 0 -1.421875 0.640625q-0.5625 0.640625 -0.5625 1.9375zm6.6468506 3.375l0 -6.734375l1.03125 0l0 1.015625q0.390625 -0.71875 0.71875 -0.9375q0.34375 -0.234375 0.734375 -0.234375q0.578125 0 1.171875 0.359375l-0.390625 1.0625q-0.421875 -0.25 -0.828125 -0.25q-0.375 0 -0.6875 0.234375q-0.296875 0.21875 -0.421875 0.625q-0.1875 0.609375 -0.1875 1.328125l0 3.53125l-1.140625 0zm8.844635 -0.828125q-0.625 0.53125 -1.21875 0.765625q-0.578125 0.21875 -1.25 0.21875q-1.125 0 -1.71875 -0.546875q-0.59375 -0.546875 -0.59375 -1.390625q0 -0.484375 0.21875 -0.890625q0.234375 -0.421875 0.59375 -0.671875q0.375 -0.25 0.828125 -0.375q0.328125 -0.078125 1.015625 -0.171875q1.375 -0.15625 2.03125 -0.390625q0.015625 -0.234375 0.015625 -0.296875q0 -0.703125 -0.328125 -0.984375q-0.4375 -0.390625 -1.296875 -0.390625q-0.8125 0 -1.203125 0.28125q-0.375 0.28125 -0.5625 1.0l-1.109375 -0.140625q0.140625 -0.71875 0.484375 -1.15625q0.359375 -0.453125 1.015625 -0.6875q0.671875 -0.234375 1.53125 -0.234375q0.875 0 1.40625 0.203125q0.546875 0.203125 0.796875 0.515625q0.25 0.296875 0.359375 0.765625q0.046875 0.296875 0.046875 1.0625l0 1.515625q0 1.59375 0.078125 2.015625q0.078125 0.421875 0.28125 0.8125l-1.1875 0q-0.171875 -0.359375 -0.234375 -0.828125zm-0.09375 -2.5625q-0.625 0.265625 -1.859375 0.4375q-0.703125 0.109375 -1.0 0.234375q-0.296875 0.125 -0.453125 0.375q-0.15625 0.234375 -0.15625 0.53125q0 0.453125 0.34375 0.765625q0.34375 0.296875 1.015625 0.296875q0.65625 0 1.171875 -0.28125q0.515625 -0.296875 0.765625 -0.796875q0.171875 -0.375 0.171875 -1.140625l0 -0.421875zm2.8968506 3.953125l1.125 0.15625q0.0625 0.515625 0.375 0.75q0.4375 0.328125 1.171875 0.328125q0.78125 0 1.21875 -0.328125q0.4375 -0.3125 0.578125 -0.890625q0.09375 -0.34375 0.09375 -1.453125q-0.75 0.875 -1.875 0.875q-1.390625 0 -2.15625 -1.0q-0.75 -1.0 -0.75 -2.40625q0 -0.96875 0.34375 -1.78125q0.359375 -0.8125 1.015625 -1.25q0.65625 -0.453125 1.5625 -0.453125q1.1875 0 1.96875 0.96875l0 -0.8125l1.046875 0l0 5.8125q0 1.578125 -0.328125 2.234375q-0.3125 0.65625 -1.015625 1.03125q-0.6875 0.390625 -1.703125 0.390625q-1.203125 0 -1.953125 -0.546875q-0.734375 -0.53125 -0.71875 -1.625zm0.953125 -4.046875q0 1.3125 0.515625 1.921875q0.53125 0.609375 1.328125 0.609375q0.796875 0 1.328125 -0.59375q0.53125 -0.609375 0.53125 -1.90625q0 -1.234375 -0.546875 -1.859375q-0.546875 -0.640625 -1.328125 -0.640625q-0.765625 0 -1.296875 0.625q-0.53125 0.625 -0.53125 1.84375zm11.287476 1.3125l1.1875 0.140625q-0.28125 1.046875 -1.046875 1.625q-0.75 0.5625 -1.921875 0.5625q-1.484375 0 -2.359375 -0.90625q-0.859375 -0.921875 -0.859375 -2.5625q0 -1.703125 0.875 -2.640625q0.890625 -0.9375 2.28125 -0.9375q1.359375 0 2.203125 0.921875q0.859375 0.921875 0.859375 2.578125q0 0.109375 0 0.3125l-5.03125 0q0.0625 1.109375 0.625 1.703125q0.5625 0.59375 1.40625 0.59375q0.640625 0 1.078125 -0.328125q0.453125 -0.34375 0.703125 -1.0625zm-3.75 -1.84375l3.765625 0q-0.078125 -0.859375 -0.4375 -1.28125q-0.546875 -0.65625 -1.40625 -0.65625q-0.796875 0 -1.328125 0.53125q-0.53125 0.515625 -0.59375 1.40625z" fill-rule="nonzero"></path><path fill="#000000" fill-opacity="0.0" d="m295.6299 221.46982l149.37009 0" fill-rule="nonzero"></path><path stroke="#000000" stroke-width="2.0" stroke-linejoin="round" stroke-linecap="butt" d="m307.6299 221.46982l125.37009 0" fill-rule="evenodd"></path><path fill="#000000" stroke="#000000" stroke-width="2.0" stroke-linecap="butt" d="m307.6299 218.16635l-9.076202 3.3034668l9.076202 3.3034668z" fill-rule="evenodd"></path><path fill="#000000" stroke="#000000" stroke-width="2.0" stroke-linecap="butt" d="m433.0 224.77328l9.076202 -3.3034668l-9.076202 -3.3034668z" fill-rule="evenodd"></path><path fill="#000000" fill-opacity="0.0" d="m292.3622 147.97113l152.63779 33.148285" fill-rule="nonzero"></path><path stroke="#000000" stroke-width="2.0" stroke-linejoin="round" stroke-linecap="butt" d="m304.08887 150.51779l129.18448 28.054962" fill-rule="evenodd"></path><path fill="#000000" stroke="#000000" stroke-width="2.0" stroke-linecap="butt" d="m304.78992 147.28958l-9.570496 1.3020477l8.1683655 5.1543884z" fill-rule="evenodd"></path><path fill="#000000" stroke="#000000" stroke-width="2.0" stroke-linecap="butt" d="m432.57227 181.80096l9.570526 -1.3020325l-8.1683655 -5.1544037z" fill-rule="evenodd"></path><path fill="#cfe2f3" d="m112.0 133.4672l61.984253 0l0 29.007874l-61.984253 0z" fill-rule="nonzero"></path><path stroke="#000000" stroke-width="2.0" stroke-linejoin="round" stroke-linecap="butt" d="m112.0 133.4672l61.984253 0l0 29.007874l-61.984253 0z" fill-rule="nonzero"></path><path fill="#000000" d="m122.03125 152.77113l0 -9.3125l6.71875 0l0 1.109375l-5.484375 0l0 2.84375l5.140625 0l0 1.09375l-5.140625 0l0 3.171875l5.703125 0l0 1.09375l-6.9375 0zm11.21788 -1.015625l0.15625 1.0q-0.484375 0.109375 -0.859375 0.109375q-0.625 0 -0.96875 -0.203125q-0.34375 -0.203125 -0.484375 -0.515625q-0.140625 -0.328125 -0.140625 -1.34375l0 -3.890625l-0.828125 0l0 -0.875l0.828125 0l0 -1.671875l1.140625 -0.6875l0 2.359375l1.15625 0l0 0.875l-1.15625 0l0 3.953125q0 0.484375 0.0625 0.625q0.0625 0.140625 0.1875 0.21875q0.140625 0.078125 0.390625 0.078125q0.203125 0 0.515625 -0.03125zm1.2029877 1.015625l0 -9.3125l1.140625 0l0 3.34375q0.796875 -0.921875 2.015625 -0.921875q0.75 0 1.296875 0.296875q0.5625 0.296875 0.796875 0.8125q0.234375 0.515625 0.234375 1.515625l0 4.265625l-1.140625 0l0 -4.265625q0 -0.859375 -0.375 -1.25q-0.359375 -0.390625 -1.046875 -0.390625q-0.5 0 -0.953125 0.265625q-0.453125 0.25 -0.640625 0.703125q-0.1875 0.453125 -0.1875 1.25l0 3.6875l-1.140625 0zm11.396851 0l-1.140625 0l0 -7.28125q-0.421875 0.390625 -1.09375 0.796875q-0.65625 0.390625 -1.1875 0.578125l0 -1.109375q0.953125 -0.4375 1.671875 -1.078125q0.71875 -0.640625 1.015625 -1.25l0.734375 0l0 9.34375z" fill-rule="nonzero"></path><path fill="#000000" fill-opacity="0.0" d="m173.98425 147.97113l42.015747 0" fill-rule="nonzero"></path><path stroke="#000000" stroke-width="2.0" stroke-linejoin="round" stroke-linecap="butt" d="m173.98425 147.97113l35.161575 0" fill-rule="evenodd"></path><path fill="#000000" stroke="#000000" stroke-width="2.0" stroke-linecap="butt" d="m209.14583 147.97113l-2.249176 2.2491608l6.17955 -2.2491608l-6.17955 -2.249176z" fill-rule="evenodd"></path><path fill="#cfe2f3" d="m213.49606 147.97113l0 0c0 -7.462372 6.0494385 -13.51181 13.51181 -13.51181l51.84253 0l0 0c3.5835571 0 7.0203247 1.4235535 9.554291 3.9575195c2.533966 2.5339508 3.9575195 5.9707336 3.9575195 9.554291l0 0l0 0c0 7.462372 -6.0494385 13.51181 -13.51181 13.51181l-51.84253 0c-7.462372 0 -13.51181 -6.0494385 -13.51181 -13.51181z" fill-rule="nonzero"></path><path stroke="#000000" stroke-width="2.0" stroke-linejoin="round" stroke-linecap="butt" d="m213.49606 147.97113l0 0c0 -7.462372 6.0494385 -13.51181 13.51181 -13.51181l51.84253 0l0 0c3.5835571 0 7.0203247 1.4235535 9.554291 3.9575195c2.533966 2.5339508 3.9575195 5.9707336 3.9575195 9.554291l0 0l0 0c0 7.462372 -6.0494385 13.51181 -13.51181 13.51181l-51.84253 0c-7.462372 0 -13.51181 -6.0494385 -13.51181 -13.51181z" fill-rule="nonzero"></path><path fill="#000000" d="m228.35979 152.77113l-1.0625 0l0 -9.3125l1.15625 0l0 3.328125q0.71875 -0.90625 1.84375 -0.90625q0.625 0 1.171875 0.25q0.5625 0.25 0.921875 0.703125q0.359375 0.453125 0.5625 1.09375q0.203125 0.640625 0.203125 1.375q0 1.734375 -0.859375 2.6875q-0.859375 0.9375 -2.0625 0.9375q-1.1875 0 -1.875 -1.0l0 0.84375zm-0.015625 -3.421875q0 1.21875 0.34375 1.75q0.53125 0.890625 1.453125 0.890625q0.75 0 1.296875 -0.65625q0.546875 -0.65625 0.546875 -1.9375q0 -1.328125 -0.53125 -1.953125q-0.515625 -0.625 -1.265625 -0.625q-0.75 0 -1.296875 0.65625q-0.546875 0.640625 -0.546875 1.875zm6.3656006 3.421875l0 -6.734375l1.03125 0l0 1.015625q0.390625 -0.71875 0.71875 -0.9375q0.34375 -0.234375 0.734375 -0.234375q0.578125 0 1.171875 0.359375l-0.390625 1.0625q-0.421875 -0.25 -0.828125 -0.25q-0.375 0 -0.6875 0.234375q-0.296875 0.21875 -0.421875 0.625q-0.1875 0.609375 -0.1875 1.328125l0 3.53125l-1.140625 0zm4.0008698 -2.796875l0 -1.140625l3.515625 0l0 1.140625l-3.515625 0zm9.50087 0.625l1.1875 0.140625q-0.28125 1.046875 -1.046875 1.625q-0.75 0.5625 -1.921875 0.5625q-1.484375 0 -2.359375 -0.90625q-0.859375 -0.921875 -0.859375 -2.5625q0 -1.703125 0.875 -2.640625q0.890625 -0.9375 2.28125 -0.9375q1.359375 0 2.203125 0.921875q0.859375 0.921875 0.859375 2.578125q0 0.109375 0 0.3125l-5.03125 0q0.0625 1.109375 0.625 1.703125q0.5625 0.59375 1.40625 0.59375q0.640625 0 1.078125 -0.328125q0.453125 -0.34375 0.703125 -1.0625zm-3.75 -1.84375l3.765625 0q-0.078125 -0.859375 -0.4375 -1.28125q-0.546875 -0.65625 -1.40625 -0.65625q-0.796875 0 -1.328125 0.53125q-0.53125 0.515625 -0.59375 1.40625zm9.053101 3.0l0.15625 1.0q-0.484375 0.109375 -0.859375 0.109375q-0.625 0 -0.96875 -0.203125q-0.34375 -0.203125 -0.484375 -0.515625q-0.140625 -0.328125 -0.140625 -1.34375l0 -3.890625l-0.828125 0l0 -0.875l0.828125 0l0 -1.671875l1.140625 -0.6875l0 2.359375l1.15625 0l0 0.875l-1.15625 0l0 3.953125q0 0.484375 0.0625 0.625q0.0625 0.140625 0.1875 0.21875q0.140625 0.078125 0.390625 0.078125q0.203125 0 0.515625 -0.03125zm1.2029877 1.015625l0 -9.3125l1.140625 0l0 3.34375q0.796875 -0.921875 2.015625 -0.921875q0.75 0 1.296875 0.296875q0.5625 0.296875 0.796875 0.8125q0.234375 0.515625 0.234375 1.515625l0 4.265625l-1.140625 0l0 -4.265625q0 -0.859375 -0.375 -1.25q-0.359375 -0.390625 -1.046875 -0.390625q-0.5 0 -0.953125 0.265625q-0.453125 0.25 -0.640625 0.703125q-0.1875 0.453125 -0.1875 1.25l0 3.6875l-1.140625 0zm11.396851 0l-1.140625 0l0 -7.28125q-0.421875 0.390625 -1.09375 0.796875q-0.65625 0.390625 -1.1875 0.578125l0 -1.109375q0.953125 -0.4375 1.671875 -1.078125q0.71875 -0.640625 1.015625 -1.25l0.734375 0l0 9.34375z" fill-rule="nonzero"></path><path fill="#cfe2f3" d="m445.0 181.11942l0 0c0 -7.4623566 6.0494385 -13.51181 13.51181 -13.51181l82.456696 0c3.5835571 0 7.0203247 1.4235687 9.554321 3.9575195c2.5339355 2.533966 3.9575195 5.970749 3.9575195 9.554291l0 0l0 0c0 7.462372 -6.0494995 13.511826 -13.511841 13.511826l-82.456696 0c-7.462372 0 -13.51181 -6.0494537 -13.51181 -13.511826z" fill-rule="nonzero"></path><path stroke="#000000" stroke-width="2.0" stroke-linejoin="round" stroke-linecap="butt" d="m445.0 181.11942l0 0c0 -7.4623566 6.0494385 -13.51181 13.51181 -13.51181l82.456696 0c3.5835571 0 7.0203247 1.4235687 9.554321 3.9575195c2.5339355 2.533966 3.9575195 5.970749 3.9575195 9.554291l0 0l0 0c0 7.462372 -6.0494995 13.511826 -13.511841 13.511826l-82.456696 0c-7.462372 0 -13.51181 -6.0494537 -13.51181 -13.511826z" fill-rule="nonzero"></path><path fill="#000000" d="m459.86374 185.91942l-1.0625 0l0 -9.3125l1.15625 0l0 3.328125q0.71875 -0.90625 1.84375 -0.90625q0.625 0 1.171875 0.25q0.5625 0.25 0.921875 0.703125q0.359375 0.453125 0.5625 1.09375q0.203125 0.640625 0.203125 1.375q0 1.734375 -0.859375 2.6875q-0.859375 0.9375 -2.0625 0.9375q-1.1875 0 -1.875 -1.0l0 0.84375zm-0.015625 -3.421875q0 1.21875 0.34375 1.75q0.53125 0.890625 1.453125 0.890625q0.75 0 1.296875 -0.65625q0.546875 -0.65625 0.546875 -1.9375q0 -1.328125 -0.53125 -1.953125q-0.515625 -0.625 -1.265625 -0.625q-0.75 0 -1.296875 0.65625q-0.546875 0.640625 -0.546875 1.875zm6.3656006 3.421875l0 -6.734375l1.03125 0l0 1.015625q0.390625 -0.71875 0.71875 -0.9375q0.34375 -0.234375 0.734375 -0.234375q0.578125 0 1.171875 0.359375l-0.390625 1.0625q-0.421875 -0.25 -0.828125 -0.25q-0.375 0 -0.6875 0.234375q-0.296875 0.21875 -0.421875 0.625q-0.1875 0.609375 -0.1875 1.328125l0 3.53125l-1.140625 0zm4.0008545 -2.796875l0 -1.140625l3.515625 0l0 1.140625l-3.515625 0zm9.500885 0.625l1.1875 0.140625q-0.28125 1.046875 -1.046875 1.625q-0.75 0.5625 -1.921875 0.5625q-1.484375 0 -2.359375 -0.90625q-0.859375 -0.921875 -0.859375 -2.5625q0 -1.703125 0.875 -2.640625q0.890625 -0.9375 2.28125 -0.9375q1.359375 0 2.203125 0.921875q0.859375 0.921875 0.859375 2.578125q0 0.109375 0 0.3125l-5.03125 0q0.0625 1.109375 0.625 1.703125q0.5625 0.59375 1.40625 0.59375q0.640625 0 1.078125 -0.328125q0.453125 -0.34375 0.703125 -1.0625zm-3.75 -1.84375l3.765625 0q-0.078125 -0.859375 -0.4375 -1.28125q-0.546875 -0.65625 -1.40625 -0.65625q-0.796875 0 -1.328125 0.53125q-0.53125 0.515625 -0.59375 1.40625zm5.7874756 4.015625l2.46875 -3.5l-2.28125 -3.234375l1.421875 0l1.046875 1.578125q0.28125 0.453125 0.46875 0.75q0.265625 -0.421875 0.5 -0.734375l1.140625 -1.59375l1.375 0l-2.34375 3.171875l2.515625 3.5625l-1.40625 0l-1.375 -2.09375l-0.375 -0.5625l-1.765625 2.65625l-1.390625 0z" fill-rule="nonzero"></path><path fill="#cfe2f3" d="m445.0 114.84777l0 0c0 -7.462372 6.0494385 -13.51181 13.51181 -13.51181l82.456696 0c3.5835571 0 7.0203247 1.4235611 9.554321 3.957512c2.5339355 2.5339584 3.9575195 5.9707413 3.9575195 9.554298l0 0l0 0c0 7.462364 -6.0494995 13.511803 -13.511841 13.511803l-82.456696 0c-7.462372 0 -13.51181 -6.0494385 -13.51181 -13.511803z" fill-rule="nonzero"></path><path stroke="#000000" stroke-width="2.0" stroke-linejoin="round" stroke-linecap="butt" d="m445.0 114.84777l0 0c0 -7.462372 6.0494385 -13.51181 13.51181 -13.51181l82.456696 0c3.5835571 0 7.0203247 1.4235611 9.554321 3.957512c2.5339355 2.5339584 3.9575195 5.9707413 3.9575195 9.554298l0 0l0 0c0 7.462364 -6.0494995 13.511803 -13.511841 13.511803l-82.456696 0c-7.462372 0 -13.51181 -6.0494385 -13.51181 -13.511803z" fill-rule="nonzero"></path><path fill="#000000" d="m459.86374 119.647766l-1.0625 0l0 -9.3125l1.15625 0l0 3.328125q0.71875 -0.90625 1.84375 -0.90625q0.625 0 1.171875 0.25q0.5625 0.25 0.921875 0.703125q0.359375 0.453125 0.5625 1.09375q0.203125 0.640625 0.203125 1.375q0 1.734375 -0.859375 2.6875q-0.859375 0.9375 -2.0625 0.9375q-1.1875 0 -1.875 -1.0l0 0.84375zm-0.015625 -3.421875q0 1.21875 0.34375 1.75q0.53125 0.890625 1.453125 0.890625q0.75 0 1.296875 -0.65625q0.546875 -0.65625 0.546875 -1.9375q0 -1.328125 -0.53125 -1.953125q-0.515625 -0.625 -1.265625 -0.625q-0.75 0 -1.296875 0.65625q-0.546875 0.640625 -0.546875 1.875zm6.3656006 3.421875l0 -6.734375l1.03125 0l0 1.015625q0.390625 -0.71875 0.71875 -0.9375q0.34375 -0.234375 0.734375 -0.234375q0.578125 0 1.171875 0.359375l-0.390625 1.0625q-0.421875 -0.25 -0.828125 -0.25q-0.375 0 -0.6875 0.234375q-0.296875 0.21875 -0.421875 0.625q-0.1875 0.609375 -0.1875 1.328125l0 3.53125l-1.140625 0zm4.0008545 -2.796875l0 -1.140625l3.515625 0l0 1.140625l-3.515625 0zm4.89151 2.796875l0 -6.734375l1.015625 0l0 0.9375q0.328125 -0.5 0.84375 -0.796875q0.53125 -0.296875 1.203125 -0.296875q0.75 0 1.21875 0.3125q0.484375 0.3125 0.6875 0.859375q0.796875 -1.171875 2.078125 -1.171875q1.0 0 1.53125 0.5625q0.546875 0.546875 0.546875 1.703125l0 4.625l-1.125 0l0 -4.25q0 -0.6875 -0.109375 -0.984375q-0.109375 -0.296875 -0.40625 -0.484375q-0.296875 -0.1875 -0.6875 -0.1875q-0.71875 0 -1.1875 0.484375q-0.46875 0.46875 -0.46875 1.5l0 3.921875l-1.140625 0l0 -4.375q0 -0.765625 -0.28125 -1.140625q-0.28125 -0.390625 -0.90625 -0.390625q-0.484375 0 -0.890625 0.265625q-0.40625 0.25 -0.59375 0.734375q-0.1875 0.484375 -0.1875 1.40625l0 3.5l-1.140625 0zm10.883667 0.5625l1.125 0.15625q0.0625 0.515625 0.375 0.75q0.4375 0.328125 1.171875 0.328125q0.78125 0 1.21875 -0.328125q0.4375 -0.3125 0.578125 -0.890625q0.09375 -0.34375 0.09375 -1.453125q-0.75 0.875 -1.875 0.875q-1.390625 0 -2.15625 -1.0q-0.75 -1.0 -0.75 -2.40625q0 -0.96875 0.34375 -1.78125q0.359375 -0.8125 1.015625 -1.25q0.65625 -0.453125 1.5625 -0.453125q1.1875 0 1.96875 0.96875l0 -0.8125l1.046875 0l0 5.8125q0 1.578125 -0.328125 2.234375q-0.3125 0.65625 -1.015625 1.03125q-0.6875 0.390625 -1.703125 0.390625q-1.203125 0 -1.953125 -0.546875q-0.734375 -0.53125 -0.71875 -1.625zm0.953125 -4.046875q0 1.3125 0.515625 1.921875q0.53125 0.609375 1.328125 0.609375q0.796875 0 1.328125 -0.59375q0.53125 -0.609375 0.53125 -1.90625q0 -1.234375 -0.546875 -1.859375q-0.546875 -0.640625 -1.328125 -0.640625q-0.765625 0 -1.296875 0.625q-0.53125 0.625 -0.53125 1.84375zm6.6781006 3.484375l0 -6.734375l1.015625 0l0 0.9375q0.328125 -0.5 0.84375 -0.796875q0.53125 -0.296875 1.203125 -0.296875q0.75 0 1.21875 0.3125q0.484375 0.3125 0.6875 0.859375q0.796875 -1.171875 2.078125 -1.171875q1.0 0 1.53125 0.5625q0.546875 0.546875 0.546875 1.703125l0 4.625l-1.125 0l0 -4.25q0 -0.6875 -0.109375 -0.984375q-0.109375 -0.296875 -0.40625 -0.484375q-0.296875 -0.1875 -0.6875 -0.1875q-0.71875 0 -1.1875 0.484375q-0.46875 0.46875 -0.46875 1.5l0 3.921875l-1.140625 0l0 -4.375q0 -0.765625 -0.28125 -1.140625q-0.28125 -0.390625 -0.90625 -0.390625q-0.484375 0 -0.890625 0.265625q-0.40625 0.25 -0.59375 0.734375q-0.1875 0.484375 -0.1875 1.40625l0 3.5l-1.140625 0zm13.6024475 -1.015625l0.15625 1.0q-0.484375 0.109375 -0.859375 0.109375q-0.625 0 -0.96875 -0.203125q-0.34375 -0.203125 -0.484375 -0.515625q-0.140625 -0.328125 -0.140625 -1.34375l0 -3.890625l-0.828125 0l0 -0.875l0.828125 0l0 -1.671875l1.140625 -0.6875l0 2.359375l1.15625 0l0 0.875l-1.15625 0l0 3.953125q0 0.484375 0.0625 0.625q0.0625 0.140625 0.1875 0.21875q0.140625 0.078125 0.390625 0.078125q0.203125 0 0.515625 -0.03125z" fill-rule="nonzero"></path><path fill="#000000" fill-opacity="0.0" d="m292.3622 147.97113l152.63779 -33.12336" fill-rule="nonzero"></path><path stroke="#000000" stroke-width="2.0" stroke-linejoin="round" stroke-linecap="butt" d="m304.08926 145.42628l129.18372 -28.033669" fill-rule="evenodd"></path><path fill="#000000" stroke="#000000" stroke-width="2.0" stroke-linecap="butt" d="m303.3887 142.19795l-8.169189 5.153122l9.5703125 1.3035431z" fill-rule="evenodd"></path><path fill="#000000" stroke="#000000" stroke-width="2.0" stroke-linecap="butt" d="m433.9735 120.62094l8.169189 -5.153122l-9.5703125 -1.3035355z" fill-rule="evenodd"></path><path fill="#000000" fill-opacity="0.0" d="m324.7288 116.37487l82.42517 -17.039375l5.480316 26.456696l-82.42517 17.039368z" fill-rule="nonzero"></path><path fill="#000000" d="m339.32266 130.97969l0.24658203 0.6510773q-0.32080078 0.14608765 -0.5656128 0.19670105q-0.4284668 0.08856201 -0.6864929 -0.0016937256q-0.25805664 -0.09024048 -0.4095459 -0.28230286q-0.13616943 -0.1952362 -0.27877808 -0.8837433l-0.5451355 -2.6316223l-0.5661621 0.11703491l-0.12677002 -0.61200714l0.5661621 -0.11704254l-0.23452759 -1.1322174l0.68530273 -0.6203232l0.32958984 1.591217l0.7803955 -0.16132355l0.12677002 0.61200714l-0.7803955 0.16132355l0.55148315 2.6622314q0.069732666 0.3366089 0.11932373 0.42208862q0.064941406 0.08230591 0.1694336 0.12452698q0.10446167 0.04222107 0.27279663 0.0074310303q0.13769531 -0.0284729 0.34558105 -0.10336304zm3.8486938 -0.66796875q-0.35238647 0.45578003 -0.7185364 0.6910248q-0.3661499 0.23524475 -0.8251953 0.33013916q-0.74975586 0.15499878 -1.2389526 -0.12680054q-0.47390747 -0.28497314 -0.59436035 -0.8663788q-0.06970215 -0.33659363 0.026245117 -0.643631q0.09597778 -0.30703735 0.30593872 -0.5259552q0.20996094 -0.21891785 0.49697876 -0.37397766q0.22000122 -0.09335327 0.66638184 -0.24945068q0.92648315 -0.3032074 1.3353882 -0.5632477q-0.031707764 -0.15299988 -0.041229248 -0.19890594q-0.098236084 -0.4743042 -0.35049438 -0.61361694q-0.36306763 -0.21214294 -0.94451904 -0.09194183q-0.5508728 0.11387634 -0.7697754 0.36655426q-0.22210693 0.23737335 -0.24310303 0.7522812l-0.7687683 0.063201904q-0.009613037 -0.50858307 0.15969849 -0.8467407q0.181427 -0.35661316 0.59347534 -0.6013489q0.42416382 -0.26319885 1.0056458 -0.38339996q0.5967407 -0.12335968 0.97720337 -0.058418274q0.39575195 0.061790466 0.6084595 0.24119568q0.22479248 0.16094208 0.35256958 0.46959686q0.08709717 0.18941498 0.19168091 0.6943207l0.21551514 1.0404129q0.2218628 1.0710144 0.3279724 1.3522339q0.10614014 0.28120422 0.3130188 0.5096741l-0.8109741 0.16764832q-0.17312622 -0.21949768 -0.27026367 -0.5344696zm-0.41934204 -1.7162628q-0.3935852 0.25686646 -1.2098083 0.5532379q-0.4584961 0.17456055 -0.6383972 0.30747986q-0.18307495 0.117630005 -0.25534058 0.30807495q-0.07223511 0.19044495 -0.031036377 0.38934326q0.06338501 0.30599976 0.33728027 0.47276306q0.27072144 0.15145874 0.72976685 0.05656433q0.4437256 -0.09173584 0.7544861 -0.36338806q0.31072998 -0.27166748 0.40930176 -0.6430664q0.06854248 -0.2854004 -0.03604126 -0.7903137l-0.06021118 -0.2906952zm2.574768 2.2599182l0.77197266 -0.04789734q0.118774414 0.34240723 0.36471558 0.4511261q0.335083 0.15409851 0.84002686 0.049713135q0.535553 -0.110702515 0.7819214 -0.38500977q0.24633789 -0.27430725 0.27423096 -0.6789551q0.010498047 -0.2574463 -0.16009521 -1.0039978q-0.38134766 0.7010956 -1.131134 0.85609436q-0.94866943 0.19610596 -1.6083984 -0.3695526q-0.6475525 -0.5841217 -0.8440552 -1.5327301q-0.1362915 -0.6579056 -0.020843506 -1.2561646q0.13070679 -0.60141754 0.5142517 -0.9838562q0.38034058 -0.3977356 0.9924011 -0.5242615q0.8109741 -0.16764832 1.4643555 0.36740875l-0.114105225 -0.55080414l0.71917725 -0.14867401l0.817688 3.9474564q0.22183228 1.0710144 0.084228516 1.5621643q-0.12231445 0.48799133 -0.54278564 0.84614563q-0.40515137 0.355011 -1.0937195 0.49734497q-0.82629395 0.17082214 -1.4072876 -0.09199524q-0.56570435 -0.2659912 -0.70254517 -1.0035553zm0.07217407 -2.8868942q0.18701172 0.90270233 0.6245117 1.2430649q0.4375 0.3403473 0.973053 0.22962952q0.535553 -0.110702515 0.8172302 -0.59973145q0.28164673 -0.48901367 0.100982666 -1.3611298q-0.17428589 -0.8415146 -0.64556885 -1.190834q-0.45599365 -0.3524933 -0.9762268 -0.24494171q-0.5202637 0.107551575 -0.7987366 0.6118698q-0.26638794 0.48586273 -0.09524536 1.3120728zm8.369965 -3.1184006l-4.1619873 0.8603897l-0.15213013 -0.73441315l4.1619873 -0.8603897l0.15213013 0.73441315zm0.3961792 1.9125214l-4.162018 0.8603897l-0.15213013 -0.7344055l4.162018 -0.8603897l0.15213013 0.7344055zm4.3436584 0.9688339l-0.7803955 0.16132355l-1.0236816 -4.941963q-0.21838379 0.33234406 -0.6203613 0.70264435q-0.40518188 0.35499573 -0.7317505 0.55015564l-0.15530396 -0.7497101q0.5824585 -0.4235611 0.9833679 -0.95318604q0.3977356 -0.5449295 0.5110779 -0.99916077l0.50494385 -0.104385376l1.3121033 6.334282zm1.5144958 -3.5520248q-0.23138428 -1.1169128 -0.14447021 -1.8528671q0.08691406 -0.7359619 0.45458984 -1.1948929q0.3829651 -0.4621048 1.0715332 -0.6044464q0.5202637 -0.107551575 0.9471741 0.027572632q0.42373657 0.11981964 0.7477722 0.45171356q0.32406616 0.33189392 0.5758667 0.8542328q0.26712036 0.5191803 0.46362305 1.4677887q0.22817993 1.1016159 0.14129639 1.8375702q-0.09008789 0.72065735 -0.46990967 1.1980591q-0.36767578 0.4589386 -1.0715332 0.6044464q-0.902771 0.18663025 -1.5593262 -0.36373138q-0.78897095 -0.6506195 -1.1566162 -2.4254456zm0.7956543 -0.16448212q0.32009888 1.5453186 0.7798157 1.9927673q0.47180176 0.42899323 1.0073547 0.31828308q0.535553 -0.110710144 0.7982178 -0.69153595q0.25946045 -0.59612274 -0.060638428 -2.1414413q-0.3232727 -1.5606232 -0.795105 -1.9896164q-0.4749756 -0.44428253 -1.0105286 -0.3335724q-0.535553 0.110710144 -0.76498413 0.620842q-0.2774048 0.6636505 0.04586792 2.2242737zm8.843048 0.6290512l0.15530396 0.74970245l-4.177307 0.8635559q-0.057037354 -0.27540588 -0.019104004 -0.5544815q0.079559326 -0.46320343 0.34591675 -0.94906616q0.26635742 -0.4858551 0.8134155 -1.1573792q0.8477173 -1.0687485 1.0982056 -1.6311035q0.26583862 -0.56552887 0.17391968 -1.0092316q-0.09509277 -0.45900726 -0.49508667 -0.6954193q-0.38790894 -0.25487518 -0.9081421 -0.14733124q-0.5661621 0.11704254 -0.83306885 0.52323914q-0.26690674 0.40618896 -0.14331055 1.0028992l-0.81469727 0.07268524q-0.107299805 -0.90322876 0.3331604 -1.4729462q0.4373169 -0.58501434 1.3400879 -0.7716446q0.9028015 -0.18663025 1.5276489 0.21072388q0.6401367 0.39419556 0.79226685 1.1286087q0.07922363 0.38250732 0.0022583008 0.78134155q-0.076934814 0.39883423 -0.35861206 0.8878555q-0.26953125 0.47055817 -0.9500122 1.3451843q-0.58343506 0.72691345 -0.7379761 0.98223877q-0.15454102 0.25532532 -0.23577881 0.47953033l3.0909119 -0.6389618z" fill-rule="nonzero"></path><path fill="#000000" fill-opacity="0.0" d="m173.98425 76.97113l106.50394 0" fill-rule="nonzero"></path><path stroke="#000000" stroke-width="1.0" stroke-linejoin="round" stroke-linecap="butt" d="m173.98425 76.97113l100.87564 0" fill-rule="evenodd"></path><path stroke="#000000" stroke-width="1.0" stroke-linecap="butt" d="m274.85992 76.97113l2.3782654 1.6652832l2.3782654 -1.6652832l-2.3782654 -1.6652908z" fill-rule="evenodd"></path><path fill="#000000" fill-opacity="0.0" d="m280.4882 59.742783l306.96066 0l0 34.456688l-306.96066 0z" fill-rule="nonzero"></path><path fill="#000000" d="m289.47256 77.70278l2.484375 -6.4375l0.90625 0l2.640625 6.4375l-0.96875 0l-0.75 -1.953125l-2.703125 0l-0.703125 1.953125l-0.90625 0zm1.859375 -2.640625l2.1875 0l-0.671875 -1.796875q-0.3125 -0.8125 -0.453125 -1.328125q-0.125 0.625 -0.359375 1.234375l-0.703125 1.890625zm8.003021 2.640625l0 -0.59375q-0.453125 0.703125 -1.3125 0.703125q-0.546875 0 -1.015625 -0.3125q-0.46875 -0.3125 -0.734375 -0.859375q-0.25 -0.546875 -0.25 -1.265625q0 -0.703125 0.234375 -1.265625q0.234375 -0.578125 0.6875 -0.875q0.46875 -0.296875 1.046875 -0.296875q0.421875 0 0.75 0.171875q0.328125 0.171875 0.53125 0.46875l0 -2.3125l0.796875 0l0 6.4375l-0.734375 0zm-2.5 -2.328125q0 0.890625 0.375 1.34375q0.375 0.4375 0.890625 0.4375q0.515625 0 0.875 -0.421875q0.375 -0.421875 0.375 -1.296875q0 -0.953125 -0.375 -1.40625q-0.375 -0.453125 -0.90625 -0.453125q-0.53125 0 -0.890625 0.4375q-0.34375 0.4375 -0.34375 1.359375zm4.656616 2.328125l0 -4.671875l0.703125 0l0 0.65625q0.21875 -0.34375 0.578125 -0.546875q0.375 -0.203125 0.84375 -0.203125q0.515625 0 0.84375 0.21875q0.328125 0.203125 0.46875 0.59375q0.5625 -0.8125 1.4375 -0.8125q0.703125 0 1.078125 0.390625q0.375 0.375 0.375 1.171875l0 3.203125l-0.796875 0l0 -2.9375q0 -0.484375 -0.078125 -0.6875q-0.0625 -0.203125 -0.265625 -0.328125q-0.203125 -0.140625 -0.484375 -0.140625q-0.484375 0 -0.8125 0.328125q-0.328125 0.328125 -0.328125 1.046875l0 2.71875l-0.796875 0l0 -3.03125q0 -0.53125 -0.1875 -0.796875q-0.1875 -0.265625 -0.625 -0.265625q-0.34375 0 -0.625 0.1875q-0.28125 0.171875 -0.40625 0.515625q-0.125 0.328125 -0.125 0.96875l0 2.421875l-0.796875 0zm7.7704163 -5.53125l0 -0.90625l0.796875 0l0 0.90625l-0.796875 0zm0 5.53125l0 -4.671875l0.796875 0l0 4.671875l-0.796875 0zm2.0724182 0l0 -4.671875l0.71875 0l0 0.671875q0.5 -0.765625 1.484375 -0.765625q0.421875 0 0.765625 0.15625q0.359375 0.140625 0.53125 0.390625q0.171875 0.234375 0.25 0.578125q0.046875 0.21875 0.046875 0.765625l0 2.875l-0.796875 0l0 -2.84375q0 -0.484375 -0.09375 -0.71875q-0.09375 -0.234375 -0.328125 -0.375q-0.234375 -0.15625 -0.546875 -0.15625q-0.5 0 -0.875 0.328125q-0.359375 0.3125 -0.359375 1.21875l0 2.546875l-0.796875 0zm5.187866 -5.53125l0 -0.90625l0.796875 0l0 0.90625l-0.796875 0zm0 5.53125l0 -4.671875l0.796875 0l0 4.671875l-0.796875 0zm1.7599182 -1.390625l0.78125 -0.125q0.0625 0.46875 0.359375 0.71875q0.3125 0.25 0.84375 0.25q0.546875 0 0.8125 -0.21875q0.265625 -0.21875 0.265625 -0.515625q0 -0.28125 -0.234375 -0.421875q-0.171875 -0.109375 -0.8125 -0.28125q-0.875 -0.21875 -1.21875 -0.375q-0.328125 -0.15625 -0.5 -0.4375q-0.171875 -0.28125 -0.171875 -0.625q0 -0.3125 0.140625 -0.578125q0.140625 -0.265625 0.390625 -0.453125q0.1875 -0.125 0.5 -0.21875q0.328125 -0.09375 0.6875 -0.09375q0.546875 0 0.953125 0.15625q0.421875 0.15625 0.625 0.421875q0.203125 0.265625 0.28125 0.71875l-0.78125 0.109375q-0.046875 -0.359375 -0.3125 -0.5625q-0.25 -0.203125 -0.703125 -0.203125q-0.546875 0 -0.78125 0.1875q-0.234375 0.171875 -0.234375 0.421875q0 0.15625 0.09375 0.265625q0.09375 0.140625 0.3125 0.21875q0.109375 0.046875 0.6875 0.203125q0.84375 0.21875 1.171875 0.359375q0.34375 0.140625 0.53125 0.421875q0.1875 0.265625 0.1875 0.671875q0 0.40625 -0.234375 0.75q-0.234375 0.34375 -0.671875 0.546875q-0.421875 0.1875 -0.984375 0.1875q-0.90625 0 -1.390625 -0.375q-0.46875 -0.390625 -0.59375 -1.125zm6.7109375 0.6875l0.109375 0.6875q-0.34375 0.078125 -0.59375 0.078125q-0.4375 0 -0.671875 -0.140625q-0.234375 -0.140625 -0.34375 -0.359375q-0.09375 -0.21875 -0.09375 -0.921875l0 -2.6875l-0.578125 0l0 -0.625l0.578125 0l0 -1.15625l0.796875 -0.46875l0 1.625l0.796875 0l0 0.625l-0.796875 0l0 2.71875q0 0.34375 0.03125 0.4375q0.046875 0.09375 0.140625 0.15625q0.09375 0.0625 0.265625 0.0625q0.140625 0 0.359375 -0.03125zm0.8416443 0.703125l0 -4.671875l0.71875 0l0 0.71875q0.265625 -0.5 0.5 -0.65625q0.234375 -0.15625 0.515625 -0.15625q0.390625 0 0.8125 0.25l-0.28125 0.734375q-0.28125 -0.171875 -0.578125 -0.171875q-0.25 0 -0.46875 0.15625q-0.203125 0.15625 -0.296875 0.4375q-0.125 0.421875 -0.125 0.921875l0 2.4375l-0.796875 0zm6.1688538 -0.578125q-0.4375 0.375 -0.84375 0.53125q-0.40625 0.15625 -0.875 0.15625q-0.765625 0 -1.1875 -0.375q-0.40625 -0.375 -0.40625 -0.96875q0 -0.34375 0.15625 -0.625q0.15625 -0.28125 0.40625 -0.453125q0.25 -0.171875 0.5625 -0.265625q0.234375 -0.046875 0.703125 -0.109375q0.96875 -0.109375 1.421875 -0.28125q0 -0.15625 0 -0.203125q0 -0.484375 -0.21875 -0.671875q-0.3125 -0.28125 -0.90625 -0.28125q-0.5625 0 -0.828125 0.203125q-0.265625 0.1875 -0.390625 0.6875l-0.765625 -0.09375q0.09375 -0.5 0.328125 -0.796875q0.25 -0.3125 0.703125 -0.46875q0.46875 -0.171875 1.0625 -0.171875q0.609375 0 0.96875 0.140625q0.375 0.140625 0.546875 0.359375q0.1875 0.203125 0.25 0.53125q0.046875 0.203125 0.046875 0.71875l0 1.0625q0 1.09375 0.046875 1.390625q0.046875 0.296875 0.203125 0.5625l-0.828125 0q-0.125 -0.25 -0.15625 -0.578125zm-0.0625 -1.765625q-0.4375 0.171875 -1.296875 0.296875q-0.484375 0.078125 -0.6875 0.171875q-0.203125 0.078125 -0.3125 0.25q-0.109375 0.171875 -0.109375 0.375q0 0.3125 0.234375 0.53125q0.234375 0.203125 0.703125 0.203125q0.453125 0 0.8125 -0.203125q0.359375 -0.203125 0.53125 -0.546875q0.125 -0.265625 0.125 -0.78125l0 -0.296875zm3.9378662 1.640625l0.109375 0.6875q-0.34375 0.078125 -0.59375 0.078125q-0.4375 0 -0.671875 -0.140625q-0.234375 -0.140625 -0.34375 -0.359375q-0.09375 -0.21875 -0.09375 -0.921875l0 -2.6875l-0.578125 0l0 -0.625l0.578125 0l0 -1.15625l0.796875 -0.46875l0 1.625l0.796875 0l0 0.625l-0.796875 0l0 2.71875q0 0.34375 0.03125 0.4375q0.046875 0.09375 0.140625 0.15625q0.09375 0.0625 0.265625 0.0625q0.140625 0 0.359375 -0.03125zm0.8572693 -4.828125l0 -0.90625l0.796875 0l0 0.90625l-0.796875 0zm0 5.53125l0 -4.671875l0.796875 0l0 4.671875l-0.796875 0zm3.3692932 0l-1.78125 -4.671875l0.84375 0l1.0 2.796875q0.15625 0.453125 0.296875 0.9375q0.109375 -0.359375 0.296875 -0.875l1.03125 -2.859375l0.8125 0l-1.765625 4.671875l-0.734375 0zm6.5546875 -1.5l0.828125 0.09375q-0.203125 0.71875 -0.734375 1.125q-0.515625 0.390625 -1.328125 0.390625q-1.015625 0 -1.625 -0.625q-0.59375 -0.640625 -0.59375 -1.78125q0 -1.171875 0.609375 -1.8125q0.609375 -0.65625 1.578125 -0.65625q0.9375 0 1.515625 0.640625q0.59375 0.625 0.59375 1.78125q0 0.078125 0 0.21875l-3.484375 0q0.046875 0.765625 0.4375 1.171875q0.390625 0.40625 0.984375 0.40625q0.4375 0 0.734375 -0.21875q0.3125 -0.234375 0.484375 -0.734375zm-2.59375 -1.28125l2.609375 0q-0.046875 -0.59375 -0.296875 -0.890625q-0.375 -0.453125 -0.984375 -0.453125q-0.546875 0 -0.921875 0.375q-0.359375 0.359375 -0.40625 0.96875zm7.185791 2.78125l0 -4.671875l0.71875 0l0 0.671875q0.5 -0.765625 1.484375 -0.765625q0.421875 0 0.765625 0.15625q0.359375 0.140625 0.53125 0.390625q0.171875 0.234375 0.25 0.578125q0.046875 0.21875 0.046875 0.765625l0 2.875l-0.796875 0l0 -2.84375q0 -0.484375 -0.09375 -0.71875q-0.09375 -0.234375 -0.328125 -0.375q-0.234375 -0.15625 -0.546875 -0.15625q-0.5 0 -0.875 0.328125q-0.359375 0.3125 -0.359375 1.21875l0 2.546875l-0.796875 0zm8.375366 -1.5l0.828125 0.09375q-0.203125 0.71875 -0.734375 1.125q-0.515625 0.390625 -1.328125 0.390625q-1.015625 0 -1.625 -0.625q-0.59375 -0.640625 -0.59375 -1.78125q0 -1.171875 0.609375 -1.8125q0.609375 -0.65625 1.578125 -0.65625q0.9375 0 1.515625 0.640625q0.59375 0.625 0.59375 1.78125q0 0.078125 0 0.21875l-3.484375 0q0.046875 0.765625 0.4375 1.171875q0.390625 0.40625 0.984375 0.40625q0.4375 0 0.734375 -0.21875q0.3125 -0.234375 0.484375 -0.734375zm-2.59375 -1.28125l2.609375 0q-0.046875 -0.59375 -0.296875 -0.890625q-0.375 -0.453125 -0.984375 -0.453125q-0.546875 0 -0.921875 0.375q-0.359375 0.359375 -0.40625 0.96875zm6.328491 2.078125l0.109375 0.6875q-0.34375 0.078125 -0.59375 0.078125q-0.4375 0 -0.671875 -0.140625q-0.234375 -0.140625 -0.34375 -0.359375q-0.09375 -0.21875 -0.09375 -0.921875l0 -2.6875l-0.578125 0l0 -0.625l0.578125 0l0 -1.15625l0.796875 -0.46875l0 1.625l0.796875 0l0 0.625l-0.796875 0l0 2.71875q0 0.34375 0.03125 0.4375q0.046875 0.09375 0.140625 0.15625q0.09375 0.0625 0.265625 0.0625q0.140625 0 0.359375 -0.03125zm1.7166443 0.703125l-1.421875 -4.671875l0.8125 0l0.75 2.703125l0.265625 1.0q0.015625 -0.078125 0.25 -0.96875l0.734375 -2.734375l0.8125 0l0.703125 2.71875l0.234375 0.890625l0.265625 -0.90625l0.796875 -2.703125l0.765625 0l-1.453125 4.671875l-0.8125 0l-0.75 -2.796875l-0.1875 -0.796875l-0.9375 3.59375l-0.828125 0zm5.5802307 -2.328125q0 -1.296875 0.71875 -1.921875q0.609375 -0.515625 1.46875 -0.515625q0.96875 0 1.578125 0.625q0.609375 0.625 0.609375 1.734375q0 0.90625 -0.28125 1.421875q-0.265625 0.515625 -0.78125 0.8125q-0.515625 0.28125 -1.125 0.28125q-0.984375 0 -1.59375 -0.625q-0.59375 -0.640625 -0.59375 -1.8125zm0.8125 0q0 0.890625 0.390625 1.34375q0.390625 0.4375 0.984375 0.4375q0.59375 0 0.984375 -0.4375q0.390625 -0.453125 0.390625 -1.375q0 -0.859375 -0.390625 -1.3125q-0.390625 -0.453125 -0.984375 -0.453125q-0.59375 0 -0.984375 0.453125q-0.390625 0.4375 -0.390625 1.34375zm4.656616 2.328125l0 -4.671875l0.71875 0l0 0.71875q0.265625 -0.5 0.5 -0.65625q0.234375 -0.15625 0.515625 -0.15625q0.390625 0 0.8125 0.25l-0.28125 0.734375q-0.28125 -0.171875 -0.578125 -0.171875q-0.25 0 -0.46875 0.15625q-0.203125 0.15625 -0.296875 0.4375q-0.125 0.421875 -0.125 0.921875l0 2.4375l-0.796875 0zm3.1219788 0l0 -6.4375l0.796875 0l0 3.671875l1.875 -1.90625l1.015625 0l-1.78125 1.734375l1.96875 2.9375l-0.984375 0l-1.53125 -2.390625l-0.5625 0.546875l0 1.84375l-0.796875 0z" fill-rule="nonzero"></path><path fill="#cfe2f3" d="m112.0 206.96588l61.984253 0l0 29.007874l-61.984253 0z" fill-rule="nonzero"></path><path stroke="#000000" stroke-width="2.0" stroke-linejoin="round" stroke-linecap="butt" d="m112.0 206.96588l61.984253 0l0 29.007874l-61.984253 0z" fill-rule="nonzero"></path><path fill="#000000" d="m122.03125 226.26982l0 -9.3125l6.71875 0l0 1.109375l-5.484375 0l0 2.84375l5.140625 0l0 1.09375l-5.140625 0l0 3.171875l5.703125 0l0 1.09375l-6.9375 0zm11.21788 -1.015625l0.15625 1.0q-0.484375 0.109375 -0.859375 0.109375q-0.625 0 -0.96875 -0.203125q-0.34375 -0.203125 -0.484375 -0.515625q-0.140625 -0.328125 -0.140625 -1.34375l0 -3.890625l-0.828125 0l0 -0.875l0.828125 0l0 -1.671875l1.140625 -0.6875l0 2.359375l1.15625 0l0 0.875l-1.15625 0l0 3.953125q0 0.484375 0.0625 0.625q0.0625 0.140625 0.1875 0.21875q0.140625 0.078125 0.390625 0.078125q0.203125 0 0.515625 -0.03125zm1.2029877 1.015625l0 -9.3125l1.140625 0l0 3.34375q0.796875 -0.921875 2.015625 -0.921875q0.75 0 1.296875 0.296875q0.5625 0.296875 0.796875 0.8125q0.234375 0.515625 0.234375 1.515625l0 4.265625l-1.140625 0l0 -4.265625q0 -0.859375 -0.375 -1.25q-0.359375 -0.390625 -1.046875 -0.390625q-0.5 0 -0.953125 0.265625q-0.453125 0.25 -0.640625 0.703125q-0.1875 0.453125 -0.1875 1.25l0 3.6875l-1.140625 0zm13.099976 -1.09375l0 1.09375l-6.15625 0q-0.015625 -0.40625 0.140625 -0.796875q0.234375 -0.625 0.75 -1.234375q0.515625 -0.609375 1.5 -1.40625q1.515625 -1.25 2.046875 -1.96875q0.53125 -0.734375 0.53125 -1.375q0 -0.6875 -0.484375 -1.140625q-0.484375 -0.46875 -1.265625 -0.46875q-0.828125 0 -1.328125 0.5q-0.484375 0.484375 -0.5 1.359375l-1.171875 -0.125q0.125 -1.3125 0.90625 -2.0q0.78125 -0.6875 2.109375 -0.6875q1.34375 0 2.125 0.75q0.78125 0.734375 0.78125 1.828125q0 0.5625 -0.234375 1.109375q-0.21875 0.53125 -0.75 1.140625q-0.53125 0.59375 -1.765625 1.625q-1.03125 0.859375 -1.328125 1.171875q-0.28125 0.3125 -0.46875 0.625l4.5625 0z" fill-rule="nonzero"></path><path fill="#000000" fill-opacity="0.0" d="m173.98425 221.46982l42.015747 0" fill-rule="nonzero"></path><path stroke="#000000" stroke-width="2.0" stroke-linejoin="round" stroke-linecap="butt" d="m173.98425 221.46982l35.161575 0" fill-rule="evenodd"></path><path fill="#000000" stroke="#000000" stroke-width="2.0" stroke-linecap="butt" d="m209.14583 221.46982l-2.249176 2.2491608l6.17955 -2.2491608l-6.17955 -2.249176z" fill-rule="evenodd"></path><path fill="#cfe2f3" d="m216.76378 221.46982l0 0c0 -7.462372 6.0494385 -13.51181 13.51181 -13.51181l51.842514 0l0 0c3.5835571 0 7.020355 1.4235535 9.554291 3.9575195c2.533966 2.5339508 3.9575195 5.9707336 3.9575195 9.554291l0 0l0 0c0 7.462372 -6.0494385 13.51181 -13.51181 13.51181l-51.842514 0c-7.462372 0 -13.51181 -6.0494385 -13.51181 -13.51181z" fill-rule="nonzero"></path><path stroke="#000000" stroke-width="2.0" stroke-linejoin="round" stroke-linecap="butt" d="m216.76378 221.46982l0 0c0 -7.462372 6.0494385 -13.51181 13.51181 -13.51181l51.842514 0l0 0c3.5835571 0 7.020355 1.4235535 9.554291 3.9575195c2.533966 2.5339508 3.9575195 5.9707336 3.9575195 9.554291l0 0l0 0c0 7.462372 -6.0494385 13.51181 -13.51181 13.51181l-51.842514 0c-7.462372 0 -13.51181 -6.0494385 -13.51181 -13.51181z" fill-rule="nonzero"></path><path fill="#000000" d="m231.6275 226.26982l-1.0625 0l0 -9.3125l1.15625 0l0 3.328125q0.71875 -0.90625 1.84375 -0.90625q0.625 0 1.171875 0.25q0.5625 0.25 0.921875 0.703125q0.359375 0.453125 0.5625 1.09375q0.203125 0.640625 0.203125 1.375q0 1.734375 -0.859375 2.6875q-0.859375 0.9375 -2.0625 0.9375q-1.1875 0 -1.875 -1.0l0 0.84375zm-0.015625 -3.421875q0 1.21875 0.34375 1.75q0.53125 0.890625 1.453125 0.890625q0.75 0 1.296875 -0.65625q0.546875 -0.65625 0.546875 -1.9375q0 -1.328125 -0.53125 -1.953125q-0.515625 -0.625 -1.265625 -0.625q-0.75 0 -1.296875 0.65625q-0.546875 0.640625 -0.546875 1.875zm6.3656006 3.421875l0 -6.734375l1.03125 0l0 1.015625q0.390625 -0.71875 0.71875 -0.9375q0.34375 -0.234375 0.734375 -0.234375q0.578125 0 1.171875 0.359375l-0.390625 1.0625q-0.421875 -0.25 -0.828125 -0.25q-0.375 0 -0.6875 0.234375q-0.296875 0.21875 -0.421875 0.625q-0.1875 0.609375 -0.1875 1.328125l0 3.53125l-1.140625 0zm4.0008698 -2.796875l0 -1.140625l3.515625 0l0 1.140625l-3.515625 0zm9.50087 0.625l1.1875 0.140625q-0.28125 1.046875 -1.046875 1.625q-0.75 0.5625 -1.921875 0.5625q-1.484375 0 -2.359375 -0.90625q-0.859375 -0.921875 -0.859375 -2.5625q0 -1.703125 0.875 -2.640625q0.890625 -0.9375 2.28125 -0.9375q1.359375 0 2.203125 0.921875q0.859375 0.921875 0.859375 2.578125q0 0.109375 0 0.3125l-5.03125 0q0.0625 1.109375 0.625 1.703125q0.5625 0.59375 1.40625 0.59375q0.640625 0 1.078125 -0.328125q0.453125 -0.34375 0.703125 -1.0625zm-3.75 -1.84375l3.765625 0q-0.078125 -0.859375 -0.4375 -1.28125q-0.546875 -0.65625 -1.40625 -0.65625q-0.796875 0 -1.328125 0.53125q-0.53125 0.515625 -0.59375 1.40625zm9.053101 3.0l0.15625 1.0q-0.484375 0.109375 -0.859375 0.109375q-0.625 0 -0.96875 -0.203125q-0.34375 -0.203125 -0.484375 -0.515625q-0.140625 -0.328125 -0.140625 -1.34375l0 -3.890625l-0.828125 0l0 -0.875l0.828125 0l0 -1.671875l1.140625 -0.6875l0 2.359375l1.15625 0l0 0.875l-1.15625 0l0 3.953125q0 0.484375 0.0625 0.625q0.0625 0.140625 0.1875 0.21875q0.140625 0.078125 0.390625 0.078125q0.203125 0 0.515625 -0.03125zm1.2030029 1.015625l0 -9.3125l1.140625 0l0 3.34375q0.796875 -0.921875 2.015625 -0.921875q0.75 0 1.296875 0.296875q0.5625 0.296875 0.796875 0.8125q0.234375 0.515625 0.234375 1.515625l0 4.265625l-1.140625 0l0 -4.265625q0 -0.859375 -0.375 -1.25q-0.359375 -0.390625 -1.046875 -0.390625q-0.5 0 -0.953125 0.265625q-0.453125 0.25 -0.640625 0.703125q-0.1875 0.453125 -0.1875 1.25l0 3.6875l-1.140625 0zm13.099976 -1.09375l0 1.09375l-6.15625 0q-0.015625 -0.40625 0.140625 -0.796875q0.234375 -0.625 0.75 -1.234375q0.515625 -0.609375 1.5 -1.40625q1.515625 -1.25 2.046875 -1.96875q0.53125 -0.734375 0.53125 -1.375q0 -0.6875 -0.484375 -1.140625q-0.484375 -0.46875 -1.265625 -0.46875q-0.828125 0 -1.328125 0.5q-0.484375 0.484375 -0.5 1.359375l-1.171875 -0.125q0.125 -1.3125 0.90625 -2.0q0.78125 -0.6875 2.109375 -0.6875q1.34375 0 2.125 0.75q0.78125 0.734375 0.78125 1.828125q0 0.5625 -0.234375 1.109375q-0.21875 0.53125 -0.75 1.140625q-0.53125 0.59375 -1.765625 1.625q-1.03125 0.859375 -1.328125 1.171875q-0.28125 0.3125 -0.46875 0.625l4.5625 0z" fill-rule="nonzero"></path><path fill="#000000" fill-opacity="0.0" d="m350.604 150.60153l82.299225 17.606293l-5.6693115 26.425201l-82.299194 -17.606293z" fill-rule="nonzero"></path><path fill="#000000" d="m359.2128 170.80959l0.14419556 -0.67219543q-0.7019348 0.6647339 -1.6186829 0.46861267q-0.39727783 -0.0849762 -0.71591187 -0.31292725q-0.31536865 -0.24324036 -0.44955444 -0.5116272q-0.118896484 -0.2651062 -0.107910156 -0.61428833q0.003326416 -0.2389679 0.11148071 -0.7431183l0.60635376 -2.8263092l0.76397705 0.16343689l-0.5440979 2.5360413q-0.13110352 0.611084 -0.112579346 0.82276917q-0.0044555664 0.31861877 0.1854248 0.5509796q0.20840454 0.22035217 0.55981445 0.29553223q0.35144043 0.07518005 0.6930847 -0.027496338q0.34490967 -0.11795044 0.5326843 -0.39735413q0.18780518 -0.2794037 0.3156128 -0.8752136l0.52441406 -2.4443817l0.77926636 0.16670227l-0.980011 4.567932l-0.68756104 -0.14709473zm2.0783386 0.44462585l0.97998047 -4.567932l0.70285034 0.1503601l-0.14093018 0.6569214q0.64953613 -0.64398193 1.6121521 -0.43806458q0.41253662 0.088256836 0.71588135 0.3129425q0.32192993 0.212677 0.43756104 0.4930725q0.118927 0.26512146 0.12319946 0.61756897q-6.1035156E-5 0.22367859 -0.11477661 0.75839233l-0.60305786 2.8110352l-0.77926636 -0.16670227l0.5965271 -2.780487q0.101623535 -0.47358704 0.05911255 -0.72236633q-0.042510986 -0.2487793 -0.24221802 -0.43530273q-0.19641113 -0.20179749 -0.50198364 -0.2671814q-0.48895264 -0.104599 -0.924469 0.13778687q-0.4169922 0.23036194 -0.6070862 1.1164551l-0.5342407 2.4902039l-0.77923584 -0.16670227zm6.916565 0.7606354l-0.037261963 0.6950836q-0.35253906 0.004470825 -0.5970154 -0.047821045q-0.42782593 -0.09152222 -0.62750244 -0.2780609q-0.19967651 -0.18652344 -0.2607727 -0.4232788q-0.045776367 -0.23350525 0.10171509 -0.92099l0.5637512 -2.6277008l-0.56533813 -0.12094116l0.13110352 -0.61109924l0.56533813 0.12094116l0.24255371 -1.1305237l0.8775635 -0.29161072l-0.34088135 1.5888367l0.77926636 0.16670227l-0.13110352 0.61109924l-0.77926636 -0.16670227l-0.5703125 2.6582642q-0.07208252 0.33610535 -0.061187744 0.43429565q0.026153564 0.10147095 0.10473633 0.1822052q0.078552246 0.080718994 0.24661255 0.1166687q0.1375122 0.029418945 0.3580017 0.044631958zm3.7915344 0.9389496q-0.5064697 0.27513123 -0.93652344 0.34292603q-0.4300232 0.06777954 -0.8883972 -0.030273438q-0.74868774 -0.16017151 -1.0825806 -0.6150818q-0.318573 -0.4516449 -0.19403076 -1.0321808q0.07211304 -0.33610535 0.28390503 -0.5784149q0.21179199 -0.24229431 0.49230957 -0.3580475q0.28051758 -0.115753174 0.6057739 -0.14204407q0.23901367 0.0032043457 0.71051025 0.040145874q0.97024536 0.095718384 1.4494019 0.022460938q0.03277588 -0.152771 0.04260254 -0.1986084q0.101623535 -0.4736023 -0.07296753 -0.7026825q-0.24658203 -0.34036255 -0.8272095 -0.46458435q-0.5500488 -0.11767578 -0.8523865 0.025375366q-0.29910278 0.12776184 -0.5262146 0.5904846l-0.7290039 -0.25183105q0.19656372 -0.4692688 0.4880066 -0.71051025q0.31002808 -0.25325012 0.7858887 -0.31121826q0.4944458 -0.069992065 1.0750427 0.054214478q0.59591675 0.12747192 0.9178467 0.34014893q0.33718872 0.21595764 0.4593811 0.4657898q0.14074707 0.23782349 0.13302612 0.57173157q0.0032348633 0.20840454 -0.10494995 0.71255493l-0.22286987 1.0388641q-0.22943115 1.0694275 -0.24588013 1.3694916q-0.016418457 0.30007935 0.08065796 0.5924835l-0.80981445 -0.17324829q-0.0697937 -0.2705841 -0.03152466 -0.59794617zm0.30926514 -1.7394104q-0.4638672 0.07652283 -1.3304443 0.018966675q-0.49005127 -0.02494812 -0.7083435 0.024230957q-0.21502686 0.03388977 -0.35803223 0.17906189q-0.14300537 0.14517212 -0.18563843 0.34376526q-0.06555176 0.30555725 0.117767334 0.5684662q0.18658447 0.24763489 0.6449585 0.34570312q0.44308472 0.0947876 0.8371277 -0.028640747q0.39404297 -0.123428345 0.6342163 -0.42356873q0.177948 -0.23356628 0.2861023 -0.7377167l0.062286377 -0.29026794zm1.443634 3.1050873l0.7257385 0.2671051q-0.029541016 0.36117554 0.15158081 0.5597229q0.24441528 0.27598572 0.7486572 0.3838501q0.5347595 0.1144104 0.87094116 -0.037368774q0.33621216 -0.15177917 0.52511597 -0.51083374q0.11355591 -0.23136902 0.25888062 -0.9832306q-0.63204956 0.48796082 -1.3807373 0.3277893q-0.94732666 -0.20265198 -1.3226013 -0.98599243q-0.35671997 -0.7953491 -0.15350342 -1.7425537q0.14093018 -0.6569214 0.48812866 -1.1578827q0.36245728 -0.49768066 0.86782837 -0.693161q0.5086365 -0.2107544 1.119812 -0.08000183q0.80981445 0.17323303 1.1916504 0.9260254l0.11798096 -0.5499878l0.71813965 0.15362549l-0.8456421 3.9415588q-0.22943115 1.0694122 -0.5536499 1.4634247q-0.30895996 0.3972931 -0.8383484 0.5556793q-0.5140991 0.16165161 -1.2016602 0.014556885q-0.82507324 -0.17651367 -1.2506409 -0.6510315q-0.41027832 -0.47125244 -0.2376709 -1.201294zm1.2316895 -2.6126404q-0.19335938 0.9013519 0.06954956 1.3890228q0.26293945 0.4876709 0.7977295 0.6020813q0.5347595 0.11439514 0.9899597 -0.21963501q0.4552002 -0.3340454 0.6420288 -1.2048492q0.18026733 -0.84025574 -0.109954834 -1.3497467q-0.27493286 -0.5062103 -0.7944031 -0.61735535q-0.51950073 -0.11112976 -0.9779968 0.2381897q-0.4399109 0.3373108 -0.61691284 1.1622925zm3.8414001 3.6979218l0.7257385 0.2671051q-0.029541016 0.3611908 0.15158081 0.5597229q0.24441528 0.27598572 0.7486267 0.3838501q0.53479004 0.1144104 0.8709717 -0.037368774q0.33618164 -0.15177917 0.52508545 -0.51083374q0.11355591 -0.23136902 0.25888062 -0.98321533q-0.63204956 0.48794556 -1.3807068 0.32777405q-0.94732666 -0.20265198 -1.3226013 -0.98599243q-0.35671997 -0.7953491 -0.15350342 -1.7425537q0.14093018 -0.6569214 0.48809814 -1.1578827q0.3624878 -0.49768066 0.8678589 -0.693161q0.5086365 -0.2107544 1.119812 -0.08000183q0.80981445 0.17323303 1.1916199 0.9260254l0.118011475 -0.5499878l0.71810913 0.15362549l-0.8456116 3.9415588q-0.22943115 1.0694275 -0.5536804 1.46344q-0.30895996 0.39727783 -0.8383179 0.55566406q-0.5140991 0.16165161 -1.2016907 0.014556885q-0.82507324 -0.17649841 -1.2506104 -0.6510315q-0.41027832 -0.47125244 -0.2376709 -1.201294zm1.2316895 -2.6126404q-0.1933899 0.9013672 0.06954956 1.3890228q0.26293945 0.4876709 0.797699 0.6020813q0.53479004 0.1144104 0.98999023 -0.21963501q0.45516968 -0.3340454 0.6419983 -1.2048492q0.18026733 -0.84025574 -0.10992432 -1.3497467q-0.27493286 -0.5062103 -0.7944336 -0.6173401q-0.51950073 -0.11114502 -0.9779663 0.23817444q-0.4399109 0.3373108 -0.61691284 1.1622925zm7.492462 2.5455933l0.7901306 0.26490784q-0.34939575 0.66026306 -0.95410156 0.94633484q-0.58618164 0.27407837 -1.3807068 0.10409546q-0.99313354 -0.21246338 -1.4579163 -0.95103455q-0.44622803 -0.75057983 -0.20697021 -1.8658295q0.24581909 -1.1457977 0.97610474 -1.6446991q0.733551 -0.51416016 1.6808472 -0.31150818q0.91677856 0.19612122 1.3477173 0.94343567q0.4494934 0.7353058 0.20697021 1.8658295q-0.01638794 0.0763855 -0.045898438 0.21388245l-3.4072876 -0.72891235q-0.114746094 0.75839233 0.18200684 1.23732q0.29675293 0.4789276 0.8773804 0.60313416q0.42782593 0.09152222 0.76400757 -0.0602417q0.35476685 -0.16378784 0.62771606 -0.6167145zm-2.2676086 -1.7953491l2.5516357 0.5458679q0.07873535 -0.59033203 -0.10348511 -0.9329071q-0.27163696 -0.52149963 -0.8675232 -0.64897156q-0.53479004 -0.1144104 -0.98013306 0.1737976q-0.42681885 0.27619934 -0.6004944 0.86221313zm6.87323 4.314575l0.12454224 -0.5805359q-0.5905762 0.5926819 -1.4309387 0.41290283q-0.53479004 -0.11439514 -0.9276123 -0.5180054q-0.39282227 -0.40361023 -0.5378418 -0.9938812q-0.12976074 -0.5870209 0.021026611 -1.2897797q0.14749146 -0.6874695 0.49465942 -1.1884308q0.35046387 -0.51623535 0.85583496 -0.71170044q0.5206604 -0.19221497 1.0859985 -0.0712738q0.41253662 0.088256836 0.6973572 0.32495117q0.28479004 0.23669434 0.42114258 0.569458l0.48510742 -2.2610474l0.77923584 0.16670227l-1.3503723 6.2942657l-0.71813965 -0.15362549zm-1.9562988 -2.7993164q-0.18682861 0.87080383 0.08480835 1.3923035q0.27493286 0.5062103 0.7791443 0.6140747q0.5042114 0.10786438 0.94415283 -0.22943115q0.4552002 -0.3340454 0.6387329 -1.1895752q0.19992065 -0.93193054 -0.07171631 -1.4534149q-0.27163696 -0.52149963 -0.7911377 -0.6326294q-0.51950073 -0.11112976 -0.9627075 0.24145508q-0.42791748 0.35585022 -0.62127686 1.2572174z" fill-rule="nonzero"></path></g></svg>

