<?xml version="1.0" encoding="UTF-8" standalone="no"?>
<!-- Created with Inkscape (http://www.inkscape.org/) -->

<svg
   xmlns:dc="http://purl.org/dc/elements/1.1/"
   xmlns:cc="http://creativecommons.org/ns#"
   xmlns:rdf="http://www.w3.org/1999/02/22-rdf-syntax-ns#"
   xmlns:svg="http://www.w3.org/2000/svg"
   xmlns="http://www.w3.org/2000/svg"
   xmlns:sodipodi="http://sodipodi.sourceforge.net/DTD/sodipodi-0.dtd"
   xmlns:inkscape="http://www.inkscape.org/namespaces/inkscape"
   id="svg3125"
   version="1.1"
   inkscape:version="0.48.4 r9939"
   width="948.7025"
   height="663.7175"
   xml:space="preserve"
   sodipodi:docname="scheme-2.svg"><metadata
     id="metadata3131"><rdf:RDF><cc:Work
         rdf:about=""><dc:format>image/svg+xml</dc:format><dc:type
           rdf:resource="http://purl.org/dc/dcmitype/StillImage" /><dc:title></dc:title></cc:Work></rdf:RDF></metadata><defs
     id="defs3129"><clipPath
       clipPathUnits="userSpaceOnUse"
       id="clipPath3139"><path
         d="m 0,530.974 758.962,0 L 758.962,0 0,0 0,530.974 z"
         id="path3141" /></clipPath><clipPath
       clipPathUnits="userSpaceOnUse"
       id="clipPath3183"><path
         d="m 0,530.974 758.962,0 L 758.962,0 0,0 0,530.974 z"
         id="path3185" /></clipPath><clipPath
       clipPathUnits="userSpaceOnUse"
       id="clipPath3247"><path
         d="m 0,530.974 758.962,0 L 758.962,0 0,0 0,530.974 z"
         id="path3249" /></clipPath><clipPath
       clipPathUnits="userSpaceOnUse"
       id="clipPath3267"><path
         d="m 0,530.974 758.962,0 L 758.962,0 0,0 0,530.974 z"
         id="path3269" /></clipPath><clipPath
       clipPathUnits="userSpaceOnUse"
       id="clipPath3287"><path
         d="m 0,530.974 758.962,0 L 758.962,0 0,0 0,530.974 z"
         id="path3289" /></clipPath><clipPath
       clipPathUnits="userSpaceOnUse"
       id="clipPath3307"><path
         d="m 0,530.974 758.962,0 L 758.962,0 0,0 0,530.974 z"
         id="path3309" /></clipPath><clipPath
       clipPathUnits="userSpaceOnUse"
       id="clipPath3327"><path
         d="m 0,530.974 758.962,0 L 758.962,0 0,0 0,530.974 z"
         id="path3329" /></clipPath><clipPath
       clipPathUnits="userSpaceOnUse"
       id="clipPath3347"><path
         d="m 0,530.974 758.962,0 L 758.962,0 0,0 0,530.974 z"
         id="path3349" /></clipPath><clipPath
       clipPathUnits="userSpaceOnUse"
       id="clipPath3369"><path
         d="m 0,530.974 758.962,0 L 758.962,0 0,0 0,530.974 z"
         id="path3371" /></clipPath><clipPath
       clipPathUnits="userSpaceOnUse"
       id="clipPath3389"><path
         d="m 0,530.974 758.962,0 L 758.962,0 0,0 0,530.974 z"
         id="path3391" /></clipPath><clipPath
       clipPathUnits="userSpaceOnUse"
       id="clipPath3409"><path
         d="m 0,530.974 758.962,0 L 758.962,0 0,0 0,530.974 z"
         id="path3411" /></clipPath><clipPath
       clipPathUnits="userSpaceOnUse"
       id="clipPath3429"><path
         d="m 0,530.974 758.962,0 L 758.962,0 0,0 0,530.974 z"
         id="path3431" /></clipPath><clipPath
       clipPathUnits="userSpaceOnUse"
       id="clipPath3449"><path
         d="m 0,530.974 758.962,0 L 758.962,0 0,0 0,530.974 z"
         id="path3451" /></clipPath><clipPath
       clipPathUnits="userSpaceOnUse"
       id="clipPath3469"><path
         d="m 0,530.974 758.962,0 L 758.962,0 0,0 0,530.974 z"
         id="path3471" /></clipPath><clipPath
       clipPathUnits="userSpaceOnUse"
       id="clipPath3493"><path
         d="m 0,530.974 758.962,0 L 758.962,0 0,0 0,530.974 z"
         id="path3495" /></clipPath><clipPath
       clipPathUnits="userSpaceOnUse"
       id="clipPath3517"><path
         d="m 0,530.974 758.962,0 L 758.962,0 0,0 0,530.974 z"
         id="path3519" /></clipPath><clipPath
       clipPathUnits="userSpaceOnUse"
       id="clipPath3537"><path
         d="m 0,530.974 758.962,0 L 758.962,0 0,0 0,530.974 z"
         id="path3539" /></clipPath><clipPath
       clipPathUnits="userSpaceOnUse"
       id="clipPath3573"><path
         d="m 0,530.974 758.962,0 L 758.962,0 0,0 0,530.974 z"
         id="path3575" /></clipPath><clipPath
       clipPathUnits="userSpaceOnUse"
       id="clipPath3593"><path
         d="m 0,530.974 758.962,0 L 758.962,0 0,0 0,530.974 z"
         id="path3595" /></clipPath><clipPath
       clipPathUnits="userSpaceOnUse"
       id="clipPath3613"><path
         d="m 0,530.974 758.962,0 L 758.962,0 0,0 0,530.974 z"
         id="path3615" /></clipPath><clipPath
       clipPathUnits="userSpaceOnUse"
       id="clipPath3633"><path
         d="m 0,530.974 758.962,0 L 758.962,0 0,0 0,530.974 z"
         id="path3635" /></clipPath><clipPath
       clipPathUnits="userSpaceOnUse"
       id="clipPath3655"><path
         d="m 0,530.974 758.962,0 L 758.962,0 0,0 0,530.974 z"
         id="path3657" /></clipPath></defs><sodipodi:namedview
     pagecolor="#ffffff"
     bordercolor="#666666"
     borderopacity="1"
     objecttolerance="10"
     gridtolerance="10"
     guidetolerance="10"
     inkscape:pageopacity="0"
     inkscape:pageshadow="2"
     inkscape:window-width="1920"
     inkscape:window-height="1061"
     id="namedview3127"
     showgrid="false"
     inkscape:zoom="1.3239134"
     inkscape:cx="598.84415"
     inkscape:cy="288.70486"
     inkscape:window-x="1362"
     inkscape:window-y="-4"
     inkscape:window-maximized="1"
     inkscape:current-layer="g3133" /><g
     id="g3133"
     inkscape:groupmode="layer"
     inkscape:label="scheme-2"
     transform="matrix(1.25,0,0,-1.25,0,663.7175)"><g
       id="g3135"><g
         id="g3137"
         clip-path="url(#clipPath3139)"><g
           id="g3143"
           transform="translate(61.3906,26.5771)"><path
             d="m 0,0 c -4.516,0 -8.743,1.82 -11.904,5.126 l -2.931,3.067 0.02,-0.246 -16.012,16.012 -1.05,1.139 C -34.858,28.201 -36.5,32.25 -36.5,36.5 l 0,348 c 0,9.098 7.402,16.5 16.5,16.5 l 284,0 c 4.405,0 8.556,-1.736 11.688,-4.887 l 2.903,-2.923 -0.003,0.038 16.236,-16.235 0.902,-0.923 c 3.079,-3.119 4.774,-7.229 4.774,-11.57 l 0,-348 C 300.5,7.402 293.098,0 284,0 L 0,0 z"
             style="fill:#bcbec0;fill-opacity:1;fill-rule:nonzero;stroke:none"
             id="path3145" /></g><g
           id="g3147"
           transform="translate(325.3906,429.0771)"><path
             d="m 0,0 -284,0 c -9.9,0 -18,-8.1 -18,-18 l 0,-348 c 0,-4.819 1.929,-9.202 5.041,-12.441 l -0.083,-0.006 20.063,-20.063 -0.009,0.1 c 3.283,-3.434 7.892,-5.59 12.988,-5.59 l 284,0 c 9.9,0 18,8.1 18,18 l 0,348 c 0,4.907 -1.994,9.368 -5.207,12.624 l 0.02,0.001 L 12.75,-5.313 12.751,-5.33 C 9.486,-2.044 4.971,0 0,0 m 0,-3 c 4.002,0 7.775,-1.579 10.624,-4.445 l 5.802,-5.822 -0.004,0.039 12.74,-12.739 1.496,-1.516 C 33.458,-30.32 35,-34.056 35,-38 l 0,-348 c 0,-8.271 -6.729,-15 -15,-15 l -284,0 c -4.102,0 -7.944,1.656 -10.819,4.663 l -5.863,6.132 0.033,-0.393 -11.995,11.994 -2.151,2.241 c -2.712,2.822 -4.205,6.503 -4.205,10.363 l 0,348 c 0,8.271 6.729,15 15,15 L 0,-3"
             style="fill:#000000;fill-opacity:1;fill-rule:nonzero;stroke:none"
             id="path3149" /></g><g
           id="g3151"
           transform="translate(41.3906,46.5771)"><path
             d="m 0,0 c -9.098,0 -16.5,7.401 -16.5,16.5 l 0,348 c 0,9.098 7.402,16.5 16.5,16.5 l 284,0 c 9.098,0 16.5,-7.402 16.5,-16.5 l 0,-348 C 300.5,7.401 293.098,0 284,0 L 0,0 z"
             style="fill:#ffffff;fill-opacity:1;fill-rule:nonzero;stroke:none"
             id="path3153" /></g><g
           id="g3155"
           transform="translate(325.3906,429.0771)"><path
             d="m 0,0 -284,0 c -9.9,0 -18,-8.1 -18,-18 l 0,-348 c 0,-9.9 8.1,-18 18,-18 l 284,0 c 9.9,0 18,8.1 18,18 l 0,348 C 18,-8.1 9.9,0 0,0 m 0,-3 c 8.271,0 15,-6.729 15,-15 l 0,-348 c 0,-8.271 -6.729,-15 -15,-15 l -284,0 c -8.271,0 -15,6.729 -15,15 l 0,348 c 0,8.271 6.729,15 15,15 L 0,-3"
             style="fill:#000000;fill-opacity:1;fill-rule:nonzero;stroke:none"
             id="path3157" /></g><g
           id="g3159"
           transform="translate(431.3906,26.5771)"><path
             d="m 0,0 c -4.516,0 -8.743,1.82 -11.904,5.127 l -2.954,3.089 0.022,-0.247 -15.993,15.992 -1.048,1.137 C -34.858,28.201 -36.5,32.251 -36.5,36.5 l 0,348 c 0,9.098 7.402,16.5 16.5,16.5 l 284,0 c 4.405,0 8.556,-1.736 11.688,-4.887 l 3.03,-3.049 -0.005,0.039 16.095,-16.095 0.918,-0.938 c 3.079,-3.12 4.774,-7.229 4.774,-11.57 l 0,-348 C 300.5,7.402 293.098,0 284,0 L 0,0 z"
             style="fill:#bcbec0;fill-opacity:1;fill-rule:nonzero;stroke:none"
             id="path3161" /></g><g
           id="g3163"
           transform="translate(695.3906,429.0771)"><path
             d="m 0,0 -284,0 c -9.9,0 -18,-8.1 -18,-18 l 0,-348 c 0,-4.819 1.93,-9.202 5.041,-12.441 l -0.083,-0.006 20.063,-20.063 -0.009,0.1 c 3.283,-3.434 7.892,-5.59 12.988,-5.59 l 284,0 c 9.9,0 18,8.1 18,18 l 0,348 c 0,4.907 -1.994,9.368 -5.207,12.624 l 0.02,0.001 L 12.75,-5.313 12.752,-5.33 C 9.486,-2.044 4.971,0 0,0 m 0,-3 c 4.003,0 7.775,-1.579 10.624,-4.445 l 6.05,-6.072 -0.005,0.043 12.447,-12.447 1.541,-1.562 C 33.458,-30.321 35,-34.056 35,-38 l 0,-348 c 0,-8.271 -6.729,-15 -15,-15 l -284,0 c -4.102,0 -7.944,1.656 -10.82,4.663 l -5.911,6.183 0.035,-0.396 -11.956,11.956 -2.143,2.231 c -2.712,2.823 -4.205,6.503 -4.205,10.363 l 0,348 c 0,8.271 6.729,15 15,15 L 0,-3"
             style="fill:#000000;fill-opacity:1;fill-rule:nonzero;stroke:none"
             id="path3165" /></g><g
           id="g3167"
           transform="translate(411.3906,46.5771)"><path
             d="m 0,0 c -9.099,0 -16.5,7.401 -16.5,16.5 l 0,348 c 0,9.098 7.401,16.5 16.5,16.5 l 284,0 c 9.099,0 16.5,-7.402 16.5,-16.5 l 0,-348 C 300.5,7.401 293.099,0 284,0 L 0,0 z"
             style="fill:#ffffff;fill-opacity:1;fill-rule:nonzero;stroke:none"
             id="path3169" /></g><g
           id="g3171"
           transform="translate(695.3906,429.0771)"><path
             d="m 0,0 -284,0 c -9.9,0 -18,-8.1 -18,-18 l 0,-348 c 0,-9.9 8.1,-18 18,-18 l 284,0 c 9.9,0 18,8.1 18,18 l 0,348 C 18,-8.1 9.9,0 0,0 m 0,-3 c 8.271,0 15,-6.729 15,-15 l 0,-348 c 0,-8.271 -6.729,-15 -15,-15 l -284,0 c -8.271,0 -15,6.729 -15,15 l 0,348 c 0,8.271 6.729,15 15,15 L 0,-3"
             style="fill:#000000;fill-opacity:1;fill-rule:nonzero;stroke:none"
             id="path3173" /></g></g></g><text
       transform="matrix(1,0,0,-1,583.3906,392.0771)"
       id="text3175"><tspan
         style="fill:#000000;fill-opacity:1;fill-rule:nonzero;stroke:none;font-family:PT Sans Narrow;font-variant:normal;font-weight:normal;font-stretch:semi-condensed;font-size:20;writing-mode:lr;-inkscape-font-specification:PTSans-Narrow"
         x="0 8.6 17.24 30.26 38.96 47.64 52.98 61.24 70.24 74.48 85.24 93.88 102.54 -540 -531.4 -522.76 -509.74 -501.04 -492.36 -487.02 -478.76 -469.76 -465.52 -454.76 -446.12 -437.46"
         y="0"
         sodipodi:role="line"
         id="tspan3177">Compute2 NodeCompute1 Node</tspan></text>
<g
       id="g3179"><g
         id="g3181"
         clip-path="url(#clipPath3183)"><g
           id="g3187"
           transform="translate(333.7241,477.0781)"><path
             d="m 0,0 -58,-98.667 1.333,-16.666 -190.002,-58.67"
             style="fill:none;stroke:#be1e2d;stroke-opacity:1;stroke-width:3;stroke-linecap:butt;stroke-linejoin:miter;stroke-miterlimit:10;stroke-dasharray:none"
             id="path3189" /></g><g
           id="g3191"
           transform="translate(275.0571,348.4111)"><path
             d="m 0,0 0,-73.333 -0.167,-76.001"
             style="fill:none;stroke:#be1e2d;stroke-opacity:1;stroke-width:3;stroke-linecap:butt;stroke-linejoin:miter;stroke-miterlimit:10;stroke-dasharray:none"
             id="path3193" /></g><g
           id="g3195"
           transform="translate(288.8906,187.0771)"><path
             d="M 0,0 -0.5,-98"
             style="fill:none;stroke:#be1e2d;stroke-opacity:1;stroke-width:3;stroke-linecap:butt;stroke-linejoin:miter;stroke-miterlimit:10;stroke-dasharray:none"
             id="path3197" /></g><g
           id="g3199"
           transform="translate(246.8906,186.5771)"><path
             d="M 0,0 -29.167,-100.165"
             style="fill:none;stroke:#be1e2d;stroke-opacity:1;stroke-width:3;stroke-linecap:butt;stroke-linejoin:miter;stroke-miterlimit:10;stroke-dasharray:none"
             id="path3201" /></g><g
           id="g3203"
           transform="translate(148.3906,188.4111)"><path
             d="M 0,0 0,-99.334"
             style="fill:none;stroke:#be1e2d;stroke-opacity:1;stroke-width:3;stroke-linecap:butt;stroke-linejoin:miter;stroke-miterlimit:10;stroke-dasharray:none"
             id="path3205" /></g><g
           id="g3207"
           transform="translate(112.3906,188.4102)"><path
             d="M 0,0 -36.667,-101.332"
             style="fill:none;stroke:#be1e2d;stroke-opacity:1;stroke-width:3;stroke-linecap:butt;stroke-linejoin:miter;stroke-miterlimit:10;stroke-dasharray:none"
             id="path3209" /></g><g
           id="g3211"
           transform="translate(668.8906,187.0771)"><path
             d="M 0,0 -0.5,-98"
             style="fill:none;stroke:#be1e2d;stroke-opacity:1;stroke-width:3;stroke-linecap:butt;stroke-linejoin:miter;stroke-miterlimit:10;stroke-dasharray:none"
             id="path3213" /></g><g
           id="g3215"
           transform="translate(626.8906,186.5771)"><path
             d="M 0,0 -29.167,-100.165"
             style="fill:none;stroke:#be1e2d;stroke-opacity:1;stroke-width:3;stroke-linecap:butt;stroke-linejoin:miter;stroke-miterlimit:10;stroke-dasharray:none"
             id="path3217" /></g><g
           id="g3219"
           transform="translate(528.3906,188.4111)"><path
             d="M 0,0 0,-99.334"
             style="fill:none;stroke:#be1e2d;stroke-opacity:1;stroke-width:3;stroke-linecap:butt;stroke-linejoin:miter;stroke-miterlimit:10;stroke-dasharray:none"
             id="path3221" /></g><g
           id="g3223"
           transform="translate(492.3906,188.4102)"><path
             d="M 0,0 -36.666,-101.332"
             style="fill:none;stroke:#be1e2d;stroke-opacity:1;stroke-width:3;stroke-linecap:butt;stroke-linejoin:miter;stroke-miterlimit:10;stroke-dasharray:none"
             id="path3225" /></g><g
           id="g3227"
           transform="translate(409.7246,477.0781)"><path
             d="m 0,0 58,-98.667 -1.334,-16.666 86,-68.002"
             style="fill:none;stroke:#be1e2d;stroke-opacity:1;stroke-width:3;stroke-linecap:butt;stroke-linejoin:miter;stroke-miterlimit:10;stroke-dasharray:none"
             id="path3229" /></g><g
           id="g3231"
           transform="translate(270.3906,70.0771)"><path
             d="m 0,0 c -6.065,0 -11,4.935 -11,11 l 0,16 c 0,6.065 4.935,11 11,11 l 36,0 c 6.065,0 11,-4.935 11,-11 L 47,11 C 47,4.935 42.065,0 36,0 L 0,0 z"
             style="fill:#fce5cd;fill-opacity:1;fill-rule:nonzero;stroke:none"
             id="path3233" /></g><g
           id="g3235"
           transform="translate(306.3906,109.0771)"><path
             d="m 0,0 -36,0 c -6.6,0 -12,-5.4 -12,-12 l 0,-16 c 0,-6.6 5.4,-12 12,-12 l 36,0 c 6.6,0 12,5.4 12,12 l 0,16 C 12,-5.4 6.6,0 0,0 m 0,-2 c 5.514,0 10,-4.486 10,-10 l 0,-16 C 10,-33.514 5.514,-38 0,-38 l -36,0 c -5.514,0 -10,4.486 -10,10 l 0,16 c 0,5.514 4.486,10 10,10 l 36,0"
             style="fill:#000000;fill-opacity:1;fill-rule:nonzero;stroke:none"
             id="path3237" /></g></g></g><text
       transform="matrix(1,0,0,-1,273.501,82.0771)"
       id="text3239"><tspan
         style="fill:#000000;fill-opacity:1;fill-rule:nonzero;stroke:none;font-family:PT Sans Narrow;font-variant:normal;font-weight:normal;font-stretch:semi-condensed;font-size:20;writing-mode:lr;-inkscape-font-specification:PTSans-Narrow"
         x="0 7.76 20.78"
         y="0"
         sodipodi:role="line"
         id="tspan3241">vm3</tspan></text>
<g
       id="g3243"><g
         id="g3245"
         clip-path="url(#clipPath3247)"><g
           id="g3251"
           transform="translate(200.3906,70.0771)"><path
             d="m 0,0 c -6.065,0 -11,4.935 -11,11 l 0,16 c 0,6.065 4.935,11 11,11 l 36,0 c 6.065,0 11,-4.935 11,-11 L 47,11 C 47,4.935 42.065,0 36,0 L 0,0 z"
             style="fill:#fce5cd;fill-opacity:1;fill-rule:nonzero;stroke:none"
             id="path3253" /></g><g
           id="g3255"
           transform="translate(236.3906,109.0771)"><path
             d="m 0,0 -36,0 c -6.6,0 -12,-5.4 -12,-12 l 0,-16 c 0,-6.6 5.4,-12 12,-12 l 36,0 c 6.6,0 12,5.4 12,12 l 0,16 C 12,-5.4 6.6,0 0,0 m 0,-2 c 5.514,0 10,-4.486 10,-10 l 0,-16 C 10,-33.514 5.514,-38 0,-38 l -36,0 c -5.514,0 -10,4.486 -10,10 l 0,16 c 0,5.514 4.486,10 10,10 l 36,0"
             style="fill:#000000;fill-opacity:1;fill-rule:nonzero;stroke:none"
             id="path3257" /></g></g></g><text
       transform="matrix(1,0,0,-1,203.501,82.0771)"
       id="text3259"><tspan
         style="fill:#000000;fill-opacity:1;fill-rule:nonzero;stroke:none;font-family:PT Sans Narrow;font-variant:normal;font-weight:normal;font-stretch:semi-condensed;font-size:20;writing-mode:lr;-inkscape-font-specification:PTSans-Narrow"
         x="0 7.76 20.78"
         y="0"
         sodipodi:role="line"
         id="tspan3261">vm2</tspan></text>
<g
       id="g3263"><g
         id="g3265"
         clip-path="url(#clipPath3267)"><g
           id="g3271"
           transform="translate(130.3906,70.0771)"><path
             d="m 0,0 c -6.065,0 -11,4.935 -11,11 l 0,16 c 0,6.065 4.935,11 11,11 l 36,0 c 6.065,0 11,-4.935 11,-11 L 47,11 C 47,4.935 42.065,0 36,0 L 0,0 z"
             style="fill:#fce5cd;fill-opacity:1;fill-rule:nonzero;stroke:none"
             id="path3273" /></g><g
           id="g3275"
           transform="translate(166.3906,109.0771)"><path
             d="m 0,0 -36,0 c -6.6,0 -12,-5.4 -12,-12 l 0,-16 c 0,-6.6 5.4,-12 12,-12 l 36,0 c 6.6,0 12,5.4 12,12 l 0,16 C 12,-5.4 6.6,0 0,0 m 0,-2 c 5.514,0 10,-4.486 10,-10 l 0,-16 C 10,-33.514 5.514,-38 0,-38 l -36,0 c -5.514,0 -10,4.486 -10,10 l 0,16 c 0,5.514 4.486,10 10,10 l 36,0"
             style="fill:#000000;fill-opacity:1;fill-rule:nonzero;stroke:none"
             id="path3277" /></g></g></g><text
       transform="matrix(1,0,0,-1,133.501,82.0771)"
       id="text3279"><tspan
         style="fill:#000000;fill-opacity:1;fill-rule:nonzero;stroke:none;font-family:PT Sans Narrow;font-variant:normal;font-weight:normal;font-stretch:semi-condensed;font-size:20;writing-mode:lr;-inkscape-font-specification:PTSans-Narrow"
         x="0 7.76 20.78"
         y="0"
         sodipodi:role="line"
         id="tspan3281">vm1</tspan></text>
<g
       id="g3283"><g
         id="g3285"
         clip-path="url(#clipPath3287)"><g
           id="g3291"
           transform="translate(60.3906,70.0771)"><path
             d="m 0,0 c -6.065,0 -11,4.935 -11,11 l 0,16 c 0,6.065 4.935,11 11,11 l 36,0 c 6.065,0 11,-4.935 11,-11 L 47,11 C 47,4.935 42.065,0 36,0 L 0,0 z"
             style="fill:#fce5cd;fill-opacity:1;fill-rule:nonzero;stroke:none"
             id="path3293" /></g><g
           id="g3295"
           transform="translate(96.3906,109.0771)"><path
             d="m 0,0 -36,0 c -6.6,0 -12,-5.4 -12,-12 l 0,-16 c 0,-6.6 5.4,-12 12,-12 l 36,0 c 6.6,0 12,5.4 12,12 l 0,16 C 12,-5.4 6.6,0 0,0 m 0,-2 c 5.514,0 10,-4.486 10,-10 l 0,-16 C 10,-33.514 5.514,-38 0,-38 l -36,0 c -5.514,0 -10,4.486 -10,10 l 0,16 c 0,5.514 4.486,10 10,10 l 36,0"
             style="fill:#000000;fill-opacity:1;fill-rule:nonzero;stroke:none"
             id="path3297" /></g></g></g><text
       transform="matrix(1,0,0,-1,63.501,82.0771)"
       id="text3299"><tspan
         style="fill:#000000;fill-opacity:1;fill-rule:nonzero;stroke:none;font-family:PT Sans Narrow;font-variant:normal;font-weight:normal;font-stretch:semi-condensed;font-size:20;writing-mode:lr;-inkscape-font-specification:PTSans-Narrow"
         x="0 7.76 20.78"
         y="0"
         sodipodi:role="line"
         id="tspan3301">vm0</tspan></text>
<g
       id="g3303"><g
         id="g3305"
         clip-path="url(#clipPath3307)"><g
           id="g3311"
           transform="translate(230.3906,180.0771)"><path
             d="m 0,0 c -6.065,0 -11,4.935 -11,11 l 0,16 c 0,6.065 4.935,11 11,11 l 66,0 c 6.065,0 11,-4.935 11,-11 L 77,11 C 77,4.935 72.065,0 66,0 L 0,0 z"
             style="fill:#fce5cd;fill-opacity:1;fill-rule:nonzero;stroke:none"
             id="path3313" /></g><g
           id="g3315"
           transform="translate(296.3906,219.0771)"><path
             d="m 0,0 -66,0 c -6.6,0 -12,-5.4 -12,-12 l 0,-16 c 0,-6.6 5.4,-12 12,-12 l 66,0 c 6.6,0 12,5.4 12,12 l 0,16 C 12,-5.4 6.6,0 0,0 m 0,-2 c 5.514,0 10,-4.486 10,-10 l 0,-16 C 10,-33.514 5.514,-38 0,-38 l -66,0 c -5.514,0 -10,4.486 -10,10 l 0,16 c 0,5.514 4.486,10 10,10 l 66,0"
             style="fill:#000000;fill-opacity:1;fill-rule:nonzero;stroke:none"
             id="path3317" /></g></g></g><text
       transform="matrix(1,0,0,-1,242.811,192.0771)"
       id="text3319"><tspan
         style="fill:#000000;fill-opacity:1;fill-rule:nonzero;stroke:none;font-family:PT Sans Narrow;font-variant:normal;font-weight:normal;font-stretch:semi-condensed;font-size:20;writing-mode:lr;-inkscape-font-specification:PTSans-Narrow"
         x="0 8.68 14.16 23.16 32.16"
         y="0"
         sodipodi:role="line"
         id="tspan3321">br103</tspan></text>
<g
       id="g3323"><g
         id="g3325"
         clip-path="url(#clipPath3327)"><g
           id="g3331"
           transform="translate(261.7041,249.0771)"><path
             d="m 0,0 c -5.687,0 -10.313,4.627 -10.313,10.313 l 0,39.374 C -10.313,55.374 -5.687,60 0,60 l 57.373,0 c 5.687,0 10.314,-4.626 10.314,-10.313 l 0,-39.374 C 67.687,4.627 63.06,0 57.373,0 L 0,0 z"
             style="fill:#fce5cd;fill-opacity:1;fill-rule:nonzero;stroke:none"
             id="path3333" /></g><g
           id="g3335"
           transform="translate(319.0771,310.0771)"><path
             d="m 0,0 -57.373,0 c -6.222,0 -11.314,-5.091 -11.314,-11.313 l 0,-39.374 c 0,-6.222 5.092,-11.313 11.314,-11.313 L 0,-62 c 6.222,0 11.313,5.091 11.313,11.313 l 0,39.374 C 11.313,-5.091 6.222,0 0,0 m 0,-2 c 5.135,0 9.313,-4.178 9.313,-9.313 l 0,-39.374 C 9.313,-55.822 5.135,-60 0,-60 l -57.373,0 c -5.135,0 -9.314,4.178 -9.314,9.313 l 0,39.374 c 0,5.135 4.179,9.313 9.314,9.313 L 0,-2"
             style="fill:#000000;fill-opacity:1;fill-rule:nonzero;stroke:none"
             id="path3337" /></g></g></g><text
       transform="matrix(1,0,0,-1,262.291,282.3604)"
       id="text3339"><tspan
         style="fill:#000000;fill-opacity:1;fill-rule:nonzero;stroke:none;font-family:PT Sans Narrow;font-variant:normal;font-weight:normal;font-stretch:semi-condensed;font-size:20;writing-mode:lr;-inkscape-font-specification:PTSans-Narrow"
         x="0 7.76 12.42 20.42 29.2 38.2 47.2"
         y="0"
         sodipodi:role="line"
         id="tspan3341">vlan103</tspan></text>
<g
       id="g3343"><g
         id="g3345"
         clip-path="url(#clipPath3347)"><g
           id="g3351"
           transform="translate(50.8799,249.0771)"><path
             d="m 0,0 c -5.784,0 -10.489,4.705 -10.489,10.489 l 0,39.022 C -10.489,55.294 -5.784,60 0,60 l 87.021,0 c 5.784,0 10.49,-4.706 10.49,-10.489 l 0,-39.022 C 97.511,4.705 92.805,0 87.021,0 L 0,0 z"
             style="fill:#fce5cd;fill-opacity:1;fill-rule:nonzero;stroke:none"
             id="path3353" /></g><g
           id="g3355"
           transform="translate(137.9014,310.0771)"><path
             d="m 0,0 -87.021,0 c -6.32,0 -11.49,-5.17 -11.49,-11.489 l 0,-39.022 c 0,-6.319 5.17,-11.489 11.49,-11.489 L 0,-62 c 6.319,0 11.489,5.17 11.489,11.489 l 0,39.022 C 11.489,-5.17 6.319,0 0,0 m 0,-2 c 5.232,0 9.489,-4.257 9.489,-9.489 l 0,-39.022 C 9.489,-55.743 5.232,-60 0,-60 l -87.021,0 c -5.233,0 -9.49,4.257 -9.49,9.489 l 0,39.022 c 0,5.232 4.257,9.489 9.49,9.489 L 0,-2"
             style="fill:#000000;fill-opacity:1;fill-rule:nonzero;stroke:none"
             id="path3357" /></g></g></g><text
       transform="matrix(1,0,0,-1,63.3311,282.3604)"
       id="text3359"><tspan
         style="fill:#000000;fill-opacity:1;fill-rule:nonzero;stroke:none;font-family:PT Sans Narrow;font-variant:normal;font-weight:normal;font-stretch:semi-condensed;font-size:20;writing-mode:lr;-inkscape-font-specification:PTSans-Narrow"
         x="0 8.26 13.76 22.56 31.56 35.12 44.12 53.12"
         y="0"
         sodipodi:role="line"
         id="tspan3361">eth0.101</tspan><tspan
         style="fill:#000000;fill-opacity:1;fill-rule:nonzero;stroke:none;font-family:PT Sans Narrow;font-variant:normal;font-weight:normal;font-stretch:semi-condensed;font-size:20;writing-mode:lr;-inkscape-font-specification:PTSans-Narrow"
         x="-13.92 -1.18 6.82 15.6 23.6 32.24 40.5 53.52 61.78 70.56"
         y="24"
         sodipodi:role="line"
         id="tspan3363">Management</tspan></text>
<g
       id="g3365"><g
         id="g3367"
         clip-path="url(#clipPath3369)"><g
           id="g3373"
           transform="translate(280.3906,470.0771)"><path
             d="m 0,0 c -6.065,0 -11,4.935 -11,11 l 0,16 c 0,6.065 4.935,11 11,11 l 176,0 c 6.065,0 11,-4.935 11,-11 l 0,-16 C 187,4.935 182.065,0 176,0 L 0,0 z"
             style="fill:#fce5cd;fill-opacity:1;fill-rule:nonzero;stroke:none"
             id="path3375" /></g><g
           id="g3377"
           transform="translate(456.3906,509.0771)"><path
             d="m 0,0 -176,0 c -6.6,0 -12,-5.4 -12,-12 l 0,-16 c 0,-6.6 5.4,-12 12,-12 l 176,0 c 6.6,0 12,5.4 12,12 l 0,16 C 12,-5.4 6.6,0 0,0 m 0,-2 c 5.514,0 10,-4.486 10,-10 l 0,-16 C 10,-33.514 5.514,-38 0,-38 l -176,0 c -5.514,0 -10,4.486 -10,10 l 0,16 c 0,5.514 4.486,10 10,10 L 0,-2"
             style="fill:#000000;fill-opacity:1;fill-rule:nonzero;stroke:none"
             id="path3379" /></g></g></g><text
       transform="matrix(1,0,0,-1,335.541,482.0771)"
       id="text3381"><tspan
         style="fill:#000000;fill-opacity:1;fill-rule:nonzero;stroke:none;font-family:PT Sans Narrow;font-variant:normal;font-weight:normal;font-stretch:semi-condensed;font-size:20;writing-mode:lr;-inkscape-font-specification:PTSans-Narrow"
         x="0 8.3 17.3 21.54 28.3 40.1 44.44 49.78 56.9"
         y="0"
         sodipodi:role="line"
         id="tspan3383">L2 switch</tspan></text>
<g
       id="g3385"><g
         id="g3387"
         clip-path="url(#clipPath3389)"><g
           id="g3393"
           transform="translate(640.3906,70.0771)"><path
             d="m 0,0 c -6.065,0 -11,4.935 -11,11 l 0,16 c 0,6.065 4.935,11 11,11 l 36,0 c 6.065,0 11,-4.935 11,-11 L 47,11 C 47,4.935 42.065,0 36,0 L 0,0 z"
             style="fill:#fce5cd;fill-opacity:1;fill-rule:nonzero;stroke:none"
             id="path3395" /></g><g
           id="g3397"
           transform="translate(676.3906,109.0771)"><path
             d="m 0,0 -36,0 c -6.6,0 -12,-5.4 -12,-12 l 0,-16 c 0,-6.6 5.4,-12 12,-12 l 36,0 c 6.6,0 12,5.4 12,12 l 0,16 C 12,-5.4 6.6,0 0,0 m 0,-2 c 5.514,0 10,-4.486 10,-10 l 0,-16 C 10,-33.514 5.514,-38 0,-38 l -36,0 c -5.514,0 -10,4.486 -10,10 l 0,16 c 0,5.514 4.486,10 10,10 l 36,0"
             style="fill:#000000;fill-opacity:1;fill-rule:nonzero;stroke:none"
             id="path3399" /></g></g></g><text
       transform="matrix(1,0,0,-1,643.501,82.0771)"
       id="text3401"><tspan
         style="fill:#000000;fill-opacity:1;fill-rule:nonzero;stroke:none;font-family:PT Sans Narrow;font-variant:normal;font-weight:normal;font-stretch:semi-condensed;font-size:20;writing-mode:lr;-inkscape-font-specification:PTSans-Narrow"
         x="0 7.76 20.78"
         y="0"
         sodipodi:role="line"
         id="tspan3403">vm3</tspan></text>
<g
       id="g3405"><g
         id="g3407"
         clip-path="url(#clipPath3409)"><g
           id="g3413"
           transform="translate(570.3906,70.0771)"><path
             d="m 0,0 c -6.065,0 -11,4.935 -11,11 l 0,16 c 0,6.065 4.935,11 11,11 l 36,0 c 6.065,0 11,-4.935 11,-11 L 47,11 C 47,4.935 42.065,0 36,0 L 0,0 z"
             style="fill:#fce5cd;fill-opacity:1;fill-rule:nonzero;stroke:none"
             id="path3415" /></g><g
           id="g3417"
           transform="translate(606.3906,109.0771)"><path
             d="m 0,0 -36,0 c -6.6,0 -12,-5.4 -12,-12 l 0,-16 c 0,-6.6 5.4,-12 12,-12 l 36,0 c 6.6,0 12,5.4 12,12 l 0,16 C 12,-5.4 6.6,0 0,0 m 0,-2 c 5.514,0 10,-4.486 10,-10 l 0,-16 C 10,-33.514 5.514,-38 0,-38 l -36,0 c -5.514,0 -10,4.486 -10,10 l 0,16 c 0,5.514 4.486,10 10,10 l 36,0"
             style="fill:#000000;fill-opacity:1;fill-rule:nonzero;stroke:none"
             id="path3419" /></g></g></g><text
       transform="matrix(1,0,0,-1,573.501,82.0771)"
       id="text3421"><tspan
         style="fill:#000000;fill-opacity:1;fill-rule:nonzero;stroke:none;font-family:PT Sans Narrow;font-variant:normal;font-weight:normal;font-stretch:semi-condensed;font-size:20;writing-mode:lr;-inkscape-font-specification:PTSans-Narrow"
         x="0 7.76 20.78"
         y="0"
         sodipodi:role="line"
         id="tspan3423">vm2</tspan></text>
<g
       id="g3425"><g
         id="g3427"
         clip-path="url(#clipPath3429)"><g
           id="g3433"
           transform="translate(500.3906,70.0771)"><path
             d="m 0,0 c -6.065,0 -11,4.935 -11,11 l 0,16 c 0,6.065 4.935,11 11,11 l 36,0 c 6.065,0 11,-4.935 11,-11 L 47,11 C 47,4.935 42.065,0 36,0 L 0,0 z"
             style="fill:#fce5cd;fill-opacity:1;fill-rule:nonzero;stroke:none"
             id="path3435" /></g><g
           id="g3437"
           transform="translate(536.3906,109.0771)"><path
             d="m 0,0 -36,0 c -6.6,0 -12,-5.4 -12,-12 l 0,-16 c 0,-6.6 5.4,-12 12,-12 l 36,0 c 6.6,0 12,5.4 12,12 l 0,16 C 12,-5.4 6.6,0 0,0 m 0,-2 c 5.514,0 10,-4.486 10,-10 l 0,-16 C 10,-33.514 5.514,-38 0,-38 l -36,0 c -5.514,0 -10,4.486 -10,10 l 0,16 c 0,5.514 4.486,10 10,10 l 36,0"
             style="fill:#000000;fill-opacity:1;fill-rule:nonzero;stroke:none"
             id="path3439" /></g></g></g><text
       transform="matrix(1,0,0,-1,503.501,82.0771)"
       id="text3441"><tspan
         style="fill:#000000;fill-opacity:1;fill-rule:nonzero;stroke:none;font-family:PT Sans Narrow;font-variant:normal;font-weight:normal;font-stretch:semi-condensed;font-size:20;writing-mode:lr;-inkscape-font-specification:PTSans-Narrow"
         x="0 7.76 20.78"
         y="0"
         sodipodi:role="line"
         id="tspan3443">vm1</tspan></text>
<g
       id="g3445"><g
         id="g3447"
         clip-path="url(#clipPath3449)"><g
           id="g3453"
           transform="translate(430.3906,70.0771)"><path
             d="m 0,0 c -6.065,0 -11,4.935 -11,11 l 0,16 c 0,6.065 4.935,11 11,11 l 36,0 c 6.065,0 11,-4.935 11,-11 L 47,11 C 47,4.935 42.065,0 36,0 L 0,0 z"
             style="fill:#fce5cd;fill-opacity:1;fill-rule:nonzero;stroke:none"
             id="path3455" /></g><g
           id="g3457"
           transform="translate(466.3906,109.0771)"><path
             d="m 0,0 -36,0 c -6.6,0 -12,-5.4 -12,-12 l 0,-16 c 0,-6.6 5.4,-12 12,-12 l 36,0 c 6.6,0 12,5.4 12,12 l 0,16 C 12,-5.4 6.6,0 0,0 m 0,-2 c 5.514,0 10,-4.486 10,-10 l 0,-16 C 10,-33.514 5.514,-38 0,-38 l -36,0 c -5.514,0 -10,4.486 -10,10 l 0,16 c 0,5.514 4.486,10 10,10 l 36,0"
             style="fill:#000000;fill-opacity:1;fill-rule:nonzero;stroke:none"
             id="path3459" /></g></g></g><text
       transform="matrix(1,0,0,-1,433.501,82.0771)"
       id="text3461"><tspan
         style="fill:#000000;fill-opacity:1;fill-rule:nonzero;stroke:none;font-family:PT Sans Narrow;font-variant:normal;font-weight:normal;font-stretch:semi-condensed;font-size:20;writing-mode:lr;-inkscape-font-specification:PTSans-Narrow"
         x="0 7.76 20.78"
         y="0"
         sodipodi:role="line"
         id="tspan3463">vm0</tspan></text>
<g
       id="g3465"><g
         id="g3467"
         clip-path="url(#clipPath3469)"><g
           id="g3473"
           transform="translate(193.7241,264.4102)"><path
             d="M 0,0 -58.333,-58.333"
             style="fill:none;stroke:#be1e2d;stroke-opacity:1;stroke-width:3;stroke-linecap:butt;stroke-linejoin:miter;stroke-miterlimit:10;stroke-dasharray:none"
             id="path3475" /></g><g
           id="g3477"
           transform="translate(100.3906,180.0771)"><path
             d="m 0,0 c -6.065,0 -11,4.935 -11,11 l 0,16 c 0,6.065 4.935,11 11,11 l 66,0 c 6.065,0 11,-4.935 11,-11 L 77,11 C 77,4.935 72.065,0 66,0 L 0,0 z"
             style="fill:#fce5cd;fill-opacity:1;fill-rule:nonzero;stroke:none"
             id="path3479" /></g><g
           id="g3481"
           transform="translate(166.3906,219.0771)"><path
             d="m 0,0 -66,0 c -6.6,0 -12,-5.4 -12,-12 l 0,-16 c 0,-6.6 5.4,-12 12,-12 l 66,0 c 6.6,0 12,5.4 12,12 l 0,16 C 12,-5.4 6.6,0 0,0 m 0,-2 c 5.514,0 10,-4.486 10,-10 l 0,-16 C 10,-33.514 5.514,-38 0,-38 l -66,0 c -5.514,0 -10,4.486 -10,10 l 0,16 c 0,5.514 4.486,10 10,10 l 66,0"
             style="fill:#000000;fill-opacity:1;fill-rule:nonzero;stroke:none"
             id="path3483" /></g></g></g><text
       transform="matrix(1,0,0,-1,112.811,192.0771)"
       id="text3485"><tspan
         style="fill:#000000;fill-opacity:1;fill-rule:nonzero;stroke:none;font-family:PT Sans Narrow;font-variant:normal;font-weight:normal;font-stretch:semi-condensed;font-size:20;writing-mode:lr;-inkscape-font-specification:PTSans-Narrow"
         x="0 8.68 14.16 23.16 32.16"
         y="0"
         sodipodi:role="line"
         id="tspan3487">br102</tspan></text>
<g
       id="g3489"><g
         id="g3491"
         clip-path="url(#clipPath3493)"><g
           id="g3497"
           transform="translate(256.3901,349.0752)"><path
             d="M 0,0 -65,-65"
             style="fill:none;stroke:#be1e2d;stroke-opacity:1;stroke-width:3;stroke-linecap:butt;stroke-linejoin:miter;stroke-miterlimit:10;stroke-dasharray:none"
             id="path3499" /></g><g
           id="g3501"
           transform="translate(240.3906,340.0771)"><path
             d="m 0,0 c -6.065,0 -11,4.935 -11,11 l 0,16 c 0,6.065 4.935,11 11,11 l 66,0 c 6.065,0 11,-4.935 11,-11 L 77,11 C 77,4.935 72.065,0 66,0 L 0,0 z"
             style="fill:#fce5cd;fill-opacity:1;fill-rule:nonzero;stroke:none"
             id="path3503" /></g><g
           id="g3505"
           transform="translate(306.3906,379.0771)"><path
             d="m 0,0 -66,0 c -6.6,0 -12,-5.4 -12,-12 l 0,-16 c 0,-6.6 5.4,-12 12,-12 l 66,0 c 6.6,0 12,5.4 12,12 l 0,16 C 12,-5.4 6.6,0 0,0 m 0,-2 c 5.514,0 10,-4.486 10,-10 l 0,-16 C 10,-33.514 5.514,-38 0,-38 l -66,0 c -5.514,0 -10,4.486 -10,10 l 0,16 c 0,5.514 4.486,10 10,10 l 66,0"
             style="fill:#000000;fill-opacity:1;fill-rule:nonzero;stroke:none"
             id="path3507" /></g></g></g><text
       transform="matrix(1,0,0,-1,257.6108,352.0771)"
       id="text3509"><tspan
         style="fill:#000000;fill-opacity:1;fill-rule:nonzero;stroke:none;font-family:PT Sans Narrow;font-variant:normal;font-weight:normal;font-stretch:semi-condensed;font-size:20;writing-mode:lr;-inkscape-font-specification:PTSans-Narrow"
         x="0 8.26 13.76 22.56"
         y="0"
         sodipodi:role="line"
         id="tspan3511">eth0</tspan></text>
<g
       id="g3513"><g
         id="g3515"
         clip-path="url(#clipPath3517)"><g
           id="g3521"
           transform="translate(169.7041,249.0771)"><path
             d="m 0,0 c -5.687,0 -10.313,4.627 -10.313,10.313 l 0,39.374 C -10.313,55.374 -5.687,60 0,60 l 57.373,0 c 5.687,0 10.314,-4.626 10.314,-10.313 l 0,-39.374 C 67.687,4.627 63.06,0 57.373,0 L 0,0 z"
             style="fill:#fce5cd;fill-opacity:1;fill-rule:nonzero;stroke:none"
             id="path3523" /></g><g
           id="g3525"
           transform="translate(227.0771,310.0771)"><path
             d="m 0,0 -57.373,0 c -6.222,0 -11.314,-5.091 -11.314,-11.313 l 0,-39.374 c 0,-6.222 5.092,-11.313 11.314,-11.313 L 0,-62 c 6.222,0 11.313,5.091 11.313,11.313 l 0,39.374 C 11.313,-5.091 6.222,0 0,0 m 0,-2 c 5.135,0 9.313,-4.178 9.313,-9.313 l 0,-39.374 C 9.313,-55.822 5.135,-60 0,-60 l -57.373,0 c -5.135,0 -9.314,4.178 -9.314,9.313 l 0,39.374 c 0,5.135 4.179,9.313 9.314,9.313 L 0,-2"
             style="fill:#000000;fill-opacity:1;fill-rule:nonzero;stroke:none"
             id="path3527" /></g></g></g><text
       transform="matrix(1,0,0,-1,170.291,282.3604)"
       id="text3529"><tspan
         style="fill:#000000;fill-opacity:1;fill-rule:nonzero;stroke:none;font-family:PT Sans Narrow;font-variant:normal;font-weight:normal;font-stretch:semi-condensed;font-size:20;writing-mode:lr;-inkscape-font-specification:PTSans-Narrow"
         x="0 7.76 12.42 20.42 29.2 38.2 47.2"
         y="0"
         sodipodi:role="line"
         id="tspan3531">vlan102</tspan></text>
<g
       id="g3533"><g
         id="g3535"
         clip-path="url(#clipPath3537)"><g
           id="g3541"
           transform="translate(463.0566,350.4102)"><path
             d="M 0,0 0,-71.333"
             style="fill:none;stroke:#be1e2d;stroke-opacity:1;stroke-width:3;stroke-linecap:butt;stroke-linejoin:miter;stroke-miterlimit:10;stroke-dasharray:none"
             id="path3543" /></g><g
           id="g3545"
           transform="translate(500.3906,359.0762)"><path
             d="M 0,0 178.666,-60.666"
             style="fill:none;stroke:#be1e2d;stroke-opacity:1;stroke-width:3;stroke-linecap:butt;stroke-linejoin:miter;stroke-miterlimit:10;stroke-dasharray:none"
             id="path3547" /></g><g
           id="g3549"
           transform="translate(653.7227,262.4092)"><path
             d="M 0,0 0,-60"
             style="fill:none;stroke:#be1e2d;stroke-opacity:1;stroke-width:3;stroke-linecap:butt;stroke-linejoin:miter;stroke-miterlimit:10;stroke-dasharray:none"
             id="path3551" /></g><g
           id="g3553"
           transform="translate(564.3887,265.7422)"><path
             d="M 0,0 -50.998,-66.665"
             style="fill:none;stroke:#be1e2d;stroke-opacity:1;stroke-width:3;stroke-linecap:butt;stroke-linejoin:miter;stroke-miterlimit:10;stroke-dasharray:none"
             id="path3555" /></g><g
           id="g3557"
           transform="translate(430.3906,340.0771)"><path
             d="m 0,0 c -6.065,0 -11,4.935 -11,11 l 0,16 c 0,6.065 4.935,11 11,11 l 66,0 c 6.065,0 11,-4.935 11,-11 L 77,11 C 77,4.935 72.065,0 66,0 L 0,0 z"
             style="fill:#fce5cd;fill-opacity:1;fill-rule:nonzero;stroke:none"
             id="path3559" /></g><g
           id="g3561"
           transform="translate(496.3906,379.0771)"><path
             d="m 0,0 -66,0 c -6.6,0 -12,-5.4 -12,-12 l 0,-16 c 0,-6.6 5.4,-12 12,-12 l 66,0 c 6.6,0 12,5.4 12,12 l 0,16 C 12,-5.4 6.6,0 0,0 m 0,-2 c 5.514,0 10,-4.486 10,-10 l 0,-16 C 10,-33.514 5.514,-38 0,-38 l -66,0 c -5.514,0 -10,4.486 -10,10 l 0,16 c 0,5.514 4.486,10 10,10 l 66,0"
             style="fill:#000000;fill-opacity:1;fill-rule:nonzero;stroke:none"
             id="path3563" /></g></g></g><text
       transform="matrix(1,0,0,-1,447.6108,352.0771)"
       id="text3565"><tspan
         style="fill:#000000;fill-opacity:1;fill-rule:nonzero;stroke:none;font-family:PT Sans Narrow;font-variant:normal;font-weight:normal;font-stretch:semi-condensed;font-size:20;writing-mode:lr;-inkscape-font-specification:PTSans-Narrow"
         x="0 8.26 13.76 22.56"
         y="0"
         sodipodi:role="line"
         id="tspan3567">eth0</tspan></text>
<g
       id="g3569"><g
         id="g3571"
         clip-path="url(#clipPath3573)"><g
           id="g3577"
           transform="translate(610.3906,180.0771)"><path
             d="m 0,0 c -6.065,0 -11,4.935 -11,11 l 0,16 c 0,6.065 4.935,11 11,11 l 66,0 c 6.065,0 11,-4.935 11,-11 L 77,11 C 77,4.935 72.065,0 66,0 L 0,0 z"
             style="fill:#fce5cd;fill-opacity:1;fill-rule:nonzero;stroke:none"
             id="path3579" /></g><g
           id="g3581"
           transform="translate(676.3906,219.0771)"><path
             d="m 0,0 -66,0 c -6.6,0 -12,-5.4 -12,-12 l 0,-16 c 0,-6.6 5.4,-12 12,-12 l 66,0 c 6.6,0 12,5.4 12,12 l 0,16 C 12,-5.4 6.6,0 0,0 m 0,-2 c 5.514,0 10,-4.486 10,-10 l 0,-16 C 10,-33.514 5.514,-38 0,-38 l -66,0 c -5.514,0 -10,4.486 -10,10 l 0,16 c 0,5.514 4.486,10 10,10 l 66,0"
             style="fill:#000000;fill-opacity:1;fill-rule:nonzero;stroke:none"
             id="path3583" /></g></g></g><text
       transform="matrix(1,0,0,-1,622.811,192.0771)"
       id="text3585"><tspan
         style="fill:#000000;fill-opacity:1;fill-rule:nonzero;stroke:none;font-family:PT Sans Narrow;font-variant:normal;font-weight:normal;font-stretch:semi-condensed;font-size:20;writing-mode:lr;-inkscape-font-specification:PTSans-Narrow"
         x="0 8.68 14.16 23.16 32.16"
         y="0"
         sodipodi:role="line"
         id="tspan3587">br103</tspan></text>
<g
       id="g3589"><g
         id="g3591"
         clip-path="url(#clipPath3593)"><g
           id="g3597"
           transform="translate(480.3906,180.0771)"><path
             d="m 0,0 c -6.065,0 -11,4.935 -11,11 l 0,16 c 0,6.065 4.935,11 11,11 l 66,0 c 6.065,0 11,-4.935 11,-11 L 77,11 C 77,4.935 72.065,0 66,0 L 0,0 z"
             style="fill:#fce5cd;fill-opacity:1;fill-rule:nonzero;stroke:none"
             id="path3599" /></g><g
           id="g3601"
           transform="translate(546.3906,219.0771)"><path
             d="m 0,0 -66,0 c -6.6,0 -12,-5.4 -12,-12 l 0,-16 c 0,-6.6 5.4,-12 12,-12 l 66,0 c 6.6,0 12,5.4 12,12 l 0,16 C 12,-5.4 6.6,0 0,0 m 0,-2 c 5.514,0 10,-4.486 10,-10 l 0,-16 C 10,-33.514 5.514,-38 0,-38 l -66,0 c -5.514,0 -10,4.486 -10,10 l 0,16 c 0,5.514 4.486,10 10,10 l 66,0"
             style="fill:#000000;fill-opacity:1;fill-rule:nonzero;stroke:none"
             id="path3603" /></g></g></g><text
       transform="matrix(1,0,0,-1,492.811,192.0771)"
       id="text3605"><tspan
         style="fill:#000000;fill-opacity:1;fill-rule:nonzero;stroke:none;font-family:PT Sans Narrow;font-variant:normal;font-weight:normal;font-stretch:semi-condensed;font-size:20;writing-mode:lr;-inkscape-font-specification:PTSans-Narrow"
         x="0 8.68 14.16 23.16 32.16"
         y="0"
         sodipodi:role="line"
         id="tspan3607">br102</tspan></text>
<g
       id="g3609"><g
         id="g3611"
         clip-path="url(#clipPath3613)"><g
           id="g3617"
           transform="translate(630.7041,249.0771)"><path
             d="m 0,0 c -5.687,0 -10.313,4.627 -10.313,10.313 l 0,39.374 C -10.313,55.374 -5.687,60 0,60 l 57.373,0 c 5.687,0 10.314,-4.626 10.314,-10.313 l 0,-39.374 C 67.687,4.627 63.06,0 57.373,0 L 0,0 z"
             style="fill:#fce5cd;fill-opacity:1;fill-rule:nonzero;stroke:none"
             id="path3619" /></g><g
           id="g3621"
           transform="translate(688.0771,310.0771)"><path
             d="m 0,0 -57.373,0 c -6.223,0 -11.314,-5.091 -11.314,-11.313 l 0,-39.374 c 0,-6.222 5.091,-11.313 11.314,-11.313 L 0,-62 c 6.223,0 11.313,5.091 11.313,11.313 l 0,39.374 C 11.313,-5.091 6.223,0 0,0 m 0,-2 c 5.136,0 9.313,-4.178 9.313,-9.313 l 0,-39.374 C 9.313,-55.822 5.136,-60 0,-60 l -57.373,0 c -5.136,0 -9.314,4.178 -9.314,9.313 l 0,39.374 c 0,5.135 4.178,9.313 9.314,9.313 L 0,-2"
             style="fill:#000000;fill-opacity:1;fill-rule:nonzero;stroke:none"
             id="path3623" /></g></g></g><text
       transform="matrix(1,0,0,-1,631.291,282.3604)"
       id="text3625"><tspan
         style="fill:#000000;fill-opacity:1;fill-rule:nonzero;stroke:none;font-family:PT Sans Narrow;font-variant:normal;font-weight:normal;font-stretch:semi-condensed;font-size:20;writing-mode:lr;-inkscape-font-specification:PTSans-Narrow"
         x="0 7.76 12.42 20.42 29.2 38.2 47.2"
         y="0"
         sodipodi:role="line"
         id="tspan3627">vlan103</tspan></text>
<g
       id="g3629"><g
         id="g3631"
         clip-path="url(#clipPath3633)"><g
           id="g3637"
           transform="translate(419.8799,249.0771)"><path
             d="m 0,0 c -5.784,0 -10.489,4.705 -10.489,10.489 l 0,39.022 C -10.489,55.294 -5.784,60 0,60 l 87.021,0 c 5.785,0 10.49,-4.706 10.49,-10.489 l 0,-39.022 C 97.511,4.705 92.806,0 87.021,0 L 0,0 z"
             style="fill:#fce5cd;fill-opacity:1;fill-rule:nonzero;stroke:none"
             id="path3639" /></g><g
           id="g3641"
           transform="translate(506.9014,310.0771)"><path
             d="m 0,0 -87.021,0 c -6.32,0 -11.49,-5.17 -11.49,-11.489 l 0,-39.022 c 0,-6.319 5.17,-11.489 11.49,-11.489 L 0,-62 c 6.319,0 11.489,5.17 11.489,11.489 l 0,39.022 C 11.489,-5.17 6.319,0 0,0 m 0,-2 c 5.232,0 9.489,-4.257 9.489,-9.489 l 0,-39.022 C 9.489,-55.743 5.232,-60 0,-60 l -87.021,0 c -5.233,0 -9.49,4.257 -9.49,9.489 l 0,39.022 c 0,5.232 4.257,9.489 9.49,9.489 L 0,-2"
             style="fill:#000000;fill-opacity:1;fill-rule:nonzero;stroke:none"
             id="path3643" /></g></g></g><text
       transform="matrix(1,0,0,-1,432.3311,282.3604)"
       id="text3645"><tspan
         style="fill:#000000;fill-opacity:1;fill-rule:nonzero;stroke:none;font-family:PT Sans Narrow;font-variant:normal;font-weight:normal;font-stretch:semi-condensed;font-size:20;writing-mode:lr;-inkscape-font-specification:PTSans-Narrow"
         x="0 8.26 13.76 22.56 31.56 35.12 44.12 53.12"
         y="0"
         sodipodi:role="line"
         id="tspan3647">eth0.101</tspan><tspan
         style="fill:#000000;fill-opacity:1;fill-rule:nonzero;stroke:none;font-family:PT Sans Narrow;font-variant:normal;font-weight:normal;font-stretch:semi-condensed;font-size:20;writing-mode:lr;-inkscape-font-specification:PTSans-Narrow"
         x="-13.92 -1.18 6.82 15.6 23.6 32.24 40.5 53.52 61.78 70.56"
         y="24"
         sodipodi:role="line"
         id="tspan3649">Management</tspan></text>
<g
       id="g3651"><g
         id="g3653"
         clip-path="url(#clipPath3655)"><g
           id="g3659"
           transform="translate(538.7041,249.0771)"><path
             d="m 0,0 c -5.687,0 -10.313,4.627 -10.313,10.313 l 0,39.374 C -10.313,55.374 -5.687,60 0,60 l 57.373,0 c 5.687,0 10.314,-4.626 10.314,-10.313 l 0,-39.374 C 67.687,4.627 63.06,0 57.373,0 L 0,0 z"
             style="fill:#fce5cd;fill-opacity:1;fill-rule:nonzero;stroke:none"
             id="path3661" /></g><g
           id="g3663"
           transform="translate(596.0771,310.0771)"><path
             d="m 0,0 -57.373,0 c -6.223,0 -11.314,-5.091 -11.314,-11.313 l 0,-39.374 c 0,-6.222 5.091,-11.313 11.314,-11.313 L 0,-62 c 6.223,0 11.313,5.091 11.313,11.313 l 0,39.374 C 11.313,-5.091 6.223,0 0,0 m 0,-2 c 5.136,0 9.313,-4.178 9.313,-9.313 l 0,-39.374 C 9.313,-55.822 5.136,-60 0,-60 l -57.373,0 c -5.136,0 -9.314,4.178 -9.314,9.313 l 0,39.374 c 0,5.135 4.178,9.313 9.314,9.313 L 0,-2"
             style="fill:#000000;fill-opacity:1;fill-rule:nonzero;stroke:none"
             id="path3665" /></g></g></g><text
       transform="matrix(1,0,0,-1,539.291,282.3604)"
       id="text3667"><tspan
         style="fill:#000000;fill-opacity:1;fill-rule:nonzero;stroke:none;font-family:PT Sans Narrow;font-variant:normal;font-weight:normal;font-stretch:semi-condensed;font-size:20;writing-mode:lr;-inkscape-font-specification:PTSans-Narrow"
         x="0 7.76 12.42 20.42 29.2 38.2 47.2"
         y="0"
         sodipodi:role="line"
         id="tspan3669">vlan102</tspan></text>
</g></svg>